<svg viewBox="0 0 800 800" xmlns="http://www.w3.org/2000/svg"><path d="M270.22657497300713,313.1982728957063 L263.0568812898043,307.73579879514523 M160.40787085165945,396.7099335623168 L153.23819284142974,391.23873227377345 M270.22657497300713,313.1982728957063 L263.2360811249828,307.53240794430866 M263.2360811249828,307.53240794430866 L253.68174759018652,305.57608817989967 M253.68174759018652,305.57608817989967 L242.0738566552809,307.4361919129579 M242.0738566552809,307.4361919129579 L229.03339657536515,313.01501777042665 M229.03339657536515,313.01501777042665 L215.25885634177303,322.01513517643076 M215.25885634177303,322.01513517643076 L201.48872241970528,333.955063135109 M201.48872241970528,333.955063135109 L188.461679828792,348.194995068042 M188.461679828792,348.194995068042 L176.87671042002253,363.97121568854345 M176.87671042002253,363.97121568854345 L167.35530631007836,380.437310877492 M167.35530631007836,380.437310877492 L160.40787085165945,396.7099335623168 M263.0568812898043,307.73579879514523 L256.06534928894354,302.06916064996193 M256.06534928894354,302.06916064996193 L246.51014454420115,300.11189899196097 M246.51014454420115,300.11189899196097 L234.9015961523653,301.97094237055956 M234.9015961523653,301.97094237055956 L221.86072772401707,307.54864607776324 M221.86072772401707,307.54864607776324 L208.0860502227712,316.54763961200297 M208.0860502227712,316.54763961200297 L194.3160575022854,328.4865022422814 M194.3160575022854,328.4865022422814 L181.289426982044,342.7254845953449 M181.289426982044,342.7254845953449 L169.7051183406005,358.50092242803845 M169.7051183406005,358.50092242803845 L160.1845881614245,374.9664437241084 M160.1845881614245,374.9664437241084 L153.23819284142974,391.23873227377345 M287.1947968567035,300.2947843742867 L280.02510156892663,294.8336581009013 M287.1947968567035,300.2947843742867 L270.22657497300713,313.1982728957063 M280.02510156892663,294.8336581009013 L263.0568812898043,307.73579879514523 M143.40834221600403,409.6372293109944 L136.23866745067835,404.16467646349565 M160.40787085165945,396.7099335623168 L143.40834221600403,409.6372293109944 M153.23819284142974,391.23873227377345 L136.23866745067835,404.16467646349565 M286.99873402400124,168.40692895591408 L287.1947968567035,300.2947843742867 M272.6085318882161,179.3361441439482 L286.99873402400124,168.40692895591408 M272.6528212520361,205.74945597623412 L272.6085318882161,179.3361441439482 M265.4591025230576,211.21439711527708 L272.6528212520361,205.74945597623412 M265.4591025230576,211.21439711527708 L265.41230131738257,184.80160958419867 M157.37839734304146,266.85228357735986 L265.41230131738257,184.80160958419867 M157.46293930105466,293.25717602922737 L157.37839734304146,266.85228357735986 M150.2571642377469,298.7312761526488 L157.46293930105466,293.25717602922737 M150.2571642377469,298.7312761526488 L150.1701020156579,272.3269120800385 M142.9610516338003,277.8021140390694 L150.1701020156579,272.3269120800385 M143.40834221600403,409.6372293109944 L142.9610516338003,277.8021140390694 M263.17205666568185,274.5940182289422 L263.30941970250944,273.43673510829257 M263.30941970250944,273.43673510829257 L263.71731860441577,272.1349786010539 M263.71731860441577,272.1349786010539 L264.3720583397365,270.76440477676806 M264.3720583397365,270.76440477676806 L265.2355781498404,269.4046884599759 M265.2355781498404,269.4046884599759 L266.25769098850645,268.13485526714646 M266.25769098850645,268.13485526714646 L267.3789793166336,267.02872800184923 M267.3789793166336,267.02872800184923 L268.53426907461323,266.1505936521269 M268.53426907461323,266.1505936521269 L269.65640253737337,265.55149245071505 M269.65640253737337,265.55149245071505 L270.68016287492986,265.2662366231847 M270.68016287492986,265.2662366231847 L271.5460479939315,265.3113882631472 M271.5460479939315,265.3113882631472 L272.20374694135376,265.6843113291732 M272.20374694135376,265.6843113291732 L272.61503971382507,266.363320297214 M272.61503971382507,266.363320297214 L272.75604307766423,267.30893737439135 M272.75604307766423,267.30893737439135 L272.61856966604375,268.46620389406763 M272.61856966604375,268.46620389406763 L272.2106238239543,269.7678600777688 M272.2106238239543,269.7678600777688 L271.55591133744804,271.13827283824173 M271.55591133744804,271.13827283824173 L270.69248672173495,272.4978042499023 M270.69248672173495,272.4978042499023 L269.67051521559586,273.7674710540716 M269.67051521559586,273.7674710540716 L268.5493819804239,274.8734885663325 M268.5493819804239,274.8734885663325 L267.3942255462963,275.75159494097846 M267.3942255462963,275.75159494097846 L266.27217309489185,276.35075635413216 M266.27217309489185,276.35075635413216 L265.24842289765763,276.63614678707756 M265.24842289765763,276.63614678707756 L264.3824747252907,276.591173308159 M264.3824747252907,276.591173308159 L263.7246539749319,276.2184311460477 M263.7246539749319,276.2184311460477 L263.31320855406943,275.53956438081536 M263.31320855406943,275.53956438081536 L263.17205666568185,274.5940182289422 M244.00007583192624,289.1672265487277 L244.13720864866286,288.00997165400344 M244.13720864866286,288.00997165400344 L244.54497280133765,286.70817932659253 M244.54497280133765,286.70817932659253 L245.19967208517357,285.33751456519815 M245.19967208517357,285.33751456519815 L246.06325710364655,283.9776506334805 M246.06325710364655,283.9776506334805 L247.08553029487365,282.7076268408599 M247.08553029487365,282.7076268408599 L248.20706708349238,281.60127533510683 M248.20706708349238,281.60127533510683 L249.3626789649835,280.72289613969235 M249.3626789649835,280.72289613969235 L250.48518948585573,280.1235437210523 M250.48518948585573,280.1235437210523 L251.509359899374,279.83804490478803 M251.509359899374,279.83804490478803 L252.37566655922734,279.8829741692855 M252.37566655922734,279.8829741692855 L253.03376729294865,280.2557135034363 M253.03376729294865,280.2557135034363 L253.44542775602372,280.9345812105179 M253.44542775602372,280.9345812105179 L253.5867343435485,281.88011454960997 M253.5867343435485,281.88011454960997 L253.4494910800669,283.03735286999836 M253.4494910800669,283.03735286999836 L253.04167993355532,284.3390448767715 M253.04167993355532,284.3390448767715 L252.3870078740221,285.7095485537568 M252.3870078740221,285.7095485537568 L251.52351806170734,287.06922754011674 M251.52351806170734,287.06922754011674 L250.50138624720856,288.3390848940404 M250.50138624720856,288.3390848940404 L249.38000461846954,289.4453265981549 M249.38000461846954,289.4453265981549 L248.22452613514628,290.32367778245884 M248.22452613514628,290.32367778245884 L247.10209669031204,290.9230903976302 M247.10209669031204,290.9230903976302 L246.07793645734705,291.20872382840696 M246.07793645734705,291.20872382840696 L245.2115667506293,291.16397275641884 M245.2115667506293,291.16397275641884 L244.5533441854253,290.7914143724082 M244.5533441854253,290.7914143724082 L244.1415310164875,290.1126889191525 M244.1415310164875,290.1126889191525 L244.00007583192624,289.1672265487277 M224.82274912247416,303.744498431942 L224.95965501507396,302.5872692168882 M224.95965501507396,302.5872692168882 L225.3672808978142,301.28544370692265 M225.3672808978142,301.28544370692265 L226.02194196863215,299.91468627300935 M226.02194196863215,299.91468627300935 L226.88558991178888,298.55467643487583 M226.88558991178888,298.55467643487583 L227.90802236204559,297.2844628544968 M227.90802236204559,297.2844628544968 L229.029809992578,296.1778852883024 M229.029809992578,296.1778852883024 L230.1857418459166,295.299262882673 M230.1857418459166,295.299262882673 L231.30863187793528,294.6996573921207 M231.30863187793528,294.6996573921207 L232.3332114131504,294.4139163316189 M232.3332114131504,294.4139163316189 L233.19993752904722,294.45862483267103 M233.19993752904722,294.45862483267103 L233.85844253382,294.83117858018795 M233.85844253382,294.83117858018795 L234.27046744734014,295.50990752777113 M234.27046744734014,295.50990752777113 L234.41208085139942,296.4553544386878 M234.41208085139942,296.4553544386878 L234.27506444061498,297.6125671056947 M234.27506444061498,297.6125671056947 L233.8673915097849,298.91429229830896 M233.8673915097849,298.91429229830896 L233.21275763914926,300.28488862700056 M233.21275763914926,300.28488862700056 L232.34920491350195,301.6447134797562 M232.34920491350195,301.6447134797562 L231.32691388401463,302.91476057144837 M231.32691388401463,302.91476057144837 L230.2052814806563,304.0212282872624 M230.2052814806563,304.0212282872624 L229.04948309958417,304.89982264577577 M229.04948309958417,304.89982264577577 L227.92667420851103,305.49948831763277 M227.92667420851103,305.49948831763277 L226.90210489404475,305.7853640017197 M226.90210489404475,305.7853640017197 L226.03531573785938,305.7408337245034 M226.03531573785938,305.7408337245034 L225.37668887298582,305.3684609735142 M225.37668887298582,305.3684609735142 L224.96451119647003,304.6898743304675 M224.96451119647003,304.6898743304675 L224.82274912247416,303.744498431942 M205.64007430106432,318.3258355784358 L205.77675199406764,317.1686329716164 M205.77675199406764,317.1686329716164 L206.18424065743878,315.8667734419722 M206.18424065743878,315.8667734419722 L206.83886404024312,314.49592290253395 M206.83886404024312,314.49592290253395 L207.70257433782007,313.135767564095 M207.70257433782007,313.135767564095 L208.72516781150802,311.86536283566556 M208.72516781150802,311.86536283566556 L209.8472029496432,310.75856173356726 M209.8472029496432,310.75856173356726 L211.0034583389388,309.8796934086477 M211.0034583389388,309.8796934086477 L212.1267249055122,309.27983711856 M212.1267249055122,309.27983711856 L213.15171546603227,308.9938523860529 M213.15171546603227,308.9938523860529 L214.01886052359558,309.0383405419899 M214.01886052359558,309.0383405419899 L214.67777014225913,309.41070847621864 M214.67777014225913,309.41070847621864 L215.09016129246754,310.08929734509906 M215.09016129246754,310.08929734509906 L215.23208036557898,311.03465874100124 M215.23208036557898,311.03465874100124 L215.09529225243574,312.1918446972019 M215.09529225243574,312.1918446972019 L214.6877560313122,313.49360425895964 M214.6877560313122,313.49360425895964 L214.03316025340774,314.8642933463909 M214.03316025340774,314.8642933463909 L213.16954532750603,316.22426355083246 M213.16954532750603,316.22426355083246 L212.14709331892266,317.4945017404559 M212.14709331892266,317.4945017404559 L211.0252131889544,318.60119316085695 M211.0252131889544,318.60119316085695 L209.86909134646652,319.48003340254485 M209.86909134646652,319.48003340254485 L208.74590627139258,320.0799496413932 M208.74590627139258,320.0799496413932 L207.720925971945,320.3660690065789 M207.720925971945,320.3660690065789 L206.85371773776112,320.32175921441944 M206.85371773776112,320.32175921441944 L206.19468580156934,319.94957264908436 M206.19468580156934,319.94957264908436 L205.7821422866558,319.2711257892955 M205.7821422866558,319.2711257892955 L205.64007430106432,318.3258355784358 M186.45204913018802,332.91123968900774 L186.58849734709446,331.75406461976064 M186.58849734709446,331.75406461976064 L186.99584984255705,330.4521702326174 M186.99584984255705,330.4521702326174 L187.65043434697745,329.0812274585061 M187.65043434697745,329.0812274585061 L188.51420814404503,327.7209257220193 M188.51420814404503,327.7209257220193 L189.5369626912252,326.4503297883109 M189.5369626912252,326.4503297883109 L190.65924543140773,325.3433050686459 M190.65924543140773,325.3433050686459 L191.81582449219115,324.46419072141947 M191.81582449219115,324.46419072141947 L192.93946718779662,323.8640839499097 M192.93946718779662,323.8640839499097 L193.96486896307977,323.5778554205667 M193.96486896307977,323.5778554205667 L194.83243459202123,323.62212201999307 M194.83243459202123,323.62212201999307 L195.4917487387263,323.99430424013775 M195.4917487387263,323.99430424013775 L195.90450654620713,324.6727527491901 M195.90450654620713,324.6727527491901 L196.0467306492025,325.61802915687497 M196.0467306492025,325.61802915687497 L195.9101717705312,326.77518773109796 M195.9101717705312,326.77518773109796 L195.50277211891375,328.0769818071336 M195.50277211891375,328.0769818071336 L194.84821476636432,329.4477634344016 M194.84821476636432,329.4477634344016 L193.98453620950383,330.8078801054348 M193.98453620950383,330.8078801054348 L192.96192317177932,332.07830945020146 M192.96192317177932,332.07830945020146 L191.83979579247728,333.1852242222534 M191.83979579247728,333.1852242222534 L190.68335035308945,334.0643104501057 M190.68335035308945,334.0643104501057 L189.55978892783685,334.6644773723965 M189.55978892783685,334.6644773723965 L188.53439745399476,334.9508405434957 M188.53439745399476,334.9508405434957 L187.66676879795514,334.90675223057474 M187.66676879795514,334.90675223057474 L187.00733273388408,334.5347510997859 M187.00733273388408,334.5347510997859 L186.59442204868225,333.85644499710173 M186.59442204868225,333.85644499710173 L186.45204913018802,332.91123968900774 M167.25867137108827,347.50071246540534 L167.3948934111063,346.3435623849506 M167.3948934111063,346.3435623849506 L167.80210621426622,345.041635780683 M167.80210621426622,345.041635780683 L168.45665465363405,343.67059859948574 M168.45665465363405,343.67059859948574 L169.3204890915203,342.31015261047924 M169.3204890915203,342.31015261047924 L170.34340419018426,341.0393658490856 M170.34340419018426,341.0393658490856 L171.4659357710861,339.9321165604602 M171.4659357710861,339.9321165604602 L172.62283749480363,339.0527569575272 M172.62283749480363,339.0527569575272 L173.74685791577105,338.4523985011042 M173.74685791577105,338.4523985011042 L174.7726705233034,338.16592648485664 M174.7726705233034,338.16592648485664 L175.64065392132602,338.2099736851947 M175.64065392132602,338.2099736851947 L176.3003752273094,338.5819682251969 M176.3003752273094,338.5819682251969 L176.7134969043179,339.26027853204226 M176.7134969043179,339.26027853204226 L176.85602946413715,340.205467387582 M176.85602946413715,340.205467387582 L176.7196966909604,341.36260099924914 M176.7196966909604,341.36260099924914 L176.31243667708628,342.66442729586356 M176.31243667708628,342.66442729586356 L175.65791536581438,344.0353033091901 M175.65791536581438,344.0353033091901 L174.79417617906614,345.395564192906 M174.79417617906614,345.395564192906 L173.7714026341412,346.66618431523136 M173.7714026341412,346.66618431523136 L172.649026481196,347.77332360752973 M172.649026481196,347.77332360752973 L171.4922584533767,348.65265505494693 M171.4922584533767,348.65265505494693 L170.36831936762343,349.25307364686114 M170.36831936762343,349.25307364686114 L169.34251710189324,349.5396803139301 M169.34251710189324,349.5396803139301 L168.47447068344906,349.49581143129575 M168.47447068344906,349.49581143129575 L167.81462743139016,349.1239980272345 M167.81462743139016,349.1239980272345 L167.4013528195605,348.4458301774347 M167.4013528195605,348.4458301774347 L167.25867137108827,347.50071246540534 M279.81654589183194,162.94317902861218 L280.02510156892663,294.8336581009013 M136.23866745067835,404.16467646349565 L135.77888413170206,272.3269120800385 M135.77888413170206,272.3269120800385 L279.81654589183194,162.94317902861218 M255.99820425986968,269.13011239969035 L256.1394557319939,270.0756905994061 M256.1394557319939,270.0756905994061 L256.5509949169935,270.754609678212 M256.5509949169935,270.754609678212 L257.2088981636367,271.1274213782633 M257.2088981636367,271.1274213782633 L258.0749127710551,271.1724775760731 M258.0749127710551,271.1724775760731 L259.09870948319866,270.8871782352526 M259.09870948319866,270.8871782352526 L260.22078582649215,270.2881109927574 M260.22078582649215,270.2881109927574 L261.3759421418976,269.41009639534707 M261.3759421418976,269.41009639534707 L262.49705125463305,268.30416293389044 M262.49705125463305,268.30416293389044 L263.5189760356034,267.03456757121137 M263.5189760356034,267.03456757121137 L264.3823340385099,265.67509084124276 M264.3823340385099,265.67509084124276 L265.03696389380957,264.30471282634846 M265.03696389380957,264.30471282634846 L265.4448158875179,263.00306943296414 M265.4448158875179,263.00306943296414 L265.58218968673583,261.84579300541884 M265.58218968673583,261.84579300541884 L265.441086735353,260.9001438967358 M265.441086735353,260.9001438967358 L265.0297001882753,260.22108263416317 M265.0297001882753,260.22108263416317 L264.3719187298356,259.8480900475812 M264.3719187298356,259.8480900475812 L263.5059671601609,259.80285570047147 M263.5059671601609,259.80285570047147 L262.48216029476345,260.0880204392905 M262.48216029476345,260.0880204392905 L261.36000293283536,260.68702746434514 M261.36000293283536,260.68702746434514 L260.2047132936189,261.56507002332603 M260.2047132936189,261.56507002332603 L259.08344909527995,262.67111321960016 M259.08344909527995,262.67111321960016 L258.06138299476095,263.9408749521814 M258.06138299476095,263.9408749521814 L257.19792981309513,265.30053657228154 M257.19792981309513,265.30053657228154 L256.54327272368477,266.67107564318314 M256.54327272368477,266.67107564318314 L256.13546768056733,267.97281936128195 M256.13546768056733,267.97281936128195 L255.99820425986968,269.13011239969035 M236.8262256062656,283.70179732123916 L236.96778037243908,284.64729177097917 M236.96778037243908,284.64729177097917 L237.37968729944532,285.3260695770583 M237.37968729944532,285.3260695770583 L238.03799235127528,285.69869754303886 M238.03799235127528,285.69869754303886 L238.90442848035693,285.7435313808841 M238.90442848035693,285.7435313808841 L239.9286352132528,285.4579890888705 M239.9286352132528,285.4579890888705 L241.05108853357703,284.85867068813945 M241.05108853357703,284.85867068813945 L242.20656688131123,283.9804113194532 M242.20656688131123,283.9804113194532 L243.3279243712589,282.874253696895 M243.3279243712589,282.874253696895 L244.3500094456956,281.6044678057972 M244.3500094456956,281.6044678057972 L245.21343263263722,280.2448435119914 M245.21343263263722,280.2448435119914 L245.8680220514544,278.8743745798078 M245.8680220514544,278.8743745798078 L246.27573934368442,277.57269535169667 M246.27573934368442,277.57269535169667 L246.41288299281578,276.4154471008675 M246.41288299281578,276.4154471008675 L246.27147681986526,275.4698816988078 M246.27147681986526,275.4698816988078 L245.85972258824577,274.7909616579542 M245.85972258824577,274.7909616579542 L245.20153935316017,274.4181527592242 M245.20153935316017,274.4181527592242 L244.33516625531863,274.3731407406158 M244.33516625531863,274.3731407406158 L243.31094932893834,274.65854842152726 M243.31094932893834,274.65854842152726 L242.18841492530066,275.2578066200208 M242.18841492530066,275.2578066200208 L241.03280317944547,276.13609398630183 M241.03280317944547,276.13609398630183 L239.91129053697668,277.24236139226946 M239.91129053697668,277.24236139226946 L238.88906409879604,278.51231370329765 M238.88906409879604,278.51231370329765 L238.02554572133187,279.87212292745676 M238.02554572133187,279.87212292745676 L237.37092909291704,281.2427529362441 M237.37092909291704,281.2427529362441 L236.9632588049296,282.5445324861754 M236.9632588049296,282.5445324861754 L236.8262256062656,283.70179732123916 M217.6489013570519,298.27754516901734 L217.7907630105218,299.22295317862563 M217.7907630105218,299.22295317862563 L218.20303443902205,299.90159221349984 M218.20303443902205,299.90159221349984 L218.86174378084502,300.27403459069916 M218.86174378084502,300.27403459069916 L219.72859934668847,300.3186476805864 M219.72859934668847,300.3186476805864 L220.75321514608945,300.03286318183854 M220.75321514608945,300.03286318183854 L221.8760478962367,299.43329176841104 M221.8760478962367,299.43329176841104 L223.03184612483918,298.5547892637371 M223.03184612483918,298.5547892637371 L224.1534543730399,297.44840566042876 M224.1534543730399,297.44840566042876 L225.17569864756516,296.17843005281713 M225.17569864756516,296.17843005281713 L226.03918473527014,294.8186599032985 M226.03918473527014,294.8186599032985 L226.69373595568194,293.4480983188091 M226.69373595568194,293.4480983188091 L227.10131502633615,292.14638589291803 M227.10131502633615,292.14638589291803 L227.2382318208324,290.98916327315334 M227.2382318208324,290.98916327315334 L227.09651883347908,290.04368426751205 M227.09651883347908,290.04368426751205 L226.68440015749204,289.36490294716236 M226.68440015749204,289.36490294716236 L226.02581266102607,288.9922795908327 M226.02581266102607,288.9922795908327 L225.15902011984406,288.94748828885787 M225.15902011984406,288.94748828885787 L224.1343940867636,289.2331381674281 M224.1343940867636,289.2331381674281 L223.01148018839893,289.83264939383724 M223.01148018839893,289.83264939383724 L221.85554848758272,290.7111799321013 M221.85554848758272,290.7111799321013 L220.73378501957328,291.8176733675503 M220.73378501957328,291.8176733675503 L219.7113993372692,293.0878154450739 M219.7113993372692,293.0878154450739 L218.8478180476946,294.4477705649615 M218.8478180476946,294.4477705649615 L218.19323964180683,295.81849324686806 M218.19323964180683,295.81849324686806 L217.78570762964588,297.120305991298 M217.78570762964588,297.120305991298 L217.6489013570519,298.27754516901734 M198.46622927620152,312.8573576425199 L198.60839683911567,313.8026799961621 M198.60839683911567,313.8026799961621 L199.02103409991312,314.4811792869 M199.02103409991312,314.4811792869 L199.68014850336013,314.8534355227597 M199.68014850336013,314.8534355227597 L200.5474231344781,314.897828174388 M200.5474231344781,314.897828174388 L201.5724499038459,314.6118000412819 M201.5724499038459,314.6118000412819 L202.69565882156203,314.0119781046054 M202.69565882156203,314.0119781046054 L203.8517804946851,313.1332297552724 M203.8517804946851,313.1332297552724 L204.97363645311913,312.0266224780929 M204.97363645311913,312.0266224780929 L205.9960416918331,310.7564557939502 M205.9960416918331,310.7564557939502 L206.85958996722078,309.3965403033748 M206.85958996722078,309.3965403033748 L207.51410308539508,308.0258859595525 M207.51410308539508,308.0258859595525 L207.92154544045457,306.7241391526949 M207.92154544045457,306.7241391526949 L208.05823393538176,305.5669432212975 M208.05823393538176,305.5669432212975 L207.91621528112117,304.6215496989952 M207.91621528112117,304.6215496989952 L207.50373037453946,303.9429084182003 M207.50373037453946,303.9429084182003 L206.8447382738717,303.57047083088503 M206.8447382738717,303.57047083088503 L205.97752680374447,303.5258998272407 M205.97752680374447,303.5258998272407 L204.95248976037388,303.81179333107275 M204.95248976037388,303.81179333107275 L203.82919934389,304.41155531324466 M203.82919934389,304.41155531324466 L202.6729441240179,305.2903317322733 M202.6729441240179,305.2903317322733 L201.55093316478903,306.39704867292266 M201.55093316478903,306.39704867292266 L200.5283864739672,307.667381877088 M200.5283864739672,307.667381877088 L199.6647428425483,309.02748248663636 M199.6647428425483,309.02748248663636 L199.01020213418164,310.39829827462734 M199.01020213418164,310.39829827462734 L198.60280734727604,311.70014505060055 M198.60280734727604,311.70014505060055 L198.46622927620152,312.8573576425199 M179.27820712644004,327.44123644218996 L179.42067962009216,328.38647392469784 M179.42067962009216,328.38647392469784 L179.83368404506137,329.06483249757014 M179.83368404506137,329.06483249757014 L180.49320256667585,329.43690334313624 M180.49320256667585,329.43690334313624 L181.36089760690695,329.4810745624443 M181.36089760690695,329.4810745624443 L182.3863355356369,329.19480267019367 M182.3863355356369,329.19480267019367 L183.5099207870833,328.59473009384294 M183.5099207870833,328.59473009384294 L184.6663660401968,327.71573579688237 M184.6663660401968,327.71573579688237 L185.7884692315772,326.60890519873817 M185.7884692315772,326.60890519873817 L186.8110354845181,325.3385473808622 M186.8110354845181,325.3385473808622 L187.6746473782898,323.97848543444 M187.6746473782898,323.97848543444 L188.32912206160447,322.6077385501607 M188.32912206160447,322.6077385501607 L188.7364278412755,321.3059572172093 M188.7364278412755,321.3059572172093 L188.87288709981308,320.14878864526924 M188.87288709981308,320.14878864526924 L188.73056341782672,319.2034800795499 M188.73056341782672,319.2034800795499 L188.31771186008254,318.5249791193899 M188.31771186008254,318.5249791193899 L187.65831524107983,318.1527272018786 M187.65831524107983,318.1527272018786 L186.79068321231424,318.1083777078174 M186.79068321231424,318.1083777078174 L185.76523496921354,318.3945149617131 M185.76523496921354,318.3945149617131 L184.64156844014946,318.99452738155446 M184.64156844014946,318.99452738155446 L183.48498956570478,319.87354978434286 M183.48498956570478,319.87354978434286 L182.36273102082276,320.9804903118396 M182.36273102082276,320.9804903118396 L181.34002327142932,322.25101469986555 M181.34002327142932,322.25101469986555 L180.47631615309865,323.61126169672355 M180.47631615309865,323.61126169672355 L179.82181433262156,324.9821697200425 M179.82181433262156,324.9821697200425 L179.41455571950485,326.2840513653 M179.41455571950485,326.2840513653 L179.27820712644004,327.44123644218996 M160.0848326692448,342.02918326941915 L160.22761369069627,342.9743331877893 M160.22761369069627,342.9743331877893 L160.64098203616126,343.65255354677015 M160.64098203616126,343.65255354677015 L161.30090773603354,344.0244367101177 M161.30090773603354,344.0244367101177 L162.16902052590862,344.0683885458596 M162.16902052590862,344.0683885458596 L163.19486923147633,343.7818732043912 M163.19486923147633,343.7818732043912 L164.31883212695828,343.1815490023016 M164.31883212695828,343.1815490023016 L165.47559995157997,342.3023095242439 M165.47559995157997,342.3023095242439 L166.59795190020498,341.195254436669 M166.59795190020498,341.195254436669 L167.62067864542507,339.9247058626081 M167.62067864542507,339.9247058626081 L168.48435115650744,338.5644997140122 M168.48435115650744,338.5644997140122 L169.1387897890415,337.1936584432427 M169.1387897890415,337.1936584432427 L169.54595592509335,335.8918448776486 M169.54595592509335,335.8918448776486 L169.6821890762281,334.7347012459855 M169.6821890762281,334.7347012459855 L169.53955693959006,333.78948020049495 M169.53955693959006,333.78948020049495 L169.12634151844364,333.1111174035588 M169.12634151844364,333.1111174035588 L168.46653774988724,332.7390531216878 M168.46653774988724,332.7390531216878 L167.5984879647983,332.69492297999636 M167.5984879647983,332.69492297999636 L166.57262890449917,332.9813036740416 M166.57262890449917,332.9813036740416 L165.44858466654193,333.5815677349042 M165.44858466654193,333.5815677349042 L164.29168314609237,334.4608353549213 M164.29168314609237,334.4608353549213 L163.16917577689634,335.5680004205522 M163.16917577689634,335.5680004205522 L162.14630749094655,336.8387156148811 M162.14630749094655,336.8387156148811 L161.28253974437837,338.19910685374555 M161.28253974437837,338.19910685374555 L160.62807399845823,339.5701092845826 M160.62807399845823,339.5701092845826 L160.22095508351785,340.87202315903374 M160.22095508351785,340.87202315903374 L160.0848326692448,342.02918326941915 M265.44194587153197,182.6779097941515 L265.45754300876945,191.48252151591714 M265.45754300876945,191.48252151591714 L258.2629879283543,196.9470657306004 M258.2465535107773,188.14262869116695 L258.2629879283543,196.9470657306004 M265.44194587153197,182.6779097941515 L258.2465535107773,188.14262869116695 M150.22524848029124,270.1820835650973 L150.25426314280733,278.98389018536955 M150.22524848029124,270.1820835650973 L143.017794804446,275.6559627265144 M150.25426314280733,278.98389018536955 L143.04764955448712,284.45759330548543 M143.017794804446,275.6559627265144 L143.04764955448712,284.45759330548543 M286.99873402400124,168.40692895591408 L279.81654589183194,162.94317902861218 M142.9610516338003,277.8021140390694 L135.77888413170206,272.3269120800385 M150.1701020156579,272.3269120800385 L147.77596212732507,270.5019721995557 M154.98425700302647,265.0275348289739 L147.77596212732507,270.5019721995557 M157.37839734304146,266.85228357735986 L154.98425700302647,265.0275348289739 M265.41230131738257,184.80160958419867 L263.0181557867769,182.97972421774955 M270.21438611702627,177.51444942994527 L263.0181557867769,182.97972421774955 M272.6085318882161,179.3361441439482 L270.21438611702627,177.51444942994527 M270.259509555435,203.9279359727919 L270.24447190630445,195.12548746814988 M270.24447190630445,195.12548746814988 L265.45754300876945,191.48252151591714 M265.44194587153197,182.6779097941515 L270.22943076057476,186.3209921918561 M270.22943076057476,186.3209921918561 L270.21438611702627,177.51444942994527 M270.259509555435,203.9279359727919 L272.6528212520361,205.74945597623412 M263.0657910667891,209.3926865441541 L265.4591025230576,211.21439711527708 M270.259509555435,203.9279359727919 L263.0657910667891,209.3926865441541 M263.0340379057401,191.78609230732638 L258.2465535107773,188.14262869116695 M263.0181557867769,182.97972421774955 L263.0340379057401,191.78609230732638 M263.04991633198154,200.59041284478593 L263.0657910667891,209.3926865441541 M258.2629879283543,196.9470657306004 L263.04991633198154,200.59041284478593 M155.0696330299461,291.43260335049814 L155.0411809763759,282.6329619147844 M155.0411809763759,282.6329619147844 L150.25426314280733,278.98389018536955 M150.22524848029124,270.1820835650973 L155.0127223015066,273.831272645921 M155.0127223015066,273.831272645921 L154.98425700302647,265.0275348289739 M155.0696330299461,291.43260335049814 L157.46293930105466,293.25717602922737 M147.86385841784772,296.9065124269687 L150.2571642377469,298.7312761526488 M155.0696330299461,291.43260335049814 L147.86385841784772,296.9065124269687 M147.8052677095333,279.3055339847406 L143.017794804446,275.6559627265144 M147.77596212732507,270.5019721995557 L147.8052677095333,279.3055339847406 M147.83456647224745,288.10704715554664 L147.86385841784772,296.9065124269687 M143.04764955448712,284.45759330548543 L147.83456647224745,288.10704715554664 M263.17205666568185,274.5940182289422 L255.99820425986968,269.13011239969035 M244.00007583192624,289.1672265487277 L236.8262256062656,283.70179732123916 M224.82274912247416,303.744498431942 L217.6489013570519,298.27754516901734 M205.64007430106432,318.3258355784358 L198.46622927620152,312.8573576425199 M186.45204913018802,332.91123968900774 L179.27820712644004,327.44123644218996 M167.25867137108827,347.50071246540534 L160.0848326692448,342.02918326941915 M270.24447190630445,195.12548746814988 L263.04991633198154,200.59041284478593 M270.22943076057476,186.3209921918561 L263.0340379057401,191.78609230732638 M155.0127223015066,273.831272645921 L147.8052677095333,279.3055339847406 M155.0411809763759,282.6329619147844 L147.83456647224745,288.10704715554664" stroke="black"  stroke-width="4"  fill="red"/>
<path d="M646.4886967970622,599.8663212533778 L639.2796445604065,594.3738605050783 M536.6700094441944,683.8366210593446 L529.4609414089505,678.3353611328392 M646.4886967970622,599.8663212533778 L639.5528904789367,594.2411899109427 M639.5528904789367,594.2411899109427 L630.0444786253247,592.3344534266303 M630.0444786253247,592.3344534266303 L618.4712761621731,594.2503453982838 M618.4712761621731,594.2503453982838 L605.4524059366124,599.8881831147335 M605.4524059366124,599.8881831147335 L591.685195237691,608.9473767708322 M591.685195237691,608.9473767708322 L577.9077360130389,620.9432775230307 M577.9077360130389,620.9432775230307 L564.8591075636912,635.2330731840005 M564.8591075636912,635.2330731840005 L553.239453223538,651.0503680807642 M553.239453223538,651.0503680807642 L543.672130328649,667.5465388667905 M543.672130328649,667.5465388667905 L536.6700094441944,683.8366210593446 M639.2796445604065,594.3738605050783 L632.3427866536174,588.7479458298208 M632.3427866536174,588.7479458298208 L622.8334912498433,586.8402565227004 M622.8334912498433,586.8402565227004 L611.2596207477459,588.7550770045032 M611.2596207477459,588.7550770045032 L598.2403339188702,594.391781825299 M598.2403339188702,594.391781825299 L584.4729804688113,603.4498418306243 M584.4729804688113,603.4498418306243 L570.695660028958,615.444668967254 M570.695660028958,615.444668967254 L557.6474444303394,629.7335086989985 M557.6474444303394,629.7335086989985 L546.0284547922565,645.5500167385097 M546.0284547922565,645.5500167385097 L536.4620127054611,662.0456120615531 M536.4620127054611,662.0456120615531 L529.4609414089505,678.3353611328392 M663.4568732100827,586.8920006262913 L656.2478242360412,581.4008988181884 M663.4568732100827,586.8920006262913 L646.4886967970622,599.8663212533778 M656.2478242360412,581.4008988181884 L639.2796445604065,594.3738605050783 M519.6704404346353,696.8349453037258 L512.461370777107,691.3323226641435 M536.6700094441944,683.8366210593446 L519.6704404346353,696.8349453037258 M529.4609414089505,678.3353611328392 L512.461370777107,691.3323226641435 M663.9182646316026,455.14322993524917 L663.4568732100827,586.8920006262913 M519.6704404346353,696.8349453037258 L519.8806042236831,565.1402570348046 M519.8806042236831,565.1402570348046 L663.9182646316026,455.14322993524917 M639.6530903874279,561.3377088418736 L639.7956948007638,560.180956529202 M639.7956948007638,560.180956529202 L640.2085300175911,558.8785369574451 M640.2085300175911,558.8785369574451 L640.8676140828895,557.5061446990787 M640.8676140828895,557.5061446990787 L641.7346336816001,556.1435603221144 M641.7346336816001,556.1435603221144 L642.7591983400434,554.8699761756488 M642.7591983400434,554.8699761756488 L643.881747932807,553.7594331481107 M643.881747932807,553.7594331481107 L645.037035082946,552.8764749224963 M645.037035082946,552.8764749224963 L646.1579022170386,552.2724221597841 M646.1579022170386,552.2724221597841 L647.1792061168599,551.9823748563842 M647.1792061168599,551.9823748563842 L648.0415875438559,552.0231735784442 M648.0415875438559,552.0231735784442 L648.6949391993014,552.3924351756647 M648.6949391993014,552.3924351756647 L649.1012938083672,553.068686870688 M649.1012938083672,553.068686870688 L649.2370551680044,554.0126109994003 M649.2370551680044,554.0126109994003 L649.0943405791206,555.1693472333952 M649.0943405791206,555.1693472333952 L648.6814589724422,556.4716665460335 M648.6814589724422,556.4716665460335 L648.0224029313049,557.8438973323646 M648.0224029313049,557.8438973323646 L647.1554793497189,559.2062960168599 M647.1554793497189,559.2062960168599 L646.1310567054531,560.4797127885772 M646.1310567054531,560.4797127885772 L645.0086625900474,561.5901451041442 M645.0086625900474,561.5901451041442 L643.8535087628557,562.4730746425776 M643.8535087628557,562.4730746425776 L642.7327222541146,563.0771873148946 M642.7327222541146,563.0771873148946 L641.7114278119373,563.3673694007567 M641.7114278119373,563.3673694007567 L640.8489825086242,563.3267494554075 M640.8489825086242,563.3267494554075 L640.1955082755369,562.9576696753531 M640.1955082755369,562.9576696753531 L639.7890004691023,562.2815611847545 M639.7890004691023,562.2815611847545 L639.6530903874279,561.3377088418736 M620.4811418307006,575.9909762759848 L620.6235161317429,574.8342533802564 M620.6235161317429,574.8342533802564 L621.0362169137616,573.5317986045038 M621.0362169137616,573.5317986045038 L621.6952610303767,572.159315452149 M621.6952610303767,572.159315452149 L622.5623464993921,570.7965828901943 M622.5623464993921,570.7965828901943 L623.5870722929924,569.5228070219213 M623.5870722929924,569.5228070219213 L624.7098712039879,568.4120381356557 M624.7098712039879,568.4120381356557 L625.8654813606472,567.5288330439147 M625.8654813606472,567.5288330439147 L626.9867264097816,566.9245267588511 M626.9867264097816,566.9245267588511 L628.0084411666016,566.6342340108921 M628.0084411666016,566.6342340108921 L628.8712447941939,566.6748078841699 M628.8712447941939,566.6748078841699 L629.5249987360762,567.0438834304957 M629.5249987360762,567.0438834304957 L629.9317213472136,567.7199917969749 M629.9317213472136,567.7199917969749 L630.0677860352839,568.6638305291775 M630.0677860352839,568.6638305291775 L629.9253014864883,569.8205373733442 M629.9253014864883,569.8205373733442 L629.5125542608587,571.1228918931598 M629.5125542608587,571.1228918931598 L628.8535381439556,572.4952135529138 M628.8535381439556,572.4952135529138 L627.986548704052,573.8577603819367 M627.986548704052,573.8577603819367 L626.9619649691558,575.1313688249815 M626.9619649691558,575.1313688249815 L625.8393216027989,576.242026950123 M625.8393216027989,576.242026950123 L624.6838448437086,577.1252033181172 M624.6838448437086,577.1252033181172 L623.5626804847932,577.7295694971845 M623.5626804847932,577.7295694971845 L622.5409752258702,578.0199970365422 M622.5409752258702,578.0199970365422 L621.6781077283156,577.9796019715474 M621.6781077283156,577.9796019715474 L621.0242311799657,577.6107082889615 M621.0242311799657,577.6107082889615 L620.6173553136362,576.9347431784377 M620.6173553136362,576.9347431784377 L620.4811418307006,575.9909762759848 M601.3038327403349,590.6483408071002 L601.4459802245096,589.4916447686705 M601.4459802245096,589.4916447686705 L601.8585430507082,588.1891574414585 M601.8585430507082,588.1891574414585 L602.5175494570151,586.8165816504036 M602.5175494570151,586.8165816504036 L603.3846985128005,585.4537026213758 M603.3846985128005,585.4537026213758 L604.409584348396,584.1797358476017 M604.409584348396,584.1797358476017 L605.5326349596146,583.0687392722347 M605.5326349596146,583.0687392722347 L606.6885659718719,582.1852889582652 M606.6885659718719,582.1852889582652 L607.810191389947,581.5807272852647 M607.810191389947,581.5807272852647 L608.8323160504435,581.2901898405205 M608.8323160504435,581.2901898405205 L609.6955397947913,581.3305404850214 M609.6955397947913,581.3305404850214 L610.3496985087847,581.6994281146308 M610.3496985087847,581.6994281146308 L610.7567858826806,582.375395666939 M610.7567858826806,582.375395666939 L610.8931574927271,583.3191462970283 M610.8931574927271,583.3191462970283 L610.7508996891065,584.4758263106596 M610.7508996891065,584.4758263106596 L610.3382903649367,585.7782133855067 M610.3382903649367,585.7782133855067 L609.6793119342849,587.1506276631764 M609.6793119342849,587.1506276631764 L608.8122589191821,588.5133209190176 M608.8122589191821,588.5133209190176 L607.787515186657,589.7871202171309 M607.787515186657,589.7871202171309 L606.6646201877275,590.8980059820797 M606.6646201877275,590.8980059820797 L605.5088226474438,591.7814275357666 M605.5088226474438,591.7814275357666 L604.3872779846808,592.3860490871518 M604.3872779846808,592.3860490871518 L603.3651628622997,592.6767213322066 M603.3651628622997,592.6767213322066 L602.5018752544195,592.6365495274214 M602.5018752544195,592.6365495274214 L601.8475939050602,592.2678438082885 M601.8475939050602,592.2678438082885 L601.4403532184883,591.5920195631574 M601.4403532184883,591.5920195631574 L601.3038327403349,590.6483408071002 M582.1211608677852,605.3098041538002 L582.2630802591107,604.1531359069347 M582.2630802591107,604.1531359069347 L582.6755061797387,602.8506151869688 M582.6755061797387,602.8506151869688 L583.3344754006548,601.4779463220601 M583.3344754006548,601.4779463220601 L584.2016874730916,600.1149212343241 M584.2016874730916,600.1149212343241 L585.2267351154514,598.8407621870942 M585.2267351154514,598.8407621870942 L586.3500340931573,597.7295404606458 M586.3500340931573,597.7295404606458 L587.5062895258593,596.845842199921 M587.5062895258593,596.845842199921 L588.6282923371537,596.2410274231353 M588.6282923371537,596.2410274231353 L589.6508288058753,595.9502438451791 M589.6508288058753,595.9502438451791 L590.5144721535655,595.9903716806625 M590.5144721535655,595.9903716806625 L591.1690359834377,596.3590711647803 M591.1690359834377,596.3590711647803 L591.5764899071726,597.0348965756355 M591.5764899071726,597.0348965756355 L591.7131672924163,597.9785600210532 M591.7131672924163,597.9785600210532 L591.5711376794361,599.1352121403153 M591.5711376794361,599.1352121403153 L591.1586647510669,600.4376329595689 M591.1586647510669,600.4376329595689 L590.4997239105869,601.8101399625439 M590.4997239105869,601.8101399625439 L589.6326080332178,603.1729791276429 M589.6326080332178,603.1729791276429 L588.6077025385891,604.446970648649 M588.6077025385891,604.446970648649 L587.4845589545221,605.5580817340058 M587.4845589545221,605.5580817340058 L586.3284370686413,606.4417511977992 M586.3284370686413,606.4417511977992 L585.2065153633989,607.0466256188402 M585.2065153633989,607.0466256188402 L584.1839884731387,607.3375440060393 M584.1839884731387,607.3375440060393 L583.3202811254387,607.2975951509163 M583.3202811254387,607.2975951509163 L582.6655942024925,606.9290779517812 M582.6655942024925,606.9290779517812 L582.2579873640209,606.2533955512677 M582.2579873640209,606.2533955512677 L582.1211608677852,605.3098041538002 M562.9331239632477,619.9753680356273 L563.0748139846985,618.8187285153723 M563.0748139846985,618.8187285153723 L563.4871040509026,617.5161735606554 M563.4871040509026,617.5161735606554 L564.1460348959702,616.1434124977636 M564.1460348959702,616.1434124977636 L565.0133111302741,614.7802404486658 M565.0133111302741,614.7802404486658 L566.0385206298295,613.5058890702476 M566.0385206298295,613.5058890702476 L567.1620680690373,612.3944421102186 M567.1620680690373,612.3944421102186 L568.3186480584582,611.5104957985877 M568.3186480584582,611.5104957985877 L569.4410278583148,610.9054282371683 M569.4410278583148,610.9054282371683 L570.4639763256641,610.6143983996685 M570.4639763256641,610.6143983996685 L571.3280409073725,610.6543022072109 M571.3280409073725,610.6543022072109 L571.9830097682034,611.0228136447108 M571.9830097682034,611.0228136447108 L572.3908306632025,611.6984966306117 M572.3908306632025,611.6984966306117 L572.5278131851767,612.6420734203139 M572.5278131851767,612.6420734203139 L572.3860127001919,613.7986969697465 M572.3860127001919,613.7986969697465 L571.9736760277367,615.1011516789107 M571.9736760277367,615.1011516789107 L571.3147731101396,616.4737511868527 M571.3147731101396,616.4737511868527 L570.4475929396551,617.836737382219 M570.4475929396551,617.836737382219 L569.4225256325076,619.1109211838332 M569.4225256325076,619.1109211838332 L568.2991339400089,620.2222572351103 M568.2991339400089,620.2222572351103 L567.1426875723043,621.1061747131339 M567.1426875723043,621.1061747131339 L566.0203886575389,621.7113021216314 M566.0203886575389,621.7113021216314 L564.9974498090428,622.0024667772902 M564.9974498090428,622.0024667772902 L564.1333213767011,621.9627418723451 M564.1333213767011,621.9627418723451 L563.4782298226776,621.5944124388484 M563.4782298226776,621.5944124388484 L563.0702554995742,620.9188728629821 M563.0702554995742,620.9188728629821 L562.9331239632477,619.9753680356273 M543.7397197756598,634.6450341730856 L543.8811837259243,633.488420817252 M543.8811837259243,633.488420817252 L544.2933344129913,632.1858342831015 M544.2933344129913,632.1858342831015 L544.9522296954578,630.8129788381045 M544.9522296954578,630.8129788381045 L545.8195672330983,629.4496619849895 M545.8195672330983,629.4496619849895 L546.84493806821,628.1751186548629 M546.84493806821,628.1751186548629 L547.9687352081646,627.0634455042418 M547.9687352081646,627.0634455042418 L549.1256387464923,626.1792519119512 M549.1256387464923,626.1792519119512 L550.2483971321094,625.5739303550811 M550.2483971321094,625.5739303550811 L551.2717572165166,625.2826545688567 M551.2717572165166,625.2826545688567 L552.1362402309085,625.3223365168681 M552.1362402309085,625.3223365168681 L552.7916167548681,625.6906579300079 M552.7916167548681,625.6906579300079 L553.1998018342244,626.3662006596038 M553.1998018342244,626.3662006596038 L553.3370929205757,627.3096882148334 M553.3370929205757,627.3096882148334 L553.1955184351302,628.4662856265555 M553.1955184351302,628.4662856265555 L552.7833210871443,629.7687719188954 M552.7833210871443,629.7687719188954 L552.1244537084367,631.1414657879412 M552.1244537084367,631.1414657879412 L551.2572122457655,632.5045967472555 M551.2572122457655,632.5045967472555 L550.2319836476706,633.7789724500076 M550.2319836476706,633.7789724500076 L549.108342321859,634.8905346426108 M549.108342321859,634.8905346426108 L547.9515724800572,635.774699364619 M547.9515724800572,635.774699364619 L546.828895044579,636.3800807528851 M546.828895044579,636.3800807528851 L545.8055446194089,636.6714913661717 M545.8055446194089,636.6714913661717 L544.9409977609157,636.6319883520617 M544.9409977609157,636.6319883520617 L544.2854985147721,636.2638489898602 M544.2854985147721,636.2638489898602 L543.8771599498602,635.5884497214877 M543.8771599498602,635.5884497214877 L543.7397197756598,634.6450341730856 M649.4698383041778,483.7249481206514 L642.2752991025889,489.22011177578804 M642.2752991025889,489.22011177578804 L642.3035902506313,480.42511453361806 M649.4989667270038,474.92977164246014 L642.3035902506313,480.42511453361806 M649.4698383041778,483.7249481206514 L649.4989667270038,474.92977164246014 M534.2665595826429,571.7168058956902 L527.0599281208404,577.2212055765083 M534.2665595826429,571.7168058956902 L534.2822704807236,562.9245075313712 M527.0599281208404,577.2212055765083 L527.0747989251568,568.4290878276443 M534.2822704807236,562.9245075313712 L527.0747989251568,568.4290878276443 M656.6965852084738,449.6494375565192 L656.2478242360412,581.4008988181884 M642.3064197282672,460.6375987841106 L656.6965852084738,449.6494375565192 M642.221564089527,487.02366638581566 L642.3064197282672,460.6375987841106 M635.0278606330132,492.51807434557253 L642.221564089527,487.02366638581566 M635.0278606330132,492.51807434557253 L635.1102044459328,466.1325441938428 M527.0762861964654,548.6259744053576 L635.1102044459328,466.1325441938428 M527.0316831505033,575.0034118035561 L527.0762861964654,548.6259744053576 M519.8258908844016,580.507052956205 L527.0316831505033,575.0034118035561 M519.8258908844016,580.507052956205 L519.8679736482638,554.1301571451222 M512.658904008319,559.6349179912436 L519.8679736482638,554.1301571451222 M512.461370777107,691.3323226641435 L512.658904008319,559.6349179912436 M632.439831627496,555.8437894863034 L632.5758424298933,556.7876745024151 M632.5758424298933,556.7876745024151 L632.9824451512845,557.4638360781832 M632.9824451512845,557.4638360781832 L633.6360029784339,557.8329862691278 M633.6360029784339,557.8329862691278 L634.4985156977425,557.873689856922 M634.4985156977425,557.873689856922 L635.5198574619574,557.5835997836733 M635.5198574619574,557.5835997836733 L636.6406684490023,556.9795821459411 M636.6406684490023,556.9795821459411 L637.7958224891147,556.0967451419164 M637.7958224891147,556.0967451419164 L638.918192539689,554.9863974835828 M638.918192539689,554.9863974835828 L639.942568239004,553.7130525738166 M639.942568239004,553.7130525738166 L640.8094247233867,552.3507087810854 M640.8094247233867,552.3507087810854 L641.4683974124357,550.9785127278152 M641.4683974124357,550.9785127278152 L641.8811842552434,549.6762059711093 M641.8811842552434,549.6762059711093 L642.0237981748146,548.5194593866107 M642.0237981748146,548.5194593866107 L641.8879360907133,547.5755026012134 M641.8879360907133,547.5755026012134 L641.4814865561809,546.8991978402541 M641.4814865561809,546.8991978402541 L640.8280512918022,546.5298658496584 M640.8280512918022,546.5298658496584 L639.9656024329854,546.4889834969372 M639.9656024329854,546.4889834969372 L638.9442511979721,546.778938791077 M638.9442511979721,546.778938791077 L637.8233595781057,547.3828965133589 M637.8233595781057,547.3828965133589 L636.6680722149722,548.2657621908596 M636.6680722149722,548.2657621908596 L635.545546694379,549.3762205427395 M635.545546694379,549.3762205427395 L634.5210289939566,550.6497328083298 M634.5210289939566,550.6497328083298 L633.6540765082573,552.0122622784422 M633.6540765082573,552.0122622784422 L632.9950758099706,553.3846197959525 M632.9950758099706,553.3846197959525 L632.5823353676349,554.6870268130604 M632.5823353676349,554.6870268130604 L632.439831627496,555.8437894863034 M613.2678797472006,570.495520951914 L613.4041939489639,571.4393205595179 M613.4041939489639,571.4393205595179 L613.8111647243991,572.1153387949882 M613.8111647243991,572.1153387949882 L614.4651248573425,572.4843029330632 M614.4651248573425,572.4843029330632 L615.3280597583589,572.5247816880535 M615.3280597583589,572.5247816880535 L616.3498123244487,572.2344462085083 M616.3498123244487,572.2344462085083 L617.4710011453249,571.6301751083145 M617.4710011453249,571.6301751083145 L618.6264781004691,570.7470913135336 M618.6264781004691,570.7470913135336 L619.7490973855843,569.6365178766919 M619.7490973855843,569.6365178766919 L620.7736341605294,568.3629813171218 M620.7736341605294,568.3629813171218 L621.6405564905101,567.0004893907769 M621.6405564905101,567.0004893907769 L622.2994892456243,565.6282024632153 M622.2994892456243,565.6282024632153 L622.712141701267,564.3258604874534 M622.712141701267,564.3258604874534 L622.8545255785723,563.1691432698619 M622.8545255785723,563.1691432698619 L622.7183601679262,562.2252718490646 M622.7183601679262,562.2252718490646 L622.3115426371667,561.5491103768823 M622.3115426371667,561.5491103768823 L621.6577050958142,561.1799643925891 M621.6577050958142,561.1799643925891 L620.7948340489318,561.1393068411019 M620.7948340489318,561.1393068411019 L619.7730719717911,561.4295075325983 M619.7730719717911,561.4295075325983 L618.6518024532297,562.0337187329358 M618.6518024532297,562.0337187329358 L617.4961921004483,562.916831237748 M617.4961921004483,562.916831237748 L616.3734172780405,564.027515417278 M616.3734172780405,564.027515417278 L615.3487384574682,565.3012193831437 M615.3487384574682,565.3012193831437 L614.481720114187,566.6638970273284 M614.481720114187,566.6638970273284 L613.8227593742856,568.0363454396961 M613.8227593742856,568.0363454396961 L613.4101533728726,569.338787672684 M613.4101533728726,569.338787672684 L613.2678797472006,570.495520951914 M594.090567613352,585.1513488703082 L594.2271888084254,586.0950603637351 M594.2271888084254,586.0950603637351 L594.6345243982344,586.7709377733418 M594.6345243982344,586.7709377733418 L595.2888893227016,587.1397139927752 M595.2888893227016,587.1397139927752 L596.1522443214917,587.1799695349529 M596.1522443214917,587.1799695349529 L597.1744067361506,586.8893893968473 M597.1744067361506,586.8893893968473 L598.2959758445147,586.2848629688331 M598.2959758445147,586.2848629688331 L599.4517735639711,585.401534027003 M599.4517735639711,585.401534027003 L600.574644465238,584.2907329816198 M600.574644465238,584.2907329816198 L601.599341222804,583.0170055884228 M601.599341222804,583.0170055884228 L602.4663271152615,581.6543672459927 M602.4663271152615,581.6543672459927 L603.125222174426,580.2819876998253 M603.125222174426,580.2819876998253 L603.537736722498,578.9796131568668 M603.537736722498,578.9796131568668 L603.6798938524605,577.8229227471468 M603.6798938524605,577.8229227471468 L603.5434215217399,576.879139396255 M603.5434215217399,576.879139396255 L603.1362392340834,576.2031186987244 M603.1362392340834,576.2031186987244 L602.4819969301002,575.8341605863429 M602.4819969301002,575.8341605863429 L601.6187057790112,575.7937262162375 M601.6187057790112,575.7937262162375 L600.5965338130834,576.0841715573797 M600.5965338130834,576.0841715573797 L599.4748839419447,576.6886381011486 M599.4748839419447,576.6886381011486 L598.3189527504526,577.571995789536 M598.3189527504526,577.571995789536 L597.195926244249,578.682907626891 M597.195926244249,578.682907626891 L596.1710873966954,579.9568024768078 M596.1710873966954,579.9568024768078 L595.3040054793714,581.3196265773274 M595.3040054793714,581.3196265773274 L594.6450824594776,582.6921676290858 M594.6450824594776,582.6921676290858 L594.2326144199938,583.9946424257037 M594.2326144199938,583.9946424257037 L594.090567613352,585.1513488703082 M574.9078929776399,599.8112749597067 L575.0448201888737,600.7548991266938 M575.0448201888737,600.7548991266938 L575.4525219246987,601.4306347313309 M575.4525219246987,601.4306347313309 L576.1072924132491,601.7992224756529 M576.1072924132491,601.7992224756529 L576.9710671392884,601.8392551155493 M576.9710671392884,601.8392551155493 L577.9936413069197,601.5484288826024 M577.9936413069197,601.5484288826024 L579.1155874413864,600.9436496291814 M579.1155874413864,600.9436496291814 L580.271709489545,600.0600728161843 M580.271709489545,600.0600728161843 L581.3948289595173,598.9490464814232 M581.3948289595173,598.9490464814232 L582.4196874641723,597.675126886922 M582.4196874641723,597.675126886922 L583.2867362061704,596.3123426459131 M583.2867362061704,596.3123426459131 L583.9455936654665,594.939870373757 M583.9455936654665,594.939870373757 L584.357971811633,593.6374620743435 M584.357971811633,593.6374620743435 L584.4999007487975,592.4807995362056 M584.4999007487975,592.4807995362056 L584.3631226447947,591.5371033378598 M584.3631226447947,591.5371033378598 L583.955573813176,590.8612247421077 M583.955573813176,590.8612247421077 L583.3009264028126,590.4924547303722 M583.3009264028126,590.4924547303722 L582.4372156609493,590.4522431219168 M582.4372156609493,590.4522431219168 L581.4146319017032,590.742934548965 M581.4146319017032,590.742934548965 L580.2926046537254,591.3476541522397 M580.2926046537254,591.3476541522397 L579.1363490586893,592.2312597484322 M579.1363490586893,592.2312597484322 L578.0130742024376,593.3423967058511 M578.0130742024376,593.3423967058511 L576.9880735631409,594.6164838076264 M576.9880735631409,594.6164838076264 L576.120928641895,595.9794539561597 M576.120928641895,595.9794539561597 L575.4620428170902,597.3520880824215 M575.4620428170902,597.3520880824215 L575.0497116892793,598.6545962838838 M575.0497116892793,598.6545962838838 L574.9078929776399,599.8112749597067 M555.7198535904956,614.4753009392913 L555.8570858398853,615.4188385682471 M555.8570858398853,615.4188385682471 L556.2651550544424,616.0944313880034 M556.2651550544424,616.0944313880034 L556.9203301645484,616.4628314115113 M556.9203301645484,616.4628314115113 L557.7845259626404,616.5026401487327 M557.7845259626404,616.5026401487327 L558.807512073583,616.2115676946576 M558.807512073583,616.2115676946576 L559.9298354011792,615.606535498055 M559.9298354011792,615.606535498055 L561.0862819142526,614.7227107097895 M561.0862819142526,614.7227107097895 L562.2096494762131,613.6114594401083 M562.2096494762131,613.6114594401083 L563.2346697783651,612.3373475865974 M563.2346697783651,612.3373475865974 L564.1017828007509,610.9744163261167 M564.1017828007509,610.9744163261167 L564.7606023274689,609.601851548283 M564.7606023274689,609.601851548283 L565.1728442116228,608.2994093469172 M565.1728442116228,608.2994093469172 L565.3145440186438,607.1427753557393 M565.3145440186438,607.1427753557393 L565.1774607798391,606.1991657810248 M565.1774607798391,606.1991657810248 L564.7695449828495,605.5234295705068 M564.7695449828495,605.5234295705068 L564.1144925510432,605.1548475605375 M564.1144925510432,605.1548475605375 L563.2503605877478,605.1148599325106 M563.2503605877478,605.1148599325106 L562.2273648447995,605.4057975717676 M562.2273648447995,605.4057975717676 L561.1049606246563,606.0107699154164 M561.1049606246563,606.0107699154164 L559.9483804898164,606.8946235235435 M559.9483804898164,606.8946235235435 L558.8248571885126,608.005985683509 M558.8248571885126,608.005985683509 L557.7996947070485,609.2802650948659 M557.7996947070485,609.2802650948659 L556.9324856366677,610.643382193972 M556.9324856366677,610.643382193972 L556.273638197408,612.0161085189628 M556.273638197408,612.0161085189628 L555.8614429301176,613.3186509671865 M555.8614429301176,613.3186509671865 L555.7198535904956,614.4753009392913 M536.5264472010929,629.1434285292052 L536.6639880864082,630.086876911588 M536.6639880864082,630.086876911588 L537.0724215368573,630.762329463369 M537.0724215368573,630.762329463369 L537.7280043295445,631.1305394606645 M537.7280043295445,631.1305394606645 L538.5926185411804,631.1701263543544 M538.5926185411804,631.1701263543544 L539.616016213854,630.878807989966 M539.616016213854,630.878807989966 L540.7387180457533,630.2735218579877 M540.7387180457533,630.2735218579877 L541.8954880160004,629.3894498646289 M541.8954880160004,629.3894498646289 L543.0191051948198,628.2779724847526 M543.0191051948198,628.2779724847526 L544.0442867728902,627.0036687516662 M544.0442867728902,627.0036687516662 L544.9114610747313,625.6405927377953 M544.9114610747313,625.6405927377953 L545.5702450528665,624.2679335983368 M545.5702450528665,624.2679335983368 L545.9823476064582,622.9654598015037 M545.9823476064582,622.9654598015037 L546.1238214118025,621.8088519254105 M546.1238214118025,621.8088519254105 L545.9864296105627,620.8653315527997 M545.9864296105627,620.8653315527997 L545.5781496351253,620.1897355590779 M545.5781496351253,620.1897355590779 L544.9226895497236,619.8213435283926 M544.9226895497236,619.8213435283926 L544.05813916635,619.7815777125953 M544.05813916635,619.7815777125953 L543.0347318212866,620.0727612532592 M543.0347318212866,620.0727612532592 L541.9119490317964,620.6779875479583 M541.9119490317964,620.6779875479583 L540.755045364979,621.5620883978431 M540.755045364979,621.5620883978431 L539.6312723793897,622.6736767172592 M539.6312723793897,622.6736767172592 L538.605948577404,623.9481480587538 M538.605948577404,623.9481480587538 L537.7386782164224,625.311409951315 M537.7386782164224,625.311409951315 L537.0798663494579,626.6842306589322 M537.0798663494579,626.6842306589322 L536.6678104673958,627.9868046988867 M536.6678104673958,627.9868046988867 L536.5264472010929,629.1434285292052 M663.9182646316026,455.14322993524917 L656.6965852084738,449.6494375565192 M519.8806042236831,565.1402570348046 L512.658904008319,559.6349179912436 M644.713562933754,462.46918318722095 L642.3064197282672,460.6375987841106 M644.713562933754,462.46918318722095 L637.517348092412,467.9643208040776 M637.517348092412,467.9643208040776 L635.1102044459328,466.1325441938428 M529.4834348760121,550.4606377568612 L527.0762861964654,548.6259744053576 M529.4834348760121,550.4606377568612 L522.2751225577049,555.9650131886256 M522.2751225577049,555.9650131886256 L519.8679736482638,554.1301571451222 M639.6530903874279,561.3377088418736 L632.439831627496,555.8437894863034 M620.4811418307006,575.9909762759848 L613.2678797472006,570.495520951914 M601.3038327403349,590.6483408071002 L594.090567613352,585.1513488703082 M582.1211608677852,605.3098041538002 L574.9078929776399,599.8112749597067 M562.9331239632477,619.9753680356273 L555.7198535904956,614.4753009392913 M543.7397197756598,634.6450341730856 L536.5264472010929,629.1434285292052 M649.4698383041778,483.7249481206514 L644.6564237470839,480.0618259559364 M644.6564237470839,480.0618259559364 L637.4618836508355,485.5566052812617 M637.4618836508355,485.5566052812617 L642.2752991025889,489.22011177578804 M637.4896126384695,476.76148853885303 L637.517348092412,467.9643208040776 M642.3035902506313,480.42511453361806 L637.4896126384695,476.76148853885303 M637.4341611272496,494.3496717484795 L637.4618836508355,485.5566052812617 M635.0278606330132,492.51807434557253 L637.4341611272496,494.3496717484795 M644.6849900098141,471.26653003484876 L649.4989667270038,474.92977164246014 M644.6849900098141,471.26653003484876 L637.4896126384695,476.76148853885303 M644.713562933754,462.46918318722095 L644.6849900098141,471.26653003484876 M644.6564237470839,480.0618259559364 L644.6278641432332,488.8550716675995 M642.221564089527,487.02366638581566 L644.6278641432332,488.8550716675995 M534.2665595826429,571.7168058956902 L529.4531338724294,568.0475271882917 M529.4531338724294,568.0475271882917 L522.2465019378685,573.5515415699621 M522.2465019378685,573.5515415699621 L527.0599281208404,577.2212055765083 M529.4834348760121,550.4606377568612 L529.4682826065118,559.2551084616691 M529.4682826065118,559.2551084616691 L534.2822704807236,562.9245075313712 M529.4531338724294,568.0475271882917 L529.4379886725271,576.8378946548153 M527.0316831505033,575.0034118035561 L529.4379886725271,576.8378946548153 M522.2608105780209,564.7593034011941 L522.2751225577049,555.9650131886256 M527.0747989251568,568.4290878276443 L522.2608105780209,564.7593034011941 M522.2321966360787,582.341728413076 L522.2465019378685,573.5515415699621 M519.8258908844016,580.507052956205 L522.2321966360787,582.341728413076 M529.4682826065118,559.2551084616691 L522.2608105780209,564.7593034011941 M644.6278641432332,488.8550716675995 L637.4341611272496,494.3496717484795 M529.4379886725271,576.8378946548153 L522.2321966360787,582.341728413076" stroke="black"  stroke-width="4"  fill="red"/>
<path d="M649.2370551680044,554.0126109994003 L265.58218968673583,261.84579300541884 M639.6530903874279,561.3377088418736 L255.99820425986968,269.13011239969035 M649.2370551680044,554.0126109994003 L649.1012938083672,553.068686870688 M649.1012938083672,553.068686870688 L648.6949391993014,552.3924351756647 M648.6949391993014,552.3924351756647 L648.0415875438559,552.0231735784442 M648.0415875438559,552.0231735784442 L647.1792061168599,551.9823748563842 M647.1792061168599,551.9823748563842 L646.1579022170386,552.2724221597841 M646.1579022170386,552.2724221597841 L645.037035082946,552.8764749224963 M645.037035082946,552.8764749224963 L643.881747932807,553.7594331481107 M643.881747932807,553.7594331481107 L642.7591983400434,554.8699761756488 M642.7591983400434,554.8699761756488 L641.7346336816001,556.1435603221144 M641.7346336816001,556.1435603221144 L640.8676140828895,557.5061446990787 M640.8676140828895,557.5061446990787 L640.2085300175911,558.8785369574451 M640.2085300175911,558.8785369574451 L639.7956948007638,560.180956529202 M639.7956948007638,560.180956529202 L639.6530903874279,561.3377088418736 M265.58218968673583,261.84579300541884 L265.441086735353,260.9001438967358 M265.441086735353,260.9001438967358 L265.0297001882753,260.22108263416317 M265.0297001882753,260.22108263416317 L264.3719187298356,259.8480900475812 M264.3719187298356,259.8480900475812 L263.5059671601609,259.80285570047147 M263.5059671601609,259.80285570047147 L262.48216029476345,260.0880204392905 M262.48216029476345,260.0880204392905 L261.36000293283536,260.68702746434514 M261.36000293283536,260.68702746434514 L260.2047132936189,261.56507002332603 M260.2047132936189,261.56507002332603 L259.08344909527995,262.67111321960016 M259.08344909527995,262.67111321960016 L258.06138299476095,263.9408749521814 M258.06138299476095,263.9408749521814 L257.19792981309513,265.30053657228154 M257.19792981309513,265.30053657228154 L256.54327272368477,266.67107564318314 M256.54327272368477,266.67107564318314 L256.13546768056733,267.97281936128195 M256.13546768056733,267.97281936128195 L255.99820425986968,269.13011239969035 M639.6530903874279,561.3377088418736 L639.7890004691023,562.2815611847545 M639.7890004691023,562.2815611847545 L640.1955082755369,562.9576696753531 M640.1955082755369,562.9576696753531 L640.8489825086242,563.3267494554075 M640.8489825086242,563.3267494554075 L641.7114278119373,563.3673694007567 M641.7114278119373,563.3673694007567 L642.7327222541146,563.0771873148946 M642.7327222541146,563.0771873148946 L643.8535087628557,562.4730746425776 M643.8535087628557,562.4730746425776 L645.0086625900474,561.5901451041442 M645.0086625900474,561.5901451041442 L646.1310567054531,560.4797127885772 M646.1310567054531,560.4797127885772 L647.1554793497189,559.2062960168599 M647.1554793497189,559.2062960168599 L648.0224029313049,557.8438973323646 M648.0224029313049,557.8438973323646 L648.6814589724422,556.4716665460335 M648.6814589724422,556.4716665460335 L649.0943405791206,555.1693472333952 M649.0943405791206,555.1693472333952 L649.2370551680044,554.0126109994003 M255.99820425986968,269.13011239969035 L256.1394557319939,270.0756905994061 M256.1394557319939,270.0756905994061 L256.5509949169935,270.754609678212 M256.5509949169935,270.754609678212 L257.2088981636367,271.1274213782633 M257.2088981636367,271.1274213782633 L258.0749127710551,271.1724775760731 M258.0749127710551,271.1724775760731 L259.09870948319866,270.8871782352526 M259.09870948319866,270.8871782352526 L260.22078582649215,270.2881109927574 M260.22078582649215,270.2881109927574 L261.3759421418976,269.41009639534707 M261.3759421418976,269.41009639534707 L262.49705125463305,268.30416293389044 M262.49705125463305,268.30416293389044 L263.5189760356034,267.03456757121137 M263.5189760356034,267.03456757121137 L264.3823340385099,265.67509084124276 M264.3823340385099,265.67509084124276 L265.03696389380957,264.30471282634846 M265.03696389380957,264.30471282634846 L265.4448158875179,263.00306943296414 M265.4448158875179,263.00306943296414 L265.58218968673583,261.84579300541884" stroke="black"  stroke-width="4"  fill="red"/>
<path d="M630.0677860352839,568.6638305291775 L246.41288299281578,276.4154471008675 M620.4811418307006,575.9909762759848 L236.8262256062656,283.70179732123916 M630.0677860352839,568.6638305291775 L629.9317213472136,567.7199917969749 M629.9317213472136,567.7199917969749 L629.5249987360762,567.0438834304957 M629.5249987360762,567.0438834304957 L628.8712447941939,566.6748078841699 M628.8712447941939,566.6748078841699 L628.0084411666016,566.6342340108921 M628.0084411666016,566.6342340108921 L626.9867264097816,566.9245267588511 M626.9867264097816,566.9245267588511 L625.8654813606472,567.5288330439147 M625.8654813606472,567.5288330439147 L624.7098712039879,568.4120381356557 M624.7098712039879,568.4120381356557 L623.5870722929924,569.5228070219213 M623.5870722929924,569.5228070219213 L622.5623464993921,570.7965828901943 M622.5623464993921,570.7965828901943 L621.6952610303767,572.159315452149 M621.6952610303767,572.159315452149 L621.0362169137616,573.5317986045038 M621.0362169137616,573.5317986045038 L620.6235161317429,574.8342533802564 M620.6235161317429,574.8342533802564 L620.4811418307006,575.9909762759848 M246.41288299281578,276.4154471008675 L246.27147681986526,275.4698816988078 M246.27147681986526,275.4698816988078 L245.85972258824577,274.7909616579542 M245.85972258824577,274.7909616579542 L245.20153935316017,274.4181527592242 M245.20153935316017,274.4181527592242 L244.33516625531863,274.3731407406158 M244.33516625531863,274.3731407406158 L243.31094932893834,274.65854842152726 M243.31094932893834,274.65854842152726 L242.18841492530066,275.2578066200208 M242.18841492530066,275.2578066200208 L241.03280317944547,276.13609398630183 M241.03280317944547,276.13609398630183 L239.91129053697668,277.24236139226946 M239.91129053697668,277.24236139226946 L238.88906409879604,278.51231370329765 M238.88906409879604,278.51231370329765 L238.02554572133187,279.87212292745676 M238.02554572133187,279.87212292745676 L237.37092909291704,281.2427529362441 M237.37092909291704,281.2427529362441 L236.9632588049296,282.5445324861754 M236.9632588049296,282.5445324861754 L236.8262256062656,283.70179732123916 M620.4811418307006,575.9909762759848 L620.6173553136362,576.9347431784377 M620.6173553136362,576.9347431784377 L621.0242311799657,577.6107082889615 M621.0242311799657,577.6107082889615 L621.6781077283156,577.9796019715474 M621.6781077283156,577.9796019715474 L622.5409752258702,578.0199970365422 M622.5409752258702,578.0199970365422 L623.5626804847932,577.7295694971845 M623.5626804847932,577.7295694971845 L624.6838448437086,577.1252033181172 M624.6838448437086,577.1252033181172 L625.8393216027989,576.242026950123 M625.8393216027989,576.242026950123 L626.9619649691558,575.1313688249815 M626.9619649691558,575.1313688249815 L627.986548704052,573.8577603819367 M627.986548704052,573.8577603819367 L628.8535381439556,572.4952135529138 M628.8535381439556,572.4952135529138 L629.5125542608587,571.1228918931598 M629.5125542608587,571.1228918931598 L629.9253014864883,569.8205373733442 M629.9253014864883,569.8205373733442 L630.0677860352839,568.6638305291775 M236.8262256062656,283.70179732123916 L236.96778037243908,284.64729177097917 M236.96778037243908,284.64729177097917 L237.37968729944532,285.3260695770583 M237.37968729944532,285.3260695770583 L238.03799235127528,285.69869754303886 M238.03799235127528,285.69869754303886 L238.90442848035693,285.7435313808841 M238.90442848035693,285.7435313808841 L239.9286352132528,285.4579890888705 M239.9286352132528,285.4579890888705 L241.05108853357703,284.85867068813945 M241.05108853357703,284.85867068813945 L242.20656688131123,283.9804113194532 M242.20656688131123,283.9804113194532 L243.3279243712589,282.874253696895 M243.3279243712589,282.874253696895 L244.3500094456956,281.6044678057972 M244.3500094456956,281.6044678057972 L245.21343263263722,280.2448435119914 M245.21343263263722,280.2448435119914 L245.8680220514544,278.8743745798078 M245.8680220514544,278.8743745798078 L246.27573934368442,277.57269535169667 M246.27573934368442,277.57269535169667 L246.41288299281578,276.4154471008675" stroke="black"  stroke-width="4"  fill="red"/>
<path d="M610.8931574927271,583.3191462970283 L227.2382318208324,290.98916327315334 M601.3038327403349,590.6483408071002 L217.6489013570519,298.27754516901734 M610.8931574927271,583.3191462970283 L610.7567858826806,582.375395666939 M610.7567858826806,582.375395666939 L610.3496985087847,581.6994281146308 M610.3496985087847,581.6994281146308 L609.6955397947913,581.3305404850214 M609.6955397947913,581.3305404850214 L608.8323160504435,581.2901898405205 M608.8323160504435,581.2901898405205 L607.810191389947,581.5807272852647 M607.810191389947,581.5807272852647 L606.6885659718719,582.1852889582652 M606.6885659718719,582.1852889582652 L605.5326349596146,583.0687392722347 M605.5326349596146,583.0687392722347 L604.409584348396,584.1797358476017 M604.409584348396,584.1797358476017 L603.3846985128005,585.4537026213758 M603.3846985128005,585.4537026213758 L602.5175494570151,586.8165816504036 M602.5175494570151,586.8165816504036 L601.8585430507082,588.1891574414585 M601.8585430507082,588.1891574414585 L601.4459802245096,589.4916447686705 M601.4459802245096,589.4916447686705 L601.3038327403349,590.6483408071002 M227.2382318208324,290.98916327315334 L227.09651883347908,290.04368426751205 M227.09651883347908,290.04368426751205 L226.68440015749204,289.36490294716236 M226.68440015749204,289.36490294716236 L226.02581266102607,288.9922795908327 M226.02581266102607,288.9922795908327 L225.15902011984406,288.94748828885787 M225.15902011984406,288.94748828885787 L224.1343940867636,289.2331381674281 M224.1343940867636,289.2331381674281 L223.01148018839893,289.83264939383724 M223.01148018839893,289.83264939383724 L221.85554848758272,290.7111799321013 M221.85554848758272,290.7111799321013 L220.73378501957328,291.8176733675503 M220.73378501957328,291.8176733675503 L219.7113993372692,293.0878154450739 M219.7113993372692,293.0878154450739 L218.8478180476946,294.4477705649615 M218.8478180476946,294.4477705649615 L218.19323964180683,295.81849324686806 M218.19323964180683,295.81849324686806 L217.78570762964588,297.120305991298 M217.78570762964588,297.120305991298 L217.6489013570519,298.27754516901734 M601.3038327403349,590.6483408071002 L601.4403532184883,591.5920195631574 M601.4403532184883,591.5920195631574 L601.8475939050602,592.2678438082885 M601.8475939050602,592.2678438082885 L602.5018752544195,592.6365495274214 M602.5018752544195,592.6365495274214 L603.3651628622997,592.6767213322066 M603.3651628622997,592.6767213322066 L604.3872779846808,592.3860490871518 M604.3872779846808,592.3860490871518 L605.5088226474438,591.7814275357666 M605.5088226474438,591.7814275357666 L606.6646201877275,590.8980059820797 M606.6646201877275,590.8980059820797 L607.787515186657,589.7871202171309 M607.787515186657,589.7871202171309 L608.8122589191821,588.5133209190176 M608.8122589191821,588.5133209190176 L609.6793119342849,587.1506276631764 M609.6793119342849,587.1506276631764 L610.3382903649367,585.7782133855067 M610.3382903649367,585.7782133855067 L610.7508996891065,584.4758263106596 M610.7508996891065,584.4758263106596 L610.8931574927271,583.3191462970283 M217.6489013570519,298.27754516901734 L217.7907630105218,299.22295317862563 M217.7907630105218,299.22295317862563 L218.20303443902205,299.90159221349984 M218.20303443902205,299.90159221349984 L218.86174378084502,300.27403459069916 M218.86174378084502,300.27403459069916 L219.72859934668847,300.3186476805864 M219.72859934668847,300.3186476805864 L220.75321514608945,300.03286318183854 M220.75321514608945,300.03286318183854 L221.8760478962367,299.43329176841104 M221.8760478962367,299.43329176841104 L223.03184612483918,298.5547892637371 M223.03184612483918,298.5547892637371 L224.1534543730399,297.44840566042876 M224.1534543730399,297.44840566042876 L225.17569864756516,296.17843005281713 M225.17569864756516,296.17843005281713 L226.03918473527014,294.8186599032985 M226.03918473527014,294.8186599032985 L226.69373595568194,293.4480983188091 M226.69373595568194,293.4480983188091 L227.10131502633615,292.14638589291803 M227.10131502633615,292.14638589291803 L227.2382318208324,290.98916327315334" stroke="black"  stroke-width="4"  fill="red"/>
<path d="M591.7131672924163,597.9785600210532 L208.05823393538176,305.5669432212975 M582.1211608677852,605.3098041538002 L198.46622927620152,312.8573576425199 M591.7131672924163,597.9785600210532 L591.5764899071726,597.0348965756355 M591.5764899071726,597.0348965756355 L591.1690359834377,596.3590711647803 M591.1690359834377,596.3590711647803 L590.5144721535655,595.9903716806625 M590.5144721535655,595.9903716806625 L589.6508288058753,595.9502438451791 M589.6508288058753,595.9502438451791 L588.6282923371537,596.2410274231353 M588.6282923371537,596.2410274231353 L587.5062895258593,596.845842199921 M587.5062895258593,596.845842199921 L586.3500340931573,597.7295404606458 M586.3500340931573,597.7295404606458 L585.2267351154514,598.8407621870942 M585.2267351154514,598.8407621870942 L584.2016874730916,600.1149212343241 M584.2016874730916,600.1149212343241 L583.3344754006548,601.4779463220601 M583.3344754006548,601.4779463220601 L582.6755061797387,602.8506151869688 M582.6755061797387,602.8506151869688 L582.2630802591107,604.1531359069347 M582.2630802591107,604.1531359069347 L582.1211608677852,605.3098041538002 M208.05823393538176,305.5669432212975 L207.91621528112117,304.6215496989952 M207.91621528112117,304.6215496989952 L207.50373037453946,303.9429084182003 M207.50373037453946,303.9429084182003 L206.8447382738717,303.57047083088503 M206.8447382738717,303.57047083088503 L205.97752680374447,303.5258998272407 M205.97752680374447,303.5258998272407 L204.95248976037388,303.81179333107275 M204.95248976037388,303.81179333107275 L203.82919934389,304.41155531324466 M203.82919934389,304.41155531324466 L202.6729441240179,305.2903317322733 M202.6729441240179,305.2903317322733 L201.55093316478903,306.39704867292266 M201.55093316478903,306.39704867292266 L200.5283864739672,307.667381877088 M200.5283864739672,307.667381877088 L199.6647428425483,309.02748248663636 M199.6647428425483,309.02748248663636 L199.01020213418164,310.39829827462734 M199.01020213418164,310.39829827462734 L198.60280734727604,311.70014505060055 M198.60280734727604,311.70014505060055 L198.46622927620152,312.8573576425199 M582.1211608677852,605.3098041538002 L582.2579873640209,606.2533955512677 M582.2579873640209,606.2533955512677 L582.6655942024925,606.9290779517812 M582.6655942024925,606.9290779517812 L583.3202811254387,607.2975951509163 M583.3202811254387,607.2975951509163 L584.1839884731387,607.3375440060393 M584.1839884731387,607.3375440060393 L585.2065153633989,607.0466256188402 M585.2065153633989,607.0466256188402 L586.3284370686413,606.4417511977992 M586.3284370686413,606.4417511977992 L587.4845589545221,605.5580817340058 M587.4845589545221,605.5580817340058 L588.6077025385891,604.446970648649 M588.6077025385891,604.446970648649 L589.6326080332178,603.1729791276429 M589.6326080332178,603.1729791276429 L590.4997239105869,601.8101399625439 M590.4997239105869,601.8101399625439 L591.1586647510669,600.4376329595689 M591.1586647510669,600.4376329595689 L591.5711376794361,599.1352121403153 M591.5711376794361,599.1352121403153 L591.7131672924163,597.9785600210532 M198.46622927620152,312.8573576425199 L198.60839683911567,313.8026799961621 M198.60839683911567,313.8026799961621 L199.02103409991312,314.4811792869 M199.02103409991312,314.4811792869 L199.68014850336013,314.8534355227597 M199.68014850336013,314.8534355227597 L200.5474231344781,314.897828174388 M200.5474231344781,314.897828174388 L201.5724499038459,314.6118000412819 M201.5724499038459,314.6118000412819 L202.69565882156203,314.0119781046054 M202.69565882156203,314.0119781046054 L203.8517804946851,313.1332297552724 M203.8517804946851,313.1332297552724 L204.97363645311913,312.0266224780929 M204.97363645311913,312.0266224780929 L205.9960416918331,310.7564557939502 M205.9960416918331,310.7564557939502 L206.85958996722078,309.3965403033748 M206.85958996722078,309.3965403033748 L207.51410308539508,308.0258859595525 M207.51410308539508,308.0258859595525 L207.92154544045457,306.7241391526949 M207.92154544045457,306.7241391526949 L208.05823393538176,305.5669432212975" stroke="black"  stroke-width="4"  fill="red"/>
<path d="M572.5278131851767,612.6420734203139 L188.87288709981308,320.14878864526924 M562.9331239632477,619.9753680356273 L179.27820712644004,327.44123644218996 M572.5278131851767,612.6420734203139 L572.3908306632025,611.6984966306117 M572.3908306632025,611.6984966306117 L571.9830097682034,611.0228136447108 M571.9830097682034,611.0228136447108 L571.3280409073725,610.6543022072109 M571.3280409073725,610.6543022072109 L570.4639763256641,610.6143983996685 M570.4639763256641,610.6143983996685 L569.4410278583148,610.9054282371683 M569.4410278583148,610.9054282371683 L568.3186480584582,611.5104957985877 M568.3186480584582,611.5104957985877 L567.1620680690373,612.3944421102186 M567.1620680690373,612.3944421102186 L566.0385206298295,613.5058890702476 M566.0385206298295,613.5058890702476 L565.0133111302741,614.7802404486658 M565.0133111302741,614.7802404486658 L564.1460348959702,616.1434124977636 M564.1460348959702,616.1434124977636 L563.4871040509026,617.5161735606554 M563.4871040509026,617.5161735606554 L563.0748139846985,618.8187285153723 M563.0748139846985,618.8187285153723 L562.9331239632477,619.9753680356273 M188.87288709981308,320.14878864526924 L188.73056341782672,319.2034800795499 M188.73056341782672,319.2034800795499 L188.31771186008254,318.5249791193899 M188.31771186008254,318.5249791193899 L187.65831524107983,318.1527272018786 M187.65831524107983,318.1527272018786 L186.79068321231424,318.1083777078174 M186.79068321231424,318.1083777078174 L185.76523496921354,318.3945149617131 M185.76523496921354,318.3945149617131 L184.64156844014946,318.99452738155446 M184.64156844014946,318.99452738155446 L183.48498956570478,319.87354978434286 M183.48498956570478,319.87354978434286 L182.36273102082276,320.9804903118396 M182.36273102082276,320.9804903118396 L181.34002327142932,322.25101469986555 M181.34002327142932,322.25101469986555 L180.47631615309865,323.61126169672355 M180.47631615309865,323.61126169672355 L179.82181433262156,324.9821697200425 M179.82181433262156,324.9821697200425 L179.41455571950485,326.2840513653 M179.41455571950485,326.2840513653 L179.27820712644004,327.44123644218996 M562.9331239632477,619.9753680356273 L563.0702554995742,620.9188728629821 M563.0702554995742,620.9188728629821 L563.4782298226776,621.5944124388484 M563.4782298226776,621.5944124388484 L564.1333213767011,621.9627418723451 M564.1333213767011,621.9627418723451 L564.9974498090428,622.0024667772902 M564.9974498090428,622.0024667772902 L566.0203886575389,621.7113021216314 M566.0203886575389,621.7113021216314 L567.1426875723043,621.1061747131339 M567.1426875723043,621.1061747131339 L568.2991339400089,620.2222572351103 M568.2991339400089,620.2222572351103 L569.4225256325076,619.1109211838332 M569.4225256325076,619.1109211838332 L570.4475929396551,617.836737382219 M570.4475929396551,617.836737382219 L571.3147731101396,616.4737511868527 M571.3147731101396,616.4737511868527 L571.9736760277367,615.1011516789107 M571.9736760277367,615.1011516789107 L572.3860127001919,613.7986969697465 M572.3860127001919,613.7986969697465 L572.5278131851767,612.6420734203139 M179.27820712644004,327.44123644218996 L179.42067962009216,328.38647392469784 M179.42067962009216,328.38647392469784 L179.83368404506137,329.06483249757014 M179.83368404506137,329.06483249757014 L180.49320256667585,329.43690334313624 M180.49320256667585,329.43690334313624 L181.36089760690695,329.4810745624443 M181.36089760690695,329.4810745624443 L182.3863355356369,329.19480267019367 M182.3863355356369,329.19480267019367 L183.5099207870833,328.59473009384294 M183.5099207870833,328.59473009384294 L184.6663660401968,327.71573579688237 M184.6663660401968,327.71573579688237 L185.7884692315772,326.60890519873817 M185.7884692315772,326.60890519873817 L186.8110354845181,325.3385473808622 M186.8110354845181,325.3385473808622 L187.6746473782898,323.97848543444 M187.6746473782898,323.97848543444 L188.32912206160447,322.6077385501607 M188.32912206160447,322.6077385501607 L188.7364278412755,321.3059572172093 M188.7364278412755,321.3059572172093 L188.87288709981308,320.14878864526924" stroke="black"  stroke-width="4"  fill="red"/>
<path d="M553.3370929205757,627.3096882148334 L169.6821890762281,334.7347012459855 M543.7397197756598,634.6450341730856 L160.0848326692448,342.02918326941915 M553.3370929205757,627.3096882148334 L553.1998018342244,626.3662006596038 M553.1998018342244,626.3662006596038 L552.7916167548681,625.6906579300079 M552.7916167548681,625.6906579300079 L552.1362402309085,625.3223365168681 M552.1362402309085,625.3223365168681 L551.2717572165166,625.2826545688567 M551.2717572165166,625.2826545688567 L550.2483971321094,625.5739303550811 M550.2483971321094,625.5739303550811 L549.1256387464923,626.1792519119512 M549.1256387464923,626.1792519119512 L547.9687352081646,627.0634455042418 M547.9687352081646,627.0634455042418 L546.84493806821,628.1751186548629 M546.84493806821,628.1751186548629 L545.8195672330983,629.4496619849895 M545.8195672330983,629.4496619849895 L544.9522296954578,630.8129788381045 M544.9522296954578,630.8129788381045 L544.2933344129913,632.1858342831015 M544.2933344129913,632.1858342831015 L543.8811837259243,633.488420817252 M543.8811837259243,633.488420817252 L543.7397197756598,634.6450341730856 M169.6821890762281,334.7347012459855 L169.53955693959006,333.78948020049495 M169.53955693959006,333.78948020049495 L169.12634151844364,333.1111174035588 M169.12634151844364,333.1111174035588 L168.46653774988724,332.7390531216878 M168.46653774988724,332.7390531216878 L167.5984879647983,332.69492297999636 M167.5984879647983,332.69492297999636 L166.57262890449917,332.9813036740416 M166.57262890449917,332.9813036740416 L165.44858466654193,333.5815677349042 M165.44858466654193,333.5815677349042 L164.29168314609237,334.4608353549213 M164.29168314609237,334.4608353549213 L163.16917577689634,335.5680004205522 M163.16917577689634,335.5680004205522 L162.14630749094655,336.8387156148811 M162.14630749094655,336.8387156148811 L161.28253974437837,338.19910685374555 M161.28253974437837,338.19910685374555 L160.62807399845823,339.5701092845826 M160.62807399845823,339.5701092845826 L160.22095508351785,340.87202315903374 M160.22095508351785,340.87202315903374 L160.0848326692448,342.02918326941915 M543.7397197756598,634.6450341730856 L543.8771599498602,635.5884497214877 M543.8771599498602,635.5884497214877 L544.2854985147721,636.2638489898602 M544.2854985147721,636.2638489898602 L544.9409977609157,636.6319883520617 M544.9409977609157,636.6319883520617 L545.8055446194089,636.6714913661717 M545.8055446194089,636.6714913661717 L546.828895044579,636.3800807528851 M546.828895044579,636.3800807528851 L547.9515724800572,635.774699364619 M547.9515724800572,635.774699364619 L549.108342321859,634.8905346426108 M549.108342321859,634.8905346426108 L550.2319836476706,633.7789724500076 M550.2319836476706,633.7789724500076 L551.2572122457655,632.5045967472555 M551.2572122457655,632.5045967472555 L552.1244537084367,631.1414657879412 M552.1244537084367,631.1414657879412 L552.7833210871443,629.7687719188954 M552.7833210871443,629.7687719188954 L553.1955184351302,628.4662856265555 M553.1955184351302,628.4662856265555 L553.3370929205757,627.3096882148334 M160.0848326692448,342.02918326941915 L160.22761369069627,342.9743331877893 M160.22761369069627,342.9743331877893 L160.64098203616126,343.65255354677015 M160.64098203616126,343.65255354677015 L161.30090773603354,344.0244367101177 M161.30090773603354,344.0244367101177 L162.16902052590862,344.0683885458596 M162.16902052590862,344.0683885458596 L163.19486923147633,343.7818732043912 M163.19486923147633,343.7818732043912 L164.31883212695828,343.1815490023016 M164.31883212695828,343.1815490023016 L165.47559995157997,342.3023095242439 M165.47559995157997,342.3023095242439 L166.59795190020498,341.195254436669 M166.59795190020498,341.195254436669 L167.62067864542507,339.9247058626081 M167.62067864542507,339.9247058626081 L168.48435115650744,338.5644997140122 M168.48435115650744,338.5644997140122 L169.1387897890415,337.1936584432427 M169.1387897890415,337.1936584432427 L169.54595592509335,335.8918448776486 M169.54595592509335,335.8918448776486 L169.6821890762281,334.7347012459855" stroke="black"  stroke-width="4"  fill="red"/>
<path d="M68.71229368892841,243.1355178084947 L68.67378898384908,234.3290277178904 M558.4425270772765,616.551320010374 L558.4610742084533,607.7569674374823 M68.71229368892841,243.1355178084947 L558.4425270772765,616.551320010374 M68.67378898384908,234.3290277178904 L558.4610742084533,607.7569674374823 M731.2875282798159,484.45319410911816 L731.3262110161509,475.65451232171836 M558.4425270772765,616.551320010374 L731.2875282798159,484.45319410911816 M558.4610742084533,607.7569674374823 L731.3262110161509,475.65451232171836 M241.55729831754564,111.97573432172675 L241.5389292192211,103.16505469627413 M731.2875282798159,484.45319410911816 L241.55729831754564,111.97573432172675 M731.3262110161509,475.65451232171836 L241.5389292192211,103.16505469627413 M241.55729831754564,111.97573432172675 L68.71229368892841,243.1355178084947 M241.5389292192211,103.16505469627413 L68.67378898384908,234.3290277178904" stroke="black"  stroke-width="4"  fill="red"/>
<path d="M534.2665595826429,571.7168058956902 L534.2822704807236,562.9245075313712 M534.2822704807236,562.9245075313712 L527.0747989251568,568.4290878276443 M527.0599281208404,577.2212055765083 L527.0747989251568,568.4290878276443 M534.2665595826429,571.7168058956902 L527.0599281208404,577.2212055765083 M155.0696330299461,291.43260335049814 L155.0411809763759,282.6329619147844 M155.0411809763759,282.6329619147844 L150.25426314280733,278.98389018536955 M150.22524848029124,270.1820835650973 L150.25426314280733,278.98389018536955 M150.22524848029124,270.1820835650973 L155.0127223015066,273.831272645921 M155.0127223015066,273.831272645921 L154.98425700302647,265.0275348289739 M529.4834348760121,550.4606377568612 L154.98425700302647,265.0275348289739 M529.4834348760121,550.4606377568612 L529.4682826065118,559.2551084616691 M529.4682826065118,559.2551084616691 L534.2822704807236,562.9245075313712 M534.2665595826429,571.7168058956902 L529.4531338724294,568.0475271882917 M529.4531338724294,568.0475271882917 L529.4379886725271,576.8378946548153 M155.0696330299461,291.43260335049814 L529.4379886725271,576.8378946548153 M527.0747989251568,568.4290878276443 L522.2608105780209,564.7593034011941 M529.4682826065118,559.2551084616691 L522.2608105780209,564.7593034011941 M143.017794804446,275.6559627265144 L143.04764955448712,284.45759330548543 M147.8052677095333,279.3055339847406 L143.017794804446,275.6559627265144 M147.77596212732507,270.5019721995557 L147.8052677095333,279.3055339847406 M522.2751225577049,555.9650131886256 L147.77596212732507,270.5019721995557 M522.2608105780209,564.7593034011941 L522.2751225577049,555.9650131886256 M522.2465019378685,573.5515415699621 L527.0599281208404,577.2212055765083 M522.2321966360787,582.341728413076 L522.2465019378685,573.5515415699621 M147.86385841784772,296.9065124269687 L522.2321966360787,582.341728413076 M147.83456647224745,288.10704715554664 L147.86385841784772,296.9065124269687 M143.04764955448712,284.45759330548543 L147.83456647224745,288.10704715554664 M529.4531338724294,568.0475271882917 L522.2465019378685,573.5515415699621 M155.0411809763759,282.6329619147844 L147.83456647224745,288.10704715554664 M155.0696330299461,291.43260335049814 L147.86385841784772,296.9065124269687 M150.25426314280733,278.98389018536955 L143.04764955448712,284.45759330548543 M150.22524848029124,270.1820835650973 L143.017794804446,275.6559627265144 M155.0127223015066,273.831272645921 L147.8052677095333,279.3055339847406 M154.98425700302647,265.0275348289739 L147.77596212732507,270.5019721995557 M529.4834348760121,550.4606377568612 L522.2751225577049,555.9650131886256 M529.4379886725271,576.8378946548153 L522.2321966360787,582.341728413076" stroke="black"  stroke-width="4"  fill="red"/>
<path d="M649.4698383041778,483.7249481206514 L649.4989667270038,474.92977164246014 M649.4989667270038,474.92977164246014 L642.3035902506313,480.42511453361806 M642.2752991025889,489.22011177578804 L642.3035902506313,480.42511453361806 M649.4698383041778,483.7249481206514 L642.2752991025889,489.22011177578804 M270.259509555435,203.9279359727919 L270.24447190630445,195.12548746814988 M270.24447190630445,195.12548746814988 L265.45754300876945,191.48252151591714 M265.44194587153197,182.6779097941515 L265.45754300876945,191.48252151591714 M265.44194587153197,182.6779097941515 L270.22943076057476,186.3209921918561 M270.22943076057476,186.3209921918561 L270.21438611702627,177.51444942994527 M644.713562933754,462.46918318722095 L270.21438611702627,177.51444942994527 M644.713562933754,462.46918318722095 L644.6849900098141,471.26653003484876 M644.6849900098141,471.26653003484876 L649.4989667270038,474.92977164246014 M649.4698383041778,483.7249481206514 L644.6564237470839,480.0618259559364 M644.6564237470839,480.0618259559364 L644.6278641432332,488.8550716675995 M270.259509555435,203.9279359727919 L644.6278641432332,488.8550716675995 M642.3035902506313,480.42511453361806 L637.4896126384695,476.76148853885303 M644.6849900098141,471.26653003484876 L637.4896126384695,476.76148853885303 M258.2465535107773,188.14262869116695 L258.2629879283543,196.9470657306004 M263.0340379057401,191.78609230732638 L258.2465535107773,188.14262869116695 M263.0181557867769,182.97972421774955 L263.0340379057401,191.78609230732638 M637.517348092412,467.9643208040776 L263.0181557867769,182.97972421774955 M637.4896126384695,476.76148853885303 L637.517348092412,467.9643208040776 M637.4618836508355,485.5566052812617 L642.2752991025889,489.22011177578804 M637.4341611272496,494.3496717484795 L637.4618836508355,485.5566052812617 M263.0657910667891,209.3926865441541 L637.4341611272496,494.3496717484795 M263.04991633198154,200.59041284478593 L263.0657910667891,209.3926865441541 M258.2629879283543,196.9470657306004 L263.04991633198154,200.59041284478593 M644.6564237470839,480.0618259559364 L637.4618836508355,485.5566052812617 M270.24447190630445,195.12548746814988 L263.04991633198154,200.59041284478593 M270.259509555435,203.9279359727919 L263.0657910667891,209.3926865441541 M265.45754300876945,191.48252151591714 L258.2629879283543,196.9470657306004 M265.44194587153197,182.6779097941515 L258.2465535107773,188.14262869116695 M270.22943076057476,186.3209921918561 L263.0340379057401,191.78609230732638 M270.21438611702627,177.51444942994527 L263.0181557867769,182.97972421774955 M644.713562933754,462.46918318722095 L637.517348092412,467.9643208040776 M644.6278641432332,488.8550716675995 L637.4341611272496,494.3496717484795" stroke="black"  stroke-width="4"  fill="red"/></svg>