<svg viewBox="0 0 800 800" xmlns="http://www.w3.org/2000/svg"><path d="M-224.66178583922215,482.6057099310485 L-251.34019242808063,474.14376868524494 M-702.0293649364487,618.4788349112839 L-728.4888315983915,609.1858363749557 M-224.66178583922215,482.6057099310485 L-255.0343342484225,426.92374298211354 M-255.0343342484225,426.92374298211354 L-296.3367759528634,383.9563111334392 M-296.3367759528634,383.9563111334392 L-346.6007414007182,356.1904819692403 M-346.6007414007182,356.1904819692403 L-403.3100874024899,345.4070613907058 M-403.3100874024899,345.4070613907058 L-463.4965013263204,352.5258873399815 M-463.4965013263204,352.5258873399815 L-523.8805552120045,377.4840426383386 M-523.8805552120045,377.4840426383386 L-581.0562695839095,419.1687272608441 M-581.0562695839095,419.1687272608441 L-631.7089783788692,475.42483414122535 M-631.7089783788692,475.42483414122535 L-672.847983062886,543.1500407080714 M-672.847983062886,543.1500407080714 L-702.0293649364487,618.4788349112839 M-251.34019242808063,474.14376868524494 L-281.76607773565183,418.58337487131746 M-281.76607773565183,418.58337487131746 L-323.1074428080681,375.6948223314891 M-323.1074428080681,375.6948223314891 L-373.39287602548916,347.9596907003868 M-373.39287602548916,347.9596907003868 L-430.10421479843444,337.15530735302946 M-430.10421479843444,337.15530735302946 L-490.2724533952137,344.20059131856084 M-490.2724533952137,344.20059131856084 L-550.618981352518,369.03475054250396 M-550.618981352518,369.03475054250396 L-607.7401607039593,410.55045455549214 M-607.7401607039593,410.55045455549214 L-658.3250085873824,466.60140885402245 M-658.3250085873824,466.60140885402245 L-699.3874879716468,534.0970604023673 M-699.3874879716468,534.0970604023673 L-728.4888315983915,609.1858363749557 M-154.71435765200033,462.6965747733953 L-181.41332776885326,454.35314661187874 M-154.71435765200033,462.6965747733953 L-224.66178583922215,482.6057099310485 M-181.41332776885326,454.35314661187874 L-251.34019242808063,474.14376868524494 M-779.9810253789151,640.6662145438645 L-806.3917199208527,631.2338236360296 M-702.0293649364487,618.4788349112839 L-779.9810253789151,640.6662145438645 M-728.4888315983915,609.1858363749557 L-806.3917199208527,631.2338236360296 M-168.2272384035249,-319.61296830955916 L-154.71435765200033,462.6965747733953 M-229.29194563138083,-307.0899326475967 L-168.2272384035249,-319.61296830955916 M-226.131369964314,-145.900573627192 L-229.29194563138083,-307.0899326475967 M-256.7480309025136,-139.12329334184278 L-226.131369964314,-145.900573627192 M-256.7480309025136,-139.12329334184278 L-260.10817443386793,-300.7701982252114 M-746.3902681589225,-201.04437822300292 L-260.10817443386793,-300.7701982252114 M-739.7266811170607,-32.21151445939927 L-746.3902681589225,-201.04437822300292 M-773.5942984899166,-24.714604982689366 L-739.7266811170607,-32.21151445939927 M-773.5942984899166,-24.714604982689366 L-780.5004903854337,-194.04911780545683 M-814.8338983626086,-187.0080868726376 L-780.5004903854337,-194.04911780545683 M-779.9810253789151,640.6662145438645 L-814.8338983626086,-187.0080868726376 M-259.16077834194755,233.02828731620883 L-258.70547440899827,226.64214220814745 M-258.70547440899827,226.64214220814745 L-257.10182861887677,220.3226424249612 M-257.10182861887677,220.3226424249612 L-254.44344627832947,214.4395005218326 M-254.44344627832947,214.4395005218326 L-250.88608552611572,209.33675046049183 M-250.88608552611572,209.33675046049183 L-246.6382092810568,205.31215786543925 M-246.6382092810568,205.31215786543925 L-241.94856105188592,202.59980020703006 M-241.94856105188592,202.59980020703006 L-237.09120877868804,201.35626211207014 M-237.09120877868804,201.35626211207014 L-232.3493373560533,201.6518735284913 M-232.3493373560533,201.6518735284913 L-227.99851271657406,203.467050244504 M-227.99851271657406,203.467050244504 L-224.29074484875036,206.69392504776857 M-224.29074484875036,206.69392504776857 L-221.439962207823,211.1432831679609 M-221.439962207823,211.1432831679609 L-219.61002846293388,216.55582446211113 M-219.61002846293388,216.55582446211113 L-218.90552643621027,222.61744630610437 M-218.90552643621027,222.61744630610437 L-219.3661855931408,228.97738785737346 M-219.3661855931408,228.97738785737346 L-220.96475808369587,235.26825335687016 M-220.96475808369587,235.26825335687016 L-223.60880062967874,241.12689004443425 M-223.60880062967874,241.12689004443425 L-227.14584040664124,246.21487789856215 M-227.14584040664124,246.21487789856215 L-231.37206969421925,250.2378329374849 M-231.37206969421925,250.2378329374849 L-236.04370409730132,252.96205296872301 M-236.04370409730132,252.96205296872301 L-240.89080235596612,254.22823578010667 M-240.89080235596612,254.22823578010667 L-245.63252865171887,253.96086370544865 M-245.63252865171887,253.96086370544865 L-249.99335028566986,252.1730518205734 M-249.99335028566986,252.1730518205734 L-253.7189670272436,248.9663982930169 M-253.7189670272436,248.9663982930169 L-256.59136163282915,244.52548561077109 M-256.59136163282915,244.52548561077109 L-258.44171924279544,239.1076789919088 M-258.44171924279544,239.1076789919088 L-259.16077834194755,233.02828731620883 M-340.65813204692336,254.10518913646115 L-340.2142034594963,247.6707536073652 M-340.2142034594963,247.6707536073652 L-338.6019736932419,241.30076798104108 M-338.6019736932419,241.30076798104108 L-335.9155887378048,235.36792810989922 M-335.9155887378048,235.36792810989922 L-332.3124210377806,230.2191822988147 M-332.3124210377806,230.2191822988147 L-328.00366486545715,226.15500005811504 M-328.00366486545715,226.15500005811504 L-323.24163907195714,223.4117639454476 M-323.24163907195714,223.4117639454476 L-318.3046599895457,222.14784047074417 M-318.3046599895457,222.14784047074417 L-313.48056851263664,222.43471602287258 M-313.48056851263664,222.43471602287258 L-309.04971589850766,224.25327641107785 M-309.04971589850766,224.25327641107785 L-305.26873883443113,227.4954166029859 M-305.26873883443113,227.4954166029859 L-302.3558147921642,231.9710119216056 M-302.3558147921642,231.9710119216056 L-300.47833631928745,237.41921222724238 M-300.47833631928745,237.41921222724238 L-299.74364165688723,243.52385541490003 M-299.74364165688723,243.52385541490003 L-300.1931410512908,249.93169132640386 M-300.1931410512908,249.93169132640386 L-301.8002549113478,256.27258422049124 M-301.8002549113478,256.27258422049124 L-304.47200933292777,262.1805030755212 M-304.47200933292777,262.1805030755212 L-308.0543835109121,267.314208816645 M-308.0543835109121,267.314208816645 L-312.3409468287805,271.37667718631735 M-312.3409468287805,271.37667718631735 L-317.0844645350793,274.1319184040614 M-317.0844645350793,274.1319184040614 L-322.0108602049653,275.41881567463656 M-322.0108602049653,275.41881567463656 L-326.834717481049,275.16061950142984 M-326.834717481049,275.16061950142984 L-331.27573874446045,273.36987413504744 M-331.27573874446045,273.36987413504744 L-335.0749577866227,270.1483124747108 M-335.0749577866227,270.1483124747108 L-338.01001817018005,265.6813449485103 M-338.01001817018005,265.6813449485103 L-339.9084562242207,260.22784515014473 M-339.9084562242207,260.22784515014473 L-340.65813204692336,254.10518913646115 M-423.4983875637216,275.52939314942626 L-423.0662576704574,269.0459323388333 M-423.0662576704574,269.0459323388333 L-421.4453925518761,262.6246520149358 M-421.4453925518761,262.6246520149358 L-418.730429239243,256.6412657235963 M-418.730429239243,256.6412657235963 L-415.0804316383019,251.44569739246518 M-415.0804316383019,251.44569739246518 L-410.70936277112753,247.34116312328564 M-410.70936277112753,247.34116312328564 L-405.873191716571,244.56639259494017 M-405.873191716571,244.56639259494017 L-400.85462159225835,243.281580874315 M-400.85462159225835,243.281580874315 L-395.946225363553,243.55938938349905 M-395.946225363553,243.55938938349905 L-391.43329526042317,245.38120105378573 M-391.43329526042317,245.38120105378573 L-387.57720343083383,248.6386772217619 M-387.57720343083383,248.6386772217619 L-384.6004628378498,253.14077243483814 M-384.6004628378498,253.14077243483814 L-382.67413345916066,258.6250817928503 M-382.67413345916066,258.6250817928503 L-381.90833107605727,264.7733440577889 M-381.90833107605727,264.7733440577889 L-382.34625576570465,271.2298001923654 M-382.34625576570465,271.2298001923654 L-383.9619624534366,277.6215182564085 M-383.9619624534366,277.6215182564085 L-386.6619958207898,283.5795570865469 M-386.6619958207898,283.5795570865469 L-390.29071223433994,288.7597996856799 M-390.29071223433994,288.7597996856799 L-394.63902407481135,292.8625406248217 M-394.63902407481135,292.8625406248217 L-399.4561755233801,295.6494612785482 M-399.4561755233801,295.6494612785482 L-404.46382066824594,296.9575829359966 M-404.46382066824594,296.9575829359966 L-409.37188924949555,296.7089042312864 M-409.37188924949555,296.7089042312864 L-413.89516410213355,294.91536894931954 M-413.89516410213355,294.91536894931954 L-417.7699032206905,291.67883802168626 M-417.7699032206905,291.67883802168626 L-420.76932182217945,287.1855586190923 M-420.76932182217945,287.1855586190923 L-422.7171646808051,281.6959160064838 M-422.7171646808051,281.6959160064838 L-423.4983875637216,275.52939314942626 M-507.71501285026955,297.30955486146456 L-507.2951417283398,290.7763223482963 M-507.2951417283398,290.7763223482963 L-505.66557061657113,284.30291366937206 M-505.66557061657113,284.30291366937206 L-502.9214435716176,278.2681125675635 M-502.9214435716176,278.2681125675635 L-499.2235532934535,273.024870660992 M-499.2235532934535,273.024870660992 L-494.7886798324,268.8791969803965 M-494.7886798324,268.8791969803965 L-489.87656258535606,266.07222250083134 M-489.87656258535606,266.07222250083134 L-484.7743466496836,264.76599648965026 M-484.7743466496836,264.76599648965026 L-479.7795146776001,265.0343999652701 M-479.7795146776001,265.0343999652701 L-475.18237561141495,266.859319293569 M-475.18237561141495,266.859319293569 L-471.24919156560645,270.13219748482817 M-471.24919156560645,270.13219748482817 L-468.2069106920238,274.6610600218401 M-468.2069106920238,274.6610600218401 L-466.2303565485108,280.181930559854 M-466.2303565485108,280.181930559854 L-465.4325189757926,286.3744271353068 M-465.4325189757926,286.3744271353068 L-465.85841709963915,292.8802404697052 M-465.85841709963915,292.8802404697052 L-467.4827892068238,299.32360642284385 M-467.4827892068238,299.32360642284385 L-470.2116760594347,305.3326221061494 M-470.2116760594347,305.3326221061494 L-473.88778106272207,310.5602443768988 M-473.88778106272207,310.5602443768988 L-478.29931421754554,314.70404202294975 M-478.29931421754554,314.70404202294975 L-483.191883699026,317.52331419694747 M-483.191883699026,317.52331419694747 L-488.2828203244296,318.8531936639888 M-488.2828203244296,318.8531936639888 L-493.27722535586906,318.6143806855408 M-493.27722535586906,318.6143806855408 L-497.8848898839751,316.8182107259449 M-497.8848898839751,316.8182107259449 L-501.83713989097123,313.56665446914013 M-501.83713989097123,313.56665446914013 L-504.9026603001216,309.0468021000285 M-504.9026603001216,309.0468021000285 L-506.90129892471623,303.5205645562845 M-506.90129892471623,303.5205645562845 L-507.71501285026955,297.30955486146456 M-593.3425973039218,319.4546198063745 L-592.9354632852103,312.87085213795524 M-592.9354632852103,312.87085213795524 L-591.2971156106385,306.34446096732506 M-591.2971156106385,306.34446096732506 L-588.5232296620366,300.25735609940773 M-588.5232296620366,300.25735609940773 L-584.7763422884846,294.9655643387915 M-584.7763422884846,294.9655643387915 L-580.2761309831965,290.7779430882195 M-580.2761309831965,290.7779430882195 L-575.2861915429123,287.93807066489626 M-575.2861915429123,287.93807066489626 L-570.0982211005324,286.60989051287726 M-570.0982211005324,286.60989051287726 L-565.014738857245,286.8685347842028 M-565.014738857245,286.8685347842028 L-560.3311940951497,288.69641151842575 M-560.3311940951497,288.69641151842575 L-556.3188627116341,291.9847522204037 M-556.3188627116341,291.9847522204037 L-553.2092597247123,296.54065237032455 M-553.2092597247123,296.54065237032455 L-551.1810643935303,302.09854543253374 M-551.1810643935303,302.09854543253374 L-550.3502282586312,308.335903673972 M-550.3502282586312,308.335903673972 L-550.7636323512206,314.89182851481183 M-550.7636323512206,314.89182851481183 L-552.396736431101,321.38768362196737 M-552.396736431101,321.38768362196737 L-555.1550664609459,327.4485546759894 M-555.1550664609459,327.4485546759894 L-558.8796492229562,332.724424855934 M-558.8796492229562,332.724424855934 L-563.3559170650567,336.9100839437267 M-563.3559170650567,336.9100839437267 L-568.3257593312726,339.7624032848053 M-568.3257593312726,339.7624032848053 L-573.5020828302767,341.1145879303063 M-573.5020828302767,341.1145879303063 L-578.5850365392926,340.8860064957677 M-578.5850365392926,340.8860064957677 L-583.2792922393286,339.08736407759415 M-583.2792922393286,339.08736407759415 L-587.3111202807843,335.8207318946073 M-587.3111202807843,335.8207318946073 L-590.4445392536496,331.27404135441884 M-590.4445392536496,331.27404135441884 L-592.495413994226,325.71074915699324 M-592.495413994226,325.71074915699324 L-593.3425973039218,319.4546198063745 M-680.4168991295471,341.97383579576035 L-680.0229787068752,335.3387465691268 M-680.0229787068752,335.3387465691268 L-678.3758049752073,328.7585030169681 M-678.3758049752073,328.7585030169681 L-675.5715288303211,322.61817748954064 M-675.5715288303211,322.61817748954064 L-671.7745225468552,317.27694011037227 M-671.7745225468552,317.27694011037227 L-667.2073920415719,313.04654028141704 M-667.2073920415719,313.04654028141704 L-662.1376862323998,310.17305305366347 M-662.1376862323998,310.17305305366347 L-656.8617863264908,308.8223619468243 M-656.8617863264908,308.8223619468243 L-651.6873545169717,309.07087652305336 M-651.6873545169717,309.07087652305336 L-646.9151342638056,310.9015521219392 M-646.9151342638056,310.9015521219392 L-642.8215490814916,314.20541750811583 M-642.8215490814916,314.20541750811583 L-639.6427672773434,318.7886247148773 M-639.6427672773434,318.7886247148773 L-637.5614784127702,324.3840132600196 M-637.5614784127702,324.3840132600196 L-636.6966266566383,330.66686877690483 M-636.6966266566383,330.66686877690483 L-637.0970691122961,337.27368148900445 M-637.0970691122961,337.27368148900445 L-638.7389568594649,343.8228839553522 M-638.7389568594649,343.8228839553522 L-641.527349726412,349.93651499371407 M-641.527349726412,349.93651499371407 L-645.3015143802222,355.2615199703664 M-645.3015143802222,355.2615199703664 L-649.8440775480694,359.4898679115845 M-649.8440775480694,359.4898679115845 L-654.8931184557248,362.37595397038064 M-654.8931184557248,362.37595397038064 L-660.1569898947871,363.75100831873453 M-660.1569898947871,363.75100831873453 L-665.3307852526686,363.5330399757181 M-665.3307852526686,363.5330399757181 L-670.1139068537668,361.7320960008106 M-670.1139068537668,361.7320960008106 L-674.2274337611957,358.4503363766723 M-674.2274337611957,358.4503363766723 L-677.4306294563894,353.87654509168976 M-677.4306294563894,353.87654509168976 L-679.5352112846144,348.27572535790944 M-679.5352112846144,348.27572535790944 L-680.4168991295471,341.97383579576035 M-195.70215797063406,-325.816982405358 L-181.41332776885326,454.35314661187874 M-806.3917199208527,631.2338236360296 L-841.9921605320542,-194.04911780545683 M-841.9921605320542,-194.04911780545683 L-195.70215797063406,-325.816982405358 M-286.0826172873533,225.2122695578652 L-285.35765060617075,231.27559188543373 M-285.35765060617075,231.27559188543373 L-283.5021270972429,236.6801260394522 M-283.5021270972429,236.6801260394522 L-280.6256034881435,241.11133555957076 M-280.6256034881435,241.11133555957076 L-276.8971281493706,244.31241331358763 M-276.8971281493706,244.31241331358763 L-272.5348780076781,246.0990894466034 M-272.5348780076781,246.0990894466034 L-267.7932314505041,246.36981767554408 M-267.7932314505041,246.36981767554408 L-262.94771425310637,245.11127401516694 M-262.94771425310637,245.11127401516694 L-258.2790711946716,242.3985218307324 M-258.2790711946716,242.3985218307324 L-254.05707349123645,238.39019250673928 M-254.05707349123645,238.39019250673928 L-250.5252654010385,233.3191405214373 M-250.5252654010385,233.3191405214373 L-247.88715721530025,227.47877448450794 M-247.88715721530025,227.47877448450794 L-246.29488265474265,221.20646552492428 M-246.29488265474265,221.20646552492428 L-245.84052272561564,214.86430238484675 M-245.84052272561564,214.86430238484675 L-246.55095997698174,208.81865999585486 M-246.55095997698174,208.81865999585486 L-248.386117695414,203.41937823663528 M-248.386117695414,203.41937823663528 L-251.24110454271772,198.9797902740255 M-251.24110454271772,198.9797902740255 L-254.95180611030878,195.75862281595187 M-254.95180611030878,195.75862281595187 L-259.3041170556187,193.94474785935125 M-259.3041170556187,193.94474785935125 L-264.0459359922918,193.64594270145523 M-264.0459359922918,193.64594270145523 L-268.9016976681452,194.8819632577672 M-268.9016976681452,194.8819632577672 L-273.5883104122231,197.58290602085765 M-273.5883104122231,197.58290602085765 L-277.83188643995265,201.59284506042084 M-277.83188643995265,201.59284506042084 L-281.38393810285925,206.67855699883276 M-281.38393810285925,206.67855699883276 L-284.0363176429612,212.54327500756688 M-284.0363176429612,212.54327500756688 L-285.6336217050582,218.84404912463214 M-285.6336217050582,218.84404912463214 L-286.0826172873533,225.2122695578652 M-367.55031992353906,246.16110737859862 L-366.79479091613723,252.26746980968124 M-366.79479091613723,252.26746980968124 L-364.8913036016884,257.70753188219896 M-364.8913036016884,257.70753188219896 L-361.95228602087786,262.1646994874302 M-361.95228602087786,262.1646994874302 L-358.15042509154716,265.3806626229041 M-358.15042509154716,265.3806626229041 L-353.7082240943844,267.1703244696738 M-353.7082240943844,267.1703244696738 L-348.8847128140478,267.4320006424066 M-348.8847128140478,267.4320006424066 L-343.9601664857104,266.1529304607775 M-343.9601664857104,266.1529304607775 L-339.2198949823269,263.40939797681153 M-339.2198949823269,263.40939797681153 L-334.9377901225116,259.36183509148924 M-334.9377901225116,259.36183509148924 L-331.36083363052455,254.24536772326218 M-331.36083363052455,254.24536772326218 L-328.6951481443143,248.3560273770786 M-328.6951481443143,248.3560273770786 L-327.0944077425286,242.03398673360306 M-327.0944077425286,242.03398673360306 L-326.6512197157176,235.64419589658755 M-326.6512197157176,235.64419589658755 L-327.3917975821387,229.55575462177626 M-327.3917975821387,229.55575462177626 L-329.27438665735735,224.12097926759685 M-329.27438665735735,224.12097926759685 L-332.1913465083396,219.65525291646642 M-332.1913465083396,219.65525291646642 L-335.9750433318994,216.41884629884964 M-335.9750433318994,216.41884629884964 L-340.40713497376146,214.6015395447742 M-340.40713497376146,214.6015395447742 L-345.2309075870767,214.311350201528 M-345.2309075870767,214.311350201528 L-350.16602608262906,215.5675708143869 M-350.16602608262906,215.5675708143869 L-354.9247586263202,218.29915197962762 M-354.9247586263202,218.29915197962762 L-359.2289842695536,222.34839975912553 M-359.2289842695536,222.34839975912553 L-362.8266536991481,227.47980209610003 M-362.8266536991481,227.47980209610003 L-365.50689908262166,233.3939063088479 M-365.50689908262166,233.3939063088479 L-367.11271088402077,239.74486648863063 M-367.11271088402077,239.74486648863063 L-367.55031992353906,246.16110737859862 M-450.3563010424549,267.4540739520344 L-449.569284502041,273.60407443483206 M-449.569284502041,273.60407443483206 L-447.6165169300243,279.08011124461234 M-447.6165169300243,279.08011124461234 L-444.6133231695994,283.56349313729845 M-444.6133231695994,283.56349313729845 L-440.7361708058495,286.79440391814006 M-440.7361708058495,286.79440391814006 L-436.21197792882435,288.5869109619202 M-436.21197792882435,288.5869109619202 L-431.3045347883434,288.83919830767525 M-431.3045347883434,288.83919830767525 L-426.29901992740724,287.5390978770056 M-426.29901992740724,287.5390978770056 L-421.48538096615675,284.76413414354283 M-421.48538096615675,284.76413414354283 L-417.14176398278323,280.6765863776709 M-417.14176398278323,280.6765863776709 L-413.51865834482646,275.51389275544034 M-413.51865834482646,275.51389275544034 L-410.8248327508063,269.57474814719455 M-410.8248327508063,269.57474814719455 L-409.2155762308237,263.20218514211075 M-409.2155762308237,263.20218514211075 L-408.78397309829586,256.7640467663933 M-408.78397309829586,256.7640467663933 L-409.5556016706271,250.6322133854837 M-409.5556016706271,250.6322133854837 L-411.48692054109233,245.161497232028 M-411.48692054109233,245.161497232028 L-414.4675184780788,240.66937070805722 M-414.4675184780788,240.66937070805722 L-418.3261043171442,237.41765333683253 M-418.3261043171442,237.41765333683253 L-422.84001328644297,235.59704426265654 M-422.84001328644297,235.59704426265654 L-427.7478110556981,235.31579723557434 M-427.7478110556981,235.31579723557434 L-432.7642378357589,236.59271464489052 M-432.7642378357589,236.59271464489052 L-437.59684629260414,239.355582886367 M-437.59684629260414,239.355582886367 L-441.96314462170085,243.44489381638553 M-441.96314462170085,243.44489381638553 L-445.607447533019,248.6228051170254 M-445.607447533019,248.6228051170254 L-448.31613014933896,254.58713599745013 M-448.31613014933896,254.58713599745013 L-449.93049987433983,260.9890838653724 M-449.93049987433983,260.9890838653724 L-450.3563010424549,267.4540739520344 M-534.5338097989514,289.0997190608475 L-533.7143671631829,295.2939728819689 M-533.7143671631829,295.2939728819689 L-531.7109367202427,300.8064337113676 M-531.7109367202427,300.8064337113676 L-528.6418339615085,305.3162901643512 M-528.6418339615085,305.3162901643512 L-524.6874119027459,308.5622058882512 M-524.6874119027459,308.5622058882512 L-520.0791046577799,310.3574061208581 M-520.0791046577799,310.3574061208581 L-515.0856183489548,310.59996135508584 M-515.0856183489548,310.59996135508584 L-509.997106245095,309.2783037511251 M-509.997106245095,309.2783037511251 L-505.10832750274164,306.47124423251023 M-505.10832750274164,306.47124423251023 L-500.70173558180045,302.34293568507564 M-500.70173558180045,302.34293568507564 L-497.03144185469966,297.13318139609277 M-497.03144185469966,297.13318139609277 L-494.30890604619924,291.14338375677045 M-494.30890604619924,291.14338375677045 L-492.6910620218838,284.71948303252714 M-492.6910620218838,284.71948303252714 L-492.2714935469784,278.23226631034015 M-492.2714935469784,278.23226631034015 L-493.07509501761376,272.0564302535061 M-493.07509501761376,272.0564302535061 L-495.056509372641,266.54932402711233 M-495.056509372641,266.54932402711233 L-498.102458529296,262.03053080645515 M-498.102458529296,262.03053080645515 L-502.0378984121729,258.76343552802774 M-502.0378984121729,258.76343552802774 L-506.63574263907594,256.93966467059784 M-506.63574263907594,256.93966467059784 L-511.62968268557415,256.6676930981765 M-511.62968268557415,256.6676930981765 L-516.7294591120415,257.96582692691294 M-516.7294591120415,257.96582692691294 L-521.6377322807319,260.7606442450858 M-521.6377322807319,260.7606442450858 L-526.0675850350896,264.89079741676204 M-526.0675850350896,264.89079741676204 L-529.7595766373264,270.11606022448825 M-529.7595766373264,270.11606022448825 L-532.4972773336142,276.13147791132434 M-532.4972773336142,276.13147791132434 L-534.1202744072004,282.58523962949283 M-534.1202744072004,282.58523962949283 L-534.5338097989514,289.0997190608475 M-620.1172059668296,311.10687807544485 L-619.2643646287988,317.34601322108824 M-619.2643646287988,317.34601322108824 L-617.2088397713524,322.8953549091551 M-617.2088397713524,322.8953549091551 L-614.0720425977631,327.4319503245706 M-614.0720425977631,327.4319503245706 L-610.0382969058234,330.69292293835804 M-610.0382969058234,330.69292293835804 L-605.3436880866332,332.4906575289551 M-605.3436880866332,332.4906575289551 L-600.2619609206531,332.7231200584092 M-600.2619609206531,332.7231200584092 L-595.0883701280947,331.37936465973803 M-595.0883701280947,331.37936465973803 L-590.1226094049695,328.5395215752471 M-590.1226094049695,328.5395215752471 L-585.6515396204104,324.3696560474097 M-585.6515396204104,324.3696560474097 L-581.932976386525,319.11198157416186 M-581.932976386525,319.11198157416186 L-579.1811452847562,313.07066077196873 M-579.1811452847562,313.07066077196873 L-577.5546484230249,306.59458865590796 M-577.5546484230249,306.59458865590796 L-577.1475798243293,300.057545638802 M-577.1475798243293,300.057545638802 L-577.984111982298,293.83708433320004 M-577.984111982298,293.83708433320004 L-580.0170296297202,288.2931296038206 M-580.0170296297202,288.2931296038206 L-583.1301006809351,283.7474002832335 M-583.1301006809351,283.7474002832335 L-587.1444366563544,280.4648653927925 M-587.1444366563544,280.4648653927925 L-591.8283986401339,278.6380797643234 M-591.8283986401339,278.6380797643234 L-596.9106809189673,278.37573272529426 M-596.9106809189673,278.37573272529426 L-602.0959016206878,279.6956161553668 M-602.0959016206878,279.6956161553668 L-607.0817027728826,282.52306868425 M-607.0817027728826,282.52306868425 L-611.5766325639411,286.69486366166177 M-611.5766325639411,286.69486366166177 L-615.3174093600519,291.9683454218338 M-615.3174093600519,291.9683454218338 L-618.0847185973456,298.0357303454598 M-618.0847185973456,298.0357303454598 L-619.7164123560129,304.54215230928816 M-619.7164123560129,304.54215230928816 L-620.1172059668296,311.10687807544485 M-707.1420067017459,333.4846839787092 L-706.2547375908689,339.76933607911144 M-706.2547375908689,339.76933607911144 L-704.1456566266656,345.3560285417648 M-704.1456566266656,345.3560285417648 L-700.9392988343259,349.91962475081857 M-700.9392988343259,349.91962475081857 L-696.8241225658926,353.19570719857575 M-696.8241225658926,353.19570719857575 L-692.0409524663432,354.9958088091644 M-692.0409524663432,354.9958088091644 L-686.8687067490573,355.21780255933186 M-686.8687067490573,355.21780255933186 L-681.6078908399527,353.85139186650247 M-681.6078908399527,353.85139186650247 L-676.5632354495717,350.9780538612213 M-676.5632354495717,350.9780538612213 L-672.026138105896,346.76581279880077 M-672.026138105896,346.76581279880077 L-668.258209327008,341.45934025956865 M-668.258209327008,341.45934025956865 L-665.4764680824105,335.3656003785639 M-665.4764680824105,335.3656003785639 L-663.8412679168955,328.83650648378193 M-663.8412679168955,328.83650648378193 L-663.4471644040259,322.24886738786665 M-663.4471644040259,322.24886738786665 L-664.3176383896885,315.983150103124 M-664.3176383896885,315.983150103124 L-666.4035025947712,310.4018769011059 M-666.4035025947712,310.4018769011059 L-669.5855404846284,305.82894287647446 M-669.5855404846284,305.82894287647446 L-673.6808652683094,302.53090491235884 M-673.6808652683094,302.53090491235884 L-678.4531998402338,300.70125964485055 M-678.4531998402338,300.70125964485055 L-683.6261083306158,300.44890228861027 M-683.6261083306158,300.44890228861027 L-688.8989334992225,301.7910851907581 M-688.8989334992225,301.7910851907581 L-693.9641934548063,304.6518816088019 M-693.9641934548063,304.6518816088019 L-698.5257704924343,308.866140481113 M-698.5257704924343,308.866140481113 L-702.3164460287994,314.1887278307818 M-702.3164460287994,314.1887278307818 L-705.1139901842353,320.30898803199324 M-705.1139901842353,320.30898803199324 L-706.7544288846334,326.8689321680282 M-706.7544288846334,326.8689321680282 L-707.1420067017459,333.4846839787092 M-255.63716377875983,-259.5730286174295 L-254.53084007882524,-205.99535229201933 M-254.53084007882524,-205.99535229201933 L-285.20348229846604,-199.40993007464965 M-286.3762646371871,-253.1392633214797 L-285.20348229846604,-199.40993007464965 M-255.63716377875983,-259.5730286174295 L-286.3762646371871,-253.1392633214797 M-771.3120799037545,-151.64106942847695 L-769.0396773115117,-95.53020542001093 M-771.3120799037545,-151.64106942847695 L-805.3187500482136,-144.5233942819624 M-769.0396773115117,-95.53020542001093 L-802.9656241031489,-88.24629808176769 M-805.3187500482136,-144.5233942819624 L-802.9656241031489,-88.24629808176769 M-168.2272384035249,-319.61296830955916 L-195.70215797063406,-325.816982405358 M-814.8338983626086,-187.0080868726376 L-841.9921605320542,-194.04911780545683 M-780.5004903854337,-194.04911780545683 L-789.5806935775513,-196.3859348034282 M-755.4779059967655,-203.36603752464168 L-789.5806935775513,-196.3859348034282 M-746.3902681589225,-201.04437822300292 L-755.4779059967655,-203.36603752464168 M-260.10817443386793,-300.7701982252114 L-269.27562485274495,-302.8811243085056 M-238.46280538929682,-309.1878417425447 L-269.27562485274495,-302.8811243085056 M-229.29194563138083,-307.0899326475967 L-238.46280538929682,-309.1878417425447 M-235.24919845139118,-148.15042740971762 L-236.31601059061393,-201.60956905299201 M-236.31601059061393,-201.60956905299201 L-254.53084007882524,-205.99535229201933 M-255.63716377875983,-259.5730286174295 L-237.38720388851937,-255.28825542580785 M-237.38720388851937,-255.28825542580785 L-238.46280538929682,-309.1878417425447 M-235.24919845139118,-148.15042740971762 L-226.131369964314,-145.900573627192 M-265.8625125429477,-141.3870208080948 L-256.7480309025136,-139.12329334184278 M-235.24919845139118,-148.15042740971762 L-265.8625125429477,-141.3870208080948 M-268.13323401784896,-248.82800006789432 L-286.3762646371871,-253.1392633214797 M-269.27562485274495,-302.8811243085056 L-268.13323401784896,-248.82800006789432 M-266.9955395481527,-194.99708805437683 L-265.8625125429477,-141.3870208080948 M-285.20348229846604,-199.40993007464965 L-266.9955395481527,-194.99708805437683 M-748.7628541807262,-34.699736027655035 L-750.9915567231185,-90.67949988656869 M-750.9915567231185,-90.67949988656869 L-769.0396773115117,-95.53020542001093 M-771.3120799037545,-151.64106942847695 L-753.229886490316,-146.90107698029385 M-753.229886490316,-146.90107698029385 L-755.4779059967655,-203.36603752464168 M-748.7628541807262,-34.699736027655035 L-739.7266811170607,-32.21151445939927 M-782.6231801855324,-27.21896632891884 L-773.5942984899166,-24.714604982689366 M-748.7628541807262,-34.699736027655035 L-782.6231801855324,-27.21896632891884 M-787.2514718677637,-139.75257265974085 L-805.3187500482136,-144.5233942819624 M-789.5806935775513,-196.3859348034282 L-787.2514718677637,-139.75257265974085 M-784.9323224680729,-83.36411154153984 L-782.6231801855324,-27.21896632891884 M-802.9656241031489,-88.24629808176769 L-784.9323224680729,-83.36411154153984 M-259.16077834194755,233.02828731620883 L-286.0826172873533,225.2122695578652 M-340.65813204692336,254.10518913646115 L-367.55031992353906,246.16110737859862 M-423.4983875637216,275.52939314942626 L-450.3563010424549,267.4540739520344 M-507.71501285026955,297.30955486146456 L-534.5338097989514,289.0997190608475 M-593.3425973039218,319.4546198063745 L-620.1172059668296,311.10687807544485 M-680.4168991295471,341.97383579576035 L-707.1420067017459,333.4846839787092 M-236.31601059061393,-201.60956905299201 L-266.9955395481527,-194.99708805437683 M-237.38720388851937,-255.28825542580785 L-268.13323401784896,-248.82800006789432 M-753.229886490316,-146.90107698029385 L-787.2514718677637,-139.75257265974085 M-750.9915567231185,-90.67949988656869 L-784.9323224680729,-83.36411154153984" stroke="black"  stroke-width="4"  fill="red"/>
<path d="M1436.5262848023622,1009.506587806923 L1399.0050665191536,997.6054893089309 M960.6372007979026,1202.434594835758 L922.7513085478408,1189.1284482786277 M1436.5262848023622,1009.506587806923 L1411.1901218337678,946.7897713829764 M1411.1901218337678,946.7897713829764 L1374.2707131309317,899.5095895844158 M1374.2707131309317,899.5095895844158 L1327.4470144194142,870.4734178092469 M1327.4470144194142,870.4734178092469 L1272.995918937136,861.656934050767 M1272.995918937136,861.656934050767 L1213.721673754199,874.0138913566137 M1213.721673754199,874.0138913566137 L1152.834158651619,907.3227214135295 M1152.834158651619,907.3227214135295 L1093.7740717677448,960.0997538501605 M1093.7740717677448,960.0997538501605 L1039.9926216983918,1029.6071842221759 M1039.9926216983918,1029.6071842221759 L994.7039333043181,1111.9743164249724 M994.7039333043181,1111.9743164249724 L960.6372007979026,1202.434594835758 M1399.0050665191536,997.6054893089309 L1373.517840575281,935.0359292357431 M1373.517840575281,935.0359292357431 L1336.4567245978214,887.8401065448993 M1336.4567245978214,887.8401065448993 L1289.5093623912178,858.8186206291157 M1289.5093623912178,858.8186206291157 L1234.960517017159,849.9432187007642 M1234.960517017159,849.9432187007642 L1175.6207934203667,862.1673991519767 M1175.6207934203667,862.1673991519767 L1114.7043087727614,895.2737609584991 M1114.7043087727614,895.2737609584991 L1055.65345702858,947.7876869166043 M1055.65345702858,947.7876869166043 L1001.918450367056,1016.9852942001712 M1001.918450367056,1016.9852942001712 L956.7098807870088,1099.0140366324304 M956.7098807870088,1099.0140366324304 L922.7513085478408,1189.1284482786277 M1505.5427762418708,981.5269291152301 L1468.0905708260411,969.8231149227832 M1505.5427762418708,981.5269291152301 L1436.5262848023622,1009.506587806923 M1468.0905708260411,969.8231149227832 L1399.0050665191536,997.6054893089309 M882.1097302877495,1234.2700558533875 L844.182325392616,1220.7245541051257 M960.6372007979026,1202.434594835758 L882.1097302877495,1234.2700558533875 M922.7513085478408,1189.1284482786277 L844.182325392616,1220.7245541051257 M1550.183787854769,68.4153279423137 L1505.5427762418708,981.5269291152301 M882.1097302877495,1234.2700558533875 L905.66583310874,259.04739906437885 M905.66583310874,259.04739906437885 L1550.183787854769,68.4153279423137 M1421.345818961027,720.9172994364274 L1422.2542205533514,713.4294442395658 M1422.2542205533514,713.4294442395658 L1424.2715720592073,705.9461654111395 M1424.2715720592073,705.9461654111395 L1427.2799447550306,698.9057954999283 M1427.2799447550306,698.9057954999283 L1431.1028677929155,692.7205392785227 M1431.1028677929155,692.7205392785227 L1435.5160708057292,687.75168597525 M1435.5160708057292,687.75168597525 L1440.260904004101,684.2883899490089 M1440.260904004101,684.2883899490089 L1445.0599484275308,682.5305888345972 M1445.0599484275308,682.5305888345972 L1449.633446059941,682.5778105832103 M1449.633446059941,682.5778105832103 L1453.715826172714,684.4239688486284 M1453.715826172714,684.4239688486284 L1457.0710189686345,687.958420096754 M1457.0710189686345,687.958420096754 L1459.5059650938788,692.9732994445462 M1459.5059650938788,692.9732994445462 L1460.881310750542,699.1760289206788 M1460.881310750542,699.1760289206788 L1461.1191142240652,706.2066285857145 M1461.1191142240652,706.2066285857145 L1460.2068236986845,713.6585210376227 M1460.2068236986845,713.6585210376227 L1458.1978081019827,721.1016766200378 M1458.1978081019827,721.1016766200378 L1455.2080867309421,728.1069545823439 M1455.2080867309421,728.1069545823439 L1451.40985734032,734.2701894569121 M1451.40985734032,734.2701894569121 L1447.0217333891046,739.2351365498643 M1447.0217333891046,739.2351365498643 L1442.2966192772662,742.7135365337217 M1442.2966192772662,742.7135365337217 L1437.5074166588918,744.5019915299237 M1437.5074166588918,744.5019915299237 L1432.9316289291405,744.4939510310135 M1432.9316289291405,744.4939510310135 L1428.8353514575824,742.6865256684617 M1428.8353514575824,742.6865256684617 L1425.457837816134,739.1814856287901 M1425.457837816134,739.1814856287901 L1422.9972605641408,734.1799582959238 M1422.9972605641408,734.1799582959238 L1421.5988454603857,727.9714625825889 M1421.5988454603857,727.9714625825889 L1421.345818961027,720.9172994364274 M1340.6379643396795,750.7681497758297 L1341.537404150605,743.2139892708756 M1341.537404150605,743.2139892708756 L1343.569057616287,735.6598290466917 M1343.569057616287,735.6598290466917 L1346.6141179807312,728.5482005227873 M1346.6141179807312,728.5482005227873 L1350.493981829012,722.2954975145175 M1350.493981829012,722.2954975145175 L1354.9809829716319,717.2669819589198 M1354.9809829716319,717.2669819589198 L1359.8121271436394,713.7552873438258 M1359.8121271436394,713.7552873438258 L1364.7049227514974,711.9631469064312 M1364.7049227514974,711.9631469064312 L1369.3741273546261,711.9920399674877 M1369.3741273546261,711.9920399674877 L1373.5486023563979,713.8368836645573 M1373.5486023563979,713.8368836645573 L1376.98695944978,717.3870421423034 M1376.98695944978,717.3870421423034 L1379.4913278075214,722.4336952532681 M1379.4913278075214,722.4336952532681 L1380.918419452818,728.6823752166877 M1380.918419452818,728.6823752166877 L1381.1873101845451,735.7704465181396 M1381.1873101845451,735.7704465181396 L1380.283726214566,743.2880088943073 M1380.283726214566,743.2880088943073 L1378.2605145173604,750.8012840134684 M1378.2605145173604,750.8012840134684 L1375.234547828459,757.8771068256378 M1375.234547828459,757.8771068256378 L1371.38005545105,764.1072863635982 M1371.38005545105,764.1072863635982 L1366.9188911542733,769.1317202070452 M1366.9188911542733,769.1317202070452 L1362.1081302963187,772.6587101218308 M1362.1081302963187,772.6587101218308 L1357.225595001281,774.4820187889229 M1357.225595001281,774.4820187889229 L1352.554177214946,774.4930264980201 M1352.554177214946,774.4930264980201 L1348.3655225563116,772.687675569016 M1348.3655225563116,772.687675569016 L1344.9042677222126,769.1675545004084 M1344.9042677222126,769.1675545004084 L1342.3735290549553,764.1346023054981 M1342.3735290549553,764.1346023054981 L1340.9226355905614,757.8801480053014 M1340.9226355905614,757.8801480053014 L1340.6379643396795,750.7681497758297 M1258.3437145415,781.2057490162524 L1259.2336778322801,773.5841048430916 M1259.2336778322801,773.5841048430916 L1261.2797936328052,765.9577141584587 M1261.2797936328052,765.9577141584587 L1264.3624198372117,758.7733683253806 M1264.3624198372117,758.7733683253806 L1268.3007256004073,752.4517525126321 M1268.3007256004073,752.4517525126321 L1272.8635825025808,747.3621795359868 M1272.8635825025808,747.3621795359868 L1277.7835395598004,743.8008401552406 M1277.7835395598004,743.8008401552406 L1282.7728507577497,741.9733478442538 M1282.7728507577497,741.9733478442538 L1287.5406658380807,741.9831767873134 M1287.5406658380807,741.9831767873134 L1291.8100751892587,743.826301063557 M1291.8100751892587,743.826301063557 L1295.3342176944507,747.3921104484962 M1295.3342176944507,747.3921104484962 L1297.9102834457437,752.4708226951573 M1297.9102834457437,752.4708226951573 L1299.3908783740549,758.7660780529873 M1299.3908783740549,758.7660780529873 L1299.692047875304,765.912529837996 M1299.692047875304,765.912529837996 L1298.7976724514149,773.496923669466 M1298.7976724514149,773.496923669466 L1296.7601055641808,781.0816455289741 M1296.7601055641808,781.0816455289741 L1293.6970308871591,788.229449940559 M1293.6970308871591,788.229449940559 L1289.784800216145,794.5280231403572 M1289.784800216145,794.5280231403572 L1285.2485683261618,799.6133307294479 M1285.2485683261618,799.6133307294479 L1280.3496868271163,803.1901593746102 M1280.3496868271163,803.1901593746102 L1275.3710735574423,805.0493469024345 M1275.3710735574423,805.0493469024345 L1270.6011281081396,805.0801582429817 M1270.6011281081396,805.0801582429817 L1266.3172481332895,803.2773091454342 M1266.3172481332895,803.2773091454342 L1262.7696097806033,799.7421833705166 M1262.7696097806033,799.7421833705166 L1260.1664054958114,794.677533960611 M1260.1664054958114,794.677533960611 L1258.661246439683,788.376498968229 M1258.661246439683,788.376498968229 L1258.3437145415,781.2057490162524 M1174.4158319929838,812.2475685889912 L1175.2957583024079,804.5572385157283 M1175.2957583024079,804.5572385157283 L1177.3565181663594,796.8572220067235 M1177.3565181663594,796.8572220067235 L1180.477611681517,789.5986577701068 M1180.477611681517,789.5986577701068 L1184.4759242218418,783.2066124795817 M1184.4759242218418,783.2066124795817 L1189.116786632232,778.0545340646026 M1189.116786632232,778.0545340646026 L1194.1281319784555,774.4422670099549 M1194.1281319784555,774.4422670099549 L1199.2168582966285,772.5783607811754 M1199.2168582966285,772.5783607811754 L1204.086280567495,772.5683657855639 M1204.086280567495,772.5683657855639 L1208.4535916301159,774.409337790612 M1208.4535916301159,774.409337790612 L1212.066255075215,777.9907266418661 M1212.066255075215,777.9907266418661 L1214.7163789064405,783.1017852255441 M1214.7163789064405,783.1017852255441 L1216.2523308165516,789.4442430738749 M1216.2523308165516,789.4442430738749 L1216.5870026068678,796.650012334541 M1216.5870026068678,796.650012334541 L1215.7023832659268,804.3024221970768 M1215.7023832659268,804.3024221970768 L1213.6502789317083,811.9599641564057 M1213.6502789317083,811.9599641564057 L1210.549212822095,819.1812276968617 M1210.549212822095,819.1812276968617 L1206.577706743437,825.5496932265073 M1206.577706743437,825.5496932265073 L1201.9642894944675,830.6973140183331 M1201.9642894944675,830.6973140183331 L1196.9747400544584,834.3252672402766 M1196.9747400544584,834.3252672402766 L1191.8971694731715,836.2214088735057 M1191.8971694731715,836.2214088735057 L1187.0257071904798,836.2728037651457 M1187.0257071904798,836.2728037651457 L1182.6436254906223,834.4729128878628 M1182.6436254906223,834.4729128878628 L1179.0068451955458,830.92287498724 M1179.0068451955458,830.92287498724 L1176.328782286948,825.82625544523 M1176.328782286948,825.82625544523 L1174.7674742920105,819.4780150674377 M1174.7674742920105,819.4780150674377 L1174.4158319929838,812.2475685889912 M1088.805184882092,843.9117805341157 L1089.674485579859,836.1515303460494 M1089.674485579859,836.1515303460494 L1091.7500734990206,828.3764518527764 M1091.7500734990206,828.3764518527764 L1094.910559914036,821.0421240622259 M1094.910559914036,821.0421240622259 L1098.9705111802537,814.5780796499487 M1098.9705111802537,814.5780796499487 L1103.6916053380473,809.361999893044 M1103.6916053380473,809.361999893044 L1108.797031894954,805.6974690015114 M1108.797031894954,805.6974690015114 L1113.9881744682152,803.7960495948066 M1113.9881744682152,803.7960495948066 L1118.9623337568298,803.7654322193974 M1118.9623337568298,803.7654322193974 L1123.430628178552,805.6037968519435 M1123.430628178552,805.6037968519435 L1127.1346711185545,809.2006765246135 M1127.1346711185545,809.2006765246135 L1129.8613110500578,814.3443674605721 M1129.8613110500578,814.3443674605721 L1131.4545471219024,820.7346670470708 M1131.4545471219024,820.7346670470708 L1131.8240013231014,828.0007114394957 M1131.8240013231014,828.0007114394957 L1130.9497107635561,835.7223541038645 M1130.9497107635561,835.7223541038645 L1128.882890430641,843.4541272103877 M1128.882890430641,843.4541272103877 L1125.7429203781214,850.7503725902109 M1125.7429203781214,850.7503725902109 L1121.7105342191567,857.1902819950133 M1121.7105342191567,857.1902819950133 L1117.0177389378314,862.4017028296594 M1117.0177389378314,862.4017028296594 L1111.934862100295,866.0821183745345 M1111.934862100295,866.0821183745345 L1106.755354334018,868.0163269016332 M1106.755354334018,868.0163269016332 L1101.779249569409,868.0891261407637 M1101.779249569409,868.0891261407637 L1097.295875087846,866.2926730199532 M1097.295875087846,866.2926730199532 L1093.5670721628594,862.7278330486444 M1093.5670721628594,862.7278330486444 L1090.811664443009,857.5989701756085 M1090.811664443009,857.5989701756085 L1089.1922430634095,851.2028900327084 M1089.1922430634095,851.2028900327084 L1088.805184882092,843.9117805341157 M1001.460651247435,876.2172929743313 L1002.3187289683233,868.3858475861914 M1002.3187289683233,868.3858475861914 L1004.4093101200608,860.5342363112806 M1004.4093101200608,860.5342363112806 L1007.6101662778544,853.1225443628728 M1007.6101662778544,853.1225443628728 L1011.7334325611162,846.584885425016 M1011.7334325611162,846.584885425016 L1016.5370700259543,841.3032564960638 M1016.5370700259543,841.3032564960638 L1021.7393841412686,837.5850734363371 M1021.7393841412686,837.5850734363371 L1027.0360608892634,835.6449988154715 M1027.0360608892634,835.6449988154715 L1032.1182246600886,835.5929207509641 M1032.1182246600886,835.5929207509641 L1036.6907092419433,837.428197465699 M1036.6907092419433,837.428197465699 L1040.4890898948013,841.0404718230834 M1040.4890898948013,841.0404718230834 L1043.294820645303,846.2170742250734 M1043.294820645303,846.2170742250734 L1044.947336858852,852.6558702664429 M1044.947336858852,852.6558702664429 L1045.352929484498,859.9831626674722 M1045.352929484498,859.9831626674722 L1044.489550752319,867.7752942648611 M1044.489550752319,867.7752942648611 L1042.40784847223,875.5827455351557 M1042.40784847223,875.5827455351557 L1039.2280172949606,882.9555478449922 M1039.2280172949606,882.9555478449922 L1035.1331051794275,889.468496850078 M1035.1331051794275,889.468496850078 L1030.358655586167,894.7452559770293 M1030.358655586167,894.7452559770293 L1025.179676367442,898.4795251526592 M1025.179676367442,898.4795251526592 L1019.8951359153398,900.4529565414109 M1019.8951359153398,900.4529565414109 L1014.8111295857068,900.5480202581301 M1014.8111295857068,900.5480202581301 L1010.2232457144019,898.755510852915 M1010.2232457144019,898.755510852915 L1006.3994368939134,895.1759878790652 M1006.3994368939134,895.1759878790652 L1003.5640741130753,890.014618274563 M1003.5640741130753,890.014618274563 L1001.8845105462356,883.5700464849006 M1001.8845105462356,883.5700464849006 L1001.460651247435,876.2172929743313 M1484.1169428545736,212.63784490018742 L1453.8226081118132,222.0570918370123 M1453.8226081118132,222.0570918370123 L1456.6970668636518,158.79053930891564 M1487.055084563802,149.58080360212853 L1456.6970668636518,158.79053930891564 M1484.1169428545736,212.63784490018742 L1487.055084563802,149.58080360212853 M971.0804168213331,372.15340341472466 L936.8835558129244,382.78604087112046 M971.0804168213331,372.15340341472466 L972.8661597675102,305.5707021358353 M936.8835558129244,382.78604087112046 L938.586898114424,315.97002870474904 M972.8661597675102,305.5707021358353 L938.586898114424,315.97002870474904 M1511.2036490278654,59.613361110432265 L1468.0905708260411,969.8231149227832 M1450.9622225974374,77.28193590147947 L1511.2036490278654,59.613361110432265 M1442.464479483648,265.8308697430845 L1450.9622225974374,77.28193590147947 M1412.202479233084,275.3872908748416 L1442.464479483648,265.8308697430845 M1412.202479233084,275.3872908748416 L1420.5084793835294,86.21389969326799 M935.1890735494042,228.55618352729948 L1420.5084793835294,86.21389969326799 M930.1581010482939,427.611831354249 L935.1890735494042,228.55618352729948 M896.0236977571429,438.3911166040861 L930.1581010482939,427.611831354249 M896.0236977571429,438.3911166040861 L900.8070025007551,238.64031051084154 M866.154561299692,248.80373600277375 L900.8070025007551,238.64031051084154 M844.182325392616,1220.7245541051257 L866.154561299692,248.80373600277375 M1383.2976312685173,709.8710513966663 L1383.5633275576417,716.9037612523821 M1383.5633275576417,716.9037612523821 L1384.974794475774,723.0951781678377 M1384.974794475774,723.0951781678377 L1387.448050181697,728.0849939960536 M1387.448050181697,728.0849939960536 L1390.8371383797275,731.5843593322077 M1390.8371383797275,731.5843593322077 L1394.9432220760111,733.3924566900992 M1394.9432220760111,733.3924566900992 L1399.5264857331513,733.4074530343055 M1399.5264857331513,733.4074530343055 L1404.3204056834054,731.6318109213746 M1404.3204056834054,731.6318109213746 L1409.04720717953,728.1713201270877 M1409.04720717953,728.1713201270877 L1413.4338893811753,723.2283319249232 M1413.4338893811753,723.2283319249232 L1417.2276269770164,717.0898347991229 M1417.2276269770164,717.0898347991229 L1420.2100601407892,710.1106516855261 M1420.2100601407892,710.1106516855261 L1422.2094064164198,702.6934536279861 M1422.2094064164198,702.6934536279861 L1423.110201161162,695.2658966806146 M1423.110201161162,695.2658966806146 L1422.8597388394246,688.2566160195877 M1422.8597388394246,688.2566160195877 L1421.4713059935555,682.0709615907637 M1421.4713059935555,682.0709615907637 L1419.0236078268354,677.0679213919982 M1419.0236078268354,677.0679213919982 L1415.6567455326835,673.539374642442 M1415.6567455326835,673.539374642442 L1411.564464648116,671.692823686366 M1411.564464648116,671.692823686366 L1406.9834185954853,671.638910921244 M1406.9834185954853,671.638910921244 L1402.1796230085617,673.3840888382679 M1402.1796230085617,673.3840888382679 L1397.433115006564,676.8295467622947 M1397.433115006564,676.8295467622947 L1393.0214098548665,681.7763773769332 M1393.0214098548665,681.7763773769332 L1389.203065399228,687.9367117824813 M1389.203065399228,687.9367117824813 L1386.2020784924516,694.9507246739829 M1386.2020784924516,694.9507246739829 L1384.1944823277177,702.4077657648221 M1384.1944823277177,702.4077657648221 L1383.2976312685173,709.8710513966663 M1302.514307631805,739.5062380568733 L1302.811683610991,746.5964425163947 M1302.811683610991,746.5964425163947 L1304.2756009329412,752.8335892705103 M1304.2756009329412,752.8335892705103 L1306.8189291459823,757.8547260439457 M1306.8189291459823,757.8547260439457 L1310.2916142891734,761.3691990550351 M1310.2916142891734,761.3691990550351 L1314.48988431095,763.1753769313208 M1314.48988431095,763.1753769313208 L1319.1685518943896,763.171598642255 M1319.1685518943896,763.171598642255 L1324.0555563279793,761.361478538372 M1324.0555563279793,761.361478538372 L1328.867748610481,757.8528533721055 M1328.867748610481,757.8528533721055 L1333.327222014469,752.8508873081962 M1333.327222014469,752.8508873081962 L1337.1769943725467,746.6459784391325 M1337.1769943725467,746.6459784391325 L1340.195478388399,739.5967769105323 M1340.195478388399,739.5967769105323 L1342.2088710820867,732.1099494482086 M1342.2088710820867,732.1099494482086 L1343.1008628726863,724.6171484983979 M1343.1008628726863,724.6171484983979 L1342.8192758439484,717.5507337809412 M1342.8192758439484,717.5507337809412 L1341.3791208609687,711.3193586329945 M1341.3791208609687,711.3193586329945 L1338.8620846109689,706.2846532918346 M1338.8620846109689,706.2846532918346 L1335.4121979436113,702.7403799788444 M1335.4121979436113,702.7403799788444 L1331.228010135064,700.8949968830505 M1331.228010135064,700.8949968830505 L1326.5514824354348,700.8591465182983 M1326.5514824354348,700.8591465182983 L1321.654185325628,702.6382927401743 M1321.654185325628,702.6382927401743 L1316.8216257164122,706.131694662178 M1316.8216257164122,706.131694662178 L1312.3363761428798,711.1376756928875 M1312.3363761428798,711.1376756928875 L1308.4613237786195,717.3649177773028 M1308.4613237786195,717.3649177773028 L1305.4238473867938,724.449654835973 M1305.4238473867938,724.449654835973 L1303.4021008518964,731.9770791920403 M1303.4021008518964,731.9770791920403 L1302.514307631805,739.5062380568733 M1220.1489360413752,769.7217955696669 L1220.4792023118857,776.8704035828059 M1220.4792023118857,776.8704035828059 L1221.9973479932316,783.1538985984101 M1221.9973479932316,783.1538985984101 L1224.6130402713372,788.2066293404353 M1224.6130402713372,788.2066293404353 L1228.1719493918122,791.7361385551167 M1228.1719493918122,791.7361385551167 L1232.4652368565557,793.5399783364528 M1232.4652368565557,793.5399783364528 L1237.2421882488545,793.5166821976427 M1237.2421882488545,793.5166821976427 L1242.2250050271307,791.6710737176645 M1242.2250050271307,791.6710737176645 L1247.1250458742438,788.1130820155031 M1247.1250458742438,788.1130820155031 L1251.6593238174055,783.0507685028981 M1251.6593238174055,783.0507685028981 L1255.566595329988,776.7780161025762 M1255.566595329988,776.7780161025762 L1258.621985585032,769.6573755059799 M1258.621985585032,769.6573755059799 L1260.6495805010945,762.0996053980034 M1260.6495805010945,762.0996053980034 L1261.5322682960061,754.5404100958212 M1261.5322682960061,754.5404100958212 L1261.2183701308093,747.4159600918996 M1261.2183701308093,747.4159600918996 L1259.724744707569,741.1382430849131 M1259.724744707569,741.1382430849131 L1257.136107565478,736.0715867831095 M1257.136107565478,736.0715867831095 L1253.6005904724154,732.5116386889054 M1253.6005904724154,732.5116386889054 L1249.3216731718976,730.6678198486914 M1249.3216731718976,730.6678198486914 L1244.5467780633567,730.6507553768834 M1244.5467780633567,730.6507553768834 L1239.5532326179723,732.4648677972082 M1239.5532326179723,732.4648677972082 L1234.63213586261,736.0074432523515 M1234.63213586261,736.0074432523515 L1230.0712984451839,741.0739523001362 M1230.0712984451839,741.0739523001362 L1226.138048252074,747.3695505947016 M1226.138048252074,747.3695505947016 L1223.0632116681613,754.5264540912475 M1223.0632116681613,754.5264540912475 L1221.027157723652,762.125596507838 M1221.027157723652,762.125596507838 L1220.1489360413752,769.7217955696669 M1136.1545830597865,800.5349413645431 L1136.5189835965793,807.7428897803304 M1136.5189835965793,807.7428897803304 L1138.0932310189037,814.0733541003405 M1138.0932310189037,814.0733541003405 L1140.7836668105085,819.157952554862 M1140.7836668105085,819.157952554862 L1144.4315419953127,822.7024106204009 M1144.4315419953127,822.7024106204009 L1148.8228051785115,824.5034652550883 M1148.8228051785115,824.5034652550883 L1153.7010106576406,824.4598841355333 M1153.7010106576406,824.4598841355333 L1158.7825006052187,822.5777276454407 M1158.7825006052187,822.5777276454407 L1163.7729201965724,818.9691009198232 M1163.7729201965724,818.9691009198232 L1168.3841057301568,813.8450187311748 M1168.3841057301568,813.8450187311748 L1172.350402003977,807.5029421037366 M1172.350402003977,807.5029421037366 L1175.443574298816,800.3094016428178 M1175.443574298816,800.3094016428178 L1177.485550344502,792.6793300869749 M1177.485550344502,792.6793300869749 L1178.3583877251972,785.0525673704386 M1178.3583877251972,785.0525673704386 L1178.010960454741,777.8691529701778 M1178.010960454741,777.8691529701778 L1176.4620205511885,771.5444707451037 M1176.4620205511885,771.5444707451037 L1173.7994350782299,766.4455756970635 M1173.7994350782299,766.4455756970635 L1170.175568121817,762.8700193644926 M1170.175568121817,762.8700193644926 L1165.7989719749532,761.0281886375806 M1165.7989719749532,761.0281886375806 L1160.9227316603904,761.0306573676964 M1160.9227316603904,761.0306573676964 L1155.8300570306014,762.8807825742495 M1155.8300570306014,762.8807825742495 L1150.817865121297,766.473797105993 M1150.817865121297,766.473797105993 L1146.179305143456,771.6022637890379 M1146.179305143456,771.6022637890379 L1142.1863040536791,777.9677167019377 M1142.1863040536791,777.9677167019377 L1139.0732136410986,785.1982706461963 M1139.0732136410986,785.1982706461963 L1137.0226739617794,792.8705116133527 M1137.0226739617794,792.8705116133527 L1136.1545830597865,800.5349413645431 M1050.482440255845,831.9635807083804 L1050.8822742599102,839.2318278447062 M1050.8822742599102,839.2318278447062 L1052.5145771422428,845.6098921854039 M1052.5145771422428,845.6098921854039 L1055.2822280990986,850.7266325485391 M1055.2822280990986,850.7266325485391 L1059.0219325792932,854.2859350430047 M1059.0219325792932,854.2859350430047 L1063.5142431856968,856.0837348660862 M1063.5142431856968,856.0837348660862 L1068.496808293385,856.019061486552 M1068.496808293385,856.019061486552 L1073.6799315857138,854.0992605533127 M1073.6799315857138,854.0992605533127 L1078.7633712181137,850.4386792779155 M1078.7633712181137,850.4386792779155 L1083.4536414258891,845.251360616094 M1083.4536414258891,845.251360616094 L1087.4805549954706,838.8384269996922 M1087.4805549954706,838.8384269996922 L1090.612413822534,831.5704813860923 M1090.612413822534,831.5704813860923 L1092.6689461080764,823.8667124410965 M1092.6689461080764,823.8667124410965 L1093.5313617020493,816.1711774604522 M1093.5313617020493,816.1711774604522 L1093.149131237773,808.9278491032354 M1093.149131237773,808.9278491032354 L1091.5429600767668,802.5555661859064 M1091.5429600767668,802.5555661859064 L1088.8039824524874,797.424145619997 M1088.8039824524874,797.424145619997 L1085.0889242704577,793.8330644038103 M1085.0889242704577,793.8330644038103 L1080.6115868494335,791.9936673817779 M1080.6115868494335,791.9936673817779 L1075.6308916390576,792.0164545387395 M1075.6308916390576,792.0164545387395 L1070.436106570793,793.9036755956677 M1070.436106570793,793.9036755956677 L1065.3301450388437,797.5484471284419 M1065.3301450388437,797.5484471284419 L1060.6116521908737,802.7403481270205 M1060.6116521908737,802.7403481270205 L1056.5572807015828,809.1772062145803 M1056.5572807015828,809.1772062145803 L1053.4050190952587,816.4829379807165 M1053.4050190952587,816.4829379807165 L1051.3398131810966,824.2296982035258 M1051.3398131810966,824.2296982035258 L1050.482440255845,831.9635807083804 M963.0817296273594,864.0263414008955 L963.5183755250059,871.3558599056607 M963.5183755250059,871.3558599056607 L965.2107511118734,877.7821724195217 M965.2107511118734,877.7821724195217 L968.0582119168191,882.9313193482038 M968.0582119168191,882.9313193482038 L971.8927102828616,886.5053531990804 M971.8927102828616,886.5053531990804 L976.489264268708,888.2994027063365 M976.489264268708,888.2994027063365 L981.5794266707157,888.2127912017747 M981.5794266707157,888.2127912017747 L986.8672578538471,886.2542070301013 M986.8672578538471,886.2542070301013 L992.0464732357827,882.5402990232122 M992.0464732357827,882.5402990232122 L996.8180878795647,877.2882255544195 M996.8180878795647,877.2882255544195 L1000.9072517894981,870.8028587811216 M1000.9072517894981,870.8028587811216 L1004.0787459260773,863.4589511111471 M1004.0787459260773,863.4589511111471 L1006.1499968607509,855.6800534177253 M1006.1499968607509,855.6800534177253 L1007.0014091840828,847.9145024330758 M1007.0014091840828,847.9145024330758 L1006.5830260561515,840.6102955113159 M1006.5830260561515,840.6102955113159 L1004.9176388639085,834.189761014655 M1004.9176388639085,834.189761014655 L1002.0997095817033,829.0255348328028 M1002.0997095817033,829.0255348328028 L998.2905203525434,825.4190192399917 M998.2905203525434,825.4190192399917 L993.709255369042,823.582526393147 M993.709255369042,823.582526393147 L988.6208592478606,823.6264563260755 M988.6208592478606,823.6264563260755 L983.3208669741441,825.551898262378 M983.3208669741441,825.551898262378 L978.1183490652031,829.2497959899652 M978.1183490652031,829.2497959899652 L973.3176286691405,834.5066590263958 M973.3176286691405,834.5066590263958 L969.2002236473522,841.0165178084872 M969.2002236473522,841.0165178084872 L966.0078226233004,848.3990094246165 M966.0078226233004,848.3990094246165 L963.9277888918209,856.2217436947301 M963.9277888918209,856.2217436947301 L963.0817296273594,864.0263414008955 M1550.183787854769,68.4153279423137 L1511.2036490278654,59.613361110432265 M905.66583310874,259.04739906437885 L866.154561299692,248.80373600277375 M1463.9454699662158,80.25195980937008 L1450.9622225974374,77.28193590147947 M1463.9454699662158,80.25195980937008 L1433.502176935447,89.20586952430205 M1433.502176935447,89.20586952430205 L1420.5084793835294,86.21389969326799 M948.3121942575749,231.90880560602926 L935.1890735494042,228.55618352729948 M948.3121942575749,231.90880560602926 L913.9366425436654,242.01926199247316 M913.9366425436654,242.01926199247316 L900.8070025007551,238.64031051084154 M1421.345818961027,720.9172994364274 L1383.2976312685173,709.8710513966663 M1340.6379643396795,750.7681497758297 L1302.514307631805,739.5062380568733 M1258.3437145415,781.2057490162524 L1220.1489360413752,769.7217955696669 M1174.4158319929838,812.2475685889912 L1136.1545830597865,800.5349413645431 M1088.805184882092,843.9117805341157 L1050.482440255845,831.9635807083804 M1001.460651247435,876.2172929743313 L963.0817296273594,864.0263414008955 M1484.1169428545736,212.63784490018742 L1458.1962487736457,206.39663656399898 M1458.1962487736457,206.39663656399898 L1427.8808939418313,215.76990783511695 M1427.8808939418313,215.76990783511695 L1453.8226081118132,222.0570918370123 M1430.6846381588923,152.64318197825034 L1433.502176935447,89.20586952430205 M1456.6970668636518,158.79053930891564 L1430.6846381588923,152.64318197825034 M1425.0908432252193,278.5883224545875 L1427.8808939418313,215.76990783511695 M1412.202479233084,275.3872908748416 L1425.0908432252193,278.5883224545875 M1461.0638309821647,143.47850928296157 L1487.055084563802,149.58080360212853 M1461.0638309821647,143.47850928296157 L1430.6846381588923,152.64318197825034 M1463.9454699662158,80.25195980937008 L1461.0638309821647,143.47850928296157 M1458.1962487736457,206.39663656399898 L1455.3426207364575,269.0085929093621 M1442.464479483648,265.8308697430845 L1455.3426207364575,269.0085929093621 M971.0804168213331,372.15340341472466 L944.8771835385685,365.1108879319476 M944.8771835385685,365.1108879319476 L910.667037773552,375.68839818241224 M910.667037773552,375.68839818241224 L936.8835558129244,382.78604087112046 M948.3121942575749,231.90880560602926 L946.5902278451899,298.68283648629495 M946.5902278451899,298.68283648629495 L972.8661597675102,305.5707021358353 M944.8771835385685,365.1108879319476 L943.1729921741,431.1956419541088 M930.1581010482939,427.611831354249 L943.1729921741,431.1956419541088 M912.2975773101471,309.02810536278815 L913.9366425436654,242.01926199247316 M938.586898114424,315.97002870474904 L912.2975773101471,309.02810536278815 M909.0449575860442,442.0028529069931 L910.667037773552,375.68839818241224 M896.0236977571429,438.3911166040861 L909.0449575860442,442.0028529069931 M946.5902278451899,298.68283648629495 L912.2975773101471,309.02810536278815 M1455.3426207364575,269.0085929093621 L1425.0908432252193,278.5883224545875 M943.1729921741,431.1956419541088 L909.0449575860442,442.0028529069931" stroke="black"  stroke-width="4"  fill="red"/>
<path d="M1461.1191142240652,706.2066285857145 L-245.84052272561564,214.86430238484675 M1421.345818961027,720.9172994364274 L-286.0826172873533,225.2122695578652 M1461.1191142240652,706.2066285857145 L1460.881310750542,699.1760289206788 M1460.881310750542,699.1760289206788 L1459.5059650938788,692.9732994445462 M1459.5059650938788,692.9732994445462 L1457.0710189686345,687.958420096754 M1457.0710189686345,687.958420096754 L1453.715826172714,684.4239688486284 M1453.715826172714,684.4239688486284 L1449.633446059941,682.5778105832103 M1449.633446059941,682.5778105832103 L1445.0599484275308,682.5305888345972 M1445.0599484275308,682.5305888345972 L1440.260904004101,684.2883899490089 M1440.260904004101,684.2883899490089 L1435.5160708057292,687.75168597525 M1435.5160708057292,687.75168597525 L1431.1028677929155,692.7205392785227 M1431.1028677929155,692.7205392785227 L1427.2799447550306,698.9057954999283 M1427.2799447550306,698.9057954999283 L1424.2715720592073,705.9461654111395 M1424.2715720592073,705.9461654111395 L1422.2542205533514,713.4294442395658 M1422.2542205533514,713.4294442395658 L1421.345818961027,720.9172994364274 M-245.84052272561564,214.86430238484675 L-246.55095997698174,208.81865999585486 M-246.55095997698174,208.81865999585486 L-248.386117695414,203.41937823663528 M-248.386117695414,203.41937823663528 L-251.24110454271772,198.9797902740255 M-251.24110454271772,198.9797902740255 L-254.95180611030878,195.75862281595187 M-254.95180611030878,195.75862281595187 L-259.3041170556187,193.94474785935125 M-259.3041170556187,193.94474785935125 L-264.0459359922918,193.64594270145523 M-264.0459359922918,193.64594270145523 L-268.9016976681452,194.8819632577672 M-268.9016976681452,194.8819632577672 L-273.5883104122231,197.58290602085765 M-273.5883104122231,197.58290602085765 L-277.83188643995265,201.59284506042084 M-277.83188643995265,201.59284506042084 L-281.38393810285925,206.67855699883276 M-281.38393810285925,206.67855699883276 L-284.0363176429612,212.54327500756688 M-284.0363176429612,212.54327500756688 L-285.6336217050582,218.84404912463214 M-285.6336217050582,218.84404912463214 L-286.0826172873533,225.2122695578652 M1421.345818961027,720.9172994364274 L1421.5988454603857,727.9714625825889 M1421.5988454603857,727.9714625825889 L1422.9972605641408,734.1799582959238 M1422.9972605641408,734.1799582959238 L1425.457837816134,739.1814856287901 M1425.457837816134,739.1814856287901 L1428.8353514575824,742.6865256684617 M1428.8353514575824,742.6865256684617 L1432.9316289291405,744.4939510310135 M1432.9316289291405,744.4939510310135 L1437.5074166588918,744.5019915299237 M1437.5074166588918,744.5019915299237 L1442.2966192772662,742.7135365337217 M1442.2966192772662,742.7135365337217 L1447.0217333891046,739.2351365498643 M1447.0217333891046,739.2351365498643 L1451.40985734032,734.2701894569121 M1451.40985734032,734.2701894569121 L1455.2080867309421,728.1069545823439 M1455.2080867309421,728.1069545823439 L1458.1978081019827,721.1016766200378 M1458.1978081019827,721.1016766200378 L1460.2068236986845,713.6585210376227 M1460.2068236986845,713.6585210376227 L1461.1191142240652,706.2066285857145 M-286.0826172873533,225.2122695578652 L-285.35765060617075,231.27559188543373 M-285.35765060617075,231.27559188543373 L-283.5021270972429,236.6801260394522 M-283.5021270972429,236.6801260394522 L-280.6256034881435,241.11133555957076 M-280.6256034881435,241.11133555957076 L-276.8971281493706,244.31241331358763 M-276.8971281493706,244.31241331358763 L-272.5348780076781,246.0990894466034 M-272.5348780076781,246.0990894466034 L-267.7932314505041,246.36981767554408 M-267.7932314505041,246.36981767554408 L-262.94771425310637,245.11127401516694 M-262.94771425310637,245.11127401516694 L-258.2790711946716,242.3985218307324 M-258.2790711946716,242.3985218307324 L-254.05707349123645,238.39019250673928 M-254.05707349123645,238.39019250673928 L-250.5252654010385,233.3191405214373 M-250.5252654010385,233.3191405214373 L-247.88715721530025,227.47877448450794 M-247.88715721530025,227.47877448450794 L-246.29488265474265,221.20646552492428 M-246.29488265474265,221.20646552492428 L-245.84052272561564,214.86430238484675" stroke="black"  stroke-width="4"  fill="red"/>
<path d="M1381.1873101845451,735.7704465181396 L-326.6512197157176,235.64419589658755 M1340.6379643396795,750.7681497758297 L-367.55031992353906,246.16110737859862 M1381.1873101845451,735.7704465181396 L1380.918419452818,728.6823752166877 M1380.918419452818,728.6823752166877 L1379.4913278075214,722.4336952532681 M1379.4913278075214,722.4336952532681 L1376.98695944978,717.3870421423034 M1376.98695944978,717.3870421423034 L1373.5486023563979,713.8368836645573 M1373.5486023563979,713.8368836645573 L1369.3741273546261,711.9920399674877 M1369.3741273546261,711.9920399674877 L1364.7049227514974,711.9631469064312 M1364.7049227514974,711.9631469064312 L1359.8121271436394,713.7552873438258 M1359.8121271436394,713.7552873438258 L1354.9809829716319,717.2669819589198 M1354.9809829716319,717.2669819589198 L1350.493981829012,722.2954975145175 M1350.493981829012,722.2954975145175 L1346.6141179807312,728.5482005227873 M1346.6141179807312,728.5482005227873 L1343.569057616287,735.6598290466917 M1343.569057616287,735.6598290466917 L1341.537404150605,743.2139892708756 M1341.537404150605,743.2139892708756 L1340.6379643396795,750.7681497758297 M-326.6512197157176,235.64419589658755 L-327.3917975821387,229.55575462177626 M-327.3917975821387,229.55575462177626 L-329.27438665735735,224.12097926759685 M-329.27438665735735,224.12097926759685 L-332.1913465083396,219.65525291646642 M-332.1913465083396,219.65525291646642 L-335.9750433318994,216.41884629884964 M-335.9750433318994,216.41884629884964 L-340.40713497376146,214.6015395447742 M-340.40713497376146,214.6015395447742 L-345.2309075870767,214.311350201528 M-345.2309075870767,214.311350201528 L-350.16602608262906,215.5675708143869 M-350.16602608262906,215.5675708143869 L-354.9247586263202,218.29915197962762 M-354.9247586263202,218.29915197962762 L-359.2289842695536,222.34839975912553 M-359.2289842695536,222.34839975912553 L-362.8266536991481,227.47980209610003 M-362.8266536991481,227.47980209610003 L-365.50689908262166,233.3939063088479 M-365.50689908262166,233.3939063088479 L-367.11271088402077,239.74486648863063 M-367.11271088402077,239.74486648863063 L-367.55031992353906,246.16110737859862 M1340.6379643396795,750.7681497758297 L1340.9226355905614,757.8801480053014 M1340.9226355905614,757.8801480053014 L1342.3735290549553,764.1346023054981 M1342.3735290549553,764.1346023054981 L1344.9042677222126,769.1675545004084 M1344.9042677222126,769.1675545004084 L1348.3655225563116,772.687675569016 M1348.3655225563116,772.687675569016 L1352.554177214946,774.4930264980201 M1352.554177214946,774.4930264980201 L1357.225595001281,774.4820187889229 M1357.225595001281,774.4820187889229 L1362.1081302963187,772.6587101218308 M1362.1081302963187,772.6587101218308 L1366.9188911542733,769.1317202070452 M1366.9188911542733,769.1317202070452 L1371.38005545105,764.1072863635982 M1371.38005545105,764.1072863635982 L1375.234547828459,757.8771068256378 M1375.234547828459,757.8771068256378 L1378.2605145173604,750.8012840134684 M1378.2605145173604,750.8012840134684 L1380.283726214566,743.2880088943073 M1380.283726214566,743.2880088943073 L1381.1873101845451,735.7704465181396 M-367.55031992353906,246.16110737859862 L-366.79479091613723,252.26746980968124 M-366.79479091613723,252.26746980968124 L-364.8913036016884,257.70753188219896 M-364.8913036016884,257.70753188219896 L-361.95228602087786,262.1646994874302 M-361.95228602087786,262.1646994874302 L-358.15042509154716,265.3806626229041 M-358.15042509154716,265.3806626229041 L-353.7082240943844,267.1703244696738 M-353.7082240943844,267.1703244696738 L-348.8847128140478,267.4320006424066 M-348.8847128140478,267.4320006424066 L-343.9601664857104,266.1529304607775 M-343.9601664857104,266.1529304607775 L-339.2198949823269,263.40939797681153 M-339.2198949823269,263.40939797681153 L-334.9377901225116,259.36183509148924 M-334.9377901225116,259.36183509148924 L-331.36083363052455,254.24536772326218 M-331.36083363052455,254.24536772326218 L-328.6951481443143,248.3560273770786 M-328.6951481443143,248.3560273770786 L-327.0944077425286,242.03398673360306 M-327.0944077425286,242.03398673360306 L-326.6512197157176,235.64419589658755" stroke="black"  stroke-width="4"  fill="red"/>
<path d="M1299.692047875304,765.912529837996 L-408.78397309829586,256.7640467663933 M1258.3437145415,781.2057490162524 L-450.3563010424549,267.4540739520344 M1299.692047875304,765.912529837996 L1299.3908783740549,758.7660780529873 M1299.3908783740549,758.7660780529873 L1297.9102834457437,752.4708226951573 M1297.9102834457437,752.4708226951573 L1295.3342176944507,747.3921104484962 M1295.3342176944507,747.3921104484962 L1291.8100751892587,743.826301063557 M1291.8100751892587,743.826301063557 L1287.5406658380807,741.9831767873134 M1287.5406658380807,741.9831767873134 L1282.7728507577497,741.9733478442538 M1282.7728507577497,741.9733478442538 L1277.7835395598004,743.8008401552406 M1277.7835395598004,743.8008401552406 L1272.8635825025808,747.3621795359868 M1272.8635825025808,747.3621795359868 L1268.3007256004073,752.4517525126321 M1268.3007256004073,752.4517525126321 L1264.3624198372117,758.7733683253806 M1264.3624198372117,758.7733683253806 L1261.2797936328052,765.9577141584587 M1261.2797936328052,765.9577141584587 L1259.2336778322801,773.5841048430916 M1259.2336778322801,773.5841048430916 L1258.3437145415,781.2057490162524 M-408.78397309829586,256.7640467663933 L-409.5556016706271,250.6322133854837 M-409.5556016706271,250.6322133854837 L-411.48692054109233,245.161497232028 M-411.48692054109233,245.161497232028 L-414.4675184780788,240.66937070805722 M-414.4675184780788,240.66937070805722 L-418.3261043171442,237.41765333683253 M-418.3261043171442,237.41765333683253 L-422.84001328644297,235.59704426265654 M-422.84001328644297,235.59704426265654 L-427.7478110556981,235.31579723557434 M-427.7478110556981,235.31579723557434 L-432.7642378357589,236.59271464489052 M-432.7642378357589,236.59271464489052 L-437.59684629260414,239.355582886367 M-437.59684629260414,239.355582886367 L-441.96314462170085,243.44489381638553 M-441.96314462170085,243.44489381638553 L-445.607447533019,248.6228051170254 M-445.607447533019,248.6228051170254 L-448.31613014933896,254.58713599745013 M-448.31613014933896,254.58713599745013 L-449.93049987433983,260.9890838653724 M-449.93049987433983,260.9890838653724 L-450.3563010424549,267.4540739520344 M1258.3437145415,781.2057490162524 L1258.661246439683,788.376498968229 M1258.661246439683,788.376498968229 L1260.1664054958114,794.677533960611 M1260.1664054958114,794.677533960611 L1262.7696097806033,799.7421833705166 M1262.7696097806033,799.7421833705166 L1266.3172481332895,803.2773091454342 M1266.3172481332895,803.2773091454342 L1270.6011281081396,805.0801582429817 M1270.6011281081396,805.0801582429817 L1275.3710735574423,805.0493469024345 M1275.3710735574423,805.0493469024345 L1280.3496868271163,803.1901593746102 M1280.3496868271163,803.1901593746102 L1285.2485683261618,799.6133307294479 M1285.2485683261618,799.6133307294479 L1289.784800216145,794.5280231403572 M1289.784800216145,794.5280231403572 L1293.6970308871591,788.229449940559 M1293.6970308871591,788.229449940559 L1296.7601055641808,781.0816455289741 M1296.7601055641808,781.0816455289741 L1298.7976724514149,773.496923669466 M1298.7976724514149,773.496923669466 L1299.692047875304,765.912529837996 M-450.3563010424549,267.4540739520344 L-449.569284502041,273.60407443483206 M-449.569284502041,273.60407443483206 L-447.6165169300243,279.08011124461234 M-447.6165169300243,279.08011124461234 L-444.6133231695994,283.56349313729845 M-444.6133231695994,283.56349313729845 L-440.7361708058495,286.79440391814006 M-440.7361708058495,286.79440391814006 L-436.21197792882435,288.5869109619202 M-436.21197792882435,288.5869109619202 L-431.3045347883434,288.83919830767525 M-431.3045347883434,288.83919830767525 L-426.29901992740724,287.5390978770056 M-426.29901992740724,287.5390978770056 L-421.48538096615675,284.76413414354283 M-421.48538096615675,284.76413414354283 L-417.14176398278323,280.6765863776709 M-417.14176398278323,280.6765863776709 L-413.51865834482646,275.51389275544034 M-413.51865834482646,275.51389275544034 L-410.8248327508063,269.57474814719455 M-410.8248327508063,269.57474814719455 L-409.2155762308237,263.20218514211075 M-409.2155762308237,263.20218514211075 L-408.78397309829586,256.7640467663933" stroke="black"  stroke-width="4"  fill="red"/>
<path d="M1216.5870026068678,796.650012334541 L-492.2714935469784,278.23226631034015 M1174.4158319929838,812.2475685889912 L-534.5338097989514,289.0997190608475 M1216.5870026068678,796.650012334541 L1216.2523308165516,789.4442430738749 M1216.2523308165516,789.4442430738749 L1214.7163789064405,783.1017852255441 M1214.7163789064405,783.1017852255441 L1212.066255075215,777.9907266418661 M1212.066255075215,777.9907266418661 L1208.4535916301159,774.409337790612 M1208.4535916301159,774.409337790612 L1204.086280567495,772.5683657855639 M1204.086280567495,772.5683657855639 L1199.2168582966285,772.5783607811754 M1199.2168582966285,772.5783607811754 L1194.1281319784555,774.4422670099549 M1194.1281319784555,774.4422670099549 L1189.116786632232,778.0545340646026 M1189.116786632232,778.0545340646026 L1184.4759242218418,783.2066124795817 M1184.4759242218418,783.2066124795817 L1180.477611681517,789.5986577701068 M1180.477611681517,789.5986577701068 L1177.3565181663594,796.8572220067235 M1177.3565181663594,796.8572220067235 L1175.2957583024079,804.5572385157283 M1175.2957583024079,804.5572385157283 L1174.4158319929838,812.2475685889912 M-492.2714935469784,278.23226631034015 L-493.07509501761376,272.0564302535061 M-493.07509501761376,272.0564302535061 L-495.056509372641,266.54932402711233 M-495.056509372641,266.54932402711233 L-498.102458529296,262.03053080645515 M-498.102458529296,262.03053080645515 L-502.0378984121729,258.76343552802774 M-502.0378984121729,258.76343552802774 L-506.63574263907594,256.93966467059784 M-506.63574263907594,256.93966467059784 L-511.62968268557415,256.6676930981765 M-511.62968268557415,256.6676930981765 L-516.7294591120415,257.96582692691294 M-516.7294591120415,257.96582692691294 L-521.6377322807319,260.7606442450858 M-521.6377322807319,260.7606442450858 L-526.0675850350896,264.89079741676204 M-526.0675850350896,264.89079741676204 L-529.7595766373264,270.11606022448825 M-529.7595766373264,270.11606022448825 L-532.4972773336142,276.13147791132434 M-532.4972773336142,276.13147791132434 L-534.1202744072004,282.58523962949283 M-534.1202744072004,282.58523962949283 L-534.5338097989514,289.0997190608475 M1174.4158319929838,812.2475685889912 L1174.7674742920105,819.4780150674377 M1174.7674742920105,819.4780150674377 L1176.328782286948,825.82625544523 M1176.328782286948,825.82625544523 L1179.0068451955458,830.92287498724 M1179.0068451955458,830.92287498724 L1182.6436254906223,834.4729128878628 M1182.6436254906223,834.4729128878628 L1187.0257071904798,836.2728037651457 M1187.0257071904798,836.2728037651457 L1191.8971694731715,836.2214088735057 M1191.8971694731715,836.2214088735057 L1196.9747400544584,834.3252672402766 M1196.9747400544584,834.3252672402766 L1201.9642894944675,830.6973140183331 M1201.9642894944675,830.6973140183331 L1206.577706743437,825.5496932265073 M1206.577706743437,825.5496932265073 L1210.549212822095,819.1812276968617 M1210.549212822095,819.1812276968617 L1213.6502789317083,811.9599641564057 M1213.6502789317083,811.9599641564057 L1215.7023832659268,804.3024221970768 M1215.7023832659268,804.3024221970768 L1216.5870026068678,796.650012334541 M-534.5338097989514,289.0997190608475 L-533.7143671631829,295.2939728819689 M-533.7143671631829,295.2939728819689 L-531.7109367202427,300.8064337113676 M-531.7109367202427,300.8064337113676 L-528.6418339615085,305.3162901643512 M-528.6418339615085,305.3162901643512 L-524.6874119027459,308.5622058882512 M-524.6874119027459,308.5622058882512 L-520.0791046577799,310.3574061208581 M-520.0791046577799,310.3574061208581 L-515.0856183489548,310.59996135508584 M-515.0856183489548,310.59996135508584 L-509.997106245095,309.2783037511251 M-509.997106245095,309.2783037511251 L-505.10832750274164,306.47124423251023 M-505.10832750274164,306.47124423251023 L-500.70173558180045,302.34293568507564 M-500.70173558180045,302.34293568507564 L-497.03144185469966,297.13318139609277 M-497.03144185469966,297.13318139609277 L-494.30890604619924,291.14338375677045 M-494.30890604619924,291.14338375677045 L-492.6910620218838,284.71948303252714 M-492.6910620218838,284.71948303252714 L-492.2714935469784,278.23226631034015" stroke="black"  stroke-width="4"  fill="red"/>
<path d="M1131.8240013231014,828.0007114394957 L-577.1475798243293,300.057545638802 M1088.805184882092,843.9117805341157 L-620.1172059668296,311.10687807544485 M1131.8240013231014,828.0007114394957 L1131.4545471219024,820.7346670470708 M1131.4545471219024,820.7346670470708 L1129.8613110500578,814.3443674605721 M1129.8613110500578,814.3443674605721 L1127.1346711185545,809.2006765246135 M1127.1346711185545,809.2006765246135 L1123.430628178552,805.6037968519435 M1123.430628178552,805.6037968519435 L1118.9623337568298,803.7654322193974 M1118.9623337568298,803.7654322193974 L1113.9881744682152,803.7960495948066 M1113.9881744682152,803.7960495948066 L1108.797031894954,805.6974690015114 M1108.797031894954,805.6974690015114 L1103.6916053380473,809.361999893044 M1103.6916053380473,809.361999893044 L1098.9705111802537,814.5780796499487 M1098.9705111802537,814.5780796499487 L1094.910559914036,821.0421240622259 M1094.910559914036,821.0421240622259 L1091.7500734990206,828.3764518527764 M1091.7500734990206,828.3764518527764 L1089.674485579859,836.1515303460494 M1089.674485579859,836.1515303460494 L1088.805184882092,843.9117805341157 M-577.1475798243293,300.057545638802 L-577.984111982298,293.83708433320004 M-577.984111982298,293.83708433320004 L-580.0170296297202,288.2931296038206 M-580.0170296297202,288.2931296038206 L-583.1301006809351,283.7474002832335 M-583.1301006809351,283.7474002832335 L-587.1444366563544,280.4648653927925 M-587.1444366563544,280.4648653927925 L-591.8283986401339,278.6380797643234 M-591.8283986401339,278.6380797643234 L-596.9106809189673,278.37573272529426 M-596.9106809189673,278.37573272529426 L-602.0959016206878,279.6956161553668 M-602.0959016206878,279.6956161553668 L-607.0817027728826,282.52306868425 M-607.0817027728826,282.52306868425 L-611.5766325639411,286.69486366166177 M-611.5766325639411,286.69486366166177 L-615.3174093600519,291.9683454218338 M-615.3174093600519,291.9683454218338 L-618.0847185973456,298.0357303454598 M-618.0847185973456,298.0357303454598 L-619.7164123560129,304.54215230928816 M-619.7164123560129,304.54215230928816 L-620.1172059668296,311.10687807544485 M1088.805184882092,843.9117805341157 L1089.1922430634095,851.2028900327084 M1089.1922430634095,851.2028900327084 L1090.811664443009,857.5989701756085 M1090.811664443009,857.5989701756085 L1093.5670721628594,862.7278330486444 M1093.5670721628594,862.7278330486444 L1097.295875087846,866.2926730199532 M1097.295875087846,866.2926730199532 L1101.779249569409,868.0891261407637 M1101.779249569409,868.0891261407637 L1106.755354334018,868.0163269016332 M1106.755354334018,868.0163269016332 L1111.934862100295,866.0821183745345 M1111.934862100295,866.0821183745345 L1117.0177389378314,862.4017028296594 M1117.0177389378314,862.4017028296594 L1121.7105342191567,857.1902819950133 M1121.7105342191567,857.1902819950133 L1125.7429203781214,850.7503725902109 M1125.7429203781214,850.7503725902109 L1128.882890430641,843.4541272103877 M1128.882890430641,843.4541272103877 L1130.9497107635561,835.7223541038645 M1130.9497107635561,835.7223541038645 L1131.8240013231014,828.0007114394957 M-620.1172059668296,311.10687807544485 L-619.2643646287988,317.34601322108824 M-619.2643646287988,317.34601322108824 L-617.2088397713524,322.8953549091551 M-617.2088397713524,322.8953549091551 L-614.0720425977631,327.4319503245706 M-614.0720425977631,327.4319503245706 L-610.0382969058234,330.69292293835804 M-610.0382969058234,330.69292293835804 L-605.3436880866332,332.4906575289551 M-605.3436880866332,332.4906575289551 L-600.2619609206531,332.7231200584092 M-600.2619609206531,332.7231200584092 L-595.0883701280947,331.37936465973803 M-595.0883701280947,331.37936465973803 L-590.1226094049695,328.5395215752471 M-590.1226094049695,328.5395215752471 L-585.6515396204104,324.3696560474097 M-585.6515396204104,324.3696560474097 L-581.932976386525,319.11198157416186 M-581.932976386525,319.11198157416186 L-579.1811452847562,313.07066077196873 M-579.1811452847562,313.07066077196873 L-577.5546484230249,306.59458865590796 M-577.5546484230249,306.59458865590796 L-577.1475798243293,300.057545638802" stroke="black"  stroke-width="4"  fill="red"/>
<path d="M1045.352929484498,859.9831626674722 L-663.4471644040259,322.24886738786665 M1001.460651247435,876.2172929743313 L-707.1420067017459,333.4846839787092 M1045.352929484498,859.9831626674722 L1044.947336858852,852.6558702664429 M1044.947336858852,852.6558702664429 L1043.294820645303,846.2170742250734 M1043.294820645303,846.2170742250734 L1040.4890898948013,841.0404718230834 M1040.4890898948013,841.0404718230834 L1036.6907092419433,837.428197465699 M1036.6907092419433,837.428197465699 L1032.1182246600886,835.5929207509641 M1032.1182246600886,835.5929207509641 L1027.0360608892634,835.6449988154715 M1027.0360608892634,835.6449988154715 L1021.7393841412686,837.5850734363371 M1021.7393841412686,837.5850734363371 L1016.5370700259543,841.3032564960638 M1016.5370700259543,841.3032564960638 L1011.7334325611162,846.584885425016 M1011.7334325611162,846.584885425016 L1007.6101662778544,853.1225443628728 M1007.6101662778544,853.1225443628728 L1004.4093101200608,860.5342363112806 M1004.4093101200608,860.5342363112806 L1002.3187289683233,868.3858475861914 M1002.3187289683233,868.3858475861914 L1001.460651247435,876.2172929743313 M-663.4471644040259,322.24886738786665 L-664.3176383896885,315.983150103124 M-664.3176383896885,315.983150103124 L-666.4035025947712,310.4018769011059 M-666.4035025947712,310.4018769011059 L-669.5855404846284,305.82894287647446 M-669.5855404846284,305.82894287647446 L-673.6808652683094,302.53090491235884 M-673.6808652683094,302.53090491235884 L-678.4531998402338,300.70125964485055 M-678.4531998402338,300.70125964485055 L-683.6261083306158,300.44890228861027 M-683.6261083306158,300.44890228861027 L-688.8989334992225,301.7910851907581 M-688.8989334992225,301.7910851907581 L-693.9641934548063,304.6518816088019 M-693.9641934548063,304.6518816088019 L-698.5257704924343,308.866140481113 M-698.5257704924343,308.866140481113 L-702.3164460287994,314.1887278307818 M-702.3164460287994,314.1887278307818 L-705.1139901842353,320.30898803199324 M-705.1139901842353,320.30898803199324 L-706.7544288846334,326.8689321680282 M-706.7544288846334,326.8689321680282 L-707.1420067017459,333.4846839787092 M1001.460651247435,876.2172929743313 L1001.8845105462356,883.5700464849006 M1001.8845105462356,883.5700464849006 L1003.5640741130753,890.014618274563 M1003.5640741130753,890.014618274563 L1006.3994368939134,895.1759878790652 M1006.3994368939134,895.1759878790652 L1010.2232457144019,898.755510852915 M1010.2232457144019,898.755510852915 L1014.8111295857068,900.5480202581301 M1014.8111295857068,900.5480202581301 L1019.8951359153398,900.4529565414109 M1019.8951359153398,900.4529565414109 L1025.179676367442,898.4795251526592 M1025.179676367442,898.4795251526592 L1030.358655586167,894.7452559770293 M1030.358655586167,894.7452559770293 L1035.1331051794275,889.468496850078 M1035.1331051794275,889.468496850078 L1039.2280172949606,882.9555478449922 M1039.2280172949606,882.9555478449922 L1042.40784847223,875.5827455351557 M1042.40784847223,875.5827455351557 L1044.489550752319,867.7752942648611 M1044.489550752319,867.7752942648611 L1045.352929484498,859.9831626674722 M-707.1420067017459,333.4846839787092 L-706.2547375908689,339.76933607911144 M-706.2547375908689,339.76933607911144 L-704.1456566266656,345.3560285417648 M-704.1456566266656,345.3560285417648 L-700.9392988343259,349.91962475081857 M-700.9392988343259,349.91962475081857 L-696.8241225658926,353.19570719857575 M-696.8241225658926,353.19570719857575 L-692.0409524663432,354.9958088091644 M-692.0409524663432,354.9958088091644 L-686.8687067490573,355.21780255933186 M-686.8687067490573,355.21780255933186 L-681.6078908399527,353.85139186650247 M-681.6078908399527,353.85139186650247 L-676.5632354495717,350.9780538612213 M-676.5632354495717,350.9780538612213 L-672.026138105896,346.76581279880077 M-672.026138105896,346.76581279880077 L-668.258209327008,341.45934025956865 M-668.258209327008,341.45934025956865 L-665.4764680824105,335.3656003785639 M-665.4764680824105,335.3656003785639 L-663.8412679168955,328.83650648378193 M-663.8412679168955,328.83650648378193 L-663.4471644040259,322.24886738786665" stroke="black"  stroke-width="4"  fill="red"/>
<path d="M-1104.777075688552,-230.83900592736643 L-1107.7538041707319,-286.8791551788347 M1135.4858657677376,358.70387340323595 L1137.8149910835687,288.6183752632222 M-1104.777075688552,-230.83900592736643 L1135.4858657677376,358.70387340323595 M-1107.7538041707319,-286.8791551788347 L1137.8149910835687,288.6183752632222 M1903.7179865620715,116.46851999961689 L1907.7538041707319,52.07090859186479 M1135.4858657677376,358.70387340323595 L1903.7179865620715,116.46851999961689 M1137.8149910835687,288.6183752632222 L1907.7538041707319,52.07090859186479 M-332.0017216176218,-381.9403321423531 L-333.2290712142558,-434.2700558533876 M1903.7179865620715,116.46851999961689 L-332.0017216176218,-381.9403321423531 M1907.7538041707319,52.07090859186479 L-333.2290712142558,-434.2700558533876 M-332.0017216176218,-381.9403321423531 L-1104.777075688552,-230.83900592736643 M-333.2290712142558,-434.2700558533876 L-1107.7538041707319,-286.8791551788347" stroke="black"  stroke-width="4"  fill="red"/>
<path d="M971.0804168213331,372.15340341472466 L972.8661597675102,305.5707021358353 M972.8661597675102,305.5707021358353 L938.586898114424,315.97002870474904 M936.8835558129244,382.78604087112046 L938.586898114424,315.97002870474904 M971.0804168213331,372.15340341472466 L936.8835558129244,382.78604087112046 M-748.7628541807262,-34.699736027655035 L-750.9915567231185,-90.67949988656869 M-750.9915567231185,-90.67949988656869 L-769.0396773115117,-95.53020542001093 M-771.3120799037545,-151.64106942847695 L-769.0396773115117,-95.53020542001093 M-771.3120799037545,-151.64106942847695 L-753.229886490316,-146.90107698029385 M-753.229886490316,-146.90107698029385 L-755.4779059967655,-203.36603752464168 M948.3121942575749,231.90880560602926 L-755.4779059967655,-203.36603752464168 M948.3121942575749,231.90880560602926 L946.5902278451899,298.68283648629495 M946.5902278451899,298.68283648629495 L972.8661597675102,305.5707021358353 M971.0804168213331,372.15340341472466 L944.8771835385685,365.1108879319476 M944.8771835385685,365.1108879319476 L943.1729921741,431.1956419541088 M-748.7628541807262,-34.699736027655035 L943.1729921741,431.1956419541088 M938.586898114424,315.97002870474904 L912.2975773101471,309.02810536278815 M946.5902278451899,298.68283648629495 L912.2975773101471,309.02810536278815 M-805.3187500482136,-144.5233942819624 L-802.9656241031489,-88.24629808176769 M-787.2514718677637,-139.75257265974085 L-805.3187500482136,-144.5233942819624 M-789.5806935775513,-196.3859348034282 L-787.2514718677637,-139.75257265974085 M913.9366425436654,242.01926199247316 L-789.5806935775513,-196.3859348034282 M912.2975773101471,309.02810536278815 L913.9366425436654,242.01926199247316 M910.667037773552,375.68839818241224 L936.8835558129244,382.78604087112046 M909.0449575860442,442.0028529069931 L910.667037773552,375.68839818241224 M-782.6231801855324,-27.21896632891884 L909.0449575860442,442.0028529069931 M-784.9323224680729,-83.36411154153984 L-782.6231801855324,-27.21896632891884 M-802.9656241031489,-88.24629808176769 L-784.9323224680729,-83.36411154153984 M944.8771835385685,365.1108879319476 L910.667037773552,375.68839818241224 M-750.9915567231185,-90.67949988656869 L-784.9323224680729,-83.36411154153984 M-748.7628541807262,-34.699736027655035 L-782.6231801855324,-27.21896632891884 M-769.0396773115117,-95.53020542001093 L-802.9656241031489,-88.24629808176769 M-771.3120799037545,-151.64106942847695 L-805.3187500482136,-144.5233942819624 M-753.229886490316,-146.90107698029385 L-787.2514718677637,-139.75257265974085 M-755.4779059967655,-203.36603752464168 L-789.5806935775513,-196.3859348034282 M948.3121942575749,231.90880560602926 L913.9366425436654,242.01926199247316 M943.1729921741,431.1956419541088 L909.0449575860442,442.0028529069931" stroke="black"  stroke-width="4"  fill="red"/>
<path d="M1484.1169428545736,212.63784490018742 L1487.055084563802,149.58080360212853 M1487.055084563802,149.58080360212853 L1456.6970668636518,158.79053930891564 M1453.8226081118132,222.0570918370123 L1456.6970668636518,158.79053930891564 M1484.1169428545736,212.63784490018742 L1453.8226081118132,222.0570918370123 M-235.24919845139118,-148.15042740971762 L-236.31601059061393,-201.60956905299201 M-236.31601059061393,-201.60956905299201 L-254.53084007882524,-205.99535229201933 M-255.63716377875983,-259.5730286174295 L-254.53084007882524,-205.99535229201933 M-255.63716377875983,-259.5730286174295 L-237.38720388851937,-255.28825542580785 M-237.38720388851937,-255.28825542580785 L-238.46280538929682,-309.1878417425447 M1463.9454699662158,80.25195980937008 L-238.46280538929682,-309.1878417425447 M1463.9454699662158,80.25195980937008 L1461.0638309821647,143.47850928296157 M1461.0638309821647,143.47850928296157 L1487.055084563802,149.58080360212853 M1484.1169428545736,212.63784490018742 L1458.1962487736457,206.39663656399898 M1458.1962487736457,206.39663656399898 L1455.3426207364575,269.0085929093621 M-235.24919845139118,-148.15042740971762 L1455.3426207364575,269.0085929093621 M1456.6970668636518,158.79053930891564 L1430.6846381588923,152.64318197825034 M1461.0638309821647,143.47850928296157 L1430.6846381588923,152.64318197825034 M-286.3762646371871,-253.1392633214797 L-285.20348229846604,-199.40993007464965 M-268.13323401784896,-248.82800006789432 L-286.3762646371871,-253.1392633214797 M-269.27562485274495,-302.8811243085056 L-268.13323401784896,-248.82800006789432 M1433.502176935447,89.20586952430205 L-269.27562485274495,-302.8811243085056 M1430.6846381588923,152.64318197825034 L1433.502176935447,89.20586952430205 M1427.8808939418313,215.76990783511695 L1453.8226081118132,222.0570918370123 M1425.0908432252193,278.5883224545875 L1427.8808939418313,215.76990783511695 M-265.8625125429477,-141.3870208080948 L1425.0908432252193,278.5883224545875 M-266.9955395481527,-194.99708805437683 L-265.8625125429477,-141.3870208080948 M-285.20348229846604,-199.40993007464965 L-266.9955395481527,-194.99708805437683 M1458.1962487736457,206.39663656399898 L1427.8808939418313,215.76990783511695 M-236.31601059061393,-201.60956905299201 L-266.9955395481527,-194.99708805437683 M-235.24919845139118,-148.15042740971762 L-265.8625125429477,-141.3870208080948 M-254.53084007882524,-205.99535229201933 L-285.20348229846604,-199.40993007464965 M-255.63716377875983,-259.5730286174295 L-286.3762646371871,-253.1392633214797 M-237.38720388851937,-255.28825542580785 L-268.13323401784896,-248.82800006789432 M-238.46280538929682,-309.1878417425447 L-269.27562485274495,-302.8811243085056 M1463.9454699662158,80.25195980937008 L1433.502176935447,89.20586952430205 M1455.3426207364575,269.0085929093621 L1425.0908432252193,278.5883224545875" stroke="black"  stroke-width="4"  fill="red"/></svg>