<svg version="1.1" xmlns="http://www.w3.org/2000/svg" viewBox="-17.955392461574156 -16.34117244650193 35.91078492314831 31.379197715539203" fill="none" stroke="black" stroke-width="0.6%" vector-effect="non-scaling-stroke">
    <path d="M -0.02521 0.98191 L -0.02521 0.02463 L 16.95539 -13.57359 L 0.02521 -15.34117 L -16.95539 -1.74295 L -0.02521 0.02463" />
    <path d="M 16.95539 -12.61631 L 16.95539 -13.57359" />
    <path d="M -0.02521 0.98191 L 16.95539 -12.61631" />
    <path d="M -16.95539 -0.78566 L -16.95539 -1.74295" />
    <path d="M -16.95539 -0.78566 L -0.02521 0.98191" />
    <path d="M 0.262 9.04763 L 0.262 0.75191" />
    <path d="M 0.262 13.83405 L 0.262 9.04763" />
    <path d="M -12.18001 12.53506 A 6.25 5.62743 231.31193 0 1 -10.8247 10.7163" />
    <path d="M -14.10119 -0.48767 L -14.10119 12.56504 L -12.43472 12.73903 A 6.25 5.62743 231.31193 0 1 -10.9537 10.81624 A 6.25 5.62743 231.31193 0 1 -9.55466 10.0216" />
    <path d="M 0.00729 9.25161 L 0.00729 0.95589" />
    <path d="M 0.00729 14.03802 L 0.00729 9.25161 A 0.5 0.45019 231.31193 0 1 -0.15045 9.59279" />
    <path d="M -1.65918 13.86404 L 0.00729 14.03802" />
    <path d="M -8.96255 9.83829 A 6.25 5.62743 231.31193 0 1 -8.01924 9.69261" />
    <path d="M -6.73025 9.75347 A 6.25 5.62743 231.31193 0 1 -6.13741 9.87873" />
    <path d="M -5.18123 10.21583 A 6.25 5.62743 231.31193 0 1 -1.65918 13.86404" />
    <path d="M -10.18119 7.83024 A 0.5 0.45019 231.31193 0 1 -9.55611 8.6108" />
    <path d="M -8.30006 8.02664 A 0.5 0.45019 231.31193 0 1 -7.67498 8.8072" />
    <path d="M -6.41892 8.22303 A 0.5 0.45019 231.31193 0 1 -5.79384 9.00359" />
    <path d="M -4.53779 8.41943 A 0.5 0.45019 231.31193 0 1 -3.91271 9.19999" />
    <path d="M -2.65666 8.61583 A 0.5 0.45019 231.31193 0 1 -2.03158 9.39639" />
    <path d="M -0.77553 8.81223 A 0.5 0.45019 231.31193 0 1 0.00729 9.25161" />
    <path d="M 0.262 13.83405 L 0.00729 14.03802" />
    <path d="M 13.84648 -1.83095 L 13.84648 -10.12667" />
    <path d="M 13.84648 2.95547 L 13.84648 -1.83095" />
    <path d="M 1.40447 1.65648 A 6.25 5.62743 231.31193 0 1 1.49602 1.46298" />
    <path d="M 1.01699 1.84659 L 1.14977 1.86045 A 6.25 5.62743 231.31193 0 1 1.24131 1.66695" />
    <path d="M 13.59177 -1.62697 L 13.59177 -9.92269" />
    <path d="M 13.59177 3.15945 L 13.59177 -1.62697 A 0.5 0.45019 231.31193 0 1 13.43403 -1.28579" />
    <path d="M 11.9253 2.98546 L 13.59177 3.15945" />
    <path d="M 4.62194 -1.04028 A 6.25 5.62743 231.31193 0 1 5.30057 -1.16205" />
    <path d="M 6.85423 -1.12511 A 6.25 5.62743 231.31193 0 1 7.27716 -1.04209" />
    <path d="M 8.40325 -0.66274 A 6.25 5.62743 231.31193 0 1 8.7327 -0.50488" />
    <path d="M 9.63449 0.05409 A 6.25 5.62743 231.31193 0 1 9.90221 0.26139" />
    <path d="M 10.63599 0.95491 A 6.25 5.62743 231.31193 0 1 11.9253 2.98546" />
    <path d="M 5.28443 -2.85194 A 0.5 0.45019 231.31193 0 1 5.90951 -2.07138" />
    <path d="M 7.16556 -2.65555 A 0.5 0.45019 231.31193 0 1 7.79064 -1.87499" />
    <path d="M 9.04669 -2.45915 A 0.5 0.45019 231.31193 0 1 9.67177 -1.67859" />
    <path d="M 10.92782 -2.26275 A 0.5 0.45019 231.31193 0 1 11.5529 -1.48219" />
    <path d="M 12.80895 -2.06635 A 0.5 0.45019 231.31193 0 1 13.59177 -1.62697" />
    <path d="M 13.84648 2.95547 L 13.59177 3.15945" />
    <path d="M -12.18001 12.53506 L -12.43472 12.73903" />
    <path d="M -11.78228 9.32727 A 0.5 0.45019 231.31193 0 1 -11.62454 8.98609 L -10.18119 7.83024" />
    <path d="M -11.62454 8.98609 A 0.5 0.45019 231.31193 0 1 -10.99946 9.76665 L -9.55611 8.6108" />
    <path d="M -10.99946 9.76665 A 0.5 0.45019 231.31193 0 1 -11.78228 9.32727" />
    <path d="M -9.90115 9.52366 A 0.5 0.45019 231.31193 0 1 -9.74341 9.18248 L -8.30006 8.02664" />
    <path d="M -9.74341 9.18248 A 0.5 0.45019 231.31193 0 1 -9.11833 9.96304 L -7.67498 8.8072" />
    <path d="M -9.11833 9.96304 A 0.5 0.45019 231.31193 0 1 -9.90115 9.52366" />
    <path d="M -8.02002 9.72006 A 0.5 0.45019 231.31193 0 1 -7.86228 9.37888 L -6.41892 8.22303" />
    <path d="M -7.86228 9.37888 A 0.5 0.45019 231.31193 0 1 -7.2372 10.15944 L -5.79384 9.00359" />
    <path d="M -7.2372 10.15944 A 0.5 0.45019 231.31193 0 1 -8.02002 9.72006" />
    <path d="M -6.13889 9.91646 A 0.5 0.45019 231.31193 0 1 -5.98114 9.57528 L -4.53779 8.41943" />
    <path d="M -5.98114 9.57528 A 0.5 0.45019 231.31193 0 1 -5.35606 10.35584 L -3.91271 9.19999" />
    <path d="M -5.35606 10.35584 A 0.5 0.45019 231.31193 0 1 -6.13889 9.91646" />
    <path d="M -4.25776 10.11286 A 0.5 0.45019 231.31193 0 1 -4.10001 9.77168 L -2.65666 8.61583" />
    <path d="M -4.10001 9.77168 A 0.5 0.45019 231.31193 0 1 -3.47493 10.55224 L -2.03158 9.39639" />
    <path d="M -3.47493 10.55224 A 0.5 0.45019 231.31193 0 1 -4.25776 10.11286" />
    <path d="M -2.37662 10.30926 A 0.5 0.45019 231.31193 0 1 -2.21888 9.96807 L -0.77553 8.81223" />
    <path d="M -2.21888 9.96807 A 0.5 0.45019 231.31193 0 1 -1.5938 10.74864 L -0.15045 9.59279" />
    <path d="M -1.5938 10.74864 A 0.5 0.45019 231.31193 0 1 -2.37662 10.30926" />
    <path d="M 1.40447 1.65648 L 1.14977 1.86045" />
    <path d="M 15.3868 -2.84959 A 0.5 0.45019 51.31193 0 0 14.76172 -3.63015" />
    <path d="M 0.262 2.45119 L 5.90951 -2.07138" />
    <path d="M 0.262 1.17006 L 5.28443 -2.85194" />
    <path d="M 0.262 4.15402 L 7.79064 -1.87499" />
    <path d="M 0.262 2.87289 L 7.16556 -2.65555" />
    <path d="M 0.262 5.85684 L 9.67177 -1.67859" />
    <path d="M 0.262 4.57571 L 9.04669 -2.45915" />
    <path d="M 0.262 7.55967 L 11.5529 -1.48219" />
    <path d="M 0.262 6.27854 L 10.92782 -2.26275" />
    <path d="M 0.262 9.26249 L 13.43403 -1.28579" />
    <path d="M 0.262 7.98136 L 12.80895 -2.06635" />
    <path d="M 13.84648 -1.61609 L 15.3868 -2.84959" />
    <path d="M 13.84648 -2.89722 L 14.76172 -3.63015" />
</svg>