<svg viewBox="0 0 800 800" xmlns="http://www.w3.org/2000/svg"><path d="M375.4070163055424,403.25219330437204 L374.3566853374771,402.9190460112302 M356.6130171284862,408.6015289335151 L355.57130584258294,408.23566284940773 M375.4070163055424,403.25219330437204 L374.21124668313297,401.05998988118563 M374.21124668313297,401.05998988118563 L372.58516630106834,399.3683587060409 M372.58516630106834,399.3683587060409 L370.6062700235937,398.2752158255607 M370.6062700235937,398.2752158255607 L368.37361860620115,397.8506717082955 M368.37361860620115,397.8506717082955 L366.0040747509322,398.130940446456 M366.0040747509322,398.130940446456 L363.62674979480295,399.11354498576145 M363.62674979480295,399.11354498576145 L361.37573741795626,400.754674301608 M361.37573741795626,400.754674301608 L359.38153628429643,402.9694816591034 M359.38153628429643,402.9694816591034 L357.76189043059503,405.6358283743336 M357.76189043059503,405.6358283743336 L356.6130171284862,408.6015289335151 M374.3566853374771,402.9190460112302 L373.158815837179,400.73162893194166 M373.158815837179,400.73162893194166 L371.5312030390524,399.0431032413972 M371.5312030390524,399.0431032413972 L369.5514615737996,397.9511689252121 M369.5514615737996,397.9511689252121 L367.31873170084896,397.5257995020878 M367.31873170084896,397.5257995020878 L364.9499034096372,397.80317288655755 M364.9499034096372,397.80317288655755 L362.57405585226303,398.78089569064986 M362.57405585226303,398.78089569064986 L360.3251905234661,400.4153722265942 M360.3251905234661,400.4153722265942 L358.33366107923683,402.62210271078834 M358.33366107923683,402.62210271078834 L356.7170280326123,405.2794118268649 M356.7170280326123,405.2794118268649 L355.57130584258294,408.23566284940773 M378.1608520609449,402.46836908556674 L377.1097115051632,402.139887661885 M378.1608520609449,402.46836908556674 L375.4070163055424,403.25219330437204 M377.1097115051632,402.139887661885 L374.3566853374771,402.9190460112302 M353.5440541189403,409.4750478166876 L352.50426299524196,409.10369384393823 M356.6130171284862,408.6015289335151 L353.5440541189403,409.4750478166876 M355.57130584258294,408.23566284940773 L352.50426299524196,409.10369384393823 M377.62884888175097,371.6687807752142 L378.1608520609449,402.46836908556674 M375.2247265499456,372.1618136752915 L377.62884888175097,371.6687807752142 M375.3491586628223,378.5078514320003 L375.2247265499456,372.1618136752915 M374.14377831092463,378.7746734904786 L375.3491586628223,378.5078514320003 M374.14377831092463,378.7746734904786 L374.01148919551696,372.41062211711767 M354.86652487563293,376.33683550303147 L374.01148919551696,372.41062211711767 M355.1288708221629,382.9837986433308 L354.86652487563293,376.33683550303147 M353.795500059452,383.27895255973664 L355.1288708221629,382.9837986433308 M353.795500059452,383.27895255973664 L353.52360274073095,376.6122394564781 M352.1718937652516,376.88944539871505 L353.52360274073095,376.6122394564781 M353.5440541189403,409.4750478166876 L352.1718937652516,376.88944539871505 M374.048788254254,393.4263105242602 L374.06671360594487,393.17488748850974 M374.06671360594487,393.17488748850974 L374.12984926697334,392.92608828444736 M374.12984926697334,392.92608828444736 L374.23450998904207,392.69446852448164 M374.23450998904207,392.69446852448164 L374.3745635619639,392.49357285277534 M374.3745635619639,392.49357285277534 L374.54180278421035,392.3351243254111 M374.54180278421035,392.3351243254111 L374.7264346042564,392.228338590828 M374.7264346042564,392.228338590828 L374.9176689457209,392.1793803981131 M374.9176689457209,392.1793803981131 L375.1043567970058,392.1910186428541 M375.1043567970058,392.1910186428541 L375.27564910564666,392.2624822930907 M375.27564910564666,392.2624822930907 L375.4216242185531,392.38952460817995 M375.4216242185531,392.38952460817995 L375.53385975559746,392.564696187715 M375.53385975559746,392.564696187715 L375.6059043912231,392.77778836465006 M375.6059043912231,392.77778836465006 L375.6336406914877,393.0164348939411 M375.6336406914877,393.0164348939411 L375.61550450420697,393.2668262935974 M375.61550450420697,393.2668262935974 L375.552568579382,393.51449816365636 M375.552568579382,393.51449816365636 L375.44847241615435,393.7451531513557 M375.44847241615435,393.7451531513557 L375.3092188816282,393.94546763380174 M375.3092188816282,393.94546763380174 L375.14283190180237,394.1038516904522 M375.14283190180237,394.1038516904522 L374.95890928750777,394.2111044475875 M374.95890928750777,394.2111044475875 L374.7680786474029,394.26095416457116 M374.7680786474029,394.26095416457116 L374.58139650977483,394.25042770493894 M374.58139650977483,394.25042770493894 L374.40971061867435,394.18004141025887 M374.40971061867435,394.18004141025887 L374.26303279420296,394.05379520838653 M374.26303279420296,394.05379520838653 L374.14994639240825,393.8789561264083 M374.14994639240825,393.8789561264083 L374.07709766760644,393.6656566532248 M374.07709766760644,393.6656566532248 L374.048788254254,393.4263105242602 M370.8402310217746,394.2561098085221 L370.85770852521665,394.0027855750931 M370.85770852521665,394.0027855750931 L370.9211821380613,393.75199873941114 M370.9211821380613,393.75199873941114 L371.02694532528324,393.5184223665315 M371.02694532528324,393.5184223665315 L371.1688023213472,393.31571583853605 M371.1688023213472,393.31571583853605 L371.3384383911237,393.15570866370535 M371.3384383911237,393.15570866370535 L371.52591972157643,393.04770724194674 M371.52591972157643,393.04770724194674 L371.7202889767895,392.9979464752262 M371.7202889767895,392.9979464752262 L371.91021383808516,393.00924078830207 M371.91021383808516,393.00924078830207 L372.08465685438944,393.0808376539795 M372.08465685438944,393.0808376539795 L372.23351421911684,393.2084809686216 M372.23351421911684,393.2084809686216 L372.348196268025,393.38468550872466 M372.348196268025,393.38468550872466 L372.4221127433351,393.5991815837498 M372.4221127433351,393.5991815837498 L372.45103773004377,393.83952186672843 M372.45103773004377,393.83952186672843 L372.4333409034924,394.09179887111827 M372.4333409034924,394.09179887111827 L372.3700687042776,394.3414403236414 M372.3700687042776,394.3414403236414 L372.26488152232565,394.5740355541545 M372.26488152232565,394.5740355541545 L372.1238431688617,394.7761499534113 M372.1238431688617,394.7761499534113 L371.9550808335125,394.9360896530046 M371.9550808335125,394.9360896530046 L371.7683281679102,395.04456371669534 M371.7683281679102,395.04456371669534 L371.57437558248165,395.09522896356845 M371.57437558248165,395.09522896356845 L371.384459941691,395.0850637598989 M371.384459941691,395.0850637598989 L371.2096165848637,395.01456197382083 M371.2096165848637,395.01456197382083 L371.0600410320227,394.887728837587 M371.0600410320227,394.887728837587 L370.9444874736149,394.7118639743509 M370.9444874736149,394.7118639743509 L370.869745817944,394.49715925787973 M370.869745817944,394.49715925787973 L370.8402310217746,394.2561098085221 M367.5788036392235,395.0995824074577 L367.59581662714726,394.844328044836 M367.59581662714726,394.844328044836 L367.659630214493,394.5915217328715 M367.659630214493,394.5915217328715 L367.766518533888,394.3559553434487 M367.766518533888,394.3559553434487 L367.9102192268385,394.15140540915223 M367.9102192268385,394.15140540915223 L368.0823085523178,393.989809571783 M368.0823085523178,393.989809571783 L368.27270898753653,393.8805666375961 M368.27270898753653,393.8805666375961 L368.47029048849373,393.8299834989888 M368.47029048849373,393.8299834989888 L368.6635344345057,393.8409208418701 M368.6635344345057,393.8409208418701 L368.8412088480148,393.912645710779 M368.8412088480148,393.912645710779 L368.993023486975,394.04089280400643 M368.993023486975,394.04089280400643 L369.1102179985098,394.2181406470409 M369.1102179985098,394.2181406470409 L369.18605773782826,394.43405833830127 M369.18605773782826,394.43405833830127 L369.21620743795046,394.67611590778694 M369.21620743795046,394.67611590778694 L369.19896630843675,394.9303070941877 M369.19896630843675,394.9303070941877 L369.13535580891977,395.18194953765396 M369.13535580891977,395.18194953765396 L369.029055282646,395.4165179955334 M369.029055282646,395.4165179955334 L368.8861924317188,395.62046455455436 M368.8861924317188,395.62046455455436 L368.71499905217274,395.78198978837884 M368.71499905217274,395.78198978837884 L368.5253474203393,395.8917110739586 M368.5253474203393,395.8917110739586 L368.3281960366832,395.9432119266141 M368.3281960366832,395.9432119266141 L368.1349649901773,395.93342142642865 M368.1349649901773,395.93342142642865 L367.9568833030655,395.8628098011544 M367.9568833030655,395.8628098011544 L367.8043345188704,395.7353873236885 M367.8043345188704,395.7353873236885 L367.6862471723551,395.5584865598068 M367.6862471723551,395.5584865598068 L367.60956044563756,395.3423588978931 M367.60956044563756,395.3423588978931 L367.5788036392235,395.0995824074577 M364.2631884704618,395.95706908903406 L364.27971882959287,395.6998552105628 M364.27971882959287,395.6998552105628 L364.3438751725759,395.44499660115645 M364.3438751725759,395.44499660115645 L364.4519116704087,395.20740600659707 M364.4519116704087,395.20740600659707 L364.5974979018325,395.00097915988164 M364.5974979018325,395.00097915988164 L364.7720992191968,394.8377636606455 M364.7720992191968,394.8377636606455 L364.9654896619938,394.7272528543635 M364.9654896619938,394.7272528543635 L365.1663643051305,394.6758266334508 M365.1663643051305,394.6758266334508 L365.3630112331653,394.6863936994201 M365.3630112331653,394.6863936994201 L365.5440009601804,394.7582409170697 M365.5440009601804,394.7582409170697 L365.69885072576346,394.88709438916646 M365.69885072576346,394.88709438916646 L365.81862556330606,395.065396063852 M365.81862556330606,395.065396063852 L365.8964426555704,395.2827531716478 M365.8964426555704,395.2827531716478 L365.92785358363017,395.52655224942157 M365.92785358363017,395.52655224942157 L365.911085940959,395.78268663266556 M365.911085940959,395.78268663266556 L365.8471342831959,396.03636245759236 M365.8471342831959,396.03636245759236 L365.7396977929356,396.27293787819497 M365.7396977929356,396.27293787819497 L365.5949692494991,396.47874977861807 M365.5949692494991,396.47874977861807 L365.4212868418289,396.6418914182264 M365.4212868418289,396.6418914182264 L365.22866599610126,396.75288638570663 M365.22866599610126,396.75288638570663 L365.02823542029796,396.805243845039 M365.02823542029796,396.805243845039 L364.83160530095,396.79584175927334 M364.83160530095,396.79584175927334 L364.65020118567026,396.7251264065333 M364.65020118567026,396.7251264065333 L364.49460079169404,396.59711238067484 M364.49460079169404,396.59711238067484 L364.37391101180623,396.41916543700904 M364.37391101180623,396.41916543700904 L364.29522445178276,396.201597029775 M364.29522445178276,396.201597029775 L364.2631884704618,395.95706908903406 M360.892023728192,396.8289220396211 L360.9080526265665,396.5697185881085 M360.9080526265665,396.5697185881085 L360.9725545035181,396.31277405383173 M360.9725545035181,396.31277405383173 L361.08176261173077,396.0731242558822 M361.08176261173077,396.0731242558822 L361.229277862658,395.8647859975902 M361.229277862658,395.8647859975902 L361.40645153609455,395.6999190192213 M361.40645153609455,395.6999190192213 L361.6029058447672,395.58811301830303 M361.6029058447672,395.58811301830303 L361.8071566495853,395.5358224611369 M361.8071566495853,395.5358224611369 L362.0072937457777,395.54600530646474 M362.0072937457777,395.54600530646474 L362.19168527184445,395.6179689574183 M362.19168527184445,395.6179689574183 L362.34965107434505,395.7474311897797 M362.34965107434505,395.7474311897797 L362.4720763887908,395.92679733741437 M362.4720763887908,395.92679733741437 L362.55192659867987,396.14561202490296 M362.55192659867987,396.14561202490296 L362.584636682731,396.3911773099989 M362.584636682731,396.3911773099989 L362.56836093105426,396.6492845871973 M362.56836093105426,396.6492845871973 L362.50406549483847,396.9050269142507 M362.50406549483847,396.9050269142507 L362.3954698243722,397.1436438848815 M362.3954698243722,397.1436438848815 L362.24883270775763,397.35135530928875 M362.24883270775763,397.35135530928875 L362.07260169035203,397.5161450371546 M362.07260169035203,397.5161450371546 L361.876938609005,397.628441074205 M361.876938609005,397.628441074205 L361.6731463452647,397.6816766901695 M361.6731463452647,397.6816766901695 L361.47303005750814,397.6726774210933 M361.47303005750814,397.6726774210933 L361.2882168409713,397.6018647274644 M361.2882168409713,397.6018647274644 L361.12948345351236,397.4732571612051 M361.12948345351236,397.4732571612051 L361.0061205018248,397.29425359663065 M361.0061205018248,397.29425359663065 L360.92537740180205,397.07522634476356 M360.92537740180205,397.07522634476356 L360.892023728192,396.8289220396211 M357.4639016090729,397.7155053462898 L357.47941028713086,397.4542813609893 M357.47941028713086,397.4542813609893 L357.5442596466453,397.1952166542113 M357.5442596466453,397.1952166542113 L357.6546642192787,396.95347155470637 M357.6546642192787,396.95347155470637 L357.80415265563556,396.7431866185186 M357.80415265563556,396.7431866185186 L357.98396094324517,396.5766354441503 M357.98396094324517,396.5766354441503 L358.1835556601417,396.4635060257348 M358.1835556601417,396.4635060257348 L358.3912682548625,396.4103292105049 M358.3912682548625,396.4103292105049 L358.5949860426388,396.4201132489391 M358.5949860426388,396.4201132489391 L358.7828687297714,396.4921870914149 M358.7828687297714,396.4921870914149 L358.9440335007286,396.6222605318156 M358.9440335007286,396.6222605318156 L359.0691823906557,396.80270176042825 M359.0691823906557,396.80270176042825 L359.151122897135,397.02299264803236 M359.151122897135,397.02299264803236 L359.18517217887245,397.27034916444507 M359.18517217887245,397.27034916444507 L359.16940672786234,397.53045990114197 M359.16940672786234,397.53045990114197 L359.1047654779738,397.7883025179273 M359.1047654779738,397.7883025179273 L358.99498623124356,398.02899665329585 M358.99498623124356,398.02899665329585 L358.84639707164473,398.2386425185184 M358.84639707164473,398.2386425185184 L358.6675560020445,398.405112909905 M358.6675560020445,398.405112909905 L358.4687748639478,398.51873834529056 M358.4687748639478,398.51873834529056 L358.2615358309139,398.57287434325735 M358.2615358309139,398.57287434325735 L358.0578431002886,398.5642929124299 M358.0578431002886,398.5642929124299 L357.8695312262296,398.49338960633116 M357.8695312262296,398.49338960633116 L357.7075813479844,398.3641864715226 M357.7075813479844,398.3641864715226 L357.5814712812445,398.1841159484918 M357.5814712812445,398.1841159484918 L357.49861372895214,397.9636112345634 M357.49861372895214,397.9636112345634 L357.4639016090729,397.7155053462898 M376.54715913501434,371.4245282517576 L377.1097115051632,402.139887661885 M352.50426299524196,409.10369384393823 L351.10267084519467,376.6122394564781 M351.10267084519467,376.6122394564781 L376.54715913501434,371.4245282517576 M372.9888733351435,393.1185932896797 L373.01741533046567,393.35730676714314 M373.01741533046567,393.35730676714314 L373.0904674371164,393.5700837023407 M373.0904674371164,393.5700837023407 L373.2037163981045,393.74454077006186 M373.2037163981045,393.74454077006186 L373.35050676577276,393.8705674532909 M373.35050676577276,393.8705674532909 L373.5222488973355,393.94090903333085 M373.5222488973355,393.94090903333085 L373.7089278956494,393.9515676250214 M373.7089278956494,393.9515676250214 L373.89969628924774,393.9020186620144 M373.89969628924774,393.9020186620144 L374.083501134068,393.79521739491076 M374.083501134068,393.79521739491076 L374.249721516093,393.6374091538086 M374.249721516093,393.6374091538086 L374.3887690786992,393.4377614378519 M374.3887690786992,393.4377614378519 L374.4926316056968,393.20782576710667 M374.4926316056968,393.20782576710667 L374.5553195805219,392.9608844694853 M374.5553195805219,392.9608844694853 L374.573207766708,392.7111930072774 M374.573207766708,392.7111930072774 L374.54523779618177,392.47317559038805 M374.54523779618177,392.47317559038805 L374.47298749230646,392.26060544238726 M374.47298749230646,392.26060544238726 L374.360586435326,392.0858185147255 M374.360586435326,392.0858185147255 L374.2144958224287,391.95900089826586 M374.2144958224287,391.95900089826586 L374.04314499781026,391.88758849839974 M374.04314499781026,391.88758849839974 L373.8564592129019,391.87582451580533 M373.8564592129019,391.87582451580533 L373.66528749338005,391.92448674243184 M373.66528749338005,391.92448674243184 L373.4807751806211,392.03082307168734 M373.4807751806211,392.03082307168734 L373.3137052582695,392.18869468741815 M373.3137052582695,392.18869468741815 L373.1738607046118,392.3889195668832 M373.1738607046118,392.3889195668832 L373.0694363132692,392.6198139766759 M373.0694363132692,392.6198139766759 L373.00655032657244,392.86787594978875 M373.00655032657244,392.86787594978875 L372.9888733351435,393.1185932896797 M369.7814834675772,393.94335068419684 L369.81122870408905,394.18375865392454 M369.81122870408905,394.18375865392454 L369.8861691495398,394.39793432607087 M369.8861691495398,394.39793432607087 L370.001878503115,394.5734133656469 M370.001878503115,394.5734133656469 L370.1515580672619,394.700026087516 M370.1515580672619,394.700026087516 L370.3264478702998,394.7704852153415 M370.3264478702998,394.7704852153415 L370.5163498892107,394.7807874268665 M370.5163498892107,394.7807874268665 L370.71022966591687,394.73043033310154 M370.71022966591687,394.73043033310154 L370.89685452825483,394.62241724318153 M370.89685452825483,394.62241724318153 L371.06544133375934,394.4630643736807 M371.06544133375934,394.4630643736807 L371.206266392499,394.26162865052214 M371.206266392499,394.26162865052214 L371.31121463998755,394.02976485736536 M371.31121463998755,394.02976485736536 L371.37423591564846,393.7808656194332 M371.37423591564846,393.7808656194332 L371.39168426316064,393.5292990510468 M371.39168426316064,393.5292990510468 L371.36252765424643,393.28959663865265 M371.36252765424643,393.28959663865265 L371.28840997411976,393.0756291050235 M371.28840997411976,393.0756291050235 L371.1735690351047,392.89981310694753 M371.1735690351047,392.89981310694753 L371.02460459323225,392.77239552357685 M371.02460459323225,392.77239552357685 L370.85011279630857,392.7008480135738 M370.85011279630857,392.7008480135738 L370.66020048869774,392.6894232362806 M370.66020048869774,392.6894232362806 L370.46590448493583,392.73888074072397 M370.46590448493583,392.73888074072397 L370.27855280998733,392.8464233062846 M370.27855280998733,392.8464233062846 L370.1090951074978,393.00584251020183 M370.1090951074978,393.00584251020183 L369.96745457877364,393.20786622425595 M369.96745457877364,393.20786622425595 L369.8619331069833,393.4407049727893 M369.8619331069833,393.4407049727893 L369.7987121699204,393.69074277514295 M369.7987121699204,393.69074277514295 L369.7814834675772,393.94335068419684 M366.5214054707694,394.78165645480453 L366.55239037393534,395.02378245806426 M366.55239037393534,395.02378245806426 L366.62927098700686,395.23937445844933 M366.62927098700686,395.23937445844933 L366.74750696182673,395.4158855565866 M366.74750696182673,395.4158855565866 L366.90015075567516,395.5430867684307 M366.90015075567516,395.5430867684307 L367.0782685854793,395.61365791188666 M367.0782685854793,395.61365791188666 L367.2714750083329,395.6235904845542 M367.2714750083329,395.6235904845542 L367.468542522543,395.57240542822865 M367.468542522543,395.57240542822865 L367.6580558674741,395.4631548875411 M367.6580558674741,395.4631548875411 L367.8290644101266,395.3022278101446 M367.8290644101266,395.3022278101446 L367.97170636437687,395.098972155726 M367.97170636437687,395.098972155726 L368.07776249012574,394.8651475648502 M368.07776249012574,394.8651475648502 L368.14111904603055,394.6142592575635 M368.14111904603055,394.6142592575635 L368.1581112953426,394.36078924277143 M368.1581112953426,394.36078924277143 L368.1277322176918,394.11937847974355 M368.1277322176918,394.11937847974355 L368.05169604168924,393.90399595401686 M368.05169604168924,393.90399595401686 L367.9343496662173,393.7271405790574 M367.9343496662173,393.7271405790574 L367.78243683790765,393.5991202101116 M367.78243683790765,393.5991202101116 L367.6047238863605,393.5274426875062 M367.6047238863605,393.5274426875062 L367.4115035017441,393.5163699699046 M367.4115035017441,393.5163699699046 L367.2140063844189,393.56664230885394 M367.2140063844189,393.56664230885394 L367.02374620895256,393.6754166490696 M367.02374620895256,393.6754166490696 L366.851844699933,393.8364131423774 M366.851844699933,393.8364131423774 L366.7083682073614,394.04026791799316 M366.7083682073614,394.04026791799316 L366.60172715947476,394.2750840943878 M366.60172715947476,394.2750840943878 L366.5381692962858,394.5271292860383 M366.5381692962858,394.5271292860383 L366.5214054707694,394.78165645480453 M363.20733032287586,395.6338472071201 L363.23959184396915,395.87771546779413 M363.23959184396915,395.87771546779413 L363.31846705825814,396.0947414846995 M363.31846705825814,396.0947414846995 L363.4392978755311,396.2722948883603 M363.4392978755311,396.2722948883603 L363.59498378335644,396.40008684599417 M363.59498378335644,396.40008684599417 L363.7764132024496,396.4707640205063 M363.7764132024496,396.4707640205063 L363.9730071516159,396.4803134391766 M363.9730071516159,396.4803134391766 L364.17334227381514,396.42827967524113 M364.17334227381514,396.42827967524113 L364.3658138778448,396.317765520965 M364.3658138778448,396.317765520965 L364.53930174874796,396.1552336883888 M364.53930174874796,396.1552336883888 L364.6838015017835,395.9501252518147 M364.6838015017835,395.9501252518147 L364.790987950937,395.714306447117 M364.790987950937,395.714306447117 L364.85468259756357,395.4613969697846 M364.85468259756357,395.4613969697846 L364.8712010414575,395.20599473662764 M364.8712010414575,395.20599473662764 L364.83956318828285,394.9628515847837 M364.83956318828285,394.9628515847837 L364.76155474910854,394.7460363790202 M364.76155474910854,394.7460363790202 L364.6416354909726,394.5681311341124 M364.6416354909726,394.5681311341124 L364.48669691290655,394.4395053357492 M364.48669691290655,394.4395053357492 L364.3056794236584,394.3677033334882 M364.3056794236584,394.3677033334882 L364.1090676108041,394.35699579126685 M364.1090676108041,394.35699579126685 L363.90828901133693,394.40810342231947 M363.90828901133693,394.40810342231947 L363.71504991020737,394.5181356002003 M363.71504991020737,394.5181356002003 L363.540646258461,394.6807400557781 M363.540646258461,394.6807400557781 L363.39529225837293,394.88645906395624 M363.39529225837293,394.88645906395624 L363.2875087663931,395.123286531942 M363.2875087663931,395.123286531942 L363.2236112438109,395.37737163895645 M363.2236112438109,395.37737163895645 L363.20733032287586,395.6338472071201 M359.8379052768964,396.50027079037187 L359.8714817075276,396.7459060323264 M359.8714817075276,396.7459060323264 L359.95240788301754,396.96438405154163 M359.95240788301754,396.96438405154163 L360.0759038347337,397.1429901702587 M360.0759038347337,397.1429901702587 L360.2347127202431,397.2713749188331 M360.2347127202431,397.2713749188331 L360.4195398391089,397.34215187121873 M360.4195398391089,397.34215187121873 L360.61960783776954,397.3513039393075 M360.61960783776954,397.3513039393075 L360.8232925146419,397.29840018345425 M360.8232925146419,397.29840018345425 L361.0187949053161,397.18659533760814 M361.0187949053161,397.18659533760814 L361.194821274787,397.0224274034414 M361.194821274787,397.0224274034414 L361.3412214021053,396.8154323454395 M361.3412214021053,396.8154323454395 L361.4495612092615,396.5775850697626 M361.4495612092615,396.5775850697626 L361.5135965187785,396.32262160062635 M361.5135965187785,396.32262160062635 L361.5296228415618,396.0652577023151 M361.5296228415618,396.0652577023151 L361.4966885046339,395.8203576509134 M361.4966885046339,395.8203576509134 L361.4166523767826,395.6020917166859 M361.4166523767826,395.6020917166859 L361.2940905243726,395.4231259954029 M361.2940905243726,395.4231259954029 L361.1360458009309,395.2938923382989 M361.1360458009309,395.2938923382989 L360.95163784881356,395.2219716442647 M360.95163784881356,395.2219716442647 L360.75154799531623,395.2116430206809 M360.75154799531623,395.2116430206809 L360.5474054480044,395.2636069352507 M360.5474054480044,395.2636069352507 L360.3511140640597,395.37492396394686 M360.3511140640597,395.37492396394686 L360.17414832425425,395.53916786069533 M360.17414832425425,395.53916786069533 L360.026873647242,395.74678525282815 M360.026873647242,395.74678525282815 L359.9179244646714,395.9856586750181 M359.9179244646714,395.9856586750181 L359.85368455291285,396.24181702005075 M359.85368455291285,396.24181702005075 L359.8379052768964,396.50027079037187 M356.41173201961624,397.3812867708154 L356.4466638743752,397.6287140188627 M356.4466638743752,397.6287140188627 L356.52969855800524,397.84866254101445 M356.52969855800524,397.84866254101445 L356.6559331167588,398.02833168310315 M356.6559331167588,398.02833168310315 L356.81794793047663,398.1573113070306 M356.81794793047663,398.1573113070306 L357.00626171392344,398.2281814491797 M357.00626171392344,398.2281814491797 L357.2098934350764,398.2369213606036 M357.2098934350764,398.2369213606036 L357.41701217165536,398.1831256640356 M357.41701217165536,398.1831256640356 L357.6156206515916,398.07000212052054 M357.6156206515916,398.07000212052054 L357.7942465312639,397.90416585822055 M357.7942465312639,397.90416585822055 L357.942590183976,397.69524961651854 M357.942590183976,397.69524961651854 L358.0521075558106,397.45533859758126 M358.0521075558106,397.45533859758126 L358.1164855150828,397.19828765684184 M358.1164855150828,397.19828765684184 L358.1320014014163,396.9389317869239 M358.1320014014163,396.9389317869239 L358.0977307720595,396.69225000406004 M358.0977307720595,396.69225000406004 L358.01561013406405,396.4725148386263 M358.01561013406405,396.4725148386263 L357.89033305178623,396.2924780660029 M357.89033305178623,396.2924780660029 L357.7290997925862,396.1626340516677 M357.7290997925862,396.1626340516677 L357.54121260471516,396.09060077341934 M357.54121260471516,396.09060077341934 L357.3375547901332,396.0806654444335 M357.3375547901332,396.0806654444335 L357.1299632480621,396.13350729097476 M357.1299632480621,396.13350729097476 L356.93054356477137,396.24613707121273 M356.93054356477137,396.24613707121273 L356.7509539176206,396.41205277484704 M356.7509539176206,396.41205277484704 L356.60171472327556,396.6216034579048 M356.60171472327556,396.6216034579048 L356.491575189597,396.8625585839368 M356.491575189597,396.8625585839368 L356.42699098879393,397.1208241011035 M356.42699098879393,397.1208241011035 L356.41173201961624,397.3812867708154 M374.18751323705663,374.03255792844766 L374.2310692882352,376.1419152640937 M374.2310692882352,376.1419152640937 L373.0234849488793,376.40118385532884 M372.97731241585876,374.2858557747449 L373.0234849488793,376.40118385532884 M374.18751323705663,374.03255792844766 L372.97731241585876,374.2858557747449 M353.8853511848915,378.28184766029625 L353.9748158538775,380.49093679448777 M353.8853511848915,378.28184766029625 L352.5465059036136,378.5620710912614 M353.9748158538775,380.49093679448777 L352.63914865735626,380.77770479993046 M352.5465059036136,378.5620710912614 L352.63914865735626,380.77770479993046 M377.62884888175097,371.6687807752142 L376.54715913501434,371.4245282517576 M352.1718937652516,376.88944539871505 L351.10267084519467,376.6122394564781 M353.52360274073095,376.6122394564781 L353.16611442608064,376.5202387872666 M354.508743858395,376.24543159351805 L353.16611442608064,376.5202387872666 M354.86652487563293,376.33683550303147 L354.508743858395,376.24543159351805 M374.01148919551696,372.41062211711767 L373.65056595067927,372.32751479100375 M374.8636690791615,372.0792188290337 L373.65056595067927,372.32751479100375 M375.2247265499456,372.1618136752915 L374.8636690791615,372.0792188290337 M374.99018903734674,378.4192745114285 L374.9481885594246,376.31458389555155 M374.9481885594246,376.31458389555155 L374.2310692882352,376.1419152640937 M374.18751323705663,374.03255792844766 L374.90601559494013,374.2012497863856 M374.90601559494013,374.2012497863856 L374.8636690791615,372.0792188290337 M374.99018903734674,378.4192745114285 L375.3491586628223,378.5078514320003 M373.78494045106504,378.68555036188604 L374.14377831092463,378.7746734904786 M374.99018903734674,378.4192745114285 L373.78494045106504,378.68555036188604 M373.69554196780115,374.45559054850816 L372.97731241585876,374.2858557747449 M373.65056595067927,372.32751479100375 L373.69554196780115,374.45559054850816 M373.74033308865535,376.57491779313483 L373.78494045106504,378.68555036188604 M373.0234849488793,376.40118385532884 L373.74033308865535,376.57491779313483 M354.77311597713674,382.8858371642656 L354.68537178255434,380.68190945328473 M354.68537178255434,380.68190945328473 L353.9748158538775,380.49093679448777 M353.8853511848915,378.28184766029625 L354.59724856337334,378.46846153620896 M354.59724856337334,378.46846153620896 L354.508743858395,376.24543159351805 M354.77311597713674,382.8858371642656 L355.1288708221629,382.9837986433308 M353.4400322761601,383.1803556563418 L353.795500059452,383.27895255973664 M354.77311597713674,382.8858371642656 L353.4400322761601,383.1803556563418 M353.2578160681982,378.7498987141834 L352.5465059036136,378.5620710912614 M353.16611442608064,376.5202387872666 L353.2578160681982,378.7498987141834 M353.3491211626743,380.96991686844336 L353.4400322761601,383.1803556563418 M352.63914865735626,380.77770479993046 L353.3491211626743,380.96991686844336 M374.048788254254,393.4263105242602 L372.9888733351435,393.1185932896797 M370.8402310217746,394.2561098085221 L369.7814834675772,393.94335068419684 M367.5788036392235,395.0995824074577 L366.5214054707694,394.78165645480453 M364.2631884704618,395.95706908903406 L363.20733032287586,395.6338472071201 M360.892023728192,396.8289220396211 L359.8379052768964,396.50027079037187 M357.4639016090729,397.7155053462898 L356.41173201961624,397.3812867708154 M374.9481885594246,376.31458389555155 L373.74033308865535,376.57491779313483 M374.90601559494013,374.2012497863856 L373.69554196780115,374.45559054850816 M354.59724856337334,378.46846153620896 L353.2578160681982,378.7498987141834 M354.68537178255434,380.68190945328473 L353.3491211626743,380.96991686844336" stroke="black"  stroke-width="4"  fill="red"/>
<path d="M440.80812144891183,423.9963223546033 L439.3309081306753,423.52777516964295 M422.0723307400749,431.5919131825102 L420.5807601790488,431.0680491448279 M440.80812144891183,423.9963223546033 L439.8106347178648,421.52715635366053 M439.8106347178648,421.52715635366053 L438.3571146901941,419.66573187340225 M438.3571146901941,419.66573187340225 L436.5136619850163,418.522575504301 M436.5136619850163,418.522575504301 L434.36991806839114,418.17546984451843 M434.36991806839114,418.17546984451843 L432.0362863682755,418.66196422663836 M432.0362863682755,418.66196422663836 L429.6391401043944,419.97333548872166 M429.6391401043944,419.97333548872166 L427.3139398333758,422.05117141142364 M427.3139398333758,422.05117141142364 L425.1965599093855,424.78768441819597 M425.1965599093855,424.78768441819597 L423.41354068127237,428.030484898621 M423.41354068127237,428.030484898621 L422.0723307400749,431.5919131825102 M439.3309081306753,423.52777516964295 L438.3274740383969,421.06440666282464 M438.3274740383969,421.06440666282464 L436.86837498416617,419.20630340727956 M436.86837498416617,419.20630340727956 L435.0200536374495,418.06372522161877 M435.0200536374495,418.06372522161877 L432.87246129988813,417.71429994884903 M432.87246129988813,417.71429994884903 L430.5362517094633,418.1955668957471 M430.5362517094633,418.1955668957471 L428.13796491231346,419.49896696687006 M428.13796491231346,419.49896696687006 L425.81312822947166,421.56644436679545 M425.81312822947166,421.56644436679545 L423.69757678610455,424.29075961418 M423.69757678610455,424.29075961418 L421.9177118420082,427.52023766269417 M421.9177118420082,427.52023766269417 L420.5807601790488,431.0680491448279 M443.52530615125477,422.89476098878856 L442.05080987504095,422.43398090247183 M443.52530615125477,422.89476098878856 L440.80812144891183,423.9963223546033 M442.05080987504095,422.43398090247183 L439.3309081306753,423.52777516964295 M418.9806980428247,432.8452777895035 L417.4874931256935,432.31199031909944 M422.0723307400749,431.5919131825102 L418.9806980428247,432.8452777895035 M420.5807601790488,431.0680491448279 L417.4874931256935,432.31199031909944 M445.2828262934948,386.9454853520597 L443.52530615125477,422.89476098878856 M418.9806980428247,432.8452777895035 L419.9081036656984,394.45068500253467 M419.9081036656984,394.45068500253467 L445.2828262934948,386.9454853520597 M440.2104653134262,412.6345393478909 L440.2462291556437,412.3397418991956 M440.2462291556437,412.3397418991956 L440.3256524432759,412.04512462248584 M440.3256524432759,412.04512462248584 L440.4440923131902,411.76794470472163 M440.4440923131902,411.76794470472163 L440.5946010942093,411.5244306802568 M440.5946010942093,411.5244306802568 L440.76834924432006,411.32880653445875 M440.76834924432006,411.32880653445875 L440.9551537009488,411.1924562972051 M440.9551537009488,411.1924562972051 L441.1440924577768,411.1232515289212 M441.1440924577768,411.1232515289212 L441.32415141968266,411.1251106528823 M441.32415141968266,411.1251106528823 L441.48487504616986,411.19779404915863 M441.48487504616986,411.19779404915863 L441.61696925073363,411.33694567310056 M441.61696925073363,411.33694567310056 L441.7128332714126,411.5343818678956 M441.7128332714126,411.5343818678956 L441.7669807382103,411.7785838157748 M441.7669807382103,411.7785838157748 L441.77634307968754,412.0553790781778 M441.77634307968754,412.0553790781778 L441.74042612986943,412.3487606707726 M441.74042612986943,412.3487606707726 L441.66133102763706,412.64179829212753 M441.66133102763706,412.64179829212753 L441.5436254618481,412.9175966371002 M441.5436254618481,412.9175966371002 L441.39408887166616,413.16024367940605 M441.39408887166616,413.16024367940605 L441.22132808618517,413.3557140373963 M441.22132808618517,413.3557140373963 L441.03529997154584,413.49265891865053 M441.03529997154584,413.49265891865053 L440.8467486873579,413.5630705326742 M440.8467486873579,413.5630705326742 L440.6665995641394,413.56275397759896 M440.6665995641394,413.56275397759896 L440.5053287975426,413.4915954987584 M440.5053287975426,413.4915954987584 L440.3723558195328,413.3536017964091 M440.3723558195328,413.3536017964091 L440.27548269937563,413.15669127149306 M440.27548269937563,413.15669127149306 L440.2204269866293,412.9122623064012 M440.2204269866293,412.9122623064012 L440.2104653134262,412.6345393478909 M437.0329907220346,413.8097696762138 L437.06840173821274,413.51236178231795 M437.06840173821274,413.51236178231795 L437.1483880951294,413.2149538994761 M437.1483880951294,413.2149538994761 L437.2682723614461,412.93496852451926 M437.2682723614461,412.93496852451926 L437.421022906654,412.6887991147449 M437.421022906654,412.6887991147449 L437.5976764949461,412.4908260613748 M437.5976764949461,412.4908260613748 L437.7878790214031,412.3525703678672 M437.7878790214031,412.3525703678672 L437.980508769744,412.2820136577335 M437.980508769744,412.2820136577335 L438.16433572262304,412.2831511798224 M438.16433572262304,412.2831511798224 L438.32868513214163,412.35578282143933 M438.32868513214163,412.35578282143933 L438.4640535216448,412.4955528402482 M438.4640535216448,412.4955528402482 L438.56265070108344,412.69423997060113 M438.56265070108344,412.69423997060113 L438.61883541152827,412.94025099278304 M438.61883541152827,412.94025099278304 L438.6294216608088,413.2193089180371 M438.6294216608088,413.2193089180371 L438.5938474887624,413.5152759407208 M438.5938474887624,413.5152759407208 L438.51419348493545,413.81107417375864 M438.51419348493545,413.81107417375864 L438.39506093812827,414.08964987502515 M438.39506093812827,414.08964987502515 L438.2433092697263,414.334932534 M438.2433092697263,414.334932534 L438.06767288008945,414.5327448900412 M438.06767288008945,414.5327448900412 L437.8782728463118,414.67160276070206 M437.8782728463118,414.67160276070206 L437.6860470472945,414.74338656649303 M437.6860470472945,414.74338656649303 L437.5021329612183,414.74381994086696 M437.5021329612183,414.74381994086696 L437.3372252974925,414.67274313263846 M437.3372252974925,414.67274313263846 L437.2009554221343,414.5341556889925 M437.2009554221343,414.5341556889925 L437.10132004153365,414.33600796478345 M437.10132004153365,414.33600796478345 L437.04419825159687,414.089769606508 M437.04419825159687,414.089769606508 L437.0329907220346,413.8097696762138 M433.79305962761805,415.0081003549707 L433.82809755245194,414.7080356237438 M433.82809755245194,414.7080356237438 L433.90865329263016,414.40778402198663 M433.90865329263016,414.40778402198663 L434.030016529024,414.12493576084177 M434.030016529024,414.12493576084177 L434.18506793702386,413.8760532485288 M434.18506793702386,413.8760532485288 L434.36470797254253,413.67567635968453 M434.36470797254253,413.67567635968453 L434.5584070692835,413.53546614784415 M434.5584070692835,413.53546614784415 L434.7548366440059,413.46351763166354 M434.7548366440059,413.46351763166354 L434.94254589913703,413.46390459792576 M434.94254589913703,413.46390459792576 L435.11063288146687,413.5364685458094 M435.11063288146687,413.5364685458094 L435.24937864938784,413.6768547420668 M435.24937864938784,413.6768547420668 L435.350798560856,413.8768040431165 M435.350798560856,413.8768040431165 L435.4090896997659,414.12464874224366 M435.4090896997659,414.12464874224366 L435.4209467667443,414.40600511173216 M435.4209467667443,414.40600511173216 L435.38573513588244,414.70460329407354 M435.38573513588244,414.70460329407354 L435.30551596709375,415.00321439090453 M435.30551596709375,415.00321439090453 L435.18492247587244,415.2846240134079 M435.18492247587244,415.2846240134079 L435.03089764630494,415.53259933623457 M435.03089764630494,415.53259933623457 L434.85230583961265,415.732808296435 M434.85230583961265,415.732808296435 L434.6594364892565,415.8736283218351 M434.6594364892565,415.8736283218351 L434.46342809281265,415.9468246811983 M434.46342809281265,415.9468246811983 L434.27563496488733,415.94803772610175 M434.27563496488733,415.94803772610175 L434.1069782729641,415.87705941517464 M434.1069782729641,415.87705941517464 L433.96730747167726,415.7378812350597 M433.96730747167726,415.7378812350597 L433.86481911400824,415.5384855890005 M433.86481911400824,415.5384855890005 L433.8055608834521,415.2904133452059 M433.8055608834521,415.2904133452059 L433.79305962761805,415.0081003549707 M430.48881228318834,416.23021923578705 L430.52345505127585,415.92745033526495 M430.52345505127585,415.92745033526495 L430.6045873293842,415.6243000790049 M430.6045873293842,415.6243000790049 L430.72746502683134,415.3385298334688 M430.72746502683134,415.3385298334688 L430.8848789063717,415.0868745070702 M430.8848789063717,415.0868745070702 L431.067590024891,414.884036774197 M431.067590024891,414.884036774197 L431.2648870857659,414.74182153582507 M431.2648870857659,414.74182153582507 L431.46523064159953,414.6684394008338 M431.46523064159953,414.6684394008338 L431.65694017982264,414.66804589706953 M431.65694017982264,414.66804589706953 L431.8288815602408,414.74052510986667 M431.8288815602408,414.74052510986667 L431.971112404536,414.8815246709397 M431.971112404536,414.8815246709397 L432.0754479884425,415.0827474498246 M432.0754479884425,415.0827474498246 L432.1359185360847,415.3324505147195 M432.1359185360847,415.3324505147195 L432.14909459082156,415.6161422178954 M432.14909459082156,415.6161422178954 L432.1142670577136,415.91741819673535 M432.1142670577136,415.91741819673535 L432.03347554849245,416.2188962266302 M432.03347554849245,416.2188962266302 L431.9113863315785,416.5031979408214 M431.9113863315785,416.5031979408214 L431.7550278245447,416.75392493017756 M431.7550278245447,416.75392493017756 L431.57339722419164,416.9565871660762 M431.57339722419164,416.9565871660762 L431.37695826986055,417.0994199700896 M431.37695826986055,417.0994199700896 L431.1770539162666,417.17407121549235 M431.1770539162666,417.17407121549235 L430.9852640626173,417.17609463642304 M430.9852640626173,417.17609463642304 L430.81274116104805,417.10523279086084 M430.81274116104805,417.10523279086084 L430.6695608344703,416.96546751918277 M430.6695608344703,416.96546751918277 L430.5641252868877,416.7648132065052 M430.5641252868877,416.7648132065052 L430.50265646818934,416.51488248297 M430.50265646818934,416.51488248297 L430.48881228318834,416.23021923578705 M427.1183143654367,417.4768417533117 L427.1525388023566,417.17132009236417 M427.1525388023566,417.17132009236417 L427.23425486216615,416.8652146398731 M427.23425486216615,416.8652146398731 L427.3586834611825,416.57646157725304 M427.3586834611825,416.57646157725304 L427.5185240622147,416.32197163976184 M427.5185240622147,416.32197163976184 L427.70439391094675,416.11661416901757 M427.70439391094675,416.11661416901757 L427.90539495649426,415.97234129927216 M427.90539495649426,415.97234129927216 L428.1097706483549,415.89748226751215 M428.1097706483549,415.89748226751215 L428.3056036912138,415.8962768590314 M428.3056036912138,415.8962768590314 L428.48152079443116,415.96865341936785 M428.48152079443116,415.96865341936785 L428.62734925663597,416.11026285529977 M428.62734925663597,416.11026285529977 L428.7346972854353,416.31277037246355 M428.7346972854353,416.31277037246355 L428.79742311503554,416.56435697035715 M428.79742311503554,416.56435697035715 L428.81196855602764,416.85042171021644 M428.81196855602764,416.85042171021644 L428.77754766785654,417.15442338991596 M428.77754766785654,417.15442338991596 L428.6961767886079,417.4588239059208 M428.6961767886079,417.4588239059208 L428.5725559203985,417.7460776610319 M428.5725559203985,417.7460776610319 L428.41380055980926,417.9996174013786 M428.41380055980926,417.9996174013786 L428.2290448400721,418.2047914499867 M428.2290448400721,418.2047914499867 L428.0289315787518,418.34968969978485 M428.0289315787518,418.34968969978485 L427.82501395015817,418.4258396417967 M427.82501395015817,418.4258396417967 L427.6291043137563,418.4287057535734 M427.6291043137563,418.4287057535734 L427.4525935073955,418.35797925275403 M427.4525935073955,418.35797925275403 L427.3057902426322,418.21763122238764 M427.3057902426322,418.21763122238764 L427.19730962374047,418.0157074872287 M427.19730962374047,418.0157074872287 L427.1335528765121,417.76389330837435 M427.1335528765121,417.76389330837435 L427.1183143654367,417.4768417533117 M423.6795531987179,418.7487123218241 L423.7133357861544,418.44038770024383 M423.7133357861544,418.44038770024383 L423.795642130711,418.13126914611337 M423.795642130711,418.13126914611337 L423.9216600896793,417.83947025050685 M423.9216600896793,417.83947025050685 L424.0839934079179,417.58208210334715 M424.0839934079179,417.58208210334715 L424.2731129931477,417.3741439565379 M424.2731129931477,417.3741439565379 L424.4779285094987,417.22775879670627 M424.4779285094987,417.22775879670627 L424.6864590901285,417.15137790612096 M424.6864590901285,417.15137790612096 L424.8865442779562,417.1493275886206 M424.8865442779562,417.1493275886206 L425.06656335598194,417.22158257738977 M425.06656335598194,417.22158257738977 L425.2161059013701,417.36379810327105 M425.2161059013701,417.36379810327105 L425.32656774194106,417.5676013474439 M425.32656774194106,417.5676013474439 L425.3916274353879,417.8210972545844 M425.3916274353879,417.8210972545844 L425.407595648996,418.10957333336506 M425.407595648996,418.10957333336506 L425.3736043603275,418.416350167908 M425.3736043603275,418.416350167908 L425.2916475776468,418.7237301391794 M425.2916475776468,418.7237301391794 L425.16645737381737,419.0139979466533 M425.16645737381737,419.0139979466533 L425.0052403613948,419.27041326181416 M425.0052403613948,419.27041326181416 L424.8172699049672,419.47815968413505 M424.8172699049672,419.47815968413505 L424.61337308533234,419.6251781556166 M424.61337308533234,419.6251781556166 L424.4053203116275,419.70287230478 M424.4053203116275,419.70287230478 L424.20516258211444,419.70661497079254 M424.20516258211444,419.70661497079254 L424.0245372328504,419.63604373436675 M424.0245372328504,419.63604373436675 L423.8739935785005,419.4951176330341 M423.8739935785005,419.4951176330341 L423.76236512256196,419.2919141052978 M423.76236512256196,419.2919141052978 L423.6962405726864,419.03819080649214 M423.6962405726864,419.03819080649214 L423.6795531987179,418.7487123218241 M442.68176940372337,392.62353720079483 L441.4890790595202,392.9943736943706 M441.4890790595202,392.9943736943706 L441.6022467269154,390.5035645397211 M442.7974442741654,390.14097651976886 L441.6022467269154,390.5035645397211 M442.68176940372337,392.62353720079483 L442.7974442741654,390.14097651976886 M422.48348097721777,398.9036772997923 L421.13714786665054,399.3222850736662 M422.48348097721777,398.9036772997923 L422.55378581761846,396.2823111077101 M421.13714786665054,399.3222850736662 L421.20420858718205,396.6917334135729 M422.55378581761846,396.2823111077101 L421.20420858718205,396.6917334135729 M443.74817515857734,386.5989512248202 L442.05080987504095,422.43398090247183 M441.37646545659203,387.2945644055701 L443.74817515857734,386.5989512248202 M441.04190864108847,394.7177507772868 L441.37646545659203,387.2945644055701 M439.8504913083891,395.0939878297182 L441.04190864108847,394.7177507772868 M439.8504913083891,395.0939878297182 L440.17749918832794,387.646216523357 M421.070435966512,393.25024344595676 L440.17749918832794,387.646216523357 M420.87236618300363,401.0870799745768 L421.070435966512,393.25024344595676 M419.5284920376827,401.5114612836254 L420.87236618300363,401.0870799745768 M419.5284920376827,401.5114612836254 L419.71681112207693,393.6472563193245 M418.3525417834524,394.04739118121154 L419.71681112207693,393.6472563193245 M417.4874931256935,432.31199031909944 L418.3525417834524,394.04739118121154 M438.7125051680518,412.1996476927822 L438.72296565187565,412.47652603355846 M438.72296565187565,412.47652603355846 L438.7785352155816,412.720282605033 M438.7785352155816,412.720282605033 L438.8759074874684,412.9167320470888 M438.8759074874684,412.9167320470888 L439.00933615668214,413.05450233591375 M439.00933615668214,413.05450233591375 L439.1709929951185,413.12568727126376 M439.1709929951185,413.12568727126376 L439.35143644618705,413.12627767851603 M439.35143644618705,413.12627767851603 L439.5401734521025,413.05637050871553 M439.5401734521025,413.05637050871553 L439.7262679991941,412.9201307136649 M439.7262679991941,412.9201307136649 L439.89897202288086,412.72552487893404 M439.89897202288086,412.72552487893404 L440.0483317707487,412.48385176374506 M440.0483317707487,412.48385176374506 L440.1657503992437,412.2090807750207 M440.1657503992437,412.2090807750207 L440.2444648195441,411.9170651034641 M440.2444648195441,411.9170651034641 L440.27992917957323,411.624641601599 M440.27992917957323,411.624641601599 L440.2700684582451,411.34868567006254 M440.2700684582451,411.34868567006254 L440.21540574777777,411.1051559681403 M440.21540574777777,411.1051559681403 L440.11903967822184,410.9081858815748 M440.11903967822184,410.9081858815748 L439.9864860445938,410.76926671820644 M439.9864860445938,410.76926671820644 L439.8253726239416,410.696567861668 M439.8253726239416,410.696567861668 L439.64501648013714,410.69444531186 M439.64501648013714,410.69444531186 L439.45589066962833,410.76315310386883 M439.45589066962833,410.76315310386883 L439.2690202758489,410.89880105363375 M439.2690202758489,410.89880105363375 L439.09533109664824,411.0935581644462 M439.09533109664824,411.0935581644462 L438.9450025747727,411.33609101505834 M438.9450025747727,411.33609101505834 L438.8268534839548,411.61223325488123 M438.8268534839548,411.61223325488123 L438.7478142648708,411.9058175497962 M438.7478142648708,411.9058175497962 L438.7125051680518,412.1996476927822 M435.5320593555829,413.3663873250738 L435.5437670712989,413.64552923292894 M435.5437670712989,413.64552923292894 L435.60140161153305,413.89108619175244 M435.60140161153305,413.89108619175244 L435.7015326435426,414.0887687418877 M435.7015326435426,414.0887687418877 L435.83825253106977,414.22713382106446 M435.83825253106977,414.22713382106446 L436.0035387523996,414.29824318627254 M436.0035387523996,414.29824318627254 L436.18773826355863,414.2980944347345 M436.18773826355863,414.2980944347345 L436.38014001291253,414.22682986371547 M436.38014001291253,414.22682986371547 L436.56959640198744,414.08869501464983 M436.56959640198744,414.08869501464983 L436.7451662210421,413.89176721685817 M436.7451662210421,413.89176721685817 L436.8967320619112,413.64747946610765 M436.8967320619112,413.64747946610765 L437.0155700152913,413.3699518468714 M437.0155700152913,413.3699518468714 L437.0948374441766,413.0751948601657 M437.0948374441766,413.0751948601657 L437.1299552312081,412.78020269678734 M437.1299552312081,412.78020269678734 L437.1188691277145,412.5019973929505 M437.1188691277145,412.5019973929505 L437.0621701126365,412.2566676627163 M437.0621701126365,412.2566676627163 L436.9630741972822,412.0584509170014 M436.9630741972822,412.0584509170014 L436.8272518875437,411.91891259759234 M436.8272518875437,411.91891259759234 L436.66252008405763,411.8462597198052 M436.66252008405763,411.8462597198052 L436.47840482029267,411.844848288122 M436.47840482029267,411.844848288122 L436.2855978474657,411.9148934149675 M436.2855978474657,411.9148934149675 L436.0953395951343,412.05242892370785 M436.0953395951343,412.05242892370785 L435.91875496625505,412.2495147910586 M435.91875496625505,412.2495147910586 L435.7661938495519,412.494681802256 M435.7661938495519,412.494681802256 L435.64660816483433,412.7736084581092 M435.64660816483433,412.7736084581092 L435.56701184456284,413.06996374771813 M435.56701184456284,413.06996374771813 L435.5320593555829,413.3663873250738 M432.2893281906053,414.5559762035302 L432.30233079968053,414.83741746389 M432.30233079968053,414.83741746389 L432.36210031469415,415.0847991574177 M432.36210031469415,415.0847991574177 L432.46508032564316,415.28372556458413 M432.46508032564316,415.28372556458413 L432.6051948579453,415.4226826202803 M432.6051948579453,415.4226826202803 L432.7742219234864,415.493699934506 M432.7742219234864,415.493699934506 L432.9622908759391,415.49278276368676 M432.9622908759391,415.49278276368676 L433.1584647648477,415.42012101250657 M433.1584647648477,415.42012101250657 L433.35137975882844,415.2800425990356 M433.35137975882844,415.2800425990356 L433.5298946384805,415.080738917437 M433.5298946384805,415.080738917437 L433.6837242255901,414.8337801615188 M433.6837242255901,414.8337801615188 L433.8040151805131,414.55343998055037 M433.8040151805131,414.55343998055037 L433.88384175201156,414.2558899762994 M433.88384175201156,414.2558899762994 L433.91859324000023,413.9582838620402 M433.91859324000023,413.9582838620402 L433.90623504452003,413.67779370440553 M433.90623504452003,413.67779370440553 L433.8474308939987,413.4306394915321 M433.8474308939987,413.4306394915321 L433.7455160458849,413.23116483398076 M433.7455160458849,413.23116483398076 L433.6063224595439,413.0910093972011 M433.6063224595439,413.0910093972011 L433.4378611484999,413.01841810427925 M433.4378611484999,413.01841810427925 L433.2498731521006,413.0177462746805 M433.2498731521006,413.0177462746805 L433.0532768747233,413.0891680235122 M433.0532768747233,413.0891680235122 L432.8595329079767,413.22863949812415 M432.8595329079767,413.22863949812415 L432.67997237973157,413.42810835827316 M432.67997237973157,413.42810835827316 L432.5251200099241,413.6759665588466 M432.5251200099241,413.6759665588466 L432.4040634515024,413.9577344130413 M432.4040634515024,413.9577344130413 L432.32390384738784,414.25691324834014 M432.32390384738784,414.25691324834014 L432.2893281906053,414.5559762035302 M428.98246389999156,415.76909217970643 L428.99681037781806,416.05286967639097 M428.99681037781806,416.05286967639097 L429.0587886227915,416.3021005551316 M429.0587886227915,416.3021005551316 L429.16471129175227,416.5022815966482 M429.16471129175227,416.5022815966482 L429.30832842501223,416.64182718977963 M429.30832842501223,416.64182718977963 L429.4812128023035,416.7127348525625 M429.4812128023035,416.7127348525625 L429.67326813612755,416.71101906045413 M429.67326813612755,416.71101906045413 L429.873326795481,416.63691841123784 M429.873326795481,416.63691841123784 L430.06980000773905,416.4948464929065 M430.06980000773905,416.4948464929065 L430.25134274528176,416.2931109736683 M430.25134274528176,416.2931109736683 L430.4074961418889,416.0434229174699 M430.4074961418889,416.0434229174699 L430.5292745786935,415.76021266310306 M430.5292745786935,415.76021266310306 L430.60966733639765,415.45981614515654 M430.60966733639765,415.45981614515654 L430.64403101280305,415.159549896474 M430.64403101280305,415.159549896474 L430.6303527738087,414.8767383059125 M430.6303527738087,414.8767383059125 L430.56937088784207,414.62773506870485 M430.56937088784207,414.62773506870485 L430.46454468811925,414.42699116917584 M430.46454468811925,414.42699116917584 L430.3218727607014,414.2862212348226 M430.3218727607014,414.2862212348226 L430.14956582578554,414.21370821407805 M430.14956582578554,414.21370821407805 L429.9575878606453,414.21380540817705 M429.9575878606453,414.21380540817705 L429.75708885947245,414.2866449832382 M429.75708885947245,414.2866449832382 L429.55975846934234,414.42810224826746 M429.55975846934234,414.42810224826746 L429.3771379977738,414.6300103853952 M429.3771379977738,414.6300103853952 L429.21993323045973,414.8806187677929 M429.21993323045973,414.8806187677929 L429.0973706157913,415.1652862459133 M429.0973706157913,415.1652862459133 L429.0166407071566,415.4673429769037 M429.0166407071566,415.4673429769037 L428.98246389999156,415.76909217970643 M425.60954489196234,417.00644018536934 L425.62528638818543,417.2925916474294 M425.62528638818543,417.2925916474294 L425.68955028119063,417.5436965427325 M425.68955028119063,417.5436965427325 L425.7985129172873,417.74514301372204 M425.7985129172873,417.74514301372204 L425.9457453771375,417.8852730331892 M425.9457453771375,417.8852730331892 L426.1226079994368,417.95605255378297 M426.1226079994368,417.95605255378297 L426.3187719800545,417.9535063577383 M426.3187719800545,417.9535063577383 L426.5228319521934,417.8779236438313 M426.5228319521934,417.8779236438313 L426.7229673707918,417.73380627078416 M426.7229673707918,417.73380627078416 L426.9076236781846,417.52958112661787 M426.9076236781846,417.52958112661787 L427.0661635824988,417.27710342518475 M427.0661635824988,417.27710342518475 L427.1894651111233,416.9909638340982 M427.1894651111233,416.9909638340982 L427.2704309491369,416.68766584413765 M427.2704309491369,416.68766584413765 L427.30438431897824,416.3846920260021 M427.30438431897824,416.3846920260021 L427.28933587550284,416.09952161823765 M427.28933587550284,416.09952161823765 L427.22610079042386,415.84864433802784 M427.22610079042386,415.84864433802784 L427.11826702568845,415.6466199062992 M427.11826702568845,415.6466199062992 L426.9720048925377,415.5052387560556 M426.9720048925377,415.5052387560556 L426.7957317657257,415.43282155046376 M426.7957317657257,415.43282155046376 L426.59964140311246,415.4337186826276 M426.59964140311246,415.4337186826276 L426.3951223059367,415.508018724239 M426.3951223059367,415.508018724239 L426.19410019837966,415.65151366647416 M426.19410019837966,415.65151366647416 L426.0083327634202,415.8559192175993 M426.0083327634202,415.8559192175993 L425.848711838645,416.1093388273457 M425.848711838645,416.1093388273457 L425.7246070509944,416.396966062233 M425.7246070509944,416.396966062233 L425.64329973153923,416.70195662218606 M425.64329973153923,416.70195662218606 L425.60954489196234,417.00644018536934 M422.16857203257314,418.2687535984605 L422.18576281594505,418.5573173191205 M422.18576281594505,418.5573173191205 L422.25239177605795,418.8103217488001 M422.25239177605795,418.8103217488001 L422.3644965321582,419.01304406882696 M422.3644965321582,419.01304406882696 L422.51546103475835,419.15375406295595 M422.51546103475835,419.15375406295595 L422.69642772711444,419.2243859333203 M422.69642772711444,419.2243859333203 L422.8968278216817,419.22097603156595 M422.8968278216817,419.22097603156595 L423.1050101517262,419.143866418508 M423.1050101517262,419.143866418508 L423.30891626912535,418.99764956784304 M423.30891626912535,418.99764956784304 L423.49677511336864,418.79087502182756 M423.49677511336864,418.79087502182756 L423.65776581848417,418.53554562130404 M423.65776581848417,418.53554562130404 L423.78262779236525,418.24641539807675 M423.78262779236525,418.24641539807675 L423.86417310475395,417.9401595833751 M423.86417310475395,417.9401595833751 L423.89769327496384,417.6344292296487 M423.89769327496384,417.6344292296487 L423.8812214982736,417.3468620280046 M423.8812214982736,417.3468620280046 L423.81565507338223,417.0940850793172 M423.81565507338223,417.0940850793172 L423.70471297565757,416.8907690879056 M423.70471297565757,416.8907690879056 L423.5547448957694,416.7487802850391 M423.5547448957694,416.7487802850391 L423.37438013263943,416.6764774170531 M423.37438013263943,416.6764774170531 L423.1740495766874,416.67820694197155 M423.1740495766874,416.67820694197155 L422.96538846354895,416.75401174261333 M422.96538846354895,416.75401174261333 L422.76056492382685,416.8995982673215 M422.76056492382685,416.8995982673215 L422.57156018382443,417.106561378992 M422.57156018382443,417.106561378992 L422.40945762391146,417.3628550318302 M422.40945762391146,417.3628550318302 L422.28377254422435,417.6535043080558 M422.28377254422435,417.6535043080558 L422.2018814524339,417.9614859722335 M422.2018814524339,417.9614859722335 L422.16857203257314,418.2687535984605 M445.2828262934948,386.9454853520597 L443.74817515857734,386.5989512248202 M419.9081036656984,394.45068500253467 L418.3525417834524,394.04739118121154 M441.8876169278037,387.41149448068387 L441.37646545659203,387.2945644055701 M441.8876169278037,387.41149448068387 L440.6890620840727,387.76401061119304 M440.6890620840727,387.76401061119304 L440.17749918832794,387.646216523357 M421.58709426210925,393.3822364411823 L421.070435966512,393.25024344595676 M421.58709426210925,393.3822364411823 L420.23372608439627,393.7802859052155 M420.23372608439627,393.7802859052155 L419.71681112207693,393.6472563193245 M440.2104653134262,412.6345393478909 L438.7125051680518,412.1996476927822 M437.0329907220346,413.8097696762138 L435.5320593555829,413.3663873250738 M433.79305962761805,415.0081003549707 L432.2893281906053,414.5559762035302 M430.48881228318834,416.23021923578705 L428.98246389999156,415.76909217970643 M427.1183143654367,417.4768417533117 L425.60954489196234,417.00644018536934 M423.6795531987179,418.7487123218241 L422.16857203257314,418.2687535984605 M442.68176940372337,392.62353720079483 L441.6612696367577,392.37782033716536 M441.6612696367577,392.37782033716536 L440.4677517299933,392.7468467651621 M440.4677517299933,392.7468467651621 L441.4890790595202,392.9943736943706 M440.5781353605863,390.26154259756896 L440.6890620840727,387.76401061119304 M441.6022467269154,390.5035645397211 L440.5781353605863,390.26154259756896 M440.3579072135913,395.22001269506256 L440.4677517299933,392.7468467651621 M439.8504913083891,395.0939878297182 L440.3579072135913,395.22001269506256 M441.77416657410095,389.9007287119277 L442.7974442741654,390.14097651976886 M441.77416657410095,389.9007287119277 L440.5781353605863,390.26154259756896 M441.8876169278037,387.41149448068387 L441.77416657410095,389.9007287119277 M441.6612696367577,392.37782033716536 L441.54892207623845,394.84285798855757 M441.04190864108847,394.7177507772868 L441.54892207623845,394.84285798855757 M422.48348097721777,398.9036772997923 L421.45185761962864,398.6264129107067 M421.45185761962864,398.6264129107067 L420.1050014871477,399.0428503221423 M420.1050014871477,399.0428503221423 L421.13714786665054,399.3222850736662 M421.58709426210925,393.3822364411823 L421.5193003088657,396.01113529473605 M421.5193003088657,396.01113529473605 L422.55378581761846,396.2823111077101 M421.45185761962864,398.6264129107067 L421.38476347142125,401.2281748800831 M420.87236618300363,401.0870799745768 L421.38476347142125,401.2281748800831 M420.16919595709237,396.41842934499175 L420.23372608439627,393.7802859052155 M421.20420858718205,396.6917334135729 L420.16919595709237,396.41842934499175 M420.0411400624426,401.65365562625965 L420.1050014871477,399.0428503221423 M419.5284920376827,401.5114612836254 L420.0411400624426,401.65365562625965 M421.5193003088657,396.01113529473605 L420.16919595709237,396.41842934499175 M441.54892207623845,394.84285798855757 L440.3579072135913,395.22001269506256 M421.38476347142125,401.2281748800831 L420.0411400624426,401.65365562625965" stroke="black"  stroke-width="4"  fill="red"/>
<path d="M441.77634307968754,412.0553790781778 L374.573207766708,392.7111930072774 M440.2104653134262,412.6345393478909 L372.9888733351435,393.1185932896797 M441.77634307968754,412.0553790781778 L441.7669807382103,411.7785838157748 M441.7669807382103,411.7785838157748 L441.7128332714126,411.5343818678956 M441.7128332714126,411.5343818678956 L441.61696925073363,411.33694567310056 M441.61696925073363,411.33694567310056 L441.48487504616986,411.19779404915863 M441.48487504616986,411.19779404915863 L441.32415141968266,411.1251106528823 M441.32415141968266,411.1251106528823 L441.1440924577768,411.1232515289212 M441.1440924577768,411.1232515289212 L440.9551537009488,411.1924562972051 M440.9551537009488,411.1924562972051 L440.76834924432006,411.32880653445875 M440.76834924432006,411.32880653445875 L440.5946010942093,411.5244306802568 M440.5946010942093,411.5244306802568 L440.4440923131902,411.76794470472163 M440.4440923131902,411.76794470472163 L440.3256524432759,412.04512462248584 M440.3256524432759,412.04512462248584 L440.2462291556437,412.3397418991956 M440.2462291556437,412.3397418991956 L440.2104653134262,412.6345393478909 M374.573207766708,392.7111930072774 L374.54523779618177,392.47317559038805 M374.54523779618177,392.47317559038805 L374.47298749230646,392.26060544238726 M374.47298749230646,392.26060544238726 L374.360586435326,392.0858185147255 M374.360586435326,392.0858185147255 L374.2144958224287,391.95900089826586 M374.2144958224287,391.95900089826586 L374.04314499781026,391.88758849839974 M374.04314499781026,391.88758849839974 L373.8564592129019,391.87582451580533 M373.8564592129019,391.87582451580533 L373.66528749338005,391.92448674243184 M373.66528749338005,391.92448674243184 L373.4807751806211,392.03082307168734 M373.4807751806211,392.03082307168734 L373.3137052582695,392.18869468741815 M373.3137052582695,392.18869468741815 L373.1738607046118,392.3889195668832 M373.1738607046118,392.3889195668832 L373.0694363132692,392.6198139766759 M373.0694363132692,392.6198139766759 L373.00655032657244,392.86787594978875 M373.00655032657244,392.86787594978875 L372.9888733351435,393.1185932896797 M440.2104653134262,412.6345393478909 L440.2204269866293,412.9122623064012 M440.2204269866293,412.9122623064012 L440.27548269937563,413.15669127149306 M440.27548269937563,413.15669127149306 L440.3723558195328,413.3536017964091 M440.3723558195328,413.3536017964091 L440.5053287975426,413.4915954987584 M440.5053287975426,413.4915954987584 L440.6665995641394,413.56275397759896 M440.6665995641394,413.56275397759896 L440.8467486873579,413.5630705326742 M440.8467486873579,413.5630705326742 L441.03529997154584,413.49265891865053 M441.03529997154584,413.49265891865053 L441.22132808618517,413.3557140373963 M441.22132808618517,413.3557140373963 L441.39408887166616,413.16024367940605 M441.39408887166616,413.16024367940605 L441.5436254618481,412.9175966371002 M441.5436254618481,412.9175966371002 L441.66133102763706,412.64179829212753 M441.66133102763706,412.64179829212753 L441.74042612986943,412.3487606707726 M441.74042612986943,412.3487606707726 L441.77634307968754,412.0553790781778 M372.9888733351435,393.1185932896797 L373.01741533046567,393.35730676714314 M373.01741533046567,393.35730676714314 L373.0904674371164,393.5700837023407 M373.0904674371164,393.5700837023407 L373.2037163981045,393.74454077006186 M373.2037163981045,393.74454077006186 L373.35050676577276,393.8705674532909 M373.35050676577276,393.8705674532909 L373.5222488973355,393.94090903333085 M373.5222488973355,393.94090903333085 L373.7089278956494,393.9515676250214 M373.7089278956494,393.9515676250214 L373.89969628924774,393.9020186620144 M373.89969628924774,393.9020186620144 L374.083501134068,393.79521739491076 M374.083501134068,393.79521739491076 L374.249721516093,393.6374091538086 M374.249721516093,393.6374091538086 L374.3887690786992,393.4377614378519 M374.3887690786992,393.4377614378519 L374.4926316056968,393.20782576710667 M374.4926316056968,393.20782576710667 L374.5553195805219,392.9608844694853 M374.5553195805219,392.9608844694853 L374.573207766708,392.7111930072774" stroke="black"  stroke-width="4"  fill="red"/>
<path d="M438.6294216608088,413.2193089180371 L371.39168426316064,393.5292990510468 M437.0329907220346,413.8097696762138 L369.7814834675772,393.94335068419684 M438.6294216608088,413.2193089180371 L438.61883541152827,412.94025099278304 M438.61883541152827,412.94025099278304 L438.56265070108344,412.69423997060113 M438.56265070108344,412.69423997060113 L438.4640535216448,412.4955528402482 M438.4640535216448,412.4955528402482 L438.32868513214163,412.35578282143933 M438.32868513214163,412.35578282143933 L438.16433572262304,412.2831511798224 M438.16433572262304,412.2831511798224 L437.980508769744,412.2820136577335 M437.980508769744,412.2820136577335 L437.7878790214031,412.3525703678672 M437.7878790214031,412.3525703678672 L437.5976764949461,412.4908260613748 M437.5976764949461,412.4908260613748 L437.421022906654,412.6887991147449 M437.421022906654,412.6887991147449 L437.2682723614461,412.93496852451926 M437.2682723614461,412.93496852451926 L437.1483880951294,413.2149538994761 M437.1483880951294,413.2149538994761 L437.06840173821274,413.51236178231795 M437.06840173821274,413.51236178231795 L437.0329907220346,413.8097696762138 M371.39168426316064,393.5292990510468 L371.36252765424643,393.28959663865265 M371.36252765424643,393.28959663865265 L371.28840997411976,393.0756291050235 M371.28840997411976,393.0756291050235 L371.1735690351047,392.89981310694753 M371.1735690351047,392.89981310694753 L371.02460459323225,392.77239552357685 M371.02460459323225,392.77239552357685 L370.85011279630857,392.7008480135738 M370.85011279630857,392.7008480135738 L370.66020048869774,392.6894232362806 M370.66020048869774,392.6894232362806 L370.46590448493583,392.73888074072397 M370.46590448493583,392.73888074072397 L370.27855280998733,392.8464233062846 M370.27855280998733,392.8464233062846 L370.1090951074978,393.00584251020183 M370.1090951074978,393.00584251020183 L369.96745457877364,393.20786622425595 M369.96745457877364,393.20786622425595 L369.8619331069833,393.4407049727893 M369.8619331069833,393.4407049727893 L369.7987121699204,393.69074277514295 M369.7987121699204,393.69074277514295 L369.7814834675772,393.94335068419684 M437.0329907220346,413.8097696762138 L437.04419825159687,414.089769606508 M437.04419825159687,414.089769606508 L437.10132004153365,414.33600796478345 M437.10132004153365,414.33600796478345 L437.2009554221343,414.5341556889925 M437.2009554221343,414.5341556889925 L437.3372252974925,414.67274313263846 M437.3372252974925,414.67274313263846 L437.5021329612183,414.74381994086696 M437.5021329612183,414.74381994086696 L437.6860470472945,414.74338656649303 M437.6860470472945,414.74338656649303 L437.8782728463118,414.67160276070206 M437.8782728463118,414.67160276070206 L438.06767288008945,414.5327448900412 M438.06767288008945,414.5327448900412 L438.2433092697263,414.334932534 M438.2433092697263,414.334932534 L438.39506093812827,414.08964987502515 M438.39506093812827,414.08964987502515 L438.51419348493545,413.81107417375864 M438.51419348493545,413.81107417375864 L438.5938474887624,413.5152759407208 M438.5938474887624,413.5152759407208 L438.6294216608088,413.2193089180371 M369.7814834675772,393.94335068419684 L369.81122870408905,394.18375865392454 M369.81122870408905,394.18375865392454 L369.8861691495398,394.39793432607087 M369.8861691495398,394.39793432607087 L370.001878503115,394.5734133656469 M370.001878503115,394.5734133656469 L370.1515580672619,394.700026087516 M370.1515580672619,394.700026087516 L370.3264478702998,394.7704852153415 M370.3264478702998,394.7704852153415 L370.5163498892107,394.7807874268665 M370.5163498892107,394.7807874268665 L370.71022966591687,394.73043033310154 M370.71022966591687,394.73043033310154 L370.89685452825483,394.62241724318153 M370.89685452825483,394.62241724318153 L371.06544133375934,394.4630643736807 M371.06544133375934,394.4630643736807 L371.206266392499,394.26162865052214 M371.206266392499,394.26162865052214 L371.31121463998755,394.02976485736536 M371.31121463998755,394.02976485736536 L371.37423591564846,393.7808656194332 M371.37423591564846,393.7808656194332 L371.39168426316064,393.5292990510468" stroke="black"  stroke-width="4"  fill="red"/>
<path d="M435.4209467667443,414.40600511173216 L368.1581112953426,394.36078924277143 M433.79305962761805,415.0081003549707 L366.5214054707694,394.78165645480453 M435.4209467667443,414.40600511173216 L435.4090896997659,414.12464874224366 M435.4090896997659,414.12464874224366 L435.350798560856,413.8768040431165 M435.350798560856,413.8768040431165 L435.24937864938784,413.6768547420668 M435.24937864938784,413.6768547420668 L435.11063288146687,413.5364685458094 M435.11063288146687,413.5364685458094 L434.94254589913703,413.46390459792576 M434.94254589913703,413.46390459792576 L434.7548366440059,413.46351763166354 M434.7548366440059,413.46351763166354 L434.5584070692835,413.53546614784415 M434.5584070692835,413.53546614784415 L434.36470797254253,413.67567635968453 M434.36470797254253,413.67567635968453 L434.18506793702386,413.8760532485288 M434.18506793702386,413.8760532485288 L434.030016529024,414.12493576084177 M434.030016529024,414.12493576084177 L433.90865329263016,414.40778402198663 M433.90865329263016,414.40778402198663 L433.82809755245194,414.7080356237438 M433.82809755245194,414.7080356237438 L433.79305962761805,415.0081003549707 M368.1581112953426,394.36078924277143 L368.1277322176918,394.11937847974355 M368.1277322176918,394.11937847974355 L368.05169604168924,393.90399595401686 M368.05169604168924,393.90399595401686 L367.9343496662173,393.7271405790574 M367.9343496662173,393.7271405790574 L367.78243683790765,393.5991202101116 M367.78243683790765,393.5991202101116 L367.6047238863605,393.5274426875062 M367.6047238863605,393.5274426875062 L367.4115035017441,393.5163699699046 M367.4115035017441,393.5163699699046 L367.2140063844189,393.56664230885394 M367.2140063844189,393.56664230885394 L367.02374620895256,393.6754166490696 M367.02374620895256,393.6754166490696 L366.851844699933,393.8364131423774 M366.851844699933,393.8364131423774 L366.7083682073614,394.04026791799316 M366.7083682073614,394.04026791799316 L366.60172715947476,394.2750840943878 M366.60172715947476,394.2750840943878 L366.5381692962858,394.5271292860383 M366.5381692962858,394.5271292860383 L366.5214054707694,394.78165645480453 M433.79305962761805,415.0081003549707 L433.8055608834521,415.2904133452059 M433.8055608834521,415.2904133452059 L433.86481911400824,415.5384855890005 M433.86481911400824,415.5384855890005 L433.96730747167726,415.7378812350597 M433.96730747167726,415.7378812350597 L434.1069782729641,415.87705941517464 M434.1069782729641,415.87705941517464 L434.27563496488733,415.94803772610175 M434.27563496488733,415.94803772610175 L434.46342809281265,415.9468246811983 M434.46342809281265,415.9468246811983 L434.6594364892565,415.8736283218351 M434.6594364892565,415.8736283218351 L434.85230583961265,415.732808296435 M434.85230583961265,415.732808296435 L435.03089764630494,415.53259933623457 M435.03089764630494,415.53259933623457 L435.18492247587244,415.2846240134079 M435.18492247587244,415.2846240134079 L435.30551596709375,415.00321439090453 M435.30551596709375,415.00321439090453 L435.38573513588244,414.70460329407354 M435.38573513588244,414.70460329407354 L435.4209467667443,414.40600511173216 M366.5214054707694,394.78165645480453 L366.55239037393534,395.02378245806426 M366.55239037393534,395.02378245806426 L366.62927098700686,395.23937445844933 M366.62927098700686,395.23937445844933 L366.74750696182673,395.4158855565866 M366.74750696182673,395.4158855565866 L366.90015075567516,395.5430867684307 M366.90015075567516,395.5430867684307 L367.0782685854793,395.61365791188666 M367.0782685854793,395.61365791188666 L367.2714750083329,395.6235904845542 M367.2714750083329,395.6235904845542 L367.468542522543,395.57240542822865 M367.468542522543,395.57240542822865 L367.6580558674741,395.4631548875411 M367.6580558674741,395.4631548875411 L367.8290644101266,395.3022278101446 M367.8290644101266,395.3022278101446 L367.97170636437687,395.098972155726 M367.97170636437687,395.098972155726 L368.07776249012574,394.8651475648502 M368.07776249012574,394.8651475648502 L368.14111904603055,394.6142592575635 M368.14111904603055,394.6142592575635 L368.1581112953426,394.36078924277143" stroke="black"  stroke-width="4"  fill="red"/>
<path d="M432.14909459082156,415.6161422178954 L364.8712010414575,395.20599473662764 M430.48881228318834,416.23021923578705 L363.20733032287586,395.6338472071201 M432.14909459082156,415.6161422178954 L432.1359185360847,415.3324505147195 M432.1359185360847,415.3324505147195 L432.0754479884425,415.0827474498246 M432.0754479884425,415.0827474498246 L431.971112404536,414.8815246709397 M431.971112404536,414.8815246709397 L431.8288815602408,414.74052510986667 M431.8288815602408,414.74052510986667 L431.65694017982264,414.66804589706953 M431.65694017982264,414.66804589706953 L431.46523064159953,414.6684394008338 M431.46523064159953,414.6684394008338 L431.2648870857659,414.74182153582507 M431.2648870857659,414.74182153582507 L431.067590024891,414.884036774197 M431.067590024891,414.884036774197 L430.8848789063717,415.0868745070702 M430.8848789063717,415.0868745070702 L430.72746502683134,415.3385298334688 M430.72746502683134,415.3385298334688 L430.6045873293842,415.6243000790049 M430.6045873293842,415.6243000790049 L430.52345505127585,415.92745033526495 M430.52345505127585,415.92745033526495 L430.48881228318834,416.23021923578705 M364.8712010414575,395.20599473662764 L364.83956318828285,394.9628515847837 M364.83956318828285,394.9628515847837 L364.76155474910854,394.7460363790202 M364.76155474910854,394.7460363790202 L364.6416354909726,394.5681311341124 M364.6416354909726,394.5681311341124 L364.48669691290655,394.4395053357492 M364.48669691290655,394.4395053357492 L364.3056794236584,394.3677033334882 M364.3056794236584,394.3677033334882 L364.1090676108041,394.35699579126685 M364.1090676108041,394.35699579126685 L363.90828901133693,394.40810342231947 M363.90828901133693,394.40810342231947 L363.71504991020737,394.5181356002003 M363.71504991020737,394.5181356002003 L363.540646258461,394.6807400557781 M363.540646258461,394.6807400557781 L363.39529225837293,394.88645906395624 M363.39529225837293,394.88645906395624 L363.2875087663931,395.123286531942 M363.2875087663931,395.123286531942 L363.2236112438109,395.37737163895645 M363.2236112438109,395.37737163895645 L363.20733032287586,395.6338472071201 M430.48881228318834,416.23021923578705 L430.50265646818934,416.51488248297 M430.50265646818934,416.51488248297 L430.5641252868877,416.7648132065052 M430.5641252868877,416.7648132065052 L430.6695608344703,416.96546751918277 M430.6695608344703,416.96546751918277 L430.81274116104805,417.10523279086084 M430.81274116104805,417.10523279086084 L430.9852640626173,417.17609463642304 M430.9852640626173,417.17609463642304 L431.1770539162666,417.17407121549235 M431.1770539162666,417.17407121549235 L431.37695826986055,417.0994199700896 M431.37695826986055,417.0994199700896 L431.57339722419164,416.9565871660762 M431.57339722419164,416.9565871660762 L431.7550278245447,416.75392493017756 M431.7550278245447,416.75392493017756 L431.9113863315785,416.5031979408214 M431.9113863315785,416.5031979408214 L432.03347554849245,416.2188962266302 M432.03347554849245,416.2188962266302 L432.1142670577136,415.91741819673535 M432.1142670577136,415.91741819673535 L432.14909459082156,415.6161422178954 M363.20733032287586,395.6338472071201 L363.23959184396915,395.87771546779413 M363.23959184396915,395.87771546779413 L363.31846705825814,396.0947414846995 M363.31846705825814,396.0947414846995 L363.4392978755311,396.2722948883603 M363.4392978755311,396.2722948883603 L363.59498378335644,396.40008684599417 M363.59498378335644,396.40008684599417 L363.7764132024496,396.4707640205063 M363.7764132024496,396.4707640205063 L363.9730071516159,396.4803134391766 M363.9730071516159,396.4803134391766 L364.17334227381514,396.42827967524113 M364.17334227381514,396.42827967524113 L364.3658138778448,396.317765520965 M364.3658138778448,396.317765520965 L364.53930174874796,396.1552336883888 M364.53930174874796,396.1552336883888 L364.6838015017835,395.9501252518147 M364.6838015017835,395.9501252518147 L364.790987950937,395.714306447117 M364.790987950937,395.714306447117 L364.85468259756357,395.4613969697846 M364.85468259756357,395.4613969697846 L364.8712010414575,395.20599473662764" stroke="black"  stroke-width="4"  fill="red"/>
<path d="M428.81196855602764,416.85042171021644 L361.5296228415618,396.0652577023151 M427.1183143654367,417.4768417533117 L359.8379052768964,396.50027079037187 M428.81196855602764,416.85042171021644 L428.79742311503554,416.56435697035715 M428.79742311503554,416.56435697035715 L428.7346972854353,416.31277037246355 M428.7346972854353,416.31277037246355 L428.62734925663597,416.11026285529977 M428.62734925663597,416.11026285529977 L428.48152079443116,415.96865341936785 M428.48152079443116,415.96865341936785 L428.3056036912138,415.8962768590314 M428.3056036912138,415.8962768590314 L428.1097706483549,415.89748226751215 M428.1097706483549,415.89748226751215 L427.90539495649426,415.97234129927216 M427.90539495649426,415.97234129927216 L427.70439391094675,416.11661416901757 M427.70439391094675,416.11661416901757 L427.5185240622147,416.32197163976184 M427.5185240622147,416.32197163976184 L427.3586834611825,416.57646157725304 M427.3586834611825,416.57646157725304 L427.23425486216615,416.8652146398731 M427.23425486216615,416.8652146398731 L427.1525388023566,417.17132009236417 M427.1525388023566,417.17132009236417 L427.1183143654367,417.4768417533117 M361.5296228415618,396.0652577023151 L361.4966885046339,395.8203576509134 M361.4966885046339,395.8203576509134 L361.4166523767826,395.6020917166859 M361.4166523767826,395.6020917166859 L361.2940905243726,395.4231259954029 M361.2940905243726,395.4231259954029 L361.1360458009309,395.2938923382989 M361.1360458009309,395.2938923382989 L360.95163784881356,395.2219716442647 M360.95163784881356,395.2219716442647 L360.75154799531623,395.2116430206809 M360.75154799531623,395.2116430206809 L360.5474054480044,395.2636069352507 M360.5474054480044,395.2636069352507 L360.3511140640597,395.37492396394686 M360.3511140640597,395.37492396394686 L360.17414832425425,395.53916786069533 M360.17414832425425,395.53916786069533 L360.026873647242,395.74678525282815 M360.026873647242,395.74678525282815 L359.9179244646714,395.9856586750181 M359.9179244646714,395.9856586750181 L359.85368455291285,396.24181702005075 M359.85368455291285,396.24181702005075 L359.8379052768964,396.50027079037187 M427.1183143654367,417.4768417533117 L427.1335528765121,417.76389330837435 M427.1335528765121,417.76389330837435 L427.19730962374047,418.0157074872287 M427.19730962374047,418.0157074872287 L427.3057902426322,418.21763122238764 M427.3057902426322,418.21763122238764 L427.4525935073955,418.35797925275403 M427.4525935073955,418.35797925275403 L427.6291043137563,418.4287057535734 M427.6291043137563,418.4287057535734 L427.82501395015817,418.4258396417967 M427.82501395015817,418.4258396417967 L428.0289315787518,418.34968969978485 M428.0289315787518,418.34968969978485 L428.2290448400721,418.2047914499867 M428.2290448400721,418.2047914499867 L428.41380055980926,417.9996174013786 M428.41380055980926,417.9996174013786 L428.5725559203985,417.7460776610319 M428.5725559203985,417.7460776610319 L428.6961767886079,417.4588239059208 M428.6961767886079,417.4588239059208 L428.77754766785654,417.15442338991596 M428.77754766785654,417.15442338991596 L428.81196855602764,416.85042171021644 M359.8379052768964,396.50027079037187 L359.8714817075276,396.7459060323264 M359.8714817075276,396.7459060323264 L359.95240788301754,396.96438405154163 M359.95240788301754,396.96438405154163 L360.0759038347337,397.1429901702587 M360.0759038347337,397.1429901702587 L360.2347127202431,397.2713749188331 M360.2347127202431,397.2713749188331 L360.4195398391089,397.34215187121873 M360.4195398391089,397.34215187121873 L360.61960783776954,397.3513039393075 M360.61960783776954,397.3513039393075 L360.8232925146419,397.29840018345425 M360.8232925146419,397.29840018345425 L361.0187949053161,397.18659533760814 M361.0187949053161,397.18659533760814 L361.194821274787,397.0224274034414 M361.194821274787,397.0224274034414 L361.3412214021053,396.8154323454395 M361.3412214021053,396.8154323454395 L361.4495612092615,396.5775850697626 M361.4495612092615,396.5775850697626 L361.5135965187785,396.32262160062635 M361.5135965187785,396.32262160062635 L361.5296228415618,396.0652577023151" stroke="black"  stroke-width="4"  fill="red"/>
<path d="M425.407595648996,418.10957333336506 L358.1320014014163,396.9389317869239 M423.6795531987179,418.7487123218241 L356.41173201961624,397.3812867708154 M425.407595648996,418.10957333336506 L425.3916274353879,417.8210972545844 M425.3916274353879,417.8210972545844 L425.32656774194106,417.5676013474439 M425.32656774194106,417.5676013474439 L425.2161059013701,417.36379810327105 M425.2161059013701,417.36379810327105 L425.06656335598194,417.22158257738977 M425.06656335598194,417.22158257738977 L424.8865442779562,417.1493275886206 M424.8865442779562,417.1493275886206 L424.6864590901285,417.15137790612096 M424.6864590901285,417.15137790612096 L424.4779285094987,417.22775879670627 M424.4779285094987,417.22775879670627 L424.2731129931477,417.3741439565379 M424.2731129931477,417.3741439565379 L424.0839934079179,417.58208210334715 M424.0839934079179,417.58208210334715 L423.9216600896793,417.83947025050685 M423.9216600896793,417.83947025050685 L423.795642130711,418.13126914611337 M423.795642130711,418.13126914611337 L423.7133357861544,418.44038770024383 M423.7133357861544,418.44038770024383 L423.6795531987179,418.7487123218241 M358.1320014014163,396.9389317869239 L358.0977307720595,396.69225000406004 M358.0977307720595,396.69225000406004 L358.01561013406405,396.4725148386263 M358.01561013406405,396.4725148386263 L357.89033305178623,396.2924780660029 M357.89033305178623,396.2924780660029 L357.7290997925862,396.1626340516677 M357.7290997925862,396.1626340516677 L357.54121260471516,396.09060077341934 M357.54121260471516,396.09060077341934 L357.3375547901332,396.0806654444335 M357.3375547901332,396.0806654444335 L357.1299632480621,396.13350729097476 M357.1299632480621,396.13350729097476 L356.93054356477137,396.24613707121273 M356.93054356477137,396.24613707121273 L356.7509539176206,396.41205277484704 M356.7509539176206,396.41205277484704 L356.60171472327556,396.6216034579048 M356.60171472327556,396.6216034579048 L356.491575189597,396.8625585839368 M356.491575189597,396.8625585839368 L356.42699098879393,397.1208241011035 M356.42699098879393,397.1208241011035 L356.41173201961624,397.3812867708154 M423.6795531987179,418.7487123218241 L423.6962405726864,419.03819080649214 M423.6962405726864,419.03819080649214 L423.76236512256196,419.2919141052978 M423.76236512256196,419.2919141052978 L423.8739935785005,419.4951176330341 M423.8739935785005,419.4951176330341 L424.0245372328504,419.63604373436675 M424.0245372328504,419.63604373436675 L424.20516258211444,419.70661497079254 M424.20516258211444,419.70661497079254 L424.4053203116275,419.70287230478 M424.4053203116275,419.70287230478 L424.61337308533234,419.6251781556166 M424.61337308533234,419.6251781556166 L424.8172699049672,419.47815968413505 M424.8172699049672,419.47815968413505 L425.0052403613948,419.27041326181416 M425.0052403613948,419.27041326181416 L425.16645737381737,419.0139979466533 M425.16645737381737,419.0139979466533 L425.2916475776468,418.7237301391794 M425.2916475776468,418.7237301391794 L425.3736043603275,418.416350167908 M425.3736043603275,418.416350167908 L425.407595648996,418.10957333336506 M356.41173201961624,397.3812867708154 L356.4466638743752,397.6287140188627 M356.4466638743752,397.6287140188627 L356.52969855800524,397.84866254101445 M356.52969855800524,397.84866254101445 L356.6559331167588,398.02833168310315 M356.6559331167588,398.02833168310315 L356.81794793047663,398.1573113070306 M356.81794793047663,398.1573113070306 L357.00626171392344,398.2281814491797 M357.00626171392344,398.2281814491797 L357.2098934350764,398.2369213606036 M357.2098934350764,398.2369213606036 L357.41701217165536,398.1831256640356 M357.41701217165536,398.1831256640356 L357.6156206515916,398.07000212052054 M357.6156206515916,398.07000212052054 L357.7942465312639,397.90416585822055 M357.7942465312639,397.90416585822055 L357.942590183976,397.69524961651854 M357.942590183976,397.69524961651854 L358.0521075558106,397.45533859758126 M358.0521075558106,397.45533859758126 L358.1164855150828,397.19828765684184 M358.1164855150828,397.19828765684184 L358.1320014014163,396.9389317869239" stroke="black"  stroke-width="4"  fill="red"/>
<path d="M340.7568080437577,375.16381866427696 L340.6396140090263,372.9575135756365 M428.9561364475487,398.37416824422195 L429.0478342946287,395.61489666390645 M340.7568080437577,375.16381866427696 L428.9561364475487,398.37416824422195 M340.6396140090263,372.9575135756365 L429.0478342946287,395.61489666390645 M459.2014955339398,388.8373433070716 L459.3603859909737,386.30200427527035 M428.9561364475487,398.37416824422195 L459.2014955339398,388.8373433070716 M429.0478342946287,395.61489666390645 L459.3603859909737,386.30200427527035 M371.18103458198334,369.21494755345066 L371.13271373172216,367.1547222104966 M459.2014955339398,388.8373433070716 L371.18103458198334,369.21494755345066 M459.3603859909737,386.30200427527035 L371.13271373172216,367.1547222104966 M371.18103458198334,369.21494755345066 L340.7568080437577,375.16381866427696 M371.13271373172216,367.1547222104966 L340.6396140090263,372.9575135756365" stroke="black"  stroke-width="4"  fill="red"/>
<path d="M422.48348097721777,398.9036772997923 L422.55378581761846,396.2823111077101 M422.55378581761846,396.2823111077101 L421.20420858718205,396.6917334135729 M421.13714786665054,399.3222850736662 L421.20420858718205,396.6917334135729 M422.48348097721777,398.9036772997923 L421.13714786665054,399.3222850736662 M354.77311597713674,382.8858371642656 L354.68537178255434,380.68190945328473 M354.68537178255434,380.68190945328473 L353.9748158538775,380.49093679448777 M353.8853511848915,378.28184766029625 L353.9748158538775,380.49093679448777 M353.8853511848915,378.28184766029625 L354.59724856337334,378.46846153620896 M354.59724856337334,378.46846153620896 L354.508743858395,376.24543159351805 M421.58709426210925,393.3822364411823 L354.508743858395,376.24543159351805 M421.58709426210925,393.3822364411823 L421.5193003088657,396.01113529473605 M421.5193003088657,396.01113529473605 L422.55378581761846,396.2823111077101 M422.48348097721777,398.9036772997923 L421.45185761962864,398.6264129107067 M421.45185761962864,398.6264129107067 L421.38476347142125,401.2281748800831 M354.77311597713674,382.8858371642656 L421.38476347142125,401.2281748800831 M421.20420858718205,396.6917334135729 L420.16919595709237,396.41842934499175 M421.5193003088657,396.01113529473605 L420.16919595709237,396.41842934499175 M352.5465059036136,378.5620710912614 L352.63914865735626,380.77770479993046 M353.2578160681982,378.7498987141834 L352.5465059036136,378.5620710912614 M353.16611442608064,376.5202387872666 L353.2578160681982,378.7498987141834 M420.23372608439627,393.7802859052155 L353.16611442608064,376.5202387872666 M420.16919595709237,396.41842934499175 L420.23372608439627,393.7802859052155 M420.1050014871477,399.0428503221423 L421.13714786665054,399.3222850736662 M420.0411400624426,401.65365562625965 L420.1050014871477,399.0428503221423 M353.4400322761601,383.1803556563418 L420.0411400624426,401.65365562625965 M353.3491211626743,380.96991686844336 L353.4400322761601,383.1803556563418 M352.63914865735626,380.77770479993046 L353.3491211626743,380.96991686844336 M421.45185761962864,398.6264129107067 L420.1050014871477,399.0428503221423 M354.68537178255434,380.68190945328473 L353.3491211626743,380.96991686844336 M354.77311597713674,382.8858371642656 L353.4400322761601,383.1803556563418 M353.9748158538775,380.49093679448777 L352.63914865735626,380.77770479993046 M353.8853511848915,378.28184766029625 L352.5465059036136,378.5620710912614 M354.59724856337334,378.46846153620896 L353.2578160681982,378.7498987141834 M354.508743858395,376.24543159351805 L353.16611442608064,376.5202387872666 M421.58709426210925,393.3822364411823 L420.23372608439627,393.7802859052155 M421.38476347142125,401.2281748800831 L420.0411400624426,401.65365562625965" stroke="black"  stroke-width="4"  fill="red"/>
<path d="M442.68176940372337,392.62353720079483 L442.7974442741654,390.14097651976886 M442.7974442741654,390.14097651976886 L441.6022467269154,390.5035645397211 M441.4890790595202,392.9943736943706 L441.6022467269154,390.5035645397211 M442.68176940372337,392.62353720079483 L441.4890790595202,392.9943736943706 M374.99018903734674,378.4192745114285 L374.9481885594246,376.31458389555155 M374.9481885594246,376.31458389555155 L374.2310692882352,376.1419152640937 M374.18751323705663,374.03255792844766 L374.2310692882352,376.1419152640937 M374.18751323705663,374.03255792844766 L374.90601559494013,374.2012497863856 M374.90601559494013,374.2012497863856 L374.8636690791615,372.0792188290337 M441.8876169278037,387.41149448068387 L374.8636690791615,372.0792188290337 M441.8876169278037,387.41149448068387 L441.77416657410095,389.9007287119277 M441.77416657410095,389.9007287119277 L442.7974442741654,390.14097651976886 M442.68176940372337,392.62353720079483 L441.6612696367577,392.37782033716536 M441.6612696367577,392.37782033716536 L441.54892207623845,394.84285798855757 M374.99018903734674,378.4192745114285 L441.54892207623845,394.84285798855757 M441.6022467269154,390.5035645397211 L440.5781353605863,390.26154259756896 M441.77416657410095,389.9007287119277 L440.5781353605863,390.26154259756896 M372.97731241585876,374.2858557747449 L373.0234849488793,376.40118385532884 M373.69554196780115,374.45559054850816 L372.97731241585876,374.2858557747449 M373.65056595067927,372.32751479100375 L373.69554196780115,374.45559054850816 M440.6890620840727,387.76401061119304 L373.65056595067927,372.32751479100375 M440.5781353605863,390.26154259756896 L440.6890620840727,387.76401061119304 M440.4677517299933,392.7468467651621 L441.4890790595202,392.9943736943706 M440.3579072135913,395.22001269506256 L440.4677517299933,392.7468467651621 M373.78494045106504,378.68555036188604 L440.3579072135913,395.22001269506256 M373.74033308865535,376.57491779313483 L373.78494045106504,378.68555036188604 M373.0234849488793,376.40118385532884 L373.74033308865535,376.57491779313483 M441.6612696367577,392.37782033716536 L440.4677517299933,392.7468467651621 M374.9481885594246,376.31458389555155 L373.74033308865535,376.57491779313483 M374.99018903734674,378.4192745114285 L373.78494045106504,378.68555036188604 M374.2310692882352,376.1419152640937 L373.0234849488793,376.40118385532884 M374.18751323705663,374.03255792844766 L372.97731241585876,374.2858557747449 M374.90601559494013,374.2012497863856 L373.69554196780115,374.45559054850816 M374.8636690791615,372.0792188290337 L373.65056595067927,372.32751479100375 M441.8876169278037,387.41149448068387 L440.6890620840727,387.76401061119304 M441.54892207623845,394.84285798855757 L440.3579072135913,395.22001269506256" stroke="black"  stroke-width="4"  fill="red"/></svg>