<svg viewBox="0 0 800 800" xmlns="http://www.w3.org/2000/svg"><path d="M236.1111015277838,361.4509285256223 L227.07772587510453,356.2421371276357 M97.52248185942187,441.124280503199 L88.48915625487382,435.9022402019287 M236.1111015277838,361.4509285256223 L227.29430780864678,349.075405332641 M227.29430780864678,349.075405332641 L215.2425457384811,341.3539999333067 M215.2425457384811,341.3539999333067 L200.59878116836921,338.7031587226958 M200.59878116836921,338.7031587226958 L184.14572928237862,341.2681891104925 M184.14572928237862,341.2681891104925 L166.76414630464404,348.9147649798269 M166.76414630464404,348.9147649798269 L149.38565074438955,361.23549562458027 M149.38565074438955,361.23549562458027 L132.94256943529984,377.5713330163589 M132.94256943529984,377.5713330163589 L118.31756031638679,397.0467793594462 M118.31756031638679,397.0467793594462 L106.29581531860208,418.61699490382557 M106.29581531860208,418.61699490382557 L97.52248185942187,441.124280503199 M227.07772587510453,356.2421371276357 L218.25968574962673,343.86650127184566 M218.25968574962673,343.86650127184566 L206.20687859821604,336.1445575910839 M206.20687859821604,336.1445575910839 L191.56232651596008,333.49278074227743 M191.56232651596008,333.49278074227743 L175.1087871205495,336.0565277073849 M175.1087871205495,336.0565277073849 L157.72704292692083,343.70154070280665 M157.72704292692083,343.70154070280665 L140.34872114315397,356.0205125345931 M140.34872114315397,356.0205125345931 L123.9061392286659,372.3544894238541 M123.9061392286659,372.3544894238541 L109.2819281928779,391.828073491745 M109.2819281928779,391.828073491745 L97.26123696560211,413.3965251524759 M97.26123696560211,413.3965251524759 L88.48915625487382,435.9022402019287 M257.512932745293,349.1472080928935 L248.47955197329333,343.94046118400183 M257.512932745293,349.1472080928935 L236.1111015277838,361.4509285256223 M248.47955197329333,343.94046118400183 L227.07772587510453,356.2421371276357 M76.05777982538444,453.46414480334164 L67.02446459048423,448.2400509977881 M97.52248185942187,441.124280503199 L76.05777982538444,453.46414480334164 M88.48915625487382,435.9022402019287 L67.02446459048423,448.2400509977881 M257.2770420502874,139.58317531966236 L257.512932745293,349.1472080928935 M239.12846667572603,149.98171802279228 L257.2770420502874,139.58317531966236 M239.181756109876,191.9538402804734 L239.12846667572603,149.98171802279228 M230.10822799905483,197.15617178606686 L239.181756109876,191.9538402804734 M230.10822799905483,197.15617178606686 L230.05191280860228,155.18228782161228 M93.72203841982912,233.29486642825609 L230.05191280860228,155.18228782161228 M93.82386097526535,275.29517655116445 L93.72203841982912,233.29486642825609 M84.72612301402694,280.51138883896635 L93.82386097526535,275.29517655116445 M84.72612301402694,280.51138883896635 L84.62125854908248,238.50931693826118 M75.51896133376067,243.72463683729725 L84.62125854908248,238.50931693826118 M76.05777982538444,453.46414480334164 L75.51896133376067,243.72463683729725 M227.21699072743453,296.7223170674396 L227.39037350275837,294.9503824272358 M227.39037350275837,294.9503824272358 L227.9050081931243,293.079652012649 M227.9050081931243,293.079652012649 L228.73099557202931,291.21886141536254 M228.73099557202931,291.21886141536254 L229.82031507005277,289.4761876357754 M229.82031507005277,289.4761876357754 L231.10965137321224,287.95291488413113 M231.10965137321224,287.95291488413113 L232.5240488617992,286.7375999668526 M232.5240488617992,286.7375999668526 L233.9812949266892,285.9008683507539 M233.9812949266892,285.9008683507539 L235.39667957808226,285.4913435517008 M235.39667957808226,285.4913435517008 L236.68794557644324,285.53280938741784 M236.68794557644324,285.53280938741784 L237.7800476617596,286.0228230079923 M237.7800476617596,286.0228230079923 L238.60953601984917,286.93289002972233 M238.60953601984917,286.93289002972233 L239.12821220751363,288.2101023391612 M239.12821220751363,288.2101023391612 L239.30596027525755,289.78021988953424 M239.30596027525755,289.78021988953424 L239.13245987034873,291.5519976974274 M239.13245987034873,291.5519976974274 L238.61781114077291,293.4224744579436 M238.61781114077291,293.4224744579436 L237.79191653102907,295.2829726877204 M237.79191653102907,295.2829726877204 L236.70277535634625,297.0253823657582 M236.70277535634625,297.0253823657582 L235.41366207995998,298.5484797815421 M235.41366207995998,298.5484797815421 L233.99948122847408,299.7637482984039 M233.99948122847408,299.7637482984039 L232.54239578262468,300.600573078446 M232.54239578262468,300.600573078446 L231.12707893571695,301.0103092627123 M231.12707893571695,301.0103092627123 L229.83577239423798,300.9691246089406 M229.83577239423798,300.9691246089406 L228.74353070679058,300.479397549396 M228.74353070679058,300.479397549396 L227.91383566749707,299.56955682271484 M227.91383566749707,299.56955682271484 L227.39493306900337,298.2924586989906 M227.39493306900337,298.2924586989906 L227.21699072743453,296.7223170674396 M203.03100773622324,310.6111306345471 L203.20414410526092,308.8389665621937 M203.20414410526092,308.8389665621937 L203.71870817173462,306.96792731872756 M203.71870817173462,306.96792731872756 L204.54479345418758,305.10677297632606 M204.54479345418758,305.10677297632606 L205.63438505659946,303.36369516003754 M205.63438505659946,303.36369516003754 L206.92414336068208,301.84000644006636 M206.92414336068208,301.84000644006636 L208.33909109355935,300.6242861527054 M208.33909109355935,300.6242861527054 L209.79698365581038,299.7871833262843 M209.79698365581038,299.7871833262843 L211.2130734705368,299.37734305165606 M211.2130734705368,299.37734305165606 L212.50506231214317,299.4185674750545 M212.50506231214317,299.4185674750545 L213.59786578854917,299.9084261121911 M213.59786578854917,299.9084261121911 L214.4279848507994,300.818438446255 M214.4279848507994,300.818438446255 L214.9471957723355,302.0956930076893 M214.9471957723355,302.0956930076893 L215.12534017840892,303.6659538117081 M215.12534017840892,303.6659538117081 L214.95208605780505,305.43796102217044 M214.95208605780505,305.43796102217044 L214.43750789332015,307.3087465293189 M214.43750789332015,307.3087465293189 L213.61151539525474,309.16960838915514 M213.61151539525474,309.16960838915514 L212.52210220456078,310.9124219816557 M212.52210220456078,310.9124219816557 L211.23256706661857,312.4359352647681 M211.23256706661857,312.4359352647681 L209.81783612996347,313.65160909494097 M209.81783612996347,313.65160909494097 L208.36010432917575,314.4888050857659 M208.36010432917575,314.4888050857659 L206.94408241203075,314.8988568031942 M206.94408241203075,314.8988568031942 L205.6520530497495,314.8579136632626 M205.6520530497495,314.8579136632626 L204.55910991759453,314.36834170975163 M204.55910991759453,314.36834170975163 L203.72878405748224,313.4585557852196 M203.72878405748224,313.4585557852196 L203.20934657086173,312.18141549114637 M203.20934657086173,312.18141549114637 L203.03100773622324,310.6111306345471 M178.83429360256267,324.50610656590044 L179.007187657278,322.73371054707 M179.007187657278,322.73371054707 L179.5216766588099,320.8623648699099 M179.5216766588099,320.8623648699099 L180.3478627355326,319.000844986067 M180.3478627355326,319.000844986067 L181.43772369145947,317.2573646027048 M181.43772369145947,317.2573646027048 L182.72790280154686,315.7332605234646 M182.72790280154686,315.7332605234646 L184.1434040128518,314.5171329693377 M184.1434040128518,314.5171329693377 L185.60194061782843,313.6796603420137 M185.60194061782843,313.6796603420137 L187.01873896725704,313.26950269568346 M187.01873896725704,313.26950269568346 L188.31144972409166,313.3104863166601 M188.31144972409166,313.3104863166601 L189.40495222188264,313.80019144098765 M189.40495222188264,313.80019144098765 L190.23570535101746,314.71014729289277 M190.23570535101746,314.71014729289277 L190.75544710312522,315.987446502711 M190.75544710312522,315.987446502711 L190.9339925085241,317.5578480483906 M190.9339925085241,317.5578480483906 L190.76098058118083,319.330087175288 M190.76098058118083,319.330087175288 L190.24647742171524,321.2011790343175 M190.24647742171524,321.2011790343175 L189.4203841452908,323.06240632032063 M189.4203841452908,323.06240632032063 L188.3307016888326,324.80562235772345 M188.3307016888326,324.80562235772345 L187.04074588410916,326.3295508990024 M187.04074588410916,326.3295508990024 L185.62546162875654,327.5456319391992 M185.62546162875654,327.5456319391992 L184.16708592748972,328.38319773117644 M184.16708592748972,328.38319773117644 L182.75035556899977,328.7935668781743 M182.75035556899977,328.7935668781743 L181.45760431393856,328.7528646420858 M181.45760431393856,328.7528646420858 L180.3639621070171,328.2634463236599 M180.3639621070171,328.2634463236599 L179.53300206300113,327.3537169962535 M179.53300206300113,327.3537169962535 L179.01303359223252,326.0765321349162 M179.01303359223252,326.0765321349162 L178.83429360256267,324.50610656590044 M154.6268411828749,338.4072489637034 L154.79949124790778,336.6346217957596 M154.79949124790778,336.6346217957596 L155.313906510401,334.7629687683998 M155.313906510401,334.7629687683998 L156.14019411112096,332.9010827875586 M156.14019411112096,332.9010827875586 L157.23032383076054,331.15720006577294 M157.23032383076054,331.15720006577294 L158.52092615813973,329.63267916562074 M158.52092615813973,329.63267916562074 L159.93697687039338,328.41614658884725 M159.93697687039338,328.41614658884725 L161.39616227558233,327.5783014289336 M161.39616227558233,327.5783014289336 L162.8136656807463,327.16782844818556 M162.8136656807463,327.16782844818556 L164.10710103096952,327.20856980605345 M164.10710103096952,327.20856980605345 L165.20130216115186,327.69812175092966 M165.20130216115186,327.69812175092966 L166.03269001862697,328.6080208773687 M166.03269001862697,328.6080208773687 L166.5529650391667,329.88536349075025 M166.5529650391667,329.88536349075025 L166.7319101251935,331.45590669996585 M166.7319101251935,331.45590669996585 L166.55914228017008,333.22837682310404 M166.55914228017008,333.22837682310404 L166.04471222520496,335.0997762804742 M166.04471222520496,335.0997762804742 L165.2185179819332,336.9613692373666 M165.2185179819332,336.9613692373666 L164.1285670297661,338.7049873873908 M164.1285670297661,338.7049873873908 L162.8381881474955,340.2293326484224 M162.8381881474955,340.2293326484224 L161.42235418965467,341.4458188614934 M161.42235418965467,341.4458188614934 L159.96332983104168,342.28375718655894 M159.96332983104168,342.28375718655894 L158.54589487080585,342.69444151830976 M158.54589487080585,342.69444151830976 L157.25241904489022,342.6539816470354 M157.25241904489022,342.6539816470354 L156.15807797185093,342.164716733888 M156.15807797185093,342.164716733888 L155.32648254121005,341.2550445578116 M155.32648254121005,341.2550445578116 L154.80598122293645,339.97781604417526 M154.80598122293645,339.97781604417526 L154.6268411828749,338.4072489637034 M130.40864332724004,352.3145619338011 L130.58104772507056,350.54170441523775 M130.58104772507056,350.54170441523775 L131.09539057621646,348.6697431200429 M131.09539057621646,348.6697431200429 L131.92177826582758,346.8074917296206 M131.92177826582758,346.8074917296206 L133.01217832428813,345.0632056548791 M133.01217832428813,345.0632056548791 L134.3032041176195,343.53826771388105 M134.3032041176195,343.53826771388105 L135.71980467926005,342.3213298746606 M135.71980467926005,342.3213298746606 L137.17963931702286,341.48311193390106 M137.17963931702286,341.48311193390106 L138.59784754249097,341.0723237936464 M138.59784754249097,341.0723237936464 L139.89200800210557,341.1128226692677 M139.89200800210557,341.1128226692677 L140.98691008176206,341.60222021428405 M140.98691008176206,341.60222021428405 L141.81893278834423,342.5120626824945 M141.81893278834423,342.5120626824945 L142.33974179275953,343.78944844377884 M142.33974179275953,343.78944844377884 L142.51908588166884,345.3601338704577 M142.51908588166884,345.3601338704577 L142.34656336765892,347.1328344374923 M142.34656336765892,347.1328344374923 L141.83220623955572,349.00454175035907 M141.83220623955572,349.00454175035907 L141.00591138204572,350.86650031219153 M141.00591138204572,350.86650031219153 L139.91568999874778,352.61052179637704 M139.91568999874778,352.61052179637704 L138.62488779037722,354.135283997025 M138.62488779037722,354.135283997025 L137.20850450321024,355.3521752083709 M137.20850450321024,355.3521752083709 L135.74883105503227,356.190486314754 M135.74883105503227,356.190486314754 L134.33069100705848,356.60148607065526 M134.33069100705848,356.60148607065526 L133.03649009434912,356.56126878337767 M133.03649009434912,356.56126878337767 L131.9414481987094,356.072158289049 M131.9414481987094,356.072158289049 L131.10921834292384,355.16254257552987 M131.10921834292384,355.16254257552987 L130.5881823114638,353.8852713257913 M130.5881823114638,353.8852713257913 L130.40864332724004,352.3145619338011 M106.17969287938922,366.22804958568474 L106.35185570830754,364.4549591982127 M106.35185570830754,364.4549591982127 L106.86612169961518,362.58269203433105 M106.86612169961518,362.58269203433105 L107.69261309679001,360.7200730197334 M107.69261309679001,360.7200730197334 L108.78328001547817,358.9753854793065 M108.78328001547817,358.9753854793065 L110.07472880140301,357.4500306920538 M110.07472880140301,357.4500306920538 L111.49188100560423,356.23268652100865 M111.49188100560423,356.23268652100865 L112.95236386428854,355.39409638028076 M112.95236386428854,355.39409638028076 L114.37127920171736,354.9829918044297 M114.37127920171736,354.9829918044297 L115.66616456499855,355.0232483931196 M115.66616456499855,355.0232483931196 L116.76176431758603,355.5124935298346 M116.76176431758603,355.5124935298346 L117.59442542414115,356.4222774375686 M117.59442542414115,356.4222774375686 L118.11576507821604,357.6997084166709 M118.11576507821604,357.6997084166709 L118.29551262485654,359.2705336675338 M118.29551262485654,359.2705336675338 L118.12323155866648,361.04346707329813 M118.12323155866648,361.04346707329813 L117.60895122990269,362.91548017309276 M117.60895122990269,362.91548017309276 L116.78255268141402,364.7778062434724 M116.78255268141402,364.7778062434724 L115.69206452513873,366.5222290710702 M115.69206452513873,366.5222290710702 L114.40083946402137,368.0474080166435 M114.40083946402137,368.0474080166435 L112.98390469400744,369.26470550279436 M112.98390469400744,369.26470550279436 L111.52358316790026,370.1033888094984 M111.52358316790026,370.1033888094984 L110.10473610147835,370.51470505863995 M110.10473610147835,370.51470505863995 L108.80981030771324,370.47473016002385 M108.80981030771324,370.47473016002385 L107.71407068593828,369.9857721961083 M107.71407068593828,369.9857721961083 L106.8812023126095,369.0762151586901 M106.8812023126095,369.0762151586901 L106.35963547777249,367.79889877227555 M106.35963547777249,367.79889877227555 L106.17969287938922,366.22804958568474 M248.2286461555627,134.38520198313643 L248.47955197329333,343.94046118400183 M67.02446459048423,448.2400509977881 L66.47063130423362,238.50931693826118 M66.47063130423362,238.50931693826118 L248.2286461555627,134.38520198313643 M218.1786178934308,291.51559987766683 L218.3566798981176,293.0856884134101 M218.3566798981176,293.0856884134101 L218.87569510808822,294.3627700798776 M218.87569510808822,294.3627700798776 L219.70548916426367,295.27263194241664 M219.70548916426367,295.27263194241664 L220.7978105213232,295.7624164982087 M220.7978105213232,295.7624164982087 L222.08917275815782,295.80369166341507 M222.08917275815782,295.80369166341507 L223.50451809037182,295.394073742338 M223.50451809037182,295.394073742338 L224.96160315741963,294.5573881026902 M224.96160315741963,294.5573881026902 L226.3757547880014,293.34227151646684 M226.3757547880014,293.34227151646684 L227.66481169816757,291.8193299944672 M227.66481169816757,291.8193299944672 L228.75387263608565,290.07707111563934 M228.75387263608565,290.07707111563934 L229.57966779846197,288.21670983170293 M229.57966779846197,288.21670983170293 L230.09420364777293,286.3463482074905 M230.09420364777293,286.3463482074905 L230.267584298107,284.57465703853484 M230.267584298107,284.57465703853484 L230.08971656075136,283.0045925948321 M230.08971656075136,283.0045925948321 L229.5709277438597,281.72739677309795 M229.5709277438597,281.72739677309795 L228.7413403439474,280.8173086585682 M228.7413403439474,280.8173086585682 L227.64915856260154,280.3272375875504 M227.64915856260154,280.3272375875504 L226.35783684704256,280.28568127845585 M226.35783684704256,280.28568127845585 L224.94242369807998,280.6950878359112 M224.94242369807998,280.6950878359112 L223.48517801211665,281.53168031179507 M223.48517801211665,281.53168031179507 L222.07080975691864,282.7468432771617 M222.07080975691864,282.7468432771617 L220.78152984196367,284.2699600971687 M220.78152984196367,284.2699600971687 L219.69229060715247,286.0124830317853 M219.69229060715247,286.0124830317853 L218.86640270046712,287.87313664004563 M218.86640270046712,287.87313664004563 L218.35188090792903,289.74375188761184 M218.35188090792903,289.74375188761184 L218.1786178934308,291.51559987766683 M193.9926418595908,305.40210361503875 L194.17110035056848,306.97233538637556 M194.17110035056848,306.97233538637556 L194.6906504292756,308.2494592559866 M194.6906504292756,308.2494592559866 L195.52107527539985,309.15926636842755 M195.52107527539985,309.15926636842755 L196.61409803661059,309.64889588755057 M196.61409803661059,309.64889588755057 L197.90618304636507,309.68992962075134 M197.90618304636507,309.68992962075134 L199.3222333963904,309.27999625633413 M199.3222333963904,309.27999625633413 L200.77996476445313,308.4429394984928 M200.77996476445313,308.4429394984928 L202.1946664279156,307.22741768893457 M202.1946664279156,307.22741768893457 L203.48414515202091,305.7040603817423 M203.48414515202091,305.7040603817423 L204.57347806576936,303.96139765825194 M204.57347806576936,303.96139765825194 L205.39937108605818,302.10067279685745 M205.39937108605818,302.10067279685745 L205.91383635140446,300.2300024594449 M205.91383635140446,300.2300024594449 L206.08697071119502,298.45808189915596 M206.08697071119502,298.45808189915596 L205.90870664226722,296.88787419127937 M205.90870664226722,296.88787419127937 L205.38938311086903,295.6106360847829 M205.38938311086903,295.6106360847829 L204.55916503764328,294.7006026059006 M204.55916503764328,294.7006026059006 L203.46628190574867,294.2106864489854 M203.46628190574867,294.2106864489854 L202.17423739482243,294.1693714703946 M202.17423739482243,294.1693714703946 L200.75811913495977,294.57909341360835 M200.75811913495977,294.57909341360835 L199.3002270055767,295.4160570072154 M199.3002270055767,295.4160570072154 L197.88530855840088,296.63162525266534 M197.88530855840088,296.63162525266534 L196.59560669016432,298.1551579588321 M196.59560669016432,298.1551579588321 L195.50609539116525,299.89808486031797 M195.50609539116525,299.89808486031797 L194.68010961135113,301.7591021610671 M194.68010961135113,301.7591021610671 L194.1656584615775,303.6300262040677 M194.1656584615775,303.6300262040677 L193.9926418595908,305.40210361503875 M169.7959355790633,319.29476817926854 L169.97479521824792,320.86514067400987 M169.97479521824792,320.86514067400987 L170.4948762616548,322.142309143315 M170.4948762616548,322.142309143315 L171.3259352607417,323.0520597110199 M171.3259352607417,323.0520597110199 L172.41965705608578,323.541535664222 M172.41965705608578,323.541535664222 L173.71246391065807,323.58232857535853 M173.71246391065807,323.58232857535853 L175.1292226495233,323.17207787155405 M175.1292226495233,323.17207787155405 L176.58759786407097,322.3346514049564 M176.58759786407097,322.3346514049564 L178.00285279388063,321.11872247570057 M178.00285279388063,321.11872247570057 L179.29275213710395,319.5949499924035 M179.29275213710395,319.5949499924035 L180.3823542764068,317.85188489358404 M180.3823542764068,317.85188489358404 L181.2083480446338,315.99079465892885 M181.2083480446338,315.99079465892885 L181.72273828609647,314.1198180026645 M181.72273828609647,314.1198180026645 L181.89563044641372,312.34766553757925 M181.89563044641372,312.34766553757925 L181.71696538496317,310.7773170770708 M181.71696538496317,310.7773170770708 L181.19711104241654,309.5000342897885 M181.19711104241654,309.5000342897885 L180.36625893322417,308.59005724070767 M180.36625893322417,308.59005724070767 L179.27267682056234,308.10029452746664 M179.27267682056234,308.10029452746664 L177.97991044236545,308.05922026953795 M177.97991044236545,308.05922026953795 L176.56308370031337,308.46925949427686 M176.56308370031337,308.46925949427686 L175.1045475822167,309.3065927963809 M175.1045475822167,309.3065927963809 L173.68907570898764,310.522568218247 M173.68907570898764,310.522568218247 L172.39895308243428,312.04651620159035 M172.39895308243428,312.04651620159035 L171.3091724701498,313.78984560054494 M171.3091724701498,313.78984560054494 L170.48308592649707,315.65122838980403 M170.48308592649707,315.65122838980403 L169.968709860528,317.5224588334568 M169.968709860528,317.5224588334568 L169.7959355790633,319.29476817926854 M145.58849190946069,333.19359767119477 L145.7677515921686,334.764111688273 M145.7677515921686,334.764111688273 L146.28836546357263,336.0413238424931 M146.28836546357263,336.0413238424931 L147.1200598182727,336.95101731139016 M147.1200598182727,336.95101731139016 L148.21448043902402,337.44033992848404 M148.21448043902402,337.44033992848404 L149.50801181640762,337.4808905568743 M149.50801181640762,337.4808905568743 L150.9254751044368,337.07032475817044 M150.9254751044368,337.07032475817044 L152.38449892226333,336.23252585137584 M152.38449892226333,336.23252585137584 L153.80030350215097,335.0161918392686 M153.80030350215097,335.0161918392686 L155.09062587521083,333.49200271855034 M155.09062587521083,333.49200271855034 L156.1804964699833,331.7485355766447 M156.1804964699833,331.7485355766447 L157.00659117462556,329.8870797240539 M157.00659117462556,329.8870797240539 L157.52090829273095,328.01579550268065 M157.52090829273095,328.01579550268065 L157.69355636454316,326.24341205282497 M157.69355636454316,326.24341205282497 L157.51449162931155,324.67292191793763 M157.51449162931155,324.67292191793763 L156.9941040378158,323.39559569444907 M156.9941040378158,323.39559569444907 L156.16261723127175,322.4856753183964 M156.16261723127175,322.4856753183964 L155.0683365269136,321.9960657154828 M155.0683365269136,321.9960657154828 L153.77484560336674,321.9552336386147 M153.77484560336674,321.9552336386147 L152.357313858169,322.3655881078886 M152.357313858169,322.3655881078886 L150.89812899394528,323.2032938496807 M150.89812899394528,323.2032938496807 L149.48210767220164,324.419674204182 M149.48210767220164,324.419674204182 L148.1915618760919,325.94403892607437 M148.1915618760919,325.94403892607437 L147.10151254035384,327.68777059386844 M147.10151254035384,327.68777059386844 L146.27532450314638,329.5495194270955 M146.27532450314638,329.5495194270955 L145.76102219507084,331.4210571877579 M145.76102219507084,331.4210571877579 L145.58849190946069,333.19359767119477 M121.37030370205548,347.09859619529686 L121.54996232201319,348.6692525346664 M121.54996232201319,348.6692525346664 L122.0711108870359,349.94650745779063 M122.0711108870359,349.94650745779063 L122.90343963579897,350.8561445165781 M122.90343963579897,350.8561445165781 L123.99856103836186,351.34531278423674 M123.99856103836186,351.34531278423674 L125.29281745441568,351.3856209107806 M125.29281745441568,351.3856209107806 L126.71098577752247,350.97473977786484 M126.71098577752247,350.97473977786484 L128.1706586307747,350.1365681827265 M128.1706586307747,350.1365681827265 L129.5870124875176,348.9198292623731 M129.5870124875176,348.9198292623731 L130.8777581389199,347.39522328443365 M130.8777581389199,347.39522328443365 L131.9678991245533,345.6513528781222 M131.9678991245533,345.6513528781222 L132.79409441299083,343.78953147354036 M132.79409441299083,343.78953147354036 L133.30833858538563,341.9179394299407 M133.30833858538563,341.9179394299407 L133.48074132002677,340.1453255475516 M133.48074132002677,340.1453255475516 L133.30127758880337,338.57469318442463 M133.30127758880337,338.57469318442463 L132.7803560329744,337.2973237803144 M132.7803560329744,337.2973237803144 L131.94823440838218,336.38746001002295 M131.94823440838218,336.38746001002295 L130.85325279532327,335.89800473759806 M130.85325279532327,335.89800473759806 L129.55903681050415,335.85741506084577 M129.55903681050415,335.85741506084577 L128.14080029767013,336.2680845997276 M128.14080029767013,336.2680845997276 L126.68096625502972,337.1061630293816 M126.68096625502972,337.1061630293816 L125.2643951363944,338.32294855624343 M125.2643951363944,338.32294855624343 L123.97342592211487,339.84773023655555 M123.97342592211487,339.84773023655555 L122.88310628784541,341.59186518753535 M122.88310628784541,341.59186518753535 L122.05681819219978,343.4539793774209 M122.05681819219978,343.4539793774209 L121.54258831431895,345.32582537258054 M121.54258831431895,345.32582537258054 L121.37030370205548,347.09859619529686 M97.14136380177229,361.0097678596981 L97.32142602893077,362.58056400488545 M97.32142602893077,362.58056400488545 L97.84310537770534,363.8578640971222 M97.84310537770534,363.8578640971222 L98.67607261285758,364.7674425326652 M98.67607261285758,364.7674425326652 L99.77189170069062,365.2564583390244 M99.77189170069062,365.2564583390244 L101.06687294959642,365.2965241590707 M101.06687294959642,365.2965241590707 L102.48574823841204,364.8853266230757 M102.48574823841204,364.8853266230757 L103.94606911538273,364.04678292053495 M103.94606911538273,364.04678292053495 L105.36297440243982,362.8296378156526 M105.36297440243982,362.8296378156526 L106.65414285878455,361.3046151751777 M106.65414285878455,361.3046151751777 L107.7445505770973,359.5603434948953 M107.7445505770973,359.5603434948953 L108.57084952605794,357.69815463503875 M108.57084952605794,357.69815463503875 L109.08501688027457,355.8262568374324 M109.08501688027457,355.8262568374324 L109.25717816096392,354.05341012805985 M109.25717816096392,354.05341012805985 L109.0773109789464,352.482637929549 M109.0773109789464,352.482637929549 L108.55585879305772,351.2052232752122 M108.55585879305772,351.2052232752122 L107.72309879962347,350.2954180125731 M107.72309879962347,350.2954180125731 L106.62741955448337,349.80611507936516 M106.62741955448337,349.80611507936516 L105.33247871419707,349.7657676074 M105.33247871419707,349.7657676074 L103.91353514214927,350.1767534917226 M103.91353514214927,350.1767534917226 L102.45305293281604,351.0152040284163 M102.45305293281604,351.0152040284163 L101.03593022417692,352.2323957968032 M101.03593022417692,352.2323957968032 L99.74453806513287,353.75759424094935 M99.74453806513287,353.75759424094935 L98.65395161095381,355.5021305881412 M98.65395161095381,355.5021305881412 L97.82755983821033,357.36461234890453 M97.82755983821033,357.36461234890453 L97.31340683900476,359.2367641798168 M97.31340683900476,359.2367641798168 L97.14136380177229,361.0097678596981 M230.09884473769253,158.77523888873583 L230.1176102193363,172.76535872957476 M230.1176102193363,172.76535872957476 L221.0430760898799,177.96623768133452 M221.02330202360676,163.9755306066568 L221.0430760898799,177.96623768133452 M230.09884473769253,158.77523888873583 L221.02330202360676,163.9755306066568 M84.70865045803919,242.08391220983086 L84.74359362883524,256.0834279805408 M84.70865045803919,242.08391220983086 L75.60888915259534,247.2980811959249 M84.74359362883524,256.0834279805408 L75.64484629174603,261.29818422452684 M75.60888915259534,247.2980811959249 L75.64484629174603,261.29818422452684 M257.2770420502874,139.58317531966236 L248.2286461555627,134.38520198313643 M75.51896133376067,243.72463683729725 L66.47063130423362,238.50931693826118 M84.62125854908248,238.50931693826118 L81.60497943620862,236.77107018021417 M90.70575786386678,231.55690941824443 L81.60497943620862,236.77107018021417 M93.72203841982912,233.29486642825609 L90.70575786386678,231.55690941824443 M230.05191280860228,155.18228782161228 L227.0356156803329,153.4486683527104 M236.11216877994983,148.24838714576134 L227.0356156803329,153.4486683527104 M239.12846667572603,149.98171802279228 L236.11216877994983,148.24838714576134 M236.1664606627966,190.21992216896808 L236.14836738455745,176.23251518509 M236.14836738455745,176.23251518509 L230.1176102193363,172.76535872957476 M230.09884473769253,158.77523888873583 L236.1302700907208,162.24200385521317 M236.1302700907208,162.24200385521317 L236.11216877994983,148.24838714576134 M236.1664606627966,190.21992216896808 L239.181756109876,191.9538402804734 M227.09293331871612,195.42196508101787 L230.10822799905483,197.15617178606686 M236.1664606627966,190.21992216896808 L227.09293331871612,195.42196508101787 M227.05472580047967,167.4428726859809 L221.02330202360676,163.9755306066568 M227.0356156803329,153.4486683527104 L227.05472580047967,167.4428726859809 M227.07383167947023,181.43397125081964 L227.09293331871612,195.42196508101787 M221.0430760898799,177.96623768133452 L227.07383167947023,181.43397125081964 M90.8085828506787,273.5566322827512 L90.77431547131732,259.5598355790027 M90.77431547131732,259.5598355790027 L84.74359362883524,256.0834279805408 M84.70865045803919,242.08391220983086 L90.74004047655956,245.55992830317712 M90.74004047655956,245.55992830317712 L90.70575786386678,231.55690941824443 M90.8085828506787,273.5566322827512 L93.82386097526535,275.29517655116445 M81.71084633108637,278.7725548212242 L84.72612301402694,280.51138883896635 M90.8085828506787,273.5566322827512 L81.71084633108637,278.7725548212242 M81.64027624424943,250.77467671380947 L75.60888915259534,247.2980811959249 M81.60497943620862,236.77107018021417 L81.64027624424943,250.77467671380947 M81.67556520833728,264.7751712483973 L81.71084633108637,278.7725548212242 M75.64484629174603,261.29818422452684 L81.67556520833728,264.7751712483973 M227.21699072743453,296.7223170674396 L218.1786178934308,291.51559987766683 M203.03100773622324,310.6111306345471 L193.9926418595908,305.40210361503875 M178.83429360256267,324.50610656590044 L169.7959355790633,319.29476817926854 M154.6268411828749,338.4072489637034 L145.58849190946069,333.19359767119477 M130.40864332724004,352.3145619338011 L121.37030370205548,347.09859619529686 M106.17969287938922,366.22804958568474 L97.14136380177229,361.0097678596981 M236.14836738455745,176.23251518509 L227.07383167947023,181.43397125081964 M236.1302700907208,162.24200385521317 L227.05472580047967,167.4428726859809 M90.74004047655956,245.55992830317712 L81.64027624424943,250.77467671380947 M90.77431547131732,259.5598355790027 L81.67556520833728,264.7751712483973" stroke="black"  stroke-width="4"  fill="red"/>
<path d="M710.9621940599425,635.2577955490706 L701.8497331086169,630.00340228096 M572.3736300242126,715.6291463050629 L563.2611183844122,710.3613296545843 M710.9621940599425,635.2577955490706 L702.2113825011345,622.8884616781397 M702.2113825011345,622.8884616781397 L690.2150356866746,615.1956280186162 M690.2150356866746,615.1956280186162 L675.6131372525131,612.5942406265491 M675.6131372525131,612.5942406265491 L659.1861465980123,615.2269866224716 M659.1861465980123,615.2269866224716 L641.8134145668303,622.9559344313028 M641.8134145668303,622.9559344313028 L624.426082140405,635.3692917373323 M624.426082140405,635.3692917373323 L607.9569528800635,651.8030468630743 M607.9569528800635,651.8030468630743 L593.2900893685,671.376443347415 M593.2900893685,671.376443347415 L581.2129386985555,693.0393730306137 M581.2129386985555,693.0393730306137 L572.3736300242126,715.6291463050629 M701.8497331086169,630.00340228096 L693.0976467871535,617.6339447033897 M693.0976467871535,617.6339447033897 L681.1002276947349,609.9405576450247 M681.1002276947349,609.9405576450247 L666.4975171707024,607.33821622549 M666.4975171707024,607.33821622549 L650.0700183688305,609.9696581161011 M650.0700183688305,609.9696581161011 L632.6971095339022,617.697021179128 M632.6971095339022,617.697021179128 L615.3099411854262,630.1085977822024 M615.3099411854262,630.1085977822024 L598.8413080325847,646.5404716727954 M598.8413080325847,646.5404716727954 L584.1752459049278,666.111987422659 M584.1752459049278,666.111987422659 L572.099158715363,687.7731380317314 M572.099158715363,687.7731380317314 L563.2611183844122,710.3613296545843 M732.3638795165023,622.846364775063 L723.2514290251045,617.594042900668 M732.3638795165023,622.846364775063 L710.9621940599425,635.2577955490706 M723.2514290251045,617.594042900668 L701.8497331086169,630.00340228096 M550.9087989788129,728.0771969567977 L541.7962821294104,722.8072997387699 M572.3736300242126,715.6291463050629 L550.9087989788129,728.0771969567977 M563.2611183844122,710.3613296545843 L541.7962821294104,722.8072997387699 M732.9208008016349,412.823162212351 L732.3638795165023,622.846364775063 M550.9087989788129,728.0771969567977 L551.1627928412506,517.8785117755297 M551.1627928412506,517.8785117755297 L732.9208008016349,412.823162212351 M702.3321097009359,570.4209243846167 L702.5118125435308,568.6444490634124 M702.5118125435308,568.6444490634124 L703.03239828716,566.7676741836733 M703.03239828716,566.7676741836733 L703.8636217772769,564.8996867127728 M703.8636217772769,564.8996867127728 L704.957158012264,563.1490821576145 M704.957158012264,563.1490821576145 L706.2494465433231,561.617605779632 M706.2494465433231,561.617605779632 L707.6653600345985,560.3942913721944 M707.6653600345985,560.3942913721944 L709.1225977357235,559.550229360723 M709.1225977357235,559.550229360723 L710.5364501432564,559.1344693089009 M710.5364501432564,559.1344693089009 L711.8247491031577,559.1711572907577 M711.8247491031577,559.1711572907577 L712.9126219326281,559.6581279560539 M712.9126219326281,559.6581279560539 L713.7368646798127,560.5670635503853 M713.7368646798127,560.5670635503853 L714.2495838857108,561.845121557857 M714.2495838857108,561.845121557857 L714.4210098729409,563.4180126068281 M714.4210098729409,563.4180126068281 L714.2411897391651,565.1943305103042 M714.2411897391651,565.1943305103042 L713.7205908886206,567.0708501217425 M713.7205908886206,567.0708501217425 L712.8894614802791,568.9385429518798 M712.8894614802791,568.9385429518798 L711.7961049608527,570.6888809940037 M711.7961049608527,570.6888809940037 L710.5040406094645,572.2201800388302 M710.5040406094645,572.2201800388302 L709.0883444047406,573.4434469203179 M709.0883444047406,573.4434469203179 L707.6312673198825,574.2876020998006 M707.6312673198825,574.2876020998006 L706.2174820624723,574.7035746695728 M706.2174820624723,574.7035746695728 L704.929141403404,574.6671698715786 M704.929141403404,574.6671698715786 L703.8411275789138,574.1804881797779 M703.8411275789138,574.1804881797779 L703.0166768398781,573.2717811508638 M703.0166768398781,573.2717811508638 L702.5037302950086,571.9938389372473 M702.5037302950086,571.9938389372473 L702.3321097009359,570.4209243846167 M678.1462303414401,584.4314279881623 L678.3256871222461,582.6547226524706 M678.3256871222461,582.6547226524706 L678.8462032471391,580.7776371881687 M678.8462032471391,580.7776371881687 L679.6775262482636,578.9092832023885 M679.6775262482636,578.9092832023885 L680.7713367038798,577.158270930596 M680.7713367038798,577.158270930596 L682.0640497378495,575.6263742508577 M682.0640497378495,575.6263742508577 L683.4805162156117,574.4026497239022 M683.4805162156117,574.4026497239022 L684.9384032370406,573.5582116127725 M684.9384032370406,573.5582116127725 L686.3529635474438,573.1421313403569 M686.3529635474438,573.1421313403569 L687.6419878474871,573.1785735849148 M687.6419878474871,573.1785735849148 L688.730564177192,573.6653855986049 M688.730564177192,573.6653855986049 L689.5554392274737,574.5742637496169 M689.5554392274737,574.5742637496169 L690.0686941630845,575.8523622687937 M690.0686941630845,575.8523622687937 L690.2405168236917,577.4253960046541 M690.2405168236917,577.4253960046541 L690.0609426290382,579.2019438931752 M690.0609426290382,579.2019438931752 L689.5404133383531,581.078774006252 M689.5404133383531,581.078774006252 L688.7091844347717,582.9468332348922 M688.7091844347717,582.9468332348922 L687.6155537841371,584.6975788697348 M687.6155537841371,584.6975788697348 L686.3230650705061,586.22929811368 M686.3230650705061,586.22929811368 L684.9068160396776,587.4529750566855 M684.9068160396776,587.4529750566855 L683.4490897778721,588.2975063357503 M683.4490897778721,588.2975063357503 L682.0345967110795,588.7137991839809 M682.0345967110795,588.7137991839809 L680.7455307340724,588.6776402258356 M680.7455307340724,588.6776402258356 L679.656813354911,588.1911173097842 M679.656813354911,588.1911173097842 L678.8317301949166,587.2824678403747 M678.8317301949166,587.2824678403747 L678.3182477647579,586.0044851981804 M678.3182477647579,586.0044851981804 L678.1462303414401,584.4314279881623 M653.9495729608393,598.4481751316384 L654.1287877703878,596.6712372459203 M654.1287877703878,596.6712372459203 L654.6492298350879,594.7938436134725 M654.6492298350879,594.7938436134725 L655.480655238518,592.9251213004052 M655.480655238518,592.9251213004052 L656.5747371654779,591.1737027935694 M656.5747371654779,591.1737027935694 L657.8678735099045,589.6413864250446 M657.8678735099045,589.6413864250446 L659.2848962114956,588.4172498634044 M659.2848962114956,588.4172498634044 L660.7434301023668,587.5724370722053 M660.7434301023668,587.5724370722053 L662.1587016911135,587.1560346640695 M662.1587016911135,587.1560346640695 L663.4484504074965,587.1922317841313 M663.4484504074965,587.1922317841313 L664.5377278718177,587.6788866273694 M664.5377278718177,587.6788866273694 L665.3632385915914,588.5877055227112 M665.3632385915914,588.5877055227112 L665.8770253567316,589.8658469691841 M665.8770253567316,589.8658469691841 L666.0492493540128,591.4390208565951 M666.0492493540128,591.4390208565951 L665.8699170088726,593.2158012652322 M665.8699170088726,593.2158012652322 L665.3494617183769,595.0929394639711 M665.3494617183769,595.0929394639711 L664.5181304289451,596.9613669032981 M664.5181304289451,596.9613669032981 L663.4242283957597,598.7125186493377 M663.4242283957597,598.7125186493377 L662.1313165121965,600.2446574793275 M662.1313165121965,600.2446574793275 L660.7145114185337,601.4687463990449 M660.7145114185337,601.4687463990449 L659.2561384304672,602.3136523578904 M659.2561384304672,602.3136523578904 L657.8409341790809,602.7302673999873 M657.8409341790809,602.7302673999873 L656.5511438079434,602.6943536687882 M656.5511438079434,602.6943536687882 L655.4617252399678,602.2079880470101 M655.4617252399678,602.2079880470101 L654.6360062922545,601.2993979499447 M654.6360062922545,601.2993979499447 L654.1219918776701,600.02137246305 M654.1219918776701,600.02137246305 L653.9495729608393,598.4481751316384 M629.7421303529684,612.4711699894642 L629.921101514486,610.6940003588909 M629.921101514486,610.6940003588909 L630.4414708444663,608.8162976340061 M630.4414708444663,608.8162976340061 L631.272999380521,606.9472064328811 M631.272999380521,606.9472064328811 L632.3673521905966,605.1953819207442 M632.3673521905966,605.1953819207442 L633.6609142592279,603.6626443875509 M633.6609142592279,603.6626443875509 L635.0784892103918,602.4380980531512 M635.0784892103918,602.4380980531512 L636.5376747319556,601.592907824069 M636.5376747319556,601.592907824069 L637.9536541242055,601.1761853329672 M637.9536541242055,601.1761853329672 L639.2441299393004,601.212135852601 M639.2441299393004,601.212135852601 L640.3341081533188,601.6986338593074 M640.3341081533188,601.6986338593074 L641.1602552077356,602.6073932513993 M641.1602552077356,602.6073932513993 L641.6745762433591,603.8855763676434 M641.6745762433591,603.8855763676434 L641.847200260949,605.4588913352111 M641.847200260949,605.4588913352111 L641.6681116557916,607.2359033348872 M641.6681116557916,607.2359033348872 L641.1477284653984,609.1133508764249 M641.1477284653984,609.1133508764249 L640.3162946010359,610.982146773649 M640.3162946010359,610.982146773649 L639.2221219537817,612.733704296604 M639.2221219537817,612.733704296604 L637.9287844870626,614.2662641884601 M637.9287844870626,614.2662641884601 L636.5114269435517,615.49076303175 M636.5114269435517,615.49076303175 L635.0524024685958,616.3360464284387 M635.0524024685958,616.3360464284387 L633.6364908680898,616.7529814022978 M633.6364908680898,616.7529814022978 L632.3459734205353,616.7173143742623 M632.3459734205353,616.7173143742623 L631.2558538683188,616.2311058172969 M631.2558538683188,616.2311058172969 L630.4294979264691,615.3225756537789 M630.4294979264691,615.3225756537789 L629.9149496610055,614.044508246963 M629.9149496610055,614.044508246963 L629.7421303529684,612.4711699894642 M605.5238953052367,626.5004167397813 L605.7026211397792,624.7230161706702 M605.7026211397792,624.7230161706702 L606.2229190623073,622.8450034279128 M606.2229190623073,622.8450034279128 L607.054549296472,620.9755440318299 M607.054549296472,620.9755440318299 L608.1491745663479,619.223312490052 M608.1491745663479,619.223312490052 L609.4431626103151,617.6901535688964 M609.4431626103151,617.6901535688964 L610.8612901627023,616.4651972179738 M610.8612901627023,616.4651972179738 L612.321127751105,615.6196292983834 M612.321127751105,615.6196292983834 L613.7378147155428,615.2025868983765 M613.7378147155428,615.2025868983765 L615.0290181495786,615.2382905940763 M615.0290181495786,615.2382905940763 L616.1196994344571,615.7246305307809 M616.1196994344571,615.7246305307809 L616.9464829479841,616.6333304853074 M616.9464829479841,616.6333304853074 L617.4613389726428,617.9115550116217 M617.4613389726428,617.9115550116217 L617.6343623351231,619.485011616782 M617.6343623351231,619.485011616782 L617.455518720064,621.2622546494883 M617.455518720064,621.2622546494883 L616.9352074525582,623.1400117929902 M616.9352074525582,623.1400117929902 L616.1036713652829,625.009176081928 M616.1036713652829,625.009176081928 L615.0092261669636,626.7611406149585 M615.0092261669636,626.7611406149585 L613.7154628660658,628.2941217919035 M613.7154628660658,628.2941217919035 L612.2975532426592,629.5190303844957 M612.2975532426592,629.5190303844957 L610.8378768448117,630.3646914716246 M610.8378768448117,630.3646914716246 L609.4212574050796,630.7819466211251 M609.4212574050796,630.7819466211251 L608.1300123609428,630.7465265198051 M608.1300123609428,630.7465265198051 L607.0391898639214,630.2604760524409 M607.0391898639214,630.2604760524409 L606.2121978857142,629.3520051298033 M606.2121978857142,629.3520051298033 L605.6971139005786,628.0738967290954 M605.6971139005786,628.0738967290954 L605.5238953052367,626.5004167397813 M581.2948605986207,640.5359195644573 L581.4733452030687,638.7582855172586 M581.4733452030687,638.7582855172586 L581.993567269212,636.8799651770626 M581.993567269212,636.8799651770626 L582.8253028207635,635.010135351662 M582.8253028207635,635.010135351662 L583.9201970734107,633.2574986831504 M583.9201970734107,633.2574986831504 L585.2146106218268,631.7239185688973 M585.2146106218268,631.7239185688973 L586.6332925718325,630.4985511208329 M586.6332925718325,630.4985511208329 L588.093781219206,629.6526060945125 M588.093781219206,629.6526060945125 L589.5111780516147,629.2352424959338 M589.5111780516147,629.2352424959338 L590.8031089030965,629.2706995622775 M590.8031089030965,629.2706995622775 L591.8944899863684,629.7568834356381 M591.8944899863684,629.7568834356381 L592.7219135135879,630.6655220315237 M592.7219135135879,630.6655220315237 L593.2373011961663,631.9437900541743 M593.2373011961663,631.9437900541743 L593.4107283607295,633.5173858813118 M593.4107283607295,633.5173858813118 L593.2321258539869,635.2948623620578 M593.2321258539869,635.2948623620578 L592.7118903822834,637.1729270205706 M592.7118903822834,637.1729270205706 L591.8802489947532,639.0424616218652 M591.8802489947532,639.0424616218652 L590.7855349019555,640.7948311576806 M590.7855349019555,640.7948311576806 L589.4913462377629,642.3282334247481 M589.4913462377629,642.3282334247481 L588.0728823777204,643.5535530562279 M588.0728823777204,643.5535530562279 L586.6125550648346,644.3995912498988 M586.6125550648346,644.3995912498988 L585.1952258510403,644.8171676558918 M585.1952258510403,644.8171676558918 L583.9032534118296,644.7819942866893 M583.9032534118296,644.7819942866893 L582.8117310623938,644.2961000063267 M582.8117310623938,644.2961000063267 L581.9840989517106,643.3876905596703 M581.9840989517106,643.3876905596703 L581.4684831536142,642.1095387452468 M581.4684831536142,642.1095387452468 L581.2948605986207,640.5359195644573 M714.7020207982323,451.3588953869341 L705.6275375972225,456.60624878050754 M705.6275375972225,456.60624878050754 L705.6616906312818,442.58422073362556 M714.7371823998824,437.3374546302484 L705.6616906312818,442.58422073362556 M714.7020207982323,451.3588953869341 L714.7371823998824,437.3374546302484 M569.3280100400407,535.421953501858 L560.2292056084314,540.683370736765 M569.3280100400407,535.421953501858 L569.3469939551353,521.3911160676093 M560.2292056084314,540.683370736765 L560.2471755361389,526.6519460088432 M569.3469939551353,521.3911160676093 L560.2471755361389,526.6519460088432 M723.7930710693449,407.5796144804134 L723.2514290251045,617.594042900668 M705.6446131625696,418.0675866207003 L723.7930710693449,407.5796144804134 M705.5421883098318,460.1301480662281 L705.6446131625696,418.0675866207003 M696.4687091729222,465.3772112403978 L705.5421883098318,460.1301480662281 M696.4687091729222,465.3772112403978 L696.568108318518,423.3128879253392 M560.2381900708781,502.0977847917028 L696.568108318518,423.3128879253392 M560.184298332535,544.1885362618136 L560.2381900708781,502.0977847917028 M551.0865054077294,549.449659751676 L560.184298332535,544.1885362618136 M551.0865054077294,549.449659751676 L551.1373551815707,507.35714640042505 M542.034996417362,512.6173886546321 L551.1373551815707,507.35714640042505 M541.7962821294104,722.8072997387699 L542.034996417362,512.6173886546321 M693.2145572357249,565.16859434456 L693.3862997268807,566.7414560192858 M693.3862997268807,566.7414560192858 L693.8993612431868,568.01938242271 M693.8993612431868,568.01938242271 L694.7239133479118,568.9281116260657 M694.7239133479118,568.9281116260657 L695.8120090431701,569.4148521837924 M695.8120090431701,569.4148521837924 L697.1004073232289,569.4513491143533 M697.1004073232289,569.4513491143533 L698.5142226041719,569.035496586102 M698.5142226041719,569.035496586102 L699.9713003717011,568.1914823791933 M699.9713003717011,568.1914823791933 L701.3869678785763,566.9683692079009 M701.3869678785763,566.9683692079009 L702.6789758179948,565.4372276804179 M702.6789758179948,565.4372276804179 L703.7722514887644,563.6870418107561 M703.7722514887644,563.6870418107561 L704.6032803072283,561.8194869696589 M704.6032803072283,561.8194869696589 L705.1237646707393,559.9430831470753 M705.1237646707393,559.9430831470753 L705.3034630722536,558.1668521065467 M705.3034630722536,558.1668521065467 L705.131915181704,556.5940139466834 M705.131915181704,556.5940139466834 L704.6190809866494,555.3159717804053 M704.6190809866494,555.3159717804053 L703.7947368486316,554.4070140553295 M703.7947368486316,554.4070140553295 L702.7067821215853,553.9199845704901 M702.7067821215853,553.9199845704901 L701.4184255183629,553.8832044945093 M701.4184255183629,553.8832044945093 L700.0045430745599,554.2988445265062 M700.0045430745599,554.2988445265062 L698.5473046905374,555.1427655653821 M698.5473046905374,555.1427655653821 L697.1314199094472,556.3659262408905 M697.1314199094472,556.3659262408905 L695.839187812431,557.8972450630628 M695.839187812431,557.8972450630628 L694.7457324528539,559.647697399371 M694.7457324528539,559.647697399371 L693.914609577919,561.5155468375493 M693.914609577919,561.5155468375493 L693.3941383393824,563.3922058974645 M693.3941383393824,563.3922058974645 L693.2145572357249,565.16859434456 M669.028667218241,579.1767576960906 L669.200806532564,580.7497620393442 M669.200806532564,580.7497620393442 L669.7144039154339,582.0277289051016 M669.7144039154339,582.0277289051016 L670.5395884108291,582.93640060226 M670.5395884108291,582.93640060226 L671.6283876206744,583.4229824550941 M671.6283876206744,583.4229824550941 L672.9175111711202,583.4592336292719 M672.9175111711202,583.4592336292719 L674.3320342091904,583.0430609140635 M674.3320342091904,583.0430609140635 L675.789761099745,582.1986707017915 M675.789761099745,582.1986707017915 L677.205981380268,580.9751475604421 M677.205981380268,580.9751475604421 L678.4984136339851,579.4435859172304 M678.4984136339851,579.4435859172304 L679.5919633953158,577.6929925256045 M679.5919633953158,577.6929925256045 L680.4230916780264,575.825071339194 M680.4230916780264,575.825071339194 L680.9435064621448,573.9483570486062 M680.9435064621448,573.9483570486062 L681.1229589175932,572.1718960340588 M681.1229589175932,572.1718960340588 L680.9510143597229,570.5989151761835 M680.9510143597229,570.5989151761835 L680.4376444536558,569.320832464473 M680.4376444536558,569.320832464473 L679.6126680428067,568.4119321294424 M679.6126680428067,568.4119321294424 L678.5240098555939,567.9250612253823 M678.5240098555939,567.9250612253823 L677.2349279597765,567.8885268032541 M677.2349279597765,567.8885268032541 L675.8203376653657,568.3044869643486 M675.8203376653657,568.3044869643486 L674.3624500149792,569.1487840086538 M674.3624500149792,569.1487840086538 L672.9460122998828,570.3723547121957 M672.9460122998828,570.3723547121957 L671.6533557479258,571.9040937527017 M671.6533557479258,571.9040937527017 L670.559626208387,573.6549537348571 M670.559626208387,573.6549537348571 L669.7284038534478,575.5231696347004 M669.7284038534478,575.5231696347004 L669.2080022531791,577.4001392455312 M669.2080022531791,577.4001392455312 L669.028667218241,579.1767576960906 M644.8320000753977,593.1911630231027 L645.0045408771136,594.7643074993402 M645.0045408771136,594.7643074993402 L645.5186702256219,596.0423172431848 M645.5186702256219,596.0423172431848 L646.3444904783778,596.9509296216498 M646.3444904783778,596.9509296216498 L647.4339908368745,597.4373542508656 M647.4339908368745,597.4373542508656 L648.723838733817,597.4733602815074 M648.723838733817,597.4733602815074 L650.1390729041484,597.0568654642998 M650.1390729041484,597.0568654642998 L651.5974464669684,596.2121006662701 M651.5974464669684,596.2121006662701 L653.0142227578092,594.9881656400255 M653.0142227578092,594.9881656400255 L654.3070781334657,593.4561844940847 M654.3070781334657,593.4561844940847 L655.4008992366685,591.7051850617864 M655.4008992366685,591.7051850617864 L656.2321298742268,589.8368957181874 M656.2321298742268,589.8368957181874 L656.7524706386282,587.9598733751637 M656.7524706386282,587.9598733751637 L656.931681237649,586.1831798519345 M656.931681237649,586.1831798519345 L656.7593353492032,584.6100588309359 M656.7593353492032,584.6100588309359 L656.2454336323688,583.3319331585715 M656.2454336323688,583.3319331585715 L655.4198215823617,582.4230920255931 M655.4198215823617,582.4230920255931 L654.3304623006802,581.9363782213597 M654.3304623006802,581.9363782213597 L653.0406560361521,581.9000888403373 M653.0406560361521,581.9000888403373 L651.6253545157379,582.31637104529 M651.6253545157379,582.31637104529 L650.1668200499223,583.1610426756309 M650.1668200499223,583.1610426756309 L648.7498261635383,584.3850253220171 M648.7498261635383,584.3850253220171 L647.4567463491417,585.9171839679627 M647.4567463491417,585.9171839679627 L646.3627453789579,587.6684501146046 M646.3627453789579,587.6684501146046 L645.5314206527269,589.5370342882107 M645.5314206527269,589.5370342882107 L645.0110931321767,591.4143120339486 M645.0110931321767,591.4143120339486 L644.8320000753977,593.1911630231027 M620.6245486022308,607.2118144986214 L620.7974897889874,608.7850999124278 M620.7974897889874,608.7850999124278 L621.3121529695295,610.0631516097692 M621.3121529695295,610.0631516097692 L622.1386101859935,610.9717041084727 M622.1386101859935,610.9717041084727 L623.2288114884893,611.4579717435377 M623.2288114884893,611.4579717435377 L624.5193864141356,611.4937311547201 M624.5193864141356,611.4937311547201 L625.935327881173,611.0769164972851 M625.935327881173,611.0769164972851 L627.3943528768166,610.2317743559385 M627.3943528768166,610.2317743559385 L628.8116815649248,609.0074294976309 M628.8116815649248,609.0074294976309 L630.1049624756986,607.4750273734126 M630.1049624756986,607.4750273734126 L631.1990541522609,605.7236222346853 M631.1990541522609,605.7236222346853 L632.0303873337352,603.8549644867358 M632.0303873337352,603.8549644867358 L632.550655978516,601.9776328343444 M632.550655978516,601.9776328343444 L632.7296228306657,600.2007077313394 M632.7296228306657,600.2007077313394 L632.5568769280551,598.6274456187409 M632.5568769280551,598.6274456187409 L632.0424409595573,597.3492782430025 M632.0424409595573,597.3492782430025 L631.2161926053129,596.4404965595736 M631.2161926053129,596.4404965595736 L630.1261326141598,595.9539395212571 M630.1261326141598,595.9539395212571 L628.8355992986287,595.9178966569783 M628.8355992986287,595.9178966569783 L627.4195900271318,596.3344988533327 M627.4195900271318,596.3344988533327 L625.9604039847077,597.17954782702 M625.9604039847077,597.17954782702 L624.5428579013551,598.4039401546676 M624.5428579013551,598.4039401546676 L623.2493524108179,599.9365198816606 M623.2493524108179,599.9365198816606 L622.1550805982479,601.6881919630675 M622.1550805982479,601.6881919630675 L621.3236527704169,603.557144971107 M621.3236527704169,603.557144971107 L620.8033980041039,605.4347317758934 M620.8033980041039,605.4347317758934 L620.6245486022308,607.2118144986214 M596.4063055873523,621.2387162993919 L596.5796460552035,622.8121434563865 M596.5796460552035,622.8121434563865 L597.0948449365126,624.090236181385 M597.0948449365126,624.090236181385 L597.9219381588341,624.9987294929197 M597.9219381588341,624.9987294929197 L599.0128423658159,625.484839109262 M599.0128423658159,625.484839109262 L600.3041448402498,625.5203516775174 M600.3041448402498,625.5203516775174 L601.7207940940211,625.1032169360625 M601.7207940940211,625.1032169360625 L603.1804709584176,624.2576971988863 M603.1804709584176,624.2576971988863 L604.5983516737795,623.0329426827923 M604.5983516737795,623.0329426827923 L605.8920583706451,621.5001193571394 M605.8920583706451,621.5001193571394 L606.9864225575338,619.7483072790462 M606.9864225575338,619.7483072790462 L607.8178579308951,617.879281192925 M607.8178579308951,617.879281192925 L608.338054633278,616.0016399720394 M608.338054633278,616.0016399720394 L608.5167764884684,614.2244838471581 M608.5167764884684,614.2244838471581 L608.3436312471556,612.6510800855909 M608.3436312471556,612.6510800855909 L607.8286603085023,611.3728712661016 M607.8286603085023,611.3728712661016 L607.001775525624,610.4641489665073 M607.001775525624,610.4641489665073 L605.9110125039142,609.9777499273262 M605.9110125039142,609.9777499273262 L604.6197516172315,609.9419538032128 M604.6197516172315,609.9419538032128 L603.2030348260473,610.358875816891 M603.2030348260473,610.358875816891 L601.7431967709408,611.2043023864653 M601.7431967709408,611.2043023864653 L600.3250981390313,612.4291046390609 M600.3250981390313,612.4291046390609 L599.0311667212695,613.9621056703306 M599.0311667212695,613.9621056703306 L597.9366224896582,615.7141847106541 M597.9366224896582,615.7141847106541 L597.1050929947542,617.5835058601363 M597.1050929947542,617.5835058601363 L596.584909655402,619.4614026492566 M596.584909655402,619.4614026492566 L596.4063055873523,621.2387162993919 M572.177263812943,635.2718726058838 L572.351008234192,636.8454389661774 M572.351008234192,636.8454389661774 L572.8667389094962,638.1235751382869 M572.8667389094962,638.1235751382869 L573.6944722337241,639.0320070279668 M573.6944722337241,639.0320070279668 L574.7860762527214,639.5179605279137 M574.7860762527214,639.5179605279137 L576.0781060743536,639.5532264478547 M576.0781060743536,639.5532264478547 L577.4954650496161,639.135770541755 M577.4954650496161,639.135770541755 L578.9557927748388,638.2898737925921 M578.9557927748388,638.2898737925921 L580.3742276741336,637.0647083293778 M580.3742276741336,637.0647083293778 L581.6683596861603,635.5314639972512 M581.6683596861603,635.5314639972512 L582.7629927267565,633.7792469867654 M582.7629927267565,633.7792469867654 L583.5945333693362,631.9098506421567 M583.5945333693362,631.9098506421567 L584.1146542564136,630.0319019393764 M584.1146542564136,630.0319019393764 L584.293134996454,628.2545123779977 M584.293134996454,628.2545123779977 L584.1195859592904,626.6809693826472 M584.1195859592904,626.6809693826472 L583.6040833816578,625.4027170334548 M583.6040833816578,625.4027170334548 L582.7765586156333,624.4940560384082 M582.7765586156333,624.4940560384082 L581.685095835913,624.0078129919948 M581.685095835913,624.0078129919948 L580.3931075796559,623.9722634134541 M580.3931075796559,623.9722634134541 L578.9756809730786,624.3895065338614 M578.9756809730786,624.3895065338614 L577.5151919132313,625.2353101156002 M577.5151919132313,625.2353101156002 L576.0965389364308,626.460523373546 M576.0965389364308,626.460523373546 L574.8021820623796,627.9939455142329 M574.8021820623796,627.9939455142329 L573.7073688887874,629.7464296108656 M573.7073688887874,629.7464296108656 L572.8757341075436,631.6161211357703 M572.8757341075436,631.6161211357703 L572.3556266440783,633.4943254892003 M572.3556266440783,633.4943254892003 L572.177263812943,635.2718726058838 M732.9208008016349,412.823162212351 L723.7930710693449,407.5796144804134 M551.1627928412506,517.8785117755297 L542.034996417362,512.6173886546321 M708.6870231527064,419.815922945132 L705.6446131625696,418.0675866207003 M708.6870231527064,419.815922945132 L699.6105197222805,425.06151659740834 M699.6105197222805,425.06151659740834 L696.568108318518,423.3128879253392 M563.2806176193731,503.85080749209686 L560.2381900708781,502.0977847917028 M563.2806176193731,503.85080749209686 L554.1797834681083,509.11046262474025 M554.1797834681083,509.11046262474025 L551.1373551815707,507.35714640042505 M702.3321097009359,570.4209243846167 L693.2145572357249,565.16859434456 M678.1462303414401,584.4314279881623 L669.028667218241,579.1767576960906 M653.9495729608393,598.4481751316384 L644.8320000753977,593.1911630231027 M629.7421303529684,612.4711699894642 L620.6245486022308,607.2118144986214 M605.5238953052367,626.5004167397813 L596.4063055873523,621.2387162993919 M581.2948605986207,640.5359195644573 L572.177263812943,635.2718726058838 M714.7020207982323,451.3588953869341 L708.6180523180578,447.86114709210375 M708.6180523180578,447.86114709210375 L699.5435662489465,453.1079157164684 M699.5435662489465,453.1079157164684 L705.6275375972225,456.60624878050754 M699.5770392542638,439.0862791964301 L699.6105197222805,425.06151659740834 M705.6616906312818,442.58422073362556 L699.5770392542638,439.0862791964301 M699.5101007038336,467.1264272025979 L699.5435662489465,453.1079157164684 M696.4687091729222,465.3772112403978 L699.5101007038336,467.1264272025979 M708.6525338919253,433.8400978619808 L714.7371823998824,437.3374546302484 M708.6525338919253,433.8400978619808 L699.5770392542638,439.0862791964301 M708.6870231527064,419.815922945132 L708.6525338919253,433.8400978619808 M708.6180523180578,447.86114709210375 L708.5835784285348,461.87907168035696 M705.5421883098318,460.1301480662281 L708.5835784285348,461.87907168035696 M569.3280100400407,535.421953501858 L563.2440057827773,531.9148312731331 M563.2440057827773,531.9148312731331 L554.1451998333287,537.1756613863943 M554.1451998333287,537.1756613863943 L560.2292056084314,540.683370736765 M563.2806176193731,503.85080749209686 L563.262309658118,517.8843853679831 M563.262309658118,517.8843853679831 L569.3469939551353,521.3911160676093 M563.2440057827773,531.9148312731331 L563.2257059919837,545.9421462559055 M560.184298332535,544.1885362618136 L563.2257059919837,545.9421462559055 M554.1624897207744,523.1446281875902 L554.1797834681083,509.11046262474025 M560.2471755361389,526.6519460088432 L554.1624897207744,523.1446281875902 M554.1279138044795,551.2035632697301 L554.1451998333287,537.1756613863943 M551.0865054077294,549.449659751676 L554.1279138044795,551.2035632697301 M563.262309658118,517.8843853679831 L554.1624897207744,523.1446281875902 M708.5835784285348,461.87907168035696 L699.5101007038336,467.1264272025979 M563.2257059919837,545.9421462559055 L554.1279138044795,551.2035632697301" stroke="black"  stroke-width="4"  fill="red"/>
<path d="M714.4210098729409,563.4180126068281 L230.267584298107,284.57465703853484 M702.3321097009359,570.4209243846167 L218.1786178934308,291.51559987766683 M714.4210098729409,563.4180126068281 L714.2495838857108,561.845121557857 M714.2495838857108,561.845121557857 L713.7368646798127,560.5670635503853 M713.7368646798127,560.5670635503853 L712.9126219326281,559.6581279560539 M712.9126219326281,559.6581279560539 L711.8247491031577,559.1711572907577 M711.8247491031577,559.1711572907577 L710.5364501432564,559.1344693089009 M710.5364501432564,559.1344693089009 L709.1225977357235,559.550229360723 M709.1225977357235,559.550229360723 L707.6653600345985,560.3942913721944 M707.6653600345985,560.3942913721944 L706.2494465433231,561.617605779632 M706.2494465433231,561.617605779632 L704.957158012264,563.1490821576145 M704.957158012264,563.1490821576145 L703.8636217772769,564.8996867127728 M703.8636217772769,564.8996867127728 L703.03239828716,566.7676741836733 M703.03239828716,566.7676741836733 L702.5118125435308,568.6444490634124 M702.5118125435308,568.6444490634124 L702.3321097009359,570.4209243846167 M230.267584298107,284.57465703853484 L230.08971656075136,283.0045925948321 M230.08971656075136,283.0045925948321 L229.5709277438597,281.72739677309795 M229.5709277438597,281.72739677309795 L228.7413403439474,280.8173086585682 M228.7413403439474,280.8173086585682 L227.64915856260154,280.3272375875504 M227.64915856260154,280.3272375875504 L226.35783684704256,280.28568127845585 M226.35783684704256,280.28568127845585 L224.94242369807998,280.6950878359112 M224.94242369807998,280.6950878359112 L223.48517801211665,281.53168031179507 M223.48517801211665,281.53168031179507 L222.07080975691864,282.7468432771617 M222.07080975691864,282.7468432771617 L220.78152984196367,284.2699600971687 M220.78152984196367,284.2699600971687 L219.69229060715247,286.0124830317853 M219.69229060715247,286.0124830317853 L218.86640270046712,287.87313664004563 M218.86640270046712,287.87313664004563 L218.35188090792903,289.74375188761184 M218.35188090792903,289.74375188761184 L218.1786178934308,291.51559987766683 M702.3321097009359,570.4209243846167 L702.5037302950086,571.9938389372473 M702.5037302950086,571.9938389372473 L703.0166768398781,573.2717811508638 M703.0166768398781,573.2717811508638 L703.8411275789138,574.1804881797779 M703.8411275789138,574.1804881797779 L704.929141403404,574.6671698715786 M704.929141403404,574.6671698715786 L706.2174820624723,574.7035746695728 M706.2174820624723,574.7035746695728 L707.6312673198825,574.2876020998006 M707.6312673198825,574.2876020998006 L709.0883444047406,573.4434469203179 M709.0883444047406,573.4434469203179 L710.5040406094645,572.2201800388302 M710.5040406094645,572.2201800388302 L711.7961049608527,570.6888809940037 M711.7961049608527,570.6888809940037 L712.8894614802791,568.9385429518798 M712.8894614802791,568.9385429518798 L713.7205908886206,567.0708501217425 M713.7205908886206,567.0708501217425 L714.2411897391651,565.1943305103042 M714.2411897391651,565.1943305103042 L714.4210098729409,563.4180126068281 M218.1786178934308,291.51559987766683 L218.3566798981176,293.0856884134101 M218.3566798981176,293.0856884134101 L218.87569510808822,294.3627700798776 M218.87569510808822,294.3627700798776 L219.70548916426367,295.27263194241664 M219.70548916426367,295.27263194241664 L220.7978105213232,295.7624164982087 M220.7978105213232,295.7624164982087 L222.08917275815782,295.80369166341507 M222.08917275815782,295.80369166341507 L223.50451809037182,295.394073742338 M223.50451809037182,295.394073742338 L224.96160315741963,294.5573881026902 M224.96160315741963,294.5573881026902 L226.3757547880014,293.34227151646684 M226.3757547880014,293.34227151646684 L227.66481169816757,291.8193299944672 M227.66481169816757,291.8193299944672 L228.75387263608565,290.07707111563934 M228.75387263608565,290.07707111563934 L229.57966779846197,288.21670983170293 M229.57966779846197,288.21670983170293 L230.09420364777293,286.3463482074905 M230.09420364777293,286.3463482074905 L230.267584298107,284.57465703853484" stroke="black"  stroke-width="4"  fill="red"/>
<path d="M690.2405168236917,577.4253960046541 L206.08697071119502,298.45808189915596 M678.1462303414401,584.4314279881623 L193.9926418595908,305.40210361503875 M690.2405168236917,577.4253960046541 L690.0686941630845,575.8523622687937 M690.0686941630845,575.8523622687937 L689.5554392274737,574.5742637496169 M689.5554392274737,574.5742637496169 L688.730564177192,573.6653855986049 M688.730564177192,573.6653855986049 L687.6419878474871,573.1785735849148 M687.6419878474871,573.1785735849148 L686.3529635474438,573.1421313403569 M686.3529635474438,573.1421313403569 L684.9384032370406,573.5582116127725 M684.9384032370406,573.5582116127725 L683.4805162156117,574.4026497239022 M683.4805162156117,574.4026497239022 L682.0640497378495,575.6263742508577 M682.0640497378495,575.6263742508577 L680.7713367038798,577.158270930596 M680.7713367038798,577.158270930596 L679.6775262482636,578.9092832023885 M679.6775262482636,578.9092832023885 L678.8462032471391,580.7776371881687 M678.8462032471391,580.7776371881687 L678.3256871222461,582.6547226524706 M678.3256871222461,582.6547226524706 L678.1462303414401,584.4314279881623 M206.08697071119502,298.45808189915596 L205.90870664226722,296.88787419127937 M205.90870664226722,296.88787419127937 L205.38938311086903,295.6106360847829 M205.38938311086903,295.6106360847829 L204.55916503764328,294.7006026059006 M204.55916503764328,294.7006026059006 L203.46628190574867,294.2106864489854 M203.46628190574867,294.2106864489854 L202.17423739482243,294.1693714703946 M202.17423739482243,294.1693714703946 L200.75811913495977,294.57909341360835 M200.75811913495977,294.57909341360835 L199.3002270055767,295.4160570072154 M199.3002270055767,295.4160570072154 L197.88530855840088,296.63162525266534 M197.88530855840088,296.63162525266534 L196.59560669016432,298.1551579588321 M196.59560669016432,298.1551579588321 L195.50609539116525,299.89808486031797 M195.50609539116525,299.89808486031797 L194.68010961135113,301.7591021610671 M194.68010961135113,301.7591021610671 L194.1656584615775,303.6300262040677 M194.1656584615775,303.6300262040677 L193.9926418595908,305.40210361503875 M678.1462303414401,584.4314279881623 L678.3182477647579,586.0044851981804 M678.3182477647579,586.0044851981804 L678.8317301949166,587.2824678403747 M678.8317301949166,587.2824678403747 L679.656813354911,588.1911173097842 M679.656813354911,588.1911173097842 L680.7455307340724,588.6776402258356 M680.7455307340724,588.6776402258356 L682.0345967110795,588.7137991839809 M682.0345967110795,588.7137991839809 L683.4490897778721,588.2975063357503 M683.4490897778721,588.2975063357503 L684.9068160396776,587.4529750566855 M684.9068160396776,587.4529750566855 L686.3230650705061,586.22929811368 M686.3230650705061,586.22929811368 L687.6155537841371,584.6975788697348 M687.6155537841371,584.6975788697348 L688.7091844347717,582.9468332348922 M688.7091844347717,582.9468332348922 L689.5404133383531,581.078774006252 M689.5404133383531,581.078774006252 L690.0609426290382,579.2019438931752 M690.0609426290382,579.2019438931752 L690.2405168236917,577.4253960046541 M193.9926418595908,305.40210361503875 L194.17110035056848,306.97233538637556 M194.17110035056848,306.97233538637556 L194.6906504292756,308.2494592559866 M194.6906504292756,308.2494592559866 L195.52107527539985,309.15926636842755 M195.52107527539985,309.15926636842755 L196.61409803661059,309.64889588755057 M196.61409803661059,309.64889588755057 L197.90618304636507,309.68992962075134 M197.90618304636507,309.68992962075134 L199.3222333963904,309.27999625633413 M199.3222333963904,309.27999625633413 L200.77996476445313,308.4429394984928 M200.77996476445313,308.4429394984928 L202.1946664279156,307.22741768893457 M202.1946664279156,307.22741768893457 L203.48414515202091,305.7040603817423 M203.48414515202091,305.7040603817423 L204.57347806576936,303.96139765825194 M204.57347806576936,303.96139765825194 L205.39937108605818,302.10067279685745 M205.39937108605818,302.10067279685745 L205.91383635140446,300.2300024594449 M205.91383635140446,300.2300024594449 L206.08697071119502,298.45808189915596" stroke="black"  stroke-width="4"  fill="red"/>
<path d="M666.0492493540128,591.4390208565951 L181.89563044641372,312.34766553757925 M653.9495729608393,598.4481751316384 L169.7959355790633,319.29476817926854 M666.0492493540128,591.4390208565951 L665.8770253567316,589.8658469691841 M665.8770253567316,589.8658469691841 L665.3632385915914,588.5877055227112 M665.3632385915914,588.5877055227112 L664.5377278718177,587.6788866273694 M664.5377278718177,587.6788866273694 L663.4484504074965,587.1922317841313 M663.4484504074965,587.1922317841313 L662.1587016911135,587.1560346640695 M662.1587016911135,587.1560346640695 L660.7434301023668,587.5724370722053 M660.7434301023668,587.5724370722053 L659.2848962114956,588.4172498634044 M659.2848962114956,588.4172498634044 L657.8678735099045,589.6413864250446 M657.8678735099045,589.6413864250446 L656.5747371654779,591.1737027935694 M656.5747371654779,591.1737027935694 L655.480655238518,592.9251213004052 M655.480655238518,592.9251213004052 L654.6492298350879,594.7938436134725 M654.6492298350879,594.7938436134725 L654.1287877703878,596.6712372459203 M654.1287877703878,596.6712372459203 L653.9495729608393,598.4481751316384 M181.89563044641372,312.34766553757925 L181.71696538496317,310.7773170770708 M181.71696538496317,310.7773170770708 L181.19711104241654,309.5000342897885 M181.19711104241654,309.5000342897885 L180.36625893322417,308.59005724070767 M180.36625893322417,308.59005724070767 L179.27267682056234,308.10029452746664 M179.27267682056234,308.10029452746664 L177.97991044236545,308.05922026953795 M177.97991044236545,308.05922026953795 L176.56308370031337,308.46925949427686 M176.56308370031337,308.46925949427686 L175.1045475822167,309.3065927963809 M175.1045475822167,309.3065927963809 L173.68907570898764,310.522568218247 M173.68907570898764,310.522568218247 L172.39895308243428,312.04651620159035 M172.39895308243428,312.04651620159035 L171.3091724701498,313.78984560054494 M171.3091724701498,313.78984560054494 L170.48308592649707,315.65122838980403 M170.48308592649707,315.65122838980403 L169.968709860528,317.5224588334568 M169.968709860528,317.5224588334568 L169.7959355790633,319.29476817926854 M653.9495729608393,598.4481751316384 L654.1219918776701,600.02137246305 M654.1219918776701,600.02137246305 L654.6360062922545,601.2993979499447 M654.6360062922545,601.2993979499447 L655.4617252399678,602.2079880470101 M655.4617252399678,602.2079880470101 L656.5511438079434,602.6943536687882 M656.5511438079434,602.6943536687882 L657.8409341790809,602.7302673999873 M657.8409341790809,602.7302673999873 L659.2561384304672,602.3136523578904 M659.2561384304672,602.3136523578904 L660.7145114185337,601.4687463990449 M660.7145114185337,601.4687463990449 L662.1313165121965,600.2446574793275 M662.1313165121965,600.2446574793275 L663.4242283957597,598.7125186493377 M663.4242283957597,598.7125186493377 L664.5181304289451,596.9613669032981 M664.5181304289451,596.9613669032981 L665.3494617183769,595.0929394639711 M665.3494617183769,595.0929394639711 L665.8699170088726,593.2158012652322 M665.8699170088726,593.2158012652322 L666.0492493540128,591.4390208565951 M169.7959355790633,319.29476817926854 L169.97479521824792,320.86514067400987 M169.97479521824792,320.86514067400987 L170.4948762616548,322.142309143315 M170.4948762616548,322.142309143315 L171.3259352607417,323.0520597110199 M171.3259352607417,323.0520597110199 L172.41965705608578,323.541535664222 M172.41965705608578,323.541535664222 L173.71246391065807,323.58232857535853 M173.71246391065807,323.58232857535853 L175.1292226495233,323.17207787155405 M175.1292226495233,323.17207787155405 L176.58759786407097,322.3346514049564 M176.58759786407097,322.3346514049564 L178.00285279388063,321.11872247570057 M178.00285279388063,321.11872247570057 L179.29275213710395,319.5949499924035 M179.29275213710395,319.5949499924035 L180.3823542764068,317.85188489358404 M180.3823542764068,317.85188489358404 L181.2083480446338,315.99079465892885 M181.2083480446338,315.99079465892885 L181.72273828609647,314.1198180026645 M181.72273828609647,314.1198180026645 L181.89563044641372,312.34766553757925" stroke="black"  stroke-width="4"  fill="red"/>
<path d="M641.847200260949,605.4588913352111 L157.69355636454316,326.24341205282497 M629.7421303529684,612.4711699894642 L145.58849190946069,333.19359767119477 M641.847200260949,605.4588913352111 L641.6745762433591,603.8855763676434 M641.6745762433591,603.8855763676434 L641.1602552077356,602.6073932513993 M641.1602552077356,602.6073932513993 L640.3341081533188,601.6986338593074 M640.3341081533188,601.6986338593074 L639.2441299393004,601.212135852601 M639.2441299393004,601.212135852601 L637.9536541242055,601.1761853329672 M637.9536541242055,601.1761853329672 L636.5376747319556,601.592907824069 M636.5376747319556,601.592907824069 L635.0784892103918,602.4380980531512 M635.0784892103918,602.4380980531512 L633.6609142592279,603.6626443875509 M633.6609142592279,603.6626443875509 L632.3673521905966,605.1953819207442 M632.3673521905966,605.1953819207442 L631.272999380521,606.9472064328811 M631.272999380521,606.9472064328811 L630.4414708444663,608.8162976340061 M630.4414708444663,608.8162976340061 L629.921101514486,610.6940003588909 M629.921101514486,610.6940003588909 L629.7421303529684,612.4711699894642 M157.69355636454316,326.24341205282497 L157.51449162931155,324.67292191793763 M157.51449162931155,324.67292191793763 L156.9941040378158,323.39559569444907 M156.9941040378158,323.39559569444907 L156.16261723127175,322.4856753183964 M156.16261723127175,322.4856753183964 L155.0683365269136,321.9960657154828 M155.0683365269136,321.9960657154828 L153.77484560336674,321.9552336386147 M153.77484560336674,321.9552336386147 L152.357313858169,322.3655881078886 M152.357313858169,322.3655881078886 L150.89812899394528,323.2032938496807 M150.89812899394528,323.2032938496807 L149.48210767220164,324.419674204182 M149.48210767220164,324.419674204182 L148.1915618760919,325.94403892607437 M148.1915618760919,325.94403892607437 L147.10151254035384,327.68777059386844 M147.10151254035384,327.68777059386844 L146.27532450314638,329.5495194270955 M146.27532450314638,329.5495194270955 L145.76102219507084,331.4210571877579 M145.76102219507084,331.4210571877579 L145.58849190946069,333.19359767119477 M629.7421303529684,612.4711699894642 L629.9149496610055,614.044508246963 M629.9149496610055,614.044508246963 L630.4294979264691,615.3225756537789 M630.4294979264691,615.3225756537789 L631.2558538683188,616.2311058172969 M631.2558538683188,616.2311058172969 L632.3459734205353,616.7173143742623 M632.3459734205353,616.7173143742623 L633.6364908680898,616.7529814022978 M633.6364908680898,616.7529814022978 L635.0524024685958,616.3360464284387 M635.0524024685958,616.3360464284387 L636.5114269435517,615.49076303175 M636.5114269435517,615.49076303175 L637.9287844870626,614.2662641884601 M637.9287844870626,614.2662641884601 L639.2221219537817,612.733704296604 M639.2221219537817,612.733704296604 L640.3162946010359,610.982146773649 M640.3162946010359,610.982146773649 L641.1477284653984,609.1133508764249 M641.1477284653984,609.1133508764249 L641.6681116557916,607.2359033348872 M641.6681116557916,607.2359033348872 L641.847200260949,605.4588913352111 M145.58849190946069,333.19359767119477 L145.7677515921686,334.764111688273 M145.7677515921686,334.764111688273 L146.28836546357263,336.0413238424931 M146.28836546357263,336.0413238424931 L147.1200598182727,336.95101731139016 M147.1200598182727,336.95101731139016 L148.21448043902402,337.44033992848404 M148.21448043902402,337.44033992848404 L149.50801181640762,337.4808905568743 M149.50801181640762,337.4808905568743 L150.9254751044368,337.07032475817044 M150.9254751044368,337.07032475817044 L152.38449892226333,336.23252585137584 M152.38449892226333,336.23252585137584 L153.80030350215097,335.0161918392686 M153.80030350215097,335.0161918392686 L155.09062587521083,333.49200271855034 M155.09062587521083,333.49200271855034 L156.1804964699833,331.7485355766447 M156.1804964699833,331.7485355766447 L157.00659117462556,329.8870797240539 M157.00659117462556,329.8870797240539 L157.52090829273095,328.01579550268065 M157.52090829273095,328.01579550268065 L157.69355636454316,326.24341205282497" stroke="black"  stroke-width="4"  fill="red"/>
<path d="M617.6343623351231,619.485011616782 L133.48074132002677,340.1453255475516 M605.5238953052367,626.5004167397813 L121.37030370205548,347.09859619529686 M617.6343623351231,619.485011616782 L617.4613389726428,617.9115550116217 M617.4613389726428,617.9115550116217 L616.9464829479841,616.6333304853074 M616.9464829479841,616.6333304853074 L616.1196994344571,615.7246305307809 M616.1196994344571,615.7246305307809 L615.0290181495786,615.2382905940763 M615.0290181495786,615.2382905940763 L613.7378147155428,615.2025868983765 M613.7378147155428,615.2025868983765 L612.321127751105,615.6196292983834 M612.321127751105,615.6196292983834 L610.8612901627023,616.4651972179738 M610.8612901627023,616.4651972179738 L609.4431626103151,617.6901535688964 M609.4431626103151,617.6901535688964 L608.1491745663479,619.223312490052 M608.1491745663479,619.223312490052 L607.054549296472,620.9755440318299 M607.054549296472,620.9755440318299 L606.2229190623073,622.8450034279128 M606.2229190623073,622.8450034279128 L605.7026211397792,624.7230161706702 M605.7026211397792,624.7230161706702 L605.5238953052367,626.5004167397813 M133.48074132002677,340.1453255475516 L133.30127758880337,338.57469318442463 M133.30127758880337,338.57469318442463 L132.7803560329744,337.2973237803144 M132.7803560329744,337.2973237803144 L131.94823440838218,336.38746001002295 M131.94823440838218,336.38746001002295 L130.85325279532327,335.89800473759806 M130.85325279532327,335.89800473759806 L129.55903681050415,335.85741506084577 M129.55903681050415,335.85741506084577 L128.14080029767013,336.2680845997276 M128.14080029767013,336.2680845997276 L126.68096625502972,337.1061630293816 M126.68096625502972,337.1061630293816 L125.2643951363944,338.32294855624343 M125.2643951363944,338.32294855624343 L123.97342592211487,339.84773023655555 M123.97342592211487,339.84773023655555 L122.88310628784541,341.59186518753535 M122.88310628784541,341.59186518753535 L122.05681819219978,343.4539793774209 M122.05681819219978,343.4539793774209 L121.54258831431895,345.32582537258054 M121.54258831431895,345.32582537258054 L121.37030370205548,347.09859619529686 M605.5238953052367,626.5004167397813 L605.6971139005786,628.0738967290954 M605.6971139005786,628.0738967290954 L606.2121978857142,629.3520051298033 M606.2121978857142,629.3520051298033 L607.0391898639214,630.2604760524409 M607.0391898639214,630.2604760524409 L608.1300123609428,630.7465265198051 M608.1300123609428,630.7465265198051 L609.4212574050796,630.7819466211251 M609.4212574050796,630.7819466211251 L610.8378768448117,630.3646914716246 M610.8378768448117,630.3646914716246 L612.2975532426592,629.5190303844957 M612.2975532426592,629.5190303844957 L613.7154628660658,628.2941217919035 M613.7154628660658,628.2941217919035 L615.0092261669636,626.7611406149585 M615.0092261669636,626.7611406149585 L616.1036713652829,625.009176081928 M616.1036713652829,625.009176081928 L616.9352074525582,623.1400117929902 M616.9352074525582,623.1400117929902 L617.455518720064,621.2622546494883 M617.455518720064,621.2622546494883 L617.6343623351231,619.485011616782 M121.37030370205548,347.09859619529686 L121.54996232201319,348.6692525346664 M121.54996232201319,348.6692525346664 L122.0711108870359,349.94650745779063 M122.0711108870359,349.94650745779063 L122.90343963579897,350.8561445165781 M122.90343963579897,350.8561445165781 L123.99856103836186,351.34531278423674 M123.99856103836186,351.34531278423674 L125.29281745441568,351.3856209107806 M125.29281745441568,351.3856209107806 L126.71098577752247,350.97473977786484 M126.71098577752247,350.97473977786484 L128.1706586307747,350.1365681827265 M128.1706586307747,350.1365681827265 L129.5870124875176,348.9198292623731 M129.5870124875176,348.9198292623731 L130.8777581389199,347.39522328443365 M130.8777581389199,347.39522328443365 L131.9678991245533,345.6513528781222 M131.9678991245533,345.6513528781222 L132.79409441299083,343.78953147354036 M132.79409441299083,343.78953147354036 L133.30833858538563,341.9179394299407 M133.30833858538563,341.9179394299407 L133.48074132002677,340.1453255475516" stroke="black"  stroke-width="4"  fill="red"/>
<path d="M593.4107283607295,633.5173858813118 L109.25717816096392,354.05341012805985 M581.2948605986207,640.5359195644573 L97.14136380177229,361.0097678596981 M593.4107283607295,633.5173858813118 L593.2373011961663,631.9437900541743 M593.2373011961663,631.9437900541743 L592.7219135135879,630.6655220315237 M592.7219135135879,630.6655220315237 L591.8944899863684,629.7568834356381 M591.8944899863684,629.7568834356381 L590.8031089030965,629.2706995622775 M590.8031089030965,629.2706995622775 L589.5111780516147,629.2352424959338 M589.5111780516147,629.2352424959338 L588.093781219206,629.6526060945125 M588.093781219206,629.6526060945125 L586.6332925718325,630.4985511208329 M586.6332925718325,630.4985511208329 L585.2146106218268,631.7239185688973 M585.2146106218268,631.7239185688973 L583.9201970734107,633.2574986831504 M583.9201970734107,633.2574986831504 L582.8253028207635,635.010135351662 M582.8253028207635,635.010135351662 L581.993567269212,636.8799651770626 M581.993567269212,636.8799651770626 L581.4733452030687,638.7582855172586 M581.4733452030687,638.7582855172586 L581.2948605986207,640.5359195644573 M109.25717816096392,354.05341012805985 L109.0773109789464,352.482637929549 M109.0773109789464,352.482637929549 L108.55585879305772,351.2052232752122 M108.55585879305772,351.2052232752122 L107.72309879962347,350.2954180125731 M107.72309879962347,350.2954180125731 L106.62741955448337,349.80611507936516 M106.62741955448337,349.80611507936516 L105.33247871419707,349.7657676074 M105.33247871419707,349.7657676074 L103.91353514214927,350.1767534917226 M103.91353514214927,350.1767534917226 L102.45305293281604,351.0152040284163 M102.45305293281604,351.0152040284163 L101.03593022417692,352.2323957968032 M101.03593022417692,352.2323957968032 L99.74453806513287,353.75759424094935 M99.74453806513287,353.75759424094935 L98.65395161095381,355.5021305881412 M98.65395161095381,355.5021305881412 L97.82755983821033,357.36461234890453 M97.82755983821033,357.36461234890453 L97.31340683900476,359.2367641798168 M97.31340683900476,359.2367641798168 L97.14136380177229,361.0097678596981 M581.2948605986207,640.5359195644573 L581.4684831536142,642.1095387452468 M581.4684831536142,642.1095387452468 L581.9840989517106,643.3876905596703 M581.9840989517106,643.3876905596703 L582.8117310623938,644.2961000063267 M582.8117310623938,644.2961000063267 L583.9032534118296,644.7819942866893 M583.9032534118296,644.7819942866893 L585.1952258510403,644.8171676558918 M585.1952258510403,644.8171676558918 L586.6125550648346,644.3995912498988 M586.6125550648346,644.3995912498988 L588.0728823777204,643.5535530562279 M588.0728823777204,643.5535530562279 L589.4913462377629,642.3282334247481 M589.4913462377629,642.3282334247481 L590.7855349019555,640.7948311576806 M590.7855349019555,640.7948311576806 L591.8802489947532,639.0424616218652 M591.8802489947532,639.0424616218652 L592.7118903822834,637.1729270205706 M592.7118903822834,637.1729270205706 L593.2321258539869,635.2948623620578 M593.2321258539869,635.2948623620578 L593.4107283607295,633.5173858813118 M97.14136380177229,361.0097678596981 L97.32142602893077,362.58056400488545 M97.32142602893077,362.58056400488545 L97.84310537770534,363.8578640971222 M97.84310537770534,363.8578640971222 L98.67607261285758,364.7674425326652 M98.67607261285758,364.7674425326652 L99.77189170069062,365.2564583390244 M99.77189170069062,365.2564583390244 L101.06687294959642,365.2965241590707 M101.06687294959642,365.2965241590707 L102.48574823841204,364.8853266230757 M102.48574823841204,364.8853266230757 L103.94606911538273,364.04678292053495 M103.94606911538273,364.04678292053495 L105.36297440243982,362.8296378156526 M105.36297440243982,362.8296378156526 L106.65414285878455,361.3046151751777 M106.65414285878455,361.3046151751777 L107.7445505770973,359.5603434948953 M107.7445505770973,359.5603434948953 L108.57084952605794,357.69815463503875 M108.57084952605794,357.69815463503875 L109.08501688027457,355.8262568374324 M109.08501688027457,355.8262568374324 L109.25717816096392,354.05341012805985" stroke="black"  stroke-width="4"  fill="red"/>
<path d="M-18.046787011362312,210.70895519016557 L-18.093148759910093,196.70517579911177 M599.9374494893793,567.0248452592408 L599.9598759175256,552.9810773929789 M-18.046787011362312,210.70895519016557 L599.9374494893793,567.0248452592408 M-18.093148759910093,196.70517579911177 L599.9598759175256,552.9810773929789 M818.0464451842881,440.8035615719517 L818.09314875991,426.7739076212633 M599.9374494893793,567.0248452592408 L818.0464451842881,440.8035615719517 M599.9598759175256,552.9810773929789 L818.09314875991,426.7739076212633 M200.0622261431146,85.91247016015188 L200.04014154981758,71.92280304320235 M818.0464451842881,440.8035615719517 L200.0622261431146,85.91247016015188 M818.09314875991,426.7739076212633 L200.04014154981758,71.92280304320235 M200.0622261431146,85.91247016015188 L-18.046787011362312,210.70895519016557 M200.04014154981758,71.92280304320235 L-18.093148759910093,196.70517579911177" stroke="black"  stroke-width="4"  fill="red"/>
<path d="M569.3280100400407,535.421953501858 L569.3469939551353,521.3911160676093 M569.3469939551353,521.3911160676093 L560.2471755361389,526.6519460088432 M560.2292056084314,540.683370736765 L560.2471755361389,526.6519460088432 M569.3280100400407,535.421953501858 L560.2292056084314,540.683370736765 M90.8085828506787,273.5566322827512 L90.77431547131732,259.5598355790027 M90.77431547131732,259.5598355790027 L84.74359362883524,256.0834279805408 M84.70865045803919,242.08391220983086 L84.74359362883524,256.0834279805408 M84.70865045803919,242.08391220983086 L90.74004047655956,245.55992830317712 M90.74004047655956,245.55992830317712 L90.70575786386678,231.55690941824443 M563.2806176193731,503.85080749209686 L90.70575786386678,231.55690941824443 M563.2806176193731,503.85080749209686 L563.262309658118,517.8843853679831 M563.262309658118,517.8843853679831 L569.3469939551353,521.3911160676093 M569.3280100400407,535.421953501858 L563.2440057827773,531.9148312731331 M563.2440057827773,531.9148312731331 L563.2257059919837,545.9421462559055 M90.8085828506787,273.5566322827512 L563.2257059919837,545.9421462559055 M560.2471755361389,526.6519460088432 L554.1624897207744,523.1446281875902 M563.262309658118,517.8843853679831 L554.1624897207744,523.1446281875902 M75.60888915259534,247.2980811959249 L75.64484629174603,261.29818422452684 M81.64027624424943,250.77467671380947 L75.60888915259534,247.2980811959249 M81.60497943620862,236.77107018021417 L81.64027624424943,250.77467671380947 M554.1797834681083,509.11046262474025 L81.60497943620862,236.77107018021417 M554.1624897207744,523.1446281875902 L554.1797834681083,509.11046262474025 M554.1451998333287,537.1756613863943 L560.2292056084314,540.683370736765 M554.1279138044795,551.2035632697301 L554.1451998333287,537.1756613863943 M81.71084633108637,278.7725548212242 L554.1279138044795,551.2035632697301 M81.67556520833728,264.7751712483973 L81.71084633108637,278.7725548212242 M75.64484629174603,261.29818422452684 L81.67556520833728,264.7751712483973 M563.2440057827773,531.9148312731331 L554.1451998333287,537.1756613863943 M90.77431547131732,259.5598355790027 L81.67556520833728,264.7751712483973 M90.8085828506787,273.5566322827512 L81.71084633108637,278.7725548212242 M84.74359362883524,256.0834279805408 L75.64484629174603,261.29818422452684 M84.70865045803919,242.08391220983086 L75.60888915259534,247.2980811959249 M90.74004047655956,245.55992830317712 L81.64027624424943,250.77467671380947 M90.70575786386678,231.55690941824443 L81.60497943620862,236.77107018021417 M563.2806176193731,503.85080749209686 L554.1797834681083,509.11046262474025 M563.2257059919837,545.9421462559055 L554.1279138044795,551.2035632697301" stroke="black"  stroke-width="4"  fill="red"/>
<path d="M714.7020207982323,451.3588953869341 L714.7371823998824,437.3374546302484 M714.7371823998824,437.3374546302484 L705.6616906312818,442.58422073362556 M705.6275375972225,456.60624878050754 L705.6616906312818,442.58422073362556 M714.7020207982323,451.3588953869341 L705.6275375972225,456.60624878050754 M236.1664606627966,190.21992216896808 L236.14836738455745,176.23251518509 M236.14836738455745,176.23251518509 L230.1176102193363,172.76535872957476 M230.09884473769253,158.77523888873583 L230.1176102193363,172.76535872957476 M230.09884473769253,158.77523888873583 L236.1302700907208,162.24200385521317 M236.1302700907208,162.24200385521317 L236.11216877994983,148.24838714576134 M708.6870231527064,419.815922945132 L236.11216877994983,148.24838714576134 M708.6870231527064,419.815922945132 L708.6525338919253,433.8400978619808 M708.6525338919253,433.8400978619808 L714.7371823998824,437.3374546302484 M714.7020207982323,451.3588953869341 L708.6180523180578,447.86114709210375 M708.6180523180578,447.86114709210375 L708.5835784285348,461.87907168035696 M236.1664606627966,190.21992216896808 L708.5835784285348,461.87907168035696 M705.6616906312818,442.58422073362556 L699.5770392542638,439.0862791964301 M708.6525338919253,433.8400978619808 L699.5770392542638,439.0862791964301 M221.02330202360676,163.9755306066568 L221.0430760898799,177.96623768133452 M227.05472580047967,167.4428726859809 L221.02330202360676,163.9755306066568 M227.0356156803329,153.4486683527104 L227.05472580047967,167.4428726859809 M699.6105197222805,425.06151659740834 L227.0356156803329,153.4486683527104 M699.5770392542638,439.0862791964301 L699.6105197222805,425.06151659740834 M699.5435662489465,453.1079157164684 L705.6275375972225,456.60624878050754 M699.5101007038336,467.1264272025979 L699.5435662489465,453.1079157164684 M227.09293331871612,195.42196508101787 L699.5101007038336,467.1264272025979 M227.07383167947023,181.43397125081964 L227.09293331871612,195.42196508101787 M221.0430760898799,177.96623768133452 L227.07383167947023,181.43397125081964 M708.6180523180578,447.86114709210375 L699.5435662489465,453.1079157164684 M236.14836738455745,176.23251518509 L227.07383167947023,181.43397125081964 M236.1664606627966,190.21992216896808 L227.09293331871612,195.42196508101787 M230.1176102193363,172.76535872957476 L221.0430760898799,177.96623768133452 M230.09884473769253,158.77523888873583 L221.02330202360676,163.9755306066568 M236.1302700907208,162.24200385521317 L227.05472580047967,167.4428726859809 M236.11216877994983,148.24838714576134 L227.0356156803329,153.4486683527104 M708.6870231527064,419.815922945132 L699.6105197222805,425.06151659740834 M708.5835784285348,461.87907168035696 L699.5101007038336,467.1264272025979" stroke="black"  stroke-width="4"  fill="red"/></svg>