<svg version="1.1" xmlns="http://www.w3.org/2000/svg" viewBox="-17.955392461574156 -15.457857192770806 35.91078492314831 29.6873867565452" fill="none" stroke="black" stroke-width="0.6%" vector-effect="non-scaling-stroke">
    <path d="M -0.02521 0.98787 L -0.02521 0.02573 L 16.95539 -12.79176 L 0.02521 -14.45786 L -16.95539 -1.64037 L -0.02521 0.02573" />
    <path d="M 16.95539 -11.82962 L 16.95539 -12.79176" />
    <path d="M -0.02521 0.98787 L 16.95539 -11.82962" />
    <path d="M -16.95539 -0.67823 L -16.95539 -1.64037" />
    <path d="M -16.95539 -0.67823 L -0.02521 0.98787" />
    <path d="M 0.262 8.22656 L 0.262 0.77107" />
    <path d="M 0.262 13.03727 L 0.262 8.22656" />
    <path d="M -12.18001 11.81285 A 6.25 5.65599 232.95336 0 1 -10.6835 9.85812" />
    <path d="M -14.10119 -0.39735 L -14.10119 11.84112 L -12.43472 12.00511 A 6.25 5.65599 232.95336 0 1 -10.81236 9.95227 A 6.25 5.65599 232.95336 0 1 -9.41539 9.20387" />
    <path d="M 0.00729 8.41882 L 0.00729 0.96333" />
    <path d="M 0.00729 13.22953 L 0.00729 8.41882 A 0.5 0.45248 232.95336 0 1 -0.16176 8.77161" />
    <path d="M -1.65918 13.06553 L 0.00729 13.22953" />
    <path d="M -9.11203 9.10732 A 6.25 5.65599 232.95336 0 1 -8.01709 8.91427" />
    <path d="M -6.78853 8.95853 A 6.25 5.65599 232.95336 0 1 -6.13695 9.08933" />
    <path d="M -5.24129 9.39569 A 6.25 5.65599 232.95336 0 1 -1.65918 13.06553" />
    <path d="M -10.16988 7.04786 A 0.5 0.45248 232.95336 0 1 -9.56741 7.846" />
    <path d="M -8.28875 7.23298 A 0.5 0.45248 232.95336 0 1 -7.68628 8.03112" />
    <path d="M -6.40762 7.4181 A 0.5 0.45248 232.95336 0 1 -5.80515 8.21625" />
    <path d="M -4.52649 7.60322 A 0.5 0.45248 232.95336 0 1 -3.92402 8.40137" />
    <path d="M -2.64535 7.78834 A 0.5 0.45248 232.95336 0 1 -2.04289 8.58649" />
    <path d="M -0.76422 7.97347 A 0.5 0.45248 232.95336 0 1 0.00729 8.41882" />
    <path d="M 0.262 13.03727 L 0.00729 13.22953" />
    <path d="M 13.84648 -2.02743 L 13.84648 -9.48292" />
    <path d="M 13.84648 2.78328 L 13.84648 -2.02743" />
    <path d="M 1.43027 1.50182 A 6.25 5.65599 232.95336 0 1 1.74823 0.90966" />
    <path d="M 13.59177 -1.83517 L 13.59177 -9.29066" />
    <path d="M 13.59177 2.97554 L 13.59177 -1.83517 A 0.5 0.45248 232.95336 0 1 13.42272 -1.48238" />
    <path d="M 11.9253 2.81154 L 13.59177 2.97554" />
    <path d="M 1.17556 1.69408 A 6.25 5.65599 232.95336 0 1 1.49352 1.10192" />
    <path d="M 4.47245 -1.14667 A 6.25 5.65599 232.95336 0 1 5.12908 -1.29016" />
    <path d="M 6.79595 -1.29546 A 6.25 5.65599 232.95336 0 1 7.17405 -1.22871" />
    <path d="M 8.34319 -0.8583 A 6.25 5.65599 232.95336 0 1 8.63345 -0.72525" />
    <path d="M 9.56123 -0.17267 A 6.25 5.65599 232.95336 0 1 9.79598 0.00229" />
    <path d="M 10.54958 0.68636 A 6.25 5.65599 232.95336 0 1 11.9253 2.81154" />
    <path d="M 0.69301 1.70617 L 1.10573 1.74679" />
    <path d="M 5.29573 -3.02101 A 0.5 0.45248 232.95336 0 1 5.8982 -2.22287" />
    <path d="M 7.17686 -2.83589 A 0.5 0.45248 232.95336 0 1 7.77933 -2.03774" />
    <path d="M 9.058 -2.65077 A 0.5 0.45248 232.95336 0 1 9.66046 -1.85262" />
    <path d="M 10.93913 -2.46565 A 0.5 0.45248 232.95336 0 1 11.54159 -1.6675" />
    <path d="M 12.82026 -2.28053 A 0.5 0.45248 232.95336 0 1 13.59177 -1.83517" />
    <path d="M 13.84648 2.78328 L 13.59177 2.97554" />
    <path d="M -12.18001 11.81285 L -12.43472 12.00511" />
    <path d="M -11.78228 8.49014 A 0.5 0.45248 232.95336 0 1 -11.61323 8.13734 L -10.16988 7.04786" />
    <path d="M -11.61323 8.13734 A 0.5 0.45248 232.95336 0 1 -11.01077 8.93549 L -9.56741 7.846" />
    <path d="M -11.01077 8.93549 A 0.5 0.45248 232.95336 0 1 -11.78228 8.49014" />
    <path d="M -9.90115 8.67526 A 0.5 0.45248 232.95336 0 1 -9.7321 8.32247 L -8.28875 7.23298" />
    <path d="M -9.7321 8.32247 A 0.5 0.45248 232.95336 0 1 -9.12963 9.12061 L -7.68628 8.03112" />
    <path d="M -9.12963 9.12061 A 0.5 0.45248 232.95336 0 1 -9.90115 8.67526" />
    <path d="M -8.02002 8.86038 A 0.5 0.45248 232.95336 0 1 -7.85097 8.50759 L -6.40762 7.4181" />
    <path d="M -7.85097 8.50759 A 0.5 0.45248 232.95336 0 1 -7.2485 9.30573 L -5.80515 8.21625" />
    <path d="M -7.2485 9.30573 A 0.5 0.45248 232.95336 0 1 -8.02002 8.86038" />
    <path d="M -6.13889 9.0455 A 0.5 0.45248 232.95336 0 1 -5.96984 8.69271 L -4.52649 7.60322" />
    <path d="M -5.96984 8.69271 A 0.5 0.45248 232.95336 0 1 -5.36737 9.49085 L -3.92402 8.40137" />
    <path d="M -5.36737 9.49085 A 0.5 0.45248 232.95336 0 1 -6.13889 9.0455" />
    <path d="M -4.25776 9.23062 A 0.5 0.45248 232.95336 0 1 -4.08871 8.87783 L -2.64535 7.78834" />
    <path d="M -4.08871 8.87783 A 0.5 0.45248 232.95336 0 1 -3.48624 9.67598 L -2.04289 8.58649" />
    <path d="M -3.48624 9.67598 A 0.5 0.45248 232.95336 0 1 -4.25776 9.23062" />
    <path d="M -2.37662 9.41574 A 0.5 0.45248 232.95336 0 1 -2.20757 9.06295 L -0.76422 7.97347" />
    <path d="M -2.20757 9.06295 A 0.5 0.45248 232.95336 0 1 -1.60511 9.8611 L -0.16176 8.77161" />
    <path d="M -1.60511 9.8611 A 0.5 0.45248 232.95336 0 1 -2.37662 9.41574" />
    <path d="M 15.37549 -2.95639 A 0.5 0.45248 52.95336 1 0 14.77303 -3.75454" />
    <path d="M 0.262 2.03151 L 5.8982 -2.22287" />
    <path d="M 0.262 0.77861 L 5.29573 -3.02101" />
    <path d="M 0.262 3.63657 L 7.77933 -2.03774" />
    <path d="M 0.262 2.38367 L 7.17686 -2.83589" />
    <path d="M 0.262 5.24163 L 9.66046 -1.85262" />
    <path d="M 0.262 3.98872 L 9.058 -2.65077" />
    <path d="M 0.262 6.84669 L 11.54159 -1.6675" />
    <path d="M 0.262 5.59378 L 10.93913 -2.46565" />
    <path d="M 0.262 8.45174 L 13.42272 -1.48238" />
    <path d="M 0.262 7.19884 L 12.82026 -2.28053" />
    <path d="M 13.84648 -1.80225 L 15.37549 -2.95639" />
    <path d="M 13.84648 -3.05515 L 14.77303 -3.75454" />
</svg>