<svg viewBox="0 0 800 800" xmlns="http://www.w3.org/2000/svg"><path d="M365.40123254475435,391.86186268874246 L363.4941865736332,390.76222894916754 M336.1436350592113,408.68179255067537 L334.23659965380665,407.57936182040714 M365.40123254475435,391.86186268874246 L363.5399094262699,389.24925223689087 M363.5399094262699,389.24925223689087 L360.99564854479047,387.6191777636981 M360.99564854479047,387.6191777636981 L357.9041871355446,387.05955573034686 M357.9041871355446,387.05955573034686 L354.4307650707244,387.6010621455484 M354.4307650707244,387.6010621455484 L350.76131977542485,389.215339273519 M350.76131977542485,389.215339273519 L347.09252626826003,391.81638240963355 M347.09252626826003,391.81638240963355 L343.62120910300774,395.2650591923424 M343.62120910300774,395.2650591923424 L340.5337071779039,399.3765423092164 M340.5337071779039,399.3765423092164 L337.9957832339271,403.9302544796965 M337.9957832339271,403.9302544796965 L336.1436350592113,408.68179255067537 M363.4941865736332,390.76222894916754 L361.6326003249212,388.1495947129452 M361.6326003249212,388.1495947129452 L359.088118815179,386.51940660256207 M359.088118815179,386.51940660256207 L355.99649115336933,385.9595870455919 M355.99649115336933,385.9595870455919 L352.5229661698938,386.5008225160035 M352.5229661698938,386.5008225160035 L348.8534868401277,388.11476970392584 M348.8534868401277,388.11476970392584 L345.1847300191103,390.7154415350808 M345.1847300191103,390.7154415350808 L341.71351828160726,394.16372554503585 M341.71351828160726,394.16372554503585 L338.6261848407187,398.27481551492394 M338.6261848407187,398.27481551492394 L336.0884833594049,402.82815530996714 M336.0884833594049,402.82815530996714 L334.23659965380665,407.57936182040714 M369.9193969128952,389.2644105973886 L368.0123498610286,388.1652084721781 M369.9193969128952,389.2644105973886 L365.40123254475435,391.86186268874246 M368.0123498610286,388.1652084721781 L363.4941865736332,390.76222894916754 M331.61219796313674,411.28687501403874 L329.70516474688003,410.18401076619966 M336.1436350592113,408.68179255067537 L331.61219796313674,411.28687501403874 M334.23659965380665,407.57936182040714 L329.70516474688003,410.18401076619966 M369.86959776617175,345.0231147897064 L369.9193969128952,389.2644105973886 M366.0382318537644,347.2183626937006 L369.86959776617175,345.0231147897064 M366.0494818454183,356.079144059211 L366.0382318537644,347.2183626937006 M364.1339592442449,357.1774140437252 L366.0494818454183,356.079144059211 M364.1339592442449,357.1774140437252 L364.122070481816,348.3162607623404 M335.34131922196394,364.8066940237429 L364.122070481816,348.3162607623404 M335.3628150947782,373.67342616080134 L335.34131922196394,364.8066940237429 M333.4421815251834,374.77462653267065 L335.3628150947782,373.67342616080134 M333.4421815251834,374.77462653267065 L333.420043471473,365.90752246474403 M331.4984473926828,367.0085344434294 L333.420043471473,365.90752246474403 M331.61219796313674,411.28687501403874 L331.4984473926828,367.0085344434294 M363.52358693134727,378.1969336031261 L363.5601899616935,377.8228585124164 M363.5601899616935,377.8228585124164 L363.6688350629929,377.42792653600367 M363.6688350629929,377.42792653600367 L363.8432101763173,377.03509296546537 M363.8432101763173,377.03509296546537 L364.07317762590003,376.6671951675525 M364.07317762590003,376.6671951675525 L364.3453708454559,376.3456153644276 M364.3453708454559,376.3456153644276 L364.6439658708243,376.08904888189113 M364.6439658708243,376.08904888189113 L364.9516067067455,375.9124055407147 M364.9516067067455,375.9124055407147 L365.2504101331507,375.825950305359 M365.2504101331507,375.825950305359 L365.52301073280466,375.8347042040104 M365.52301073280466,375.8347042040104 L365.7535656174826,375.9381515239095 M365.7535656174826,375.9381515239095 L365.92867982641263,376.13027678405246 M365.92867982641263,376.13027678405246 L366.03817813269734,376.3999104938229 M366.03817813269734,376.3999104938229 L366.0757027247766,376.7313797544572 M366.0757027247766,376.7313797544572 L366.03907486151803,377.10542173612356 M366.03907486151803,377.10542173612356 L365.9304267963854,377.5003001633436 M365.9304267963854,377.5003001633436 L365.7560712676617,377.8930720118521 M365.7560712676617,377.8930720118521 L365.52614146411753,378.2609140549934 M365.52614146411753,378.2609140549934 L365.25399532799156,378.58245684277 M365.25399532799156,378.58245684277 L364.95544603712233,378.839013529663 M364.95544603712233,378.839013529663 L364.6478391096652,379.01567653878305 M364.6478391096652,379.01567653878305 L364.34904999754025,379.1021763999059 M364.34904999754025,379.1021763999059 L364.0764408387836,379.0934818618875 M364.0764408387836,379.0934818618875 L363.84585648254466,378.9900950382058 M363.84585648254466,378.9900950382058 L363.6706986409161,378.79801755146207 M363.6706986409161,378.79801755146207 L363.5611525367896,378.5284079475646 M363.5611525367896,378.5284079475646 L363.52358693134727,378.1969336031261 M358.41765718875826,381.12901646729324 L358.4542081999995,380.75489294090755 M358.4542081999995,380.75489294090755 L358.56283839181066,380.35989576728696 M358.56283839181066,380.35989576728696 L358.7372341736618,379.9669854061132 M358.7372341736618,379.9669854061132 L358.9672590675043,379.5990023115635 M358.9672590675043,379.5990023115635 L359.239541376144,379.27733469290285 M359.239541376144,379.27733469290285 L359.5382525641959,379.02068263223777 M359.5382525641959,379.02068263223777 L359.8460298828933,378.84396092443774 M359.8460298828933,378.84396092443774 L360.1449821771133,378.75743908868293 M360.1449821771133,378.75743908868293 L360.417735377008,378.7661420225115 M360.417735377008,378.7661420225115 L360.6484383331382,378.8695566236848 M360.6484383331382,378.8695566236848 L360.8236856907243,379.0616703386538 M360.8236856907243,379.0616703386538 L360.93329688527086,379.3313129682899 M360.93329688527086,379.3313129682899 L360.9709051487752,379.66281247136055 M360.9709051487752,379.66281247136055 L360.93432927886994,380.0369028824582 M360.93432927886994,380.0369028824582 L360.82569611081203,380.4318464895229 M360.82569611081203,380.4318464895229 L360.651319916776,380.82469510437716 M360.651319916776,380.82469510437716 L360.4213326876295,381.1926224183495 M360.4213326876295,381.1926224183495 L360.1490974918417,381.51425300033986 M360.1490974918417,381.51425300033986 L359.8504320718812,381.7708952533764 M359.8504320718812,381.7708952533764 L359.5426886917149,381.9476366292172 M359.5426886917149,381.9476366292172 L359.24375073142875,382.03420310289647 M359.24375073142875,382.03420310289647 L358.9709889771693,382.0255595511332 M358.9709889771693,382.0255595511332 L358.74025653815886,381.9222054720587 M358.74025653815886,381.9222054720587 L358.56496552324626,381.73013955465746 M358.56496552324626,381.73013955465746 L358.455306498293,381.4605210481309 M358.455306498293,381.4605210481309 L358.41765718875826,381.12901646729324 M353.30946198276325,384.06240027502344 L353.3459618387587,383.68822778215923 M353.3459618387587,383.68822778215923 L353.45457618352657,383.2931659169809 M353.45457618352657,383.2931659169809 L353.628993244168,382.90017838594747 M353.628993244168,382.90017838594747 L353.8590750015303,382.53211030501546 M353.8590750015303,382.53211030501546 L354.13144614699326,382.2103549993981 M354.13144614699326,382.2103549993981 L354.4302741804909,381.95361696019353 M354.4302741804909,381.95361696019353 L354.7381874637638,381.77681718331394 M354.7381874637638,381.77681718331394 L355.037289337532,381.6902283468665 M355.037289337532,381.6902283468665 L355.3101949417527,381.6988804446282 M355.3101949417527,381.6988804446282 L355.5410454690641,381.8022626375418 M355.5410454690641,381.8022626375418 L355.7164266852148,381.9943644284996 M355.7164266852148,381.9943644284996 L355.82614994399313,382.26401648390555 M355.82614994399313,382.26401648390555 L355.86384286291064,382.59554569910466 M355.86384286291064,382.59554569910466 L355.8273181226937,382.9696850703386 M355.8273181226937,382.9696850703386 L355.7187007890288,383.3646933516892 M355.7187007890288,383.3646933516892 L355.5443033195614,383.7576191120677 M355.5443033195614,383.7576191120677 L355.3142592454202,384.12563138663046 M355.3142592454202,384.12563138663046 L355.0419352422008,384.44734963423383 M355.0419352422008,384.44734963423383 L354.74315301051524,384.7040778538309 M354.74315301051524,384.7040778538309 L354.4352736958034,384.8808972988039 M354.4352736958034,384.8808972988039 L354.1361861756777,384.9675307853923 M354.1361861756777,384.9675307853923 L353.8632720218315,384.9589380911069 M353.8632720218315,384.9589380911069 L353.63239200037026,384.85561644610596 M353.63239200037026,384.85561644610596 L353.45696710218914,384.66356247698684 M353.45696710218914,384.66356247698684 L353.3471959805824,384.39393456181557 M353.3471959805824,384.39393456181557 L353.30946198276325,384.06240027502344 M348.1989998052736,386.99708589233734 L348.2354481523361,386.62286460132697 M348.2354481523361,386.62286460132697 L348.34404692997356,386.22773785110655 M348.34404692997356,386.22773785110655 L348.51848542345886,385.834673032929 M348.51848542345886,385.834673032929 L348.74862391982725,385.4665200138853 M348.74862391982725,385.4665200138853 L349.02108441116286,385.1446767127422 M349.02108441116286,385.1446767127422 L349.3200284504164,384.8878531687566 M349.3200284504164,384.8878531687566 L349.62807870262293,384.71097474610815 M349.62807870262293,384.71097474610815 L349.92732942149087,384.62431933906134 M349.92732942149087,384.62431933906134 L350.2003879954269,384.63292029238903 M350.2003879954269,384.63292029238903 L350.43138601179874,384.73627014741845 M350.43138601179874,384.73627014741845 L350.6069012261546,384.92835996300005 M350.6069012261546,384.92835996300005 L350.7167370638241,385.19802118138057 M350.7167370638241,385.19802118138057 L350.75451435976305,385.5295803033261 M350.75451435976305,385.5295803033261 L350.7180411480359,385.9037684404331 M350.7180411480359,385.9037684404331 L350.60943924754326,386.29884165921123 M350.60943924754326,386.29884165921123 L350.43502046285255,386.69184461677736 M350.43502046285255,386.69184461677736 L350.204919706284,387.05994178178247 M350.204919706284,387.05994178178247 L349.9325063866935,387.38174800355586 M349.9325063866935,387.38174800355586 L349.6336081067049,387.63856175964855 M349.6336081067049,387.63856175964855 L349.3255918532199,387.81545985049576 M349.3255918532199,387.81545985049576 L349.0263555838368,387.9021598760876 M349.0263555838368,387.9021598760876 L348.75328846503237,387.89361834770745 M348.75328846503237,387.89361834770745 L348.52226090516854,387.79032908826525 M348.52226090516854,387.79032908826525 L348.346701869811,387.5982871844269 M348.346701869811,387.5982871844269 L348.23681825817545,387.3286500537703 M348.23681825817545,387.3286500537703 L348.1989998052736,386.99708589233734 M343.0862691468618,389.93307418602467 L343.12266563084825,389.5588042654391 M343.12266563084825,389.5588042654391 L343.2312491216457,389.16361243645343 M343.2312491216457,389.16361243645343 L343.40570874500804,388.7704704762532 M343.40570874500804,388.7704704762532 L343.63590431290527,388.40223230491887 M343.63590431290527,388.40223230491887 L343.90845420260854,388.0803009618193 M343.90845420260854,388.0803009618193 L344.20751432117714,387.82339186242837 M344.20751432117714,387.82339186242837 L344.5157016335937,387.64643474160135 M344.5157016335937,387.64643474160135 L344.8151011478592,387.55971280088096 M344.8151011478592,387.55971280088096 L345.0883128004445,387.56826256351206 M345.0883128004445,387.56826256351206 L345.31945879503866,387.67157982301546 M345.31945879503866,387.67157982301546 L345.4951080330949,387.86365767741546 M345.4951080330949,387.86365767741546 L345.6050566006937,388.1333280047977 M345.6050566006937,388.1333280047977 L345.64291813057457,388.46491715043 M345.64291813057457,388.46491715043 L345.60649671095024,388.83915393680394 M345.60649671095024,388.83915393680394 L345.4979102061284,389.23429214729805 M345.4979102061284,389.23429214729805 L345.3234701806541,389.6273722881293 M345.3234701806541,389.6273722881293 L345.093312333069,389.9955546014574 M345.093312333069,389.9955546014574 L344.8208096446352,390.31744884381635 M344.8208096446352,390.31744884381635 L344.5217953951222,390.574348099545 M344.5217953951222,390.574348099545 L344.2136421116179,390.7513248886703 M344.2136421116179,390.7513248886703 L343.91425699037904,390.83809150380495 M343.91425699037904,390.83809150380495 L343.6410367976959,390.8296011876019 M343.6410367976959,390.8296011876019 L343.4098612863942,390.7263445276881 M343.4098612863942,390.7263445276881 L343.2341683168395,390.5343145437229 M343.2341683168395,390.5343145437229 L343.124171821309,390.2646683910004 M343.124171821309,390.2646683910004 L343.0862691468618,389.93307418602467 M337.97126849675993,392.8703660236445 L338.00761398286494,392.4960469418449 M338.00761398286494,392.4960469418449 L338.11618124769655,392.100790540581 M338.11618124769655,392.100790540581 L338.2906627648779,391.7075709708326 M338.2906627648779,391.7075709708326 L338.52091466993426,391.33924804563134 M338.52091466993426,391.33924804563134 L338.79355385807395,391.01722870165577 M338.79355385807395,391.01722870165577 L339.09273043451645,390.7602338211018 M339.09273043451645,390.7602338211018 L339.40105459357204,390.5831981247259 M339.40105459357204,390.5831981247259 L339.7006033870292,390.4964093809352 M339.7006033870292,390.4964093809352 L339.973968074833,390.504907994103 M339.973968074833,390.504907994103 L340.20526135593485,390.6081930785206 M340.20526135593485,390.6081930785206 L340.3810453673187,390.8002585701533 M340.3810453673187,390.8002585701533 L340.4911059609567,391.0699384435194 M340.4911059609567,391.0699384435194 L340.5290526652475,391.40155710759046 M340.5290526652475,391.40155710759046 L340.4926822179407,391.77584304880736 M340.4926822179407,391.77584304880736 L340.38411192631276,392.1710458143196 M340.38411192631276,392.1710458143196 L340.20965001052076,392.56420354028853 M340.20965001052076,392.56420354028853 L339.97943584419596,392.9324705816704 M339.97943584419596,392.9324705816704 L339.70684388684896,393.25445280351363 M339.70684388684896,393.25445280351363 L339.4077132131793,393.51143782836766 M339.4077132131793,393.51143782836766 L339.0994231132234,393.6884931931163 M339.0994231132234,393.6884931931163 L338.7998887325343,393.7753266234906 M338.7998887325343,393.7753266234906 L338.5265155094061,393.76688747822726 M338.5265155094061,393.76688747822726 L338.29519270036474,393.6636630191784 M338.29519270036474,393.6636630191784 L338.119364932662,393.47164542239005 M338.119364932662,393.47164542239005 L338.0092563786408,393.2019897408137 M338.0092563786408,393.2019897408137 L337.97126849675993,392.8703660236445 M367.9593808550632,343.92576486310656 L368.0123498610286,388.1652084721781 M329.70516474688003,410.18401076619966 L329.58824438644933,365.90752246474403 M329.58824438644933,365.90752246474403 L367.9593808550632,343.92576486310656 M361.6154859997242,377.09773775195185 L361.6530768673804,377.42920088727544 M361.6530768673804,377.42920088727544 L361.76264674504085,377.698807016863 M361.76264674504085,377.698807016863 L361.9378254902334,377.8908889656213 M361.9378254902334,377.8908889656213 L362.1684266656127,377.99428792739957 M362.1684266656127,377.99428792739957 L362.44104758227775,378.0030015733876 M362.44104758227775,378.0030015733876 L362.73984270796734,377.91652667893794 M362.73984270796734,377.91652667893794 L363.0474495554552,377.73989304390125 M363.0474495554552,377.73989304390125 L363.34599267746694,377.48336843125406 M363.34599267746694,377.48336843125406 L363.6181269140576,377.16185855438744 M363.6181269140576,377.16185855438744 L363.8480397787292,376.79404834663495 M363.8480397787292,376.79404834663495 L364.02237431300864,376.4013054089151 M364.02237431300864,376.4013054089151 L364.13099854786316,376.006451288248 M364.13099854786316,376.006451288248 L364.16760112960037,375.63242759702393 M364.16760112960037,375.63242759702393 L364.1300512739364,375.3009695477978 M364.1300512739364,375.3009695477978 L364.0205291903704,375.0313393187651 M364.0205291903704,375.0313393187651 L363.84539407261116,374.8392096056977 M363.84539407261116,374.8392096056977 L363.61482236321586,374.73575015737174 M363.61482236321586,374.73575015737174 L363.34221000104236,374.72697715878513 M363.34221000104236,374.72697715878513 L363.04340055848354,374.81340743202566 M363.04340055848354,374.81340743202566 L362.73575980255794,374.9900213991567 M362.73575980255794,374.9900213991567 L362.4371709486828,375.2465558029563 M362.4371709486828,375.2465558029563 L362.16498963330343,375.56810268718004 M362.16498963330343,375.56810268718004 L361.93503912817664,375.93596864004354 M361.93503912817664,375.93596864004354 L361.76068501454307,376.3287732906763 M361.76068501454307,376.3287732906763 L361.6520637472295,376.72368095405136 M361.6520637472295,376.72368095405136 L361.6154859997242,377.09773775195185 M356.5095577259136,380.02933298539705 L356.54723229623113,380.36082635934594 M356.54723229623113,380.36082635934594 L356.6569150906248,380.630441398486 M356.6569150906248,380.630441398486 L356.83222700258443,380.8225117888902 M356.83222700258443,380.8225117888902 L357.06297625217337,380.92587802070506 M357.06297625217337,380.92587802070506 L357.3357497542326,380.93454069771417 M357.3357497542326,380.93454069771417 L357.63469371701575,380.8479992096705 M357.63469371701575,380.8479992096705 L357.942437005829,380.6712872274595 M357.942437005829,380.6712872274595 L358.2410962458933,380.414677067664 M358.2410962458933,380.414677067664 L358.5133195320933,380.0930794139233 M358.5133195320933,380.0930794139233 L358.74328981388464,379.7251839500754 M358.74328981388464,379.7251839500754 L358.9176450070567,379.33236425711436 M358.9176450070567,379.33236425711436 L359.02625434085206,378.93744496366054 M359.02625434085206,378.93744496366054 L359.062804927919,378.56337284537733 M359.062804927919,378.56337284537733 L359.02517140225643,378.23188455149227 M359.02517140225643,378.23188455149227 L358.9155364345168,377.9622453956764 M358.9155364345168,377.9622453956764 L358.7402681746136,377.77012721680126 M358.7402681746136,377.77012721680126 L358.5095484023247,377.66670047256355 M358.5095484023247,377.66670047256355 L358.23678345001804,377.65797842152773 M358.23678345001804,377.65797842152773 L357.93782515071376,377.74447527620623 M357.93782515071376,377.74447527620623 L357.63004792339956,377.9211675904121 M357.63004792339956,377.9211675904121 L357.3313429178846,378.17778755334047 M357.3313429178846,378.17778755334047 L357.05907252347913,378.4994222357534 M357.05907252347913,378.4994222357534 L356.82906458257935,378.86737347051155 M356.82906458257935,378.86737347051155 L356.6546898068408,379.26025490066974 M356.6546898068408,379.26025490066974 L356.5460834529997,379.65522775419197 M356.5460834529997,379.65522775419197 L356.5095577259136,380.02933298539705 M351.40136417780224,382.96222883784554 L351.43912343496345,383.2937519200687 M351.43912343496345,383.2937519200687 L351.5489183219049,383.5633763746998 M351.5489183219049,383.5633763746998 L351.724364110601,383.75543482788197 M351.724364110601,383.75543482788197 L351.95526093406255,383.85876864022464 M351.95526093406255,383.85876864022464 L352.2281868255834,383.8673804770201 M352.2281868255834,383.8673804770201 L352.52728033712157,383.7807719951058 M352.52728033712157,383.7807719951058 L352.83515954908165,383.60398196326855 M352.83515954908165,383.60398196326855 L353.13393558981926,383.34728585598117 M353.13393558981926,383.34728585598117 L353.40624767338863,383.0256005539518 M353.40624767338863,383.0256005539518 L353.6362747916859,382.657620144201 M353.6362747916859,382.657620144201 L353.81065125386715,382.2647233168849 M353.81065125386715,382.2647233168849 L353.91924474928703,381.869739356118 M353.91924474928703,381.869739356118 L353.955744205354,381.4956182801556 M353.955744205354,381.4956182801556 L353.9180260257145,381.16410027182604 M353.9180260257145,381.16410027182604 L353.8082789978435,380.8944516833998 M353.8082789978435,380.8944516833998 L353.6328768859029,380.7023454174827 M353.6328768859029,380.7023454174827 L353.4020095510076,380.59895106690965 M353.4020095510076,380.59895106690965 L353.1290922044994,380.59027983468025 M353.1290922044994,380.59027983468025 L352.8299843367328,380.67684367101396 M352.8299843367328,380.67684367101396 L352.5220711562457,380.8536140347915 M352.5220711562457,380.8536140347915 L352.2232493163418,381.1103199571855 M352.2232493163418,381.1103199571855 L351.95089009518057,381.4320423092246 M351.95089009518057,381.4320423092246 L351.7208252992539,381.8000785156706 M351.7208252992539,381.8000785156706 L351.5464292511494,382.1930371045142 M351.5464292511494,382.1930371045142 L351.4378387483337,382.5880746426186 M351.4378387483337,382.5880746426186 L351.40136417780224,382.96222883784554 M346.29090384755284,385.89642617502994 L346.3287475583467,386.2279791341909 M346.3287475583467,386.2279791341909 L346.4386549311987,386.497612811193 M346.4386549311987,386.497612811193 L346.61423485052427,386.6896592101823 M346.61423485052427,386.6896592101823 L346.84527920379395,386.7929606515688 M346.84527920379395,386.7929606515688 L347.1183580501305,386.80152133978453 M347.1183580501305,386.80152133978453 L347.41760029982555,386.714846337836 M347.41760029982555,386.714846337836 L347.72561643914446,386.53797767973487 M347.72561643914446,386.53797767973487 L348.02450851712075,386.28119605495664 M348.02450851712075,386.28119605495664 L348.29690990698896,385.9594227961384 M348.29690990698896,385.9594227961384 L348.5269936992187,385.59135751062496 M348.5269936992187,385.59135751062496 L348.7013914701987,385.1983834973002 M348.7013914701987,385.1983834973002 L348.80996952846544,384.8033346061215 M348.80996952846544,384.8033346061215 L348.8464174547369,384.42916476670746 M348.8464174547369,384.42916476670746 L348.80861489952133,384.0976168493424 M348.80861489952133,384.0976168493424 L348.69875529687226,383.82795909105033 M348.69875529687226,383.82795909105033 L348.52321919326846,383.63586478943915 M348.52321919326846,383.63586478943915 L348.292204377904,383.5325027621575 M348.292204377904,383.5325027621575 L348.0191340718219,383.5238826570409 M348.0191340718219,383.5238826570409 L347.71987737005793,383.61051304499864 M347.71987737005793,383.61051304499864 L347.41182723205515,383.7873620349325 M347.41182723205515,383.7873620349325 L347.11288939746476,384.044153443105 M347.11288939746476,384.044153443105 L346.84044084050834,384.3659637732823 M346.84044084050834,384.3659637732823 L346.6103193140747,384.73408490315 M346.6103193140747,384.73408490315 L346.43590183955314,385.1271207679423 M346.43590183955314,385.1271207679423 L346.3273269078483,385.52222318408224 M346.3273269078483,385.52222318408224 L346.29090384755284,385.89642617502994 M341.1781752259895,388.83192586345154 L341.21610315686945,389.1635088684295 M341.21610315686945,389.1635088684295 L341.3261234094854,389.4331515744225 M341.3261234094854,389.4331515744225 L341.50183725644644,389.6251860646109 M341.50183725644644,389.6251860646109 L341.73302955254303,389.7284549211166 M341.73302955254303,389.7284549211166 L342.00626146259884,389.73696441449806 M342.00626146259884,389.73696441449806 L342.30565255303253,389.6502228419937 M342.30565255303253,389.6502228419937 L342.61380571094134,389.4732755052422 M342.61380571094134,389.4732755052422 L342.91281374736485,389.21640839983434 M342.91281374736485,389.21640839983434 L343.1853044959942,388.8945471378249 M343.1853044959942,388.8945471378249 L343.415445370739,388.5263967187147 M343.415445370739,388.5263967187147 L343.5898643760758,388.13334553330293 M343.5898643760758,388.13334553330293 L343.69842703469254,387.7382316574319 M343.69842703469254,387.7382316574319 L343.7348231675612,387.36401317114974 M343.7348231675612,387.36401317114974 L343.69693637985847,387.03243522782293 M343.69693637985847,387.03243522782293 L343.5869640514057,386.7627683536219 M343.5869640514057,386.7627683536219 L343.4112939306585,386.5706860021159 M343.4112939306585,386.5706860021159 L343.18013114567935,386.46735655571507 M343.18013114567935,386.46735655571507 L342.90690777110643,386.45878762395625 M342.90690777110643,386.45878762395625 L342.6075022850637,386.54548452660913 M342.6075022850637,386.54548452660913 L342.299315098284,386.7224121950917 M342.299315098284,386.7224121950917 L342.000261195461,386.97928913965137 M342.000261195461,386.97928913965137 L341.72772325022424,387.30118749438395 M341.72772325022424,387.30118749438395 L341.49754466076735,387.669393761813 M341.49754466076735,387.669393761813 L341.32310606279776,388.0625067574555 M341.32310606279776,388.0625067574555 L341.21454642191173,388.4576742453225 M341.21454642191173,388.4576742453225 L341.1781752259895,388.83192586345154 M336.0631768025964,391.7687287703807 L336.1011899394409,392.1003412899202 M336.1011899394409,392.1003412899202 L336.2113222464045,392.3699935316147 M336.2113222464045,392.3699935316147 L336.3871708849366,392.56201564578487 M336.3871708849366,392.56201564578487 L336.6185104701458,392.6652523160163 M336.6185104701458,392.6652523160163 L336.89189540047033,392.6737106558038 M336.89189540047033,392.6737106558038 L337.1914357392203,392.5869022870937 M337.1914357392203,392.5869022870937 L337.49972570213635,392.4098763943352 M337.49972570213635,392.4098763943352 L337.7988501516262,392.15292353885997 M337.7988501516262,392.15292353885997 L338.0714301590768,391.8309743147597 M338.0714301590768,391.8309743147597 L338.3016273440539,391.46273918225563 M338.3016273440539,391.46273918225563 L338.4760682332789,391.06961042295256 M338.4760682332789,391.06961042295256 L338.5846146747246,390.6744319990135 M338.5846146747246,390.6744319990135 L338.62095983398126,390.30016436036817 M338.62095983398126,390.30016436036817 L338.58298787333314,389.96855689623806 M338.58298787333314,389.96855689623806 L338.47290352297887,389.6988804692115 M338.47290352297887,389.6988804692115 L338.29709863547606,389.50681046932095 M338.29709863547606,389.50681046932095 L338.06578857261314,389.40351318342147 M338.06578857261314,389.40351318342147 L337.79241217299716,389.3949953837844 M337.79241217299716,389.3949953837844 L337.49285741889815,389.48175907047477 M337.49285741889815,389.48175907047477 L337.1845333969278,389.65876529488787 M337.1845333969278,389.65876529488787 L336.8853630473263,389.91572800154734 M336.8853630473263,389.91572800154734 L336.6127358137503,390.23771433975594 M336.6127358137503,390.23771433975594 L336.3825008956458,390.60600534638536 M336.3825008956458,390.60600534638536 L336.20804041028885,390.9991959403242 M336.20804041028885,390.9991959403242 L336.0994969993455,391.3944279935169 M336.0994969993455,391.3944279935169 L336.0631768025964,391.7687287703807 M364.1319783335129,349.07477265428867 L364.1359399351932,352.02824239846575 M364.1359399351932,352.02824239846575 L362.220204952308,353.12620573272613 M362.21603042720585,350.1726120169609 L362.220204952308,353.12620573272613 M364.1319783335129,349.07477265428867 L362.21603042720585,350.1726120169609 M333.43849287447495,366.66215924429764 L333.44586976608747,369.61761257366965 M333.43849287447495,366.66215924429764 L331.51743215443685,367.762928252473 M333.44586976608747,369.61761257366965 L331.5250231060353,370.7185055585112 M331.51743215443685,367.762928252473 L331.5250231060353,370.7185055585112 M369.86959776617175,345.0231147897064 L367.9593808550632,343.92576486310656 M331.4984473926828,367.0085344434294 L329.58824438644933,365.90752246474403 M333.420043471473,365.90752246474403 L332.7832734365329,365.5405592602674 M334.7045488823719,364.439791988296 L332.7832734365329,365.5405592602674 M335.34131922196394,364.8066940237429 L334.7045488823719,364.439791988296 M364.122070481816,348.3162607623404 L363.4852966436259,347.95027443001663 M365.4014578535449,346.85243728632736 L363.4852966436259,347.95027443001663 M366.0382318537644,347.2183626937006 L365.4014578535449,346.85243728632736 M365.4129194732571,355.71309468011543 L365.40909978118435,352.76019765018566 M365.40909978118435,352.76019765018566 L364.1359399351932,352.02824239846575 M364.1319783335129,349.07477265428867 L365.4052792413744,349.8066452583227 M365.4052792413744,349.8066452583227 L365.4014578535449,346.85243728632736 M365.4129194732571,355.71309468011543 L366.0494818454183,356.079144059211 M363.4973970339512,356.811303739326 L364.1339592442449,357.1774140437252 M365.4129194732571,355.71309468011543 L363.4973970339512,356.811303739326 M363.4893310023235,350.90460645592924 L362.21603042720585,350.1726120169609 M363.4852966436259,347.95027443001663 L363.4893310023235,350.90460645592924 M363.49336446566593,353.85828281961744 L363.4973970339512,356.811303739326 M362.220204952308,353.12620573272613 L363.49336446566593,353.85828281961744 M334.7262563795877,373.30640014858074 L334.7190221550559,370.3515208444561 M334.7190221550559,370.3515208444561 L333.44586976608747,369.61761257366965 M333.43849287447495,366.66215924429764 L334.71178632282925,367.39598486400405 M334.71178632282925,367.39598486400405 L334.7045488823719,364.439791988296 M334.7262563795877,373.30640014858074 L335.3628150947782,373.67342616080134 M332.80562311434045,374.4075393511473 L333.4421815251834,374.77462653267065 M334.7262563795877,373.30640014858074 L332.80562311434045,374.4075393511473 M332.7907249848971,368.4968761951375 L331.51743215443685,367.762928252473 M332.7832734365329,365.5405592602674 L332.7907249848971,368.4968761951375 M332.7981748773156,371.4525361524394 L332.80562311434045,374.4075393511473 M331.5250231060353,370.7185055585112 L332.7981748773156,371.4525361524394 M363.52358693134727,378.1969336031261 L361.6154859997242,377.09773775195185 M358.41765718875826,381.12901646729324 L356.5095577259136,380.02933298539705 M353.30946198276325,384.06240027502344 L351.40136417780224,382.96222883784554 M348.1989998052736,386.99708589233734 L346.29090384755284,385.89642617502994 M343.0862691468618,389.93307418602467 L341.1781752259895,388.83192586345154 M337.97126849675993,392.8703660236445 L336.0631768025964,391.7687287703807 M365.40909978118435,352.76019765018566 L363.49336446566593,353.85828281961744 M365.4052792413744,349.8066452583227 L363.4893310023235,350.90460645592924 M334.71178632282925,367.39598486400405 L332.7907249848971,368.4968761951375 M334.7190221550559,370.3515208444561 L332.7981748773156,371.4525361524394" stroke="black"  stroke-width="4"  fill="red"/>
<path d="M465.6475743015434,449.66553461591496 L463.7238325451525,448.55627381486937 M436.3899885606671,466.63281977551327 L434.46623610337593,465.52072514930114 M465.6475743015434,449.66553461591496 L463.8001807502395,447.0542307987184 M463.8001807502395,447.0542307987184 L461.26761864496467,445.4301881372634 M461.26761864496467,445.4301881372634 L458.18499564219724,444.8810063544937 M458.18499564219724,444.8810063544937 L454.7170753929138,445.43680828696614 M454.7170753929138,445.43680828696614 L451.04949863077525,447.0684750466084 M451.04949863077525,447.0684750466084 L447.37883956297446,449.68907270010345 M447.37883956297446,449.68907270010345 L443.90202338579115,453.15842100442677 M443.90202338579115,453.15842100442677 L440.8056855333501,457.2905824844543 M440.8056855333501,457.2905824844543 L438.2560648363617,461.8638676397962 M438.2560648363617,461.8638676397962 L436.3899885606671,466.63281977551327 M463.7238325451525,448.55627381486937 L461.876169877288,445.94494388182676 M461.876169877288,445.94494388182676 L459.34338140222184,444.32078439172744 M459.34338140222184,444.32078439172744 L456.2605869582594,443.7714012031589 M456.2605869582594,443.7714012031589 L452.7925594334198,444.3269278245102 M452.7925594334198,444.3269278245102 L449.12494534604605,445.95826002670475 M449.12494534604605,445.95826002670475 L445.4543209169233,448.57848175402046 M445.4543209169233,448.57848175402046 L441.97760947354567,452.04743290870124 M441.97760947354567,452.04743290870124 L438.8814408021515,456.1791973447835 M438.8814408021515,456.1791973447835 L436.3320446176877,460.75210691780995 M436.3320446176877,460.75210691780995 L434.46623610337593,465.52072514930114 M470.1657078979283,447.04534367473553 L468.24196834974435,445.9365201679188 M470.1657078979283,447.04534367473553 L465.6475743015434,449.66553461591496 M468.24196834974435,445.9365201679188 L463.7238325451525,448.55627381486937 M431.8585242288605,469.26074157976836 L429.9347706717644,468.14820772262914 M436.3899885606671,466.63281977551327 L431.8585242288605,469.26074157976836 M434.46623610337593,465.52072514930114 L429.9347706717644,468.14820772262914 M470.28328016923405,402.7071120226074 L470.1657078979283,447.04534367473553 M431.8585242288605,469.26074157976836 L431.91214515537513,424.8854635970563 M431.91214515537513,424.8854635970563 L470.28328016923405,402.7071120226074 M463.8256676035309,435.9777507034191 L463.8636048703009,435.60271702449813 M463.8636048703009,435.60271702449813 L463.9735063050671,435.2065089943311 M463.9735063050671,435.2065089943311 L464.14898681964735,434.8121560838076 M464.14898681964735,434.8121560838076 L464.3798444692557,434.44258401105196 M464.3798444692557,434.44258401105196 L464.6526609369238,434.11927233125556 M464.6526609369238,434.11927233125556 L464.95157600730414,433.86101706746325 M464.95157600730414,433.86101706746325 L465.2592150775417,433.68282619837487 M465.2592150775417,433.68282619837487 L465.557695030243,433.5950546318791 M465.557695030243,433.5950546318791 L465.8296692551111,433.60279987249334 M465.8296692551111,433.60279987249334 L466.05933129688816,433.7056047907225 M466.05933129688816,433.7056047907225 L466.2333380990716,433.89749119397027 M466.2333380990716,433.89749119397027 L466.3415788203168,434.167303439992 M466.3415788203168,434.167303439992 L466.37776875095415,434.4993582169971 M466.37776875095415,434.4993582169971 L466.33980672271264,434.87435866328644 M466.33980672271264,434.87435866328644 L466.22990252093103,435.270512803479 M466.22990252093103,435.270512803479 L466.054441868059,435.6648035120635 M466.054441868059,435.6648035120635 L465.8236221584023,436.0343193209564 M465.8236221584023,436.0343193209564 L465.5508530175536,436.3575935637531 M465.5508530175536,436.3575935637531 L465.2519838187785,436.6158387942893 M465.2519838187785,436.6158387942893 L464.94437865641964,436.7940493321802 M464.94437865641964,436.7940493321802 L464.6459128798553,436.8818657635765 M464.6459128798553,436.8818657635765 L464.37392985182976,436.87418030622206 M464.37392985182976,436.87418030622206 L464.1442380444374,436.7714363935086 M464.1442380444374,436.7714363935086 L463.9701873328632,436.57959824296006 M463.9701873328632,436.57959824296006 L463.8618986178352,436.3098104423077 M463.8618986178352,436.3098104423077 L463.8256676035309,435.9777507034191 M458.71975973874845,438.9355236863898 L458.7576450591408,438.5604414488549 M458.7576450591408,438.5604414488549 L458.8675317966183,438.1641678508356 M458.8675317966183,438.1641678508356 L459.0430333190779,437.7697375649487 M459.0430333190779,437.7697375649487 L459.27394885970796,437.40007941868146 M459.27394885970796,437.40007941868146 L459.54685494465707,437.07667900851436 M459.54685494465707,437.07667900851436 L459.8458867566292,436.81833716393487 M459.8458867566292,436.81833716393487 L460.1536629055974,436.6400668960297 M460.1536629055974,436.6400668960297 L460.45229230446034,436.55222772740865 M460.45229230446034,436.55222772740865 L460.72441965669174,436.55992109014863 M460.72441965669174,436.55992109014863 L460.9542302151851,436.662692515261 M460.9542302151851,436.662692515261 L461.1283705035778,436.85456679158574 M461.1283705035778,436.85456679158574 L461.2367243233178,437.1243875900787 M461.2367243233178,437.1243875900787 L461.2729979961127,437.45647248987143 M461.2729979961127,437.45647248987143 L461.2350878883525,437.83152148855925 M461.2350878883525,437.83152148855925 L461.1251983714301,438.2277411790976 M461.1251983714301,438.2277411790976 L460.94971671400737,438.6221092384772 M460.94971671400737,438.6221092384772 L460.71883913220677,438.9917110947218 M460.71883913220677,438.9917110947218 L460.44598040377355,439.31507404622135 M460.44598040377355,439.31507404622135 L460.1469944972652,439.5734058453003 M460.1469944972652,439.5734058453003 L459.8392522864397,439.75169578199166 M459.8392522864397,439.75169578199166 L459.5406370834502,439.83957982772927 M459.5406370834502,439.83957982772927 L459.2685009327486,439.8319462698986 M459.2685009327486,439.8319462698986 L459.0386605971479,439.7292358765099 M459.0386605971479,439.7292358765099 L458.8644763744825,439.5374098774124 M458.8644763744825,439.5374098774124 L458.7560745281155,439.267613541838 M458.7560745281155,439.267613541838 L458.71975973874845,438.9355236863898 M453.611576513955,441.8946147500126 L453.6494107515263,441.51948341858315 M453.6494107515263,441.51948341858315 L453.7592818540741,441.12314476284416 M453.7592818540741,441.12314476284416 L453.93480499479824,440.7286367189744 M453.93480499479824,440.7286367189744 L454.1657778460454,440.35889281197575 M454.1657778460454,440.35889281197575 L454.43877329653543,440.03540380084274 M454.43877329653543,440.03540380084274 L454.7379225335379,439.77697497116316 M454.7379225335379,439.77697497116316 L455.04583524383304,439.59862560413217 M455.04583524383304,439.59862560413217 L455.3446148014573,439.5107184290813 M455.3446148014573,439.5107184290813 L455.61689508602706,439.51836004331665 M455.61689508602706,439.51836004331665 L455.8468536618281,439.6210982880002 M455.8468536618281,439.6210982880002 L456.0211281471138,439.8129600547946 M456.0211281471138,439.8129600547946 L456.1295942419767,440.0827899157166 M456.1295942419767,440.0827899157166 L456.1659526414027,440.41490440305887 M456.1659526414027,440.41490440305887 L456.1280935907619,440.7900024893268 M456.1280935907619,440.7900024893268 L456.0182196961019,441.18628722017166 M456.0182196961019,441.18628722017166 L455.8427164238884,441.5807330129185 M455.8427164238884,441.5807330129185 L455.611781550216,441.9504206037491 M455.611781550216,441.9504206037491 L455.3388334859082,442.2738721345247 M455.3388334859082,442.2738721345247 L455.0397301883571,442.53229090646505 M455.0397301883571,442.53229090646505 L454.731851446432,442.7106599422213 M454.731851446432,442.7106599422213 L454.43308610447264,442.798612006664 M454.43308610447264,442.798612006664 L454.1607970261214,442.7910302189664 M454.1607970261214,442.7910302189664 L453.930808661771,442.68835303214655 M453.930808661771,442.68835303214655 L453.75649021725377,442.49653956721056 M453.75649021725377,442.49653956721056 L453.6479760630637,442.22673418664385 M453.6479760630637,442.22673418664385 L453.611576513955,441.8946147500126 M448.5011164078489,444.8550247755536 L448.53889920861377,444.4798445202103 M448.53889920861377,444.4798445202103 L448.648754956054,444.0834406116234 M448.648754956054,444.0834406116234 L448.82429986922114,443.6888546913859 M448.82429986922114,443.6888546913859 L449.05532990690375,443.3190250721571 M449.05532990690375,443.3190250721571 L449.32841523250363,442.995447148483 M449.32841523250363,442.995447148483 L449.6276810555272,442.7369318112208 M449.6276810555272,442.7369318112208 L449.93573133230177,442.55850276285895 M449.93573133230177,442.55850276285895 L450.2346603151101,442.47052801473745 M450.2346603151101,442.47052801473745 L450.50709409829676,442.47811756888245 M450.50709409829676,442.47811756888245 L450.73720061014507,442.5808227036315 M450.73720061014507,442.5808227036315 L450.91160943274417,442.7726719086287 M450.91160943274417,442.7726719086287 L451.02018831804247,443.0425105665024 M451.02018831804247,443.0425105665024 L451.0566311662003,443.3746548374334 M451.0566311662003,443.3746548374334 L451.01882357177817,443.7498018151428 M451.01882357177817,443.7498018151428 L450.90896489825076,444.1461518516897 M450.90896489825076,444.1461518516897 L450.73343997132986,444.5406754299926 M450.73343997132986,444.5406754299926 L450.5024479680206,444.91044868483857 M450.5024479680206,444.91044868483857 L450.22941005837987,445.23398910645267 M450.22941005837987,445.23398910645267 L449.9301901325276,445.4924944178138 M449.9301901325276,445.4924944178138 L449.62217385448133,445.6709431348926 M449.62217385448133,445.6709431348926 L449.32325918326336,445.758962740485 M449.32325918326336,445.758962740485 L449.05081661100195,445.7514330345665 M449.05081661100195,445.7514330345665 L448.82068026108954,445.6487890058738 M448.82068026108954,445.6487890058738 L448.64622734003245,445.4569881935755 M448.64622734003245,445.4569881935755 L448.5376004839901,445.18717396324774 M448.5376004839901,445.18717396324774 L448.5011164078489,444.8550247755536 M443.38837789777216,447.81675464506486 L443.4261089072867,447.4415256360304 M443.4261089072867,447.4415256360304 L443.53594957982045,447.045056279226 M443.53594957982045,447.045056279226 L443.7115159625886,446.65039262894186 M443.7115159625886,446.65039262894186 L443.9426035195623,446.28047708123313 M443.9426035195623,446.28047708123313 L444.2157787732887,445.95681019787816 M444.2157787732887,445.95681019787816 L444.51516125657054,445.6982083015722 M444.51516125657054,445.6982083015722 L444.8233491918999,445.51969951854755 M444.8233491918999,445.51969951854755 L445.122427551059,445.43165723410175 M445.122427551059,445.43165723410175 L445.3950149426888,445.4391946809716 M445.3950149426888,445.4391946809716 L445.6252698806077,445.5418664453871 M445.6252698806077,445.5418664453871 L445.7998130667967,445.7337031024538 M445.7998130667967,445.7337031024538 L445.9085048942246,446.00355050245344 M445.9085048942246,446.00355050245344 L445.94503204852606,446.33572467465393 M445.94503204852606,446.33572467465393 L445.90727617423573,446.71092042600304 M445.90727617423573,446.71092042600304 L445.797432684429,447.1073358229645 M445.797432684429,447.1073358229645 L445.62188617711536,447.5019371728514 M445.62188617711536,447.5019371728514 L445.39083663524787,447.8717963520468 M445.39083663524787,447.8717963520468 L445.11770882728047,448.19542571162407 M445.11770882728047,448.19542571162407 L444.8183723512281,448.45401752561577 M444.8183723512281,448.45401752561577 L444.5102184450158,448.63254597734294 M444.5102184450158,448.63254597734294 L444.21115434107236,448.7206331755708 M444.21115434107236,448.7206331755708 L443.93855816508795,448.7131555986256 M443.93855816508795,448.7131555986256 L443.70827341571675,448.6105449444042 M443.70827341571675,448.6105449444042 L443.53368622031746,448.41875663851397 M443.53368622031746,448.41875663851397 L443.4249462679,448.1489337539201 M443.4249462679,448.1489337539201 L443.38837789777216,447.81675464506486 M438.27335945970884,450.77980524138536 L438.3110395428701,450.4045269425324 M438.3110395428701,450.4045269425324 L438.4208642012781,450.0079926484909 M438.4208642012781,450.0079926484909 L438.5964528177168,449.61325079646195 M438.5964528177168,449.61325079646195 L438.8275971599423,449.2432497219984 M438.8275971599423,449.2432497219984 L439.10086224238563,448.9194939201005 M439.10086224238563,448.9194939201005 L439.40036176516463,448.6608052366202 M439.40036176516463,448.6608052366202 L439.7086871462768,448.48221684217486 M439.7086871462768,448.48221684217486 L440.007915366452,448.39410674914154 M440.007915366452,448.39410674914154 L440.28065632398705,448.4015921298141 M440.28065632398705,448.4015921298141 L440.51105899712223,448.50423094752364 M440.51105899712223,448.50423094752364 L440.68573729731304,448.6960546510994 M440.68573729731304,448.6960546510994 L440.7945413636351,448.96591123365897 M440.7945413636351,448.96591123365897 L440.83115376504287,449.2981147971658 M440.83115376504287,449.2981147971658 L440.7934487913973,449.67335983198996 M440.7934487913973,449.67335983198996 L440.6836213029265,450.0698401487871 M440.6836213029265,450.0698401487871 L440.50805256555896,450.46451967572716 M440.50805256555896,450.46451967572716 L440.27694625707954,450.8344643555103 M440.27694625707954,450.8344643555103 L440.0037286501944,451.1581826118913 M440.0037286501944,451.1581826118913 L439.70427516862986,451.41686120075923 M439.70427516862986,451.41686120075923 L439.3959838470206,451.59546926386747 M439.3959838470206,451.59546926386747 L439.09676990188626,451.68362428291056 M439.09676990188626,451.68362428291056 L438.82402016471957,451.67619879385666 M438.82402016471957,451.67619879385666 L438.5935876687276,451.57362111244674 M438.5935876687276,451.57362111244674 L438.41886533425003,451.38184578481923 M438.41886533425003,451.38184578481923 L438.31001311020754,451.1120137351076 M438.31001311020754,451.1120137351076 L438.27335945970884,450.77980524138536 M466.4370932796268,410.8424334705749 L464.5213690483026,411.95020807588486 M464.5213690483026,411.95020807588486 L464.52857913327057,408.9900021548765 M466.4445162844196,407.88235153305243 L464.52857913327057,408.9900021548765 M466.4370932796268,410.8424334705749 L466.4445162844196,407.88235153305243 M435.7470243417864,428.5890790726145 L433.82616562844663,429.69982271109484 M435.7470243417864,428.5890790726145 L435.7510320571952,425.6270133920508 M433.82616562844663,429.69982271109484 L433.82995927985155,426.7376330463113 M435.7510320571952,425.6270133920508 L433.82995927985155,426.7376330463113 M468.3563150035284,401.600140834754 L468.24196834974435,445.9365201679188 M464.5249738898758,403.8142682865923 L468.3563150035284,401.600140834754 M464.50335086540895,412.694142369537 L464.5249738898758,403.8142682865923 M462.58783860317254,413.8018557063062 L464.50335086540895,412.694142369537 M462.58783860317254,413.8018557063062 L462.60882286724274,404.9216096731271 M433.82806234829656,421.5539767893594 L462.60882286724274,404.9216096731271 M433.8166852035352,430.4398020997162 L433.82806234829656,421.5539767893594 M431.8960400305207,431.5504837253538 L433.8166852035352,430.4398020997162 M431.8960400305207,431.5504837253538 L431.9067749827761,422.66428646231196 M429.985165910332,423.77478204931117 L431.9067749827761,422.66428646231196 M429.9347706717644,468.14820772262914 L429.985165910332,423.77478204931117 M461.9008509719864,434.86892547274044 L461.9371077201193,435.2009740485159 M461.9371077201193,435.2009740485159 L462.045420706895,435.470758511461 M462.045420706895,435.470758511461 L462.21949281789244,435.6626013432805 M462.21949281789244,435.6626013432805 L462.4492019091137,435.7653576832451 M462.4492019091137,435.7653576832451 L462.72119710157057,435.7730625908079 M462.72119710157057,435.7730625908079 L463.01966921643634,435.68527150151044 M463.01966921643634,435.68527150151044 L463.3272745229147,435.50709072449627 M463.3272745229147,435.50709072449627 L463.62613766325507,435.2488779438902 M463.62613766325507,435.2488779438902 L463.89889489491003,434.9256369547549 M463.89889489491003,434.9256369547549 L464.129697536517,434.55615327115964 M464.129697536517,434.55615327115964 L464.3051369537483,434.1618916935946 M464.3051369537483,434.1618916935946 L464.4150169860449,433.7657619977159 M464.4150169860449,433.7657619977159 L464.4529533152535,433.3907798891598 M464.4529533152535,433.3907798891598 L464.4167376494709,433.0587362776331 M464.4167376494709,433.0587362776331 L464.3084726527371,432.7889273758633 M464.3084726527371,432.7889273758633 L464.1344444458223,432.5970363005695 M464.1344444458223,432.5970363005695 L463.90476511455694,432.4942189648812 M463.90476511455694,432.4942189648812 L463.63277872054334,432.4864542821742 M463.63277872054334,432.4864542821742 L463.3342924268515,432.5742005111513 M463.3342924268515,432.5742005111513 L463.02665321244683,432.7523616193584 M463.02665321244683,432.7523616193584 L462.7277442031055,433.01058442863246 M462.7277442031055,433.01058442863246 L462.454939649291,433.3338628466465 M462.454939649291,433.3338628466465 L462.2240990733803,433.70340278431166 M462.2240990733803,433.70340278431166 L462.04863979978296,434.09772655459375 M462.04863979978296,434.09772655459375 L461.9387625383141,434.49391013390914 M461.9387625383141,434.49391013390914 L461.9008509719864,434.86892547274044 M456.7949408571842,437.826204402508 L456.8312813790969,438.15828309719484 M456.8312813790969,438.15828309719484 L456.93970749325825,438.42807610218813 M456.93970749325825,438.42807610218813 L457.11391310895283,438.6199067938104 M457.11391310895283,438.6199067938104 L457.3437707199202,438.72262962940874 M457.3437707199202,438.72262962940874 L457.61591902501425,438.73028265506855 M457.61591902501425,438.73028265506855 L457.91454055527356,438.6424239707468 M457.91454055527356,438.6424239707468 L458.22228289883503,438.46416381482254 M458.22228289883503,438.46416381482254 L458.5212627358344,438.20586448498216 M458.5212627358344,438.20586448498216 L458.7941095449524,437.8825348047486 M458.7941095449524,437.8825348047486 L459.0249700501222,437.5129650887387 M459.0249700501222,437.5129650887387 L459.20043046536114,437.11862617160756 M459.20043046536114,437.11862617160756 L459.31029580867505,436.7224309324835 M459.31029580867505,436.7224309324835 L459.3481802159364,436.3474002738568 M459.3481802159364,436.3474002738568 L459.31188080927484,436.0153265371943 M459.31188080927484,436.0153265371943 L459.20350271799407,435.7455090758332 M459.20350271799407,435.7455090758332 L459.0293410312592,435.55363011621563 M459.0293410312592,435.55363011621563 L458.7995131917365,435.4508462586918 M458.7995131917365,435.4508462586918 L458.52737368039726,435.44313343624253 M458.52737368039726,435.44313343624253 L458.2287379515772,435.5309472480291 M458.2287379515772,435.5309472480291 L457.92096166982896,435.7091877351603 M457.92096166982896,435.7091877351603 L457.6219359299753,435.967497105908 M457.6219359299753,435.967497105908 L457.3490417690066,436.29086423668144 M457.3490417690066,436.29086423668144 L457.1181433106595,436.6604902329143 M457.1181433106595,436.6604902329143 L456.9426630357279,437.05489136732564 M456.9426630357279,437.05489136732564 L456.8328004756712,437.45114050738994 M456.8328004756712,437.45114050738994 L456.7949408571842,437.826204402508 M451.6867555714728,440.78480108265495 L451.7231808518351,441.1169093609718 M451.7231808518351,441.1169093609718 L451.8317192698535,441.3867114180057 M451.8317192698535,441.3867114180057 L452.0060591009909,441.5785295867927 M452.0060591009909,441.5785295867927 L452.2360647322291,441.68121923073824 M452.2360647322291,441.68121923073824 L452.5083659549169,441.6888205038738 M452.5083659549169,441.6888205038738 L452.807137613098,441.600893820241 M452.807137613098,441.600893820241 L453.11501647636,441.4225545851014 M453.11501647636,441.4225545851014 L453.4141136933153,441.16416830178315 M453.4141136933153,441.16416830178315 L453.68704982817604,440.84075005986233 M453.68704982817604,440.84075005986233 L453.91796761663,440.47109462415483 M453.91796761663,440.47109462415483 L454.09344964011456,440.0766779849506 M454.09344964011456,440.0766779849506 L454.20329935704376,439.68041771253456 M454.20329935704376,439.68041771253456 L454.24113270572593,439.3053379687417 M454.24113270572593,439.3053379687417 L454.2047485737207,438.9732346420864 M454.2047485737207,438.9732346420864 L454.0962582112779,438.703408111254 M454.0962582112779,438.703408111254 L453.9219623340542,438.51154164984735 M453.9219623340542,438.51154164984735 L453.6919864856992,438.40879095784254 M453.6919864856992,438.40879095784254 L453.4196940520765,438.4011298662934 M453.4196940520765,438.4011298662934 L453.1209081755447,438.4890116651168 M453.1209081755447,438.4890116651168 L452.81299534387244,438.66733123152204 M452.81299534387244,438.66733123152204 L452.5138521900803,438.92572756798137 M452.5138521900803,438.92572756798137 L452.24086867370767,439.2491832821255 M452.24086867370767,439.2491832821255 L452.0099129133356,439.6188950241943 M452.0099129133356,439.6188950241943 L451.8344110266868,440.013373905289 M451.8344110266868,440.013373905289 L451.7245641056818,440.40968809605585 M451.7245641056818,440.40968809605585 L451.6867555714728,440.78480108265495 M446.5762935938043,443.74471639415344 L446.6128033998973,444.07685442595687 M446.6128033998973,444.07685442595687 L446.72145451578956,444.3466653398402 M446.72145451578956,444.3466653398402 L446.8959288170431,444.5384708673442 M446.8959288170431,444.5384708673442 L447.1260824253478,444.64112736808016 M447.1260824253478,444.64112736808016 L447.39853713187307,444.64867657710755 M447.39853713187307,444.64867657710755 L447.6974581082476,444.560682371649 M447.6974581082476,444.560682371649 L448.0054744962169,444.3822634751425 M448.0054744962169,444.3822634751425 L448.3046883303731,444.1237906717221 M448.3046883303731,444.1237906717221 L448.57771430042527,443.8002835566093 M448.57771430042527,443.8002835566093 L448.80868920992174,443.4305424717669 M448.80868920992174,443.4305424717669 L448.9841928815664,443.0360480583108 M448.9841928815664,443.0360480583108 L449.0940273732423,442.6397224872505 M449.0940273732423,442.6397224872505 L449.1318092642517,442.26459385439387 M449.1318092642517,442.26459385439387 L449.0953406848117,441.93246074173425 M449.0953406848117,441.93246074173425 L448.9867375359065,441.662625406856 M448.9867375359065,441.662625406856 L448.8123073277883,441.47077149590996 M448.8123073277883,441.47077149590996 L448.5821835518782,441.3680538989321 M448.5821835518782,441.3680538989321 L448.30973762971047,441.3604448498065 M448.30973762971047,441.3604448498065 L448.01080233906123,441.4483942023702 M448.01080233906123,441.4483942023702 L447.7027519523272,441.62679343014867 M447.7027519523272,441.62679343014867 L447.4034922236194,441.8852762548742 M447.4034922236194,441.8852762548742 L447.13041884228386,442.20882086390606 M447.13041884228386,442.20882086390606 L446.89940590407457,442.5786183033143 M446.89940590407457,442.5786183033143 L446.7238822515325,442.9731750494559 M446.7238822515325,442.9731750494559 L446.6140506897553,443.3695544860219 M446.6140506897553,443.3695544860219 L446.5762935938043,443.74471639415344 M441.4635534017744,446.70595121876045 L441.50014750054294,447.03811917412605 M441.50014750054294,447.03811917412605 L441.60891170881933,447.3079387494035 M441.60891170881933,447.3079387494035 L441.7835202779761,447.49973178183853 M441.7835202779761,447.49973178183853 L442.0138222772278,447.6023549230664 M442.0138222772278,447.6023549230664 L442.28643057738606,447.60985202080917 M442.28643057738606,447.60985202080917 L442.58550097540444,447.5217902420576 M442.58550097540444,447.5217902420576 L442.8936549801104,447.34329163087597 M442.8936549801104,447.34329163087597 L443.19298535335344,447.08473234414504 M443.19298535335344,447.08473234414504 L443.4661012115807,446.76113630872936 M443.4661012115807,446.76113630872936 L443.69713365103496,446.3913093144652 M443.69713365103496,446.3913093144652 L443.8726588965223,445.99673714072856 M443.8726588965223,445.99673714072856 L443.98247820035874,445.60034621631934 M443.98247820035874,445.60034621631934 L444.0202083697878,445.2251688121778 M444.0202083697878,445.2251688121778 L443.98365548551067,444.89300579584693 M443.98365548551067,444.89300579584693 L443.87493939846166,444.6231617117325 M443.87493939846166,444.6231617117325 L443.7003748331873,444.43132033737373 M443.7003748331873,444.43132033737373 L443.4701026397152,444.3286360957689 M443.4701026397152,444.3286360957689 L443.19750311919336,444.3210791362338 M443.19750311919336,444.3210791362338 L442.89841846327664,444.4090960057881 M442.89841846327664,444.4090960057881 L442.59023042942084,444.5875749482538 M442.59023042942084,444.5875749482538 L442.29085405157326,444.8461443126906 M442.29085405157326,444.8461443126906 L442.01769075226804,445.16977786373644 M442.01769075226804,445.16977786373644 L441.7866203033723,445.53966121669356 M441.7866203033723,445.53966121669356 L441.61107518778147,445.93429568158433 M441.61107518778147,445.93429568158433 L441.50125870502933,446.3307405592875 M441.50125870502933,446.3307405592875 L441.4635534017744,446.70595121876045 M436.3485334716213,449.6685064390199 L436.38521284944056,450.0007037817486 M436.38521284944056,450.0007037817486 L436.4940893253381,450.27053252919393 M436.4940893253381,450.27053252919393 L436.66883302711955,450.46231259479293 M436.66883302711955,450.46231259479293 L436.89928276446346,450.56490277811514 M436.89928276446346,450.56490277811514 L437.17204461569685,450.5723478056582 M437.17204461569685,450.5723478056582 L437.47126484380783,450.48421822548164 M437.47126484380783,450.48421822548164 L437.779556252466,450.30564002288054 M437.779556252466,450.30564002288054 L438.07900362009485,450.0469939806464 M438.07900362009485,450.0469939806464 L438.35220926707825,449.7233090660863 M438.35220926707825,449.7233090660863 L438.5832984645375,449.35339658609496 M438.5832984645375,449.35339658609496 L438.7588459335265,448.9587462466775 M438.7588459335265,448.9587462466775 L438.8686492319095,448.56229040942395 M438.8686492319095,448.56229040942395 L438.90632849925146,448.1870637242439 M438.90632849925146,448.1870637242439 L438.8696903691836,447.8548713141144 M438.8696903691836,447.8548713141144 L438.76086204723885,447.58501804039594 M438.76086204723885,447.58501804039594 L438.58616237441146,447.3931896081083 M438.58616237441146,447.3931896081083 L438.3557424542483,447.29053829830997 M438.3557424542483,447.29053829830997 L438.08298937792733,447.2830333872847 M438.08298937792733,447.2830333872847 L437.7837548720944,447.3711180460374 M437.7837548720944,447.3711180460374 L437.47542940390434,447.5496765799601 M437.47542940390434,447.5496765799601 L437.175935997691,447.8083327121931 M437.175935997691,447.8083327121931 L436.9026828798357,448.13205516411585 M436.9026828798357,448.13205516411585 L436.6715556542996,448.50202402896053 M436.6715556542996,448.50202402896053 L436.49598831159255,448.8967366842182 M436.49598831159255,448.8967366842182 L436.38618784708325,449.29324649216454 M436.38618784708325,449.29324649216454 L436.3485334716213,449.6685064390199 M470.28328016923405,402.7071120226074 L468.3563150035284,401.600140834754 M431.91214515537513,424.8854635970563 L429.985165910332,423.77478204931117 M465.16726044334916,404.1833615106389 L464.5249738898758,403.8142682865923 M465.16726044334916,404.1833615106389 L463.25110971914813,405.29076461500847 M463.25110971914813,405.29076461500847 L462.60882286724274,404.9216096731271 M434.47035260853437,421.92405935944265 L433.82806234829656,421.5539767893594 M434.47035260853437,421.92405935944265 L432.54906539882285,423.0344309985563 M432.54906539882285,423.0344309985563 L431.9067749827761,422.66428646231196 M463.8256676035309,435.9777507034191 L461.9008509719864,434.86892547274044 M458.71975973874845,438.9355236863898 L456.7949408571842,437.826204402508 M453.611576513955,441.8946147500126 L451.6867555714728,440.78480108265495 M448.5011164078489,444.8550247755536 L446.5762935938043,443.74471639415344 M443.38837789777216,447.81675464506486 L441.4635534017744,446.70595121876045 M438.27335945970884,450.77980524138536 L436.3485334716213,449.6685064390199 M466.4370932796268,410.8424334705749 L465.15269993381224,410.10401994166637 M465.15269993381224,410.10401994166637 L463.23697509699986,411.2116710956988 M463.23697509699986,411.2116710956988 L464.5213690483026,411.95020807588486 M463.24404162034455,408.2515478303574 L463.25110971914813,405.29076461500847 M464.52857913327057,408.9900021548765 L463.24404162034455,408.2515478303574 M463.2299101485871,414.1711346316595 L463.23697509699986,411.2116710956988 M462.58783860317254,413.8018557063062 L463.2299101485871,414.1711346316595 M465.15997937718424,407.14402065975145 L466.4445162844196,407.88235153305243 M465.15997937718424,407.14402065975145 L463.24404162034455,408.2515478303574 M465.16726044334916,404.1833615106389 L465.15997937718424,407.14402065975145 M465.15269993381224,410.10401994166637 L465.14542211269065,413.0633595769643 M464.50335086540895,412.694142369537 L465.14542211269065,413.0633595769643 M435.7470243417864,428.5890790726145 L434.46262344303085,427.8486866021059 M434.46262344303085,427.8486866021059 L432.5417644092583,428.9593062926832 M432.5417644092583,428.9593062926832 L433.82616562844663,429.69982271109484 M434.47035260853437,421.92405935944265 L434.4664875944916,424.8867035776853 M434.4664875944916,424.8867035776853 L435.7510320571952,425.6270133920508 M434.46262344303085,427.8486866021059 L434.45876015386324,430.81000865402444 M433.8166852035352,430.4398020997162 L434.45876015386324,430.81000865402444 M432.5454144966079,425.9971992840468 L432.54906539882285,423.0344309985563 M433.82995927985155,426.7376330463113 L432.5454144966079,425.9971992840468 M432.53811513650123,431.92075224583186 L432.5417644092583,428.9593062926832 M431.8960400305207,431.5504837253538 L432.53811513650123,431.92075224583186 M434.4664875944916,424.8867035776853 L432.5454144966079,425.9971992840468 M465.14542211269065,413.0633595769643 L463.2299101485871,414.1711346316595 M434.45876015386324,430.81000865402444 L432.53811513650123,431.92075224583186" stroke="black"  stroke-width="4"  fill="red"/>
<path d="M466.37776875095415,434.4993582169971 L364.16760112960037,375.63242759702393 M463.8256676035309,435.9777507034191 L361.6154859997242,377.09773775195185 M466.37776875095415,434.4993582169971 L466.3415788203168,434.167303439992 M466.3415788203168,434.167303439992 L466.2333380990716,433.89749119397027 M466.2333380990716,433.89749119397027 L466.05933129688816,433.7056047907225 M466.05933129688816,433.7056047907225 L465.8296692551111,433.60279987249334 M465.8296692551111,433.60279987249334 L465.557695030243,433.5950546318791 M465.557695030243,433.5950546318791 L465.2592150775417,433.68282619837487 M465.2592150775417,433.68282619837487 L464.95157600730414,433.86101706746325 M464.95157600730414,433.86101706746325 L464.6526609369238,434.11927233125556 M464.6526609369238,434.11927233125556 L464.3798444692557,434.44258401105196 M464.3798444692557,434.44258401105196 L464.14898681964735,434.8121560838076 M464.14898681964735,434.8121560838076 L463.9735063050671,435.2065089943311 M463.9735063050671,435.2065089943311 L463.8636048703009,435.60271702449813 M463.8636048703009,435.60271702449813 L463.8256676035309,435.9777507034191 M364.16760112960037,375.63242759702393 L364.1300512739364,375.3009695477978 M364.1300512739364,375.3009695477978 L364.0205291903704,375.0313393187651 M364.0205291903704,375.0313393187651 L363.84539407261116,374.8392096056977 M363.84539407261116,374.8392096056977 L363.61482236321586,374.73575015737174 M363.61482236321586,374.73575015737174 L363.34221000104236,374.72697715878513 M363.34221000104236,374.72697715878513 L363.04340055848354,374.81340743202566 M363.04340055848354,374.81340743202566 L362.73575980255794,374.9900213991567 M362.73575980255794,374.9900213991567 L362.4371709486828,375.2465558029563 M362.4371709486828,375.2465558029563 L362.16498963330343,375.56810268718004 M362.16498963330343,375.56810268718004 L361.93503912817664,375.93596864004354 M361.93503912817664,375.93596864004354 L361.76068501454307,376.3287732906763 M361.76068501454307,376.3287732906763 L361.6520637472295,376.72368095405136 M361.6520637472295,376.72368095405136 L361.6154859997242,377.09773775195185 M463.8256676035309,435.9777507034191 L463.8618986178352,436.3098104423077 M463.8618986178352,436.3098104423077 L463.9701873328632,436.57959824296006 M463.9701873328632,436.57959824296006 L464.1442380444374,436.7714363935086 M464.1442380444374,436.7714363935086 L464.37392985182976,436.87418030622206 M464.37392985182976,436.87418030622206 L464.6459128798553,436.8818657635765 M464.6459128798553,436.8818657635765 L464.94437865641964,436.7940493321802 M464.94437865641964,436.7940493321802 L465.2519838187785,436.6158387942893 M465.2519838187785,436.6158387942893 L465.5508530175536,436.3575935637531 M465.5508530175536,436.3575935637531 L465.8236221584023,436.0343193209564 M465.8236221584023,436.0343193209564 L466.054441868059,435.6648035120635 M466.054441868059,435.6648035120635 L466.22990252093103,435.270512803479 M466.22990252093103,435.270512803479 L466.33980672271264,434.87435866328644 M466.33980672271264,434.87435866328644 L466.37776875095415,434.4993582169971 M361.6154859997242,377.09773775195185 L361.6530768673804,377.42920088727544 M361.6530768673804,377.42920088727544 L361.76264674504085,377.698807016863 M361.76264674504085,377.698807016863 L361.9378254902334,377.8908889656213 M361.9378254902334,377.8908889656213 L362.1684266656127,377.99428792739957 M362.1684266656127,377.99428792739957 L362.44104758227775,378.0030015733876 M362.44104758227775,378.0030015733876 L362.73984270796734,377.91652667893794 M362.73984270796734,377.91652667893794 L363.0474495554552,377.73989304390125 M363.0474495554552,377.73989304390125 L363.34599267746694,377.48336843125406 M363.34599267746694,377.48336843125406 L363.6181269140576,377.16185855438744 M363.6181269140576,377.16185855438744 L363.8480397787292,376.79404834663495 M363.8480397787292,376.79404834663495 L364.02237431300864,376.4013054089151 M364.02237431300864,376.4013054089151 L364.13099854786316,376.006451288248 M364.13099854786316,376.006451288248 L364.16760112960037,375.63242759702393" stroke="black"  stroke-width="4"  fill="red"/>
<path d="M461.2729979961127,437.45647248987143 L359.062804927919,378.56337284537733 M458.71975973874845,438.9355236863898 L356.5095577259136,380.02933298539705 M461.2729979961127,437.45647248987143 L461.2367243233178,437.1243875900787 M461.2367243233178,437.1243875900787 L461.1283705035778,436.85456679158574 M461.1283705035778,436.85456679158574 L460.9542302151851,436.662692515261 M460.9542302151851,436.662692515261 L460.72441965669174,436.55992109014863 M460.72441965669174,436.55992109014863 L460.45229230446034,436.55222772740865 M460.45229230446034,436.55222772740865 L460.1536629055974,436.6400668960297 M460.1536629055974,436.6400668960297 L459.8458867566292,436.81833716393487 M459.8458867566292,436.81833716393487 L459.54685494465707,437.07667900851436 M459.54685494465707,437.07667900851436 L459.27394885970796,437.40007941868146 M459.27394885970796,437.40007941868146 L459.0430333190779,437.7697375649487 M459.0430333190779,437.7697375649487 L458.8675317966183,438.1641678508356 M458.8675317966183,438.1641678508356 L458.7576450591408,438.5604414488549 M458.7576450591408,438.5604414488549 L458.71975973874845,438.9355236863898 M359.062804927919,378.56337284537733 L359.02517140225643,378.23188455149227 M359.02517140225643,378.23188455149227 L358.9155364345168,377.9622453956764 M358.9155364345168,377.9622453956764 L358.7402681746136,377.77012721680126 M358.7402681746136,377.77012721680126 L358.5095484023247,377.66670047256355 M358.5095484023247,377.66670047256355 L358.23678345001804,377.65797842152773 M358.23678345001804,377.65797842152773 L357.93782515071376,377.74447527620623 M357.93782515071376,377.74447527620623 L357.63004792339956,377.9211675904121 M357.63004792339956,377.9211675904121 L357.3313429178846,378.17778755334047 M357.3313429178846,378.17778755334047 L357.05907252347913,378.4994222357534 M357.05907252347913,378.4994222357534 L356.82906458257935,378.86737347051155 M356.82906458257935,378.86737347051155 L356.6546898068408,379.26025490066974 M356.6546898068408,379.26025490066974 L356.5460834529997,379.65522775419197 M356.5460834529997,379.65522775419197 L356.5095577259136,380.02933298539705 M458.71975973874845,438.9355236863898 L458.7560745281155,439.267613541838 M458.7560745281155,439.267613541838 L458.8644763744825,439.5374098774124 M458.8644763744825,439.5374098774124 L459.0386605971479,439.7292358765099 M459.0386605971479,439.7292358765099 L459.2685009327486,439.8319462698986 M459.2685009327486,439.8319462698986 L459.5406370834502,439.83957982772927 M459.5406370834502,439.83957982772927 L459.8392522864397,439.75169578199166 M459.8392522864397,439.75169578199166 L460.1469944972652,439.5734058453003 M460.1469944972652,439.5734058453003 L460.44598040377355,439.31507404622135 M460.44598040377355,439.31507404622135 L460.71883913220677,438.9917110947218 M460.71883913220677,438.9917110947218 L460.94971671400737,438.6221092384772 M460.94971671400737,438.6221092384772 L461.1251983714301,438.2277411790976 M461.1251983714301,438.2277411790976 L461.2350878883525,437.83152148855925 M461.2350878883525,437.83152148855925 L461.2729979961127,437.45647248987143 M356.5095577259136,380.02933298539705 L356.54723229623113,380.36082635934594 M356.54723229623113,380.36082635934594 L356.6569150906248,380.630441398486 M356.6569150906248,380.630441398486 L356.83222700258443,380.8225117888902 M356.83222700258443,380.8225117888902 L357.06297625217337,380.92587802070506 M357.06297625217337,380.92587802070506 L357.3357497542326,380.93454069771417 M357.3357497542326,380.93454069771417 L357.63469371701575,380.8479992096705 M357.63469371701575,380.8479992096705 L357.942437005829,380.6712872274595 M357.942437005829,380.6712872274595 L358.2410962458933,380.414677067664 M358.2410962458933,380.414677067664 L358.5133195320933,380.0930794139233 M358.5133195320933,380.0930794139233 L358.74328981388464,379.7251839500754 M358.74328981388464,379.7251839500754 L358.9176450070567,379.33236425711436 M358.9176450070567,379.33236425711436 L359.02625434085206,378.93744496366054 M359.02625434085206,378.93744496366054 L359.062804927919,378.56337284537733" stroke="black"  stroke-width="4"  fill="red"/>
<path d="M456.1659526414027,440.41490440305887 L353.955744205354,381.4956182801556 M453.611576513955,441.8946147500126 L351.40136417780224,382.96222883784554 M456.1659526414027,440.41490440305887 L456.1295942419767,440.0827899157166 M456.1295942419767,440.0827899157166 L456.0211281471138,439.8129600547946 M456.0211281471138,439.8129600547946 L455.8468536618281,439.6210982880002 M455.8468536618281,439.6210982880002 L455.61689508602706,439.51836004331665 M455.61689508602706,439.51836004331665 L455.3446148014573,439.5107184290813 M455.3446148014573,439.5107184290813 L455.04583524383304,439.59862560413217 M455.04583524383304,439.59862560413217 L454.7379225335379,439.77697497116316 M454.7379225335379,439.77697497116316 L454.43877329653543,440.03540380084274 M454.43877329653543,440.03540380084274 L454.1657778460454,440.35889281197575 M454.1657778460454,440.35889281197575 L453.93480499479824,440.7286367189744 M453.93480499479824,440.7286367189744 L453.7592818540741,441.12314476284416 M453.7592818540741,441.12314476284416 L453.6494107515263,441.51948341858315 M453.6494107515263,441.51948341858315 L453.611576513955,441.8946147500126 M353.955744205354,381.4956182801556 L353.9180260257145,381.16410027182604 M353.9180260257145,381.16410027182604 L353.8082789978435,380.8944516833998 M353.8082789978435,380.8944516833998 L353.6328768859029,380.7023454174827 M353.6328768859029,380.7023454174827 L353.4020095510076,380.59895106690965 M353.4020095510076,380.59895106690965 L353.1290922044994,380.59027983468025 M353.1290922044994,380.59027983468025 L352.8299843367328,380.67684367101396 M352.8299843367328,380.67684367101396 L352.5220711562457,380.8536140347915 M352.5220711562457,380.8536140347915 L352.2232493163418,381.1103199571855 M352.2232493163418,381.1103199571855 L351.95089009518057,381.4320423092246 M351.95089009518057,381.4320423092246 L351.7208252992539,381.8000785156706 M351.7208252992539,381.8000785156706 L351.5464292511494,382.1930371045142 M351.5464292511494,382.1930371045142 L351.4378387483337,382.5880746426186 M351.4378387483337,382.5880746426186 L351.40136417780224,382.96222883784554 M453.611576513955,441.8946147500126 L453.6479760630637,442.22673418664385 M453.6479760630637,442.22673418664385 L453.75649021725377,442.49653956721056 M453.75649021725377,442.49653956721056 L453.930808661771,442.68835303214655 M453.930808661771,442.68835303214655 L454.1607970261214,442.7910302189664 M454.1607970261214,442.7910302189664 L454.43308610447264,442.798612006664 M454.43308610447264,442.798612006664 L454.731851446432,442.7106599422213 M454.731851446432,442.7106599422213 L455.0397301883571,442.53229090646505 M455.0397301883571,442.53229090646505 L455.3388334859082,442.2738721345247 M455.3388334859082,442.2738721345247 L455.611781550216,441.9504206037491 M455.611781550216,441.9504206037491 L455.8427164238884,441.5807330129185 M455.8427164238884,441.5807330129185 L456.0182196961019,441.18628722017166 M456.0182196961019,441.18628722017166 L456.1280935907619,440.7900024893268 M456.1280935907619,440.7900024893268 L456.1659526414027,440.41490440305887 M351.40136417780224,382.96222883784554 L351.43912343496345,383.2937519200687 M351.43912343496345,383.2937519200687 L351.5489183219049,383.5633763746998 M351.5489183219049,383.5633763746998 L351.724364110601,383.75543482788197 M351.724364110601,383.75543482788197 L351.95526093406255,383.85876864022464 M351.95526093406255,383.85876864022464 L352.2281868255834,383.8673804770201 M352.2281868255834,383.8673804770201 L352.52728033712157,383.7807719951058 M352.52728033712157,383.7807719951058 L352.83515954908165,383.60398196326855 M352.83515954908165,383.60398196326855 L353.13393558981926,383.34728585598117 M353.13393558981926,383.34728585598117 L353.40624767338863,383.0256005539518 M353.40624767338863,383.0256005539518 L353.6362747916859,382.657620144201 M353.6362747916859,382.657620144201 L353.81065125386715,382.2647233168849 M353.81065125386715,382.2647233168849 L353.91924474928703,381.869739356118 M353.91924474928703,381.869739356118 L353.955744205354,381.4956182801556" stroke="black"  stroke-width="4"  fill="red"/>
<path d="M451.0566311662003,443.3746548374334 L348.8464174547369,384.42916476670746 M448.5011164078489,444.8550247755536 L346.29090384755284,385.89642617502994 M451.0566311662003,443.3746548374334 L451.02018831804247,443.0425105665024 M451.02018831804247,443.0425105665024 L450.91160943274417,442.7726719086287 M450.91160943274417,442.7726719086287 L450.73720061014507,442.5808227036315 M450.73720061014507,442.5808227036315 L450.50709409829676,442.47811756888245 M450.50709409829676,442.47811756888245 L450.2346603151101,442.47052801473745 M450.2346603151101,442.47052801473745 L449.93573133230177,442.55850276285895 M449.93573133230177,442.55850276285895 L449.6276810555272,442.7369318112208 M449.6276810555272,442.7369318112208 L449.32841523250363,442.995447148483 M449.32841523250363,442.995447148483 L449.05532990690375,443.3190250721571 M449.05532990690375,443.3190250721571 L448.82429986922114,443.6888546913859 M448.82429986922114,443.6888546913859 L448.648754956054,444.0834406116234 M448.648754956054,444.0834406116234 L448.53889920861377,444.4798445202103 M448.53889920861377,444.4798445202103 L448.5011164078489,444.8550247755536 M348.8464174547369,384.42916476670746 L348.80861489952133,384.0976168493424 M348.80861489952133,384.0976168493424 L348.69875529687226,383.82795909105033 M348.69875529687226,383.82795909105033 L348.52321919326846,383.63586478943915 M348.52321919326846,383.63586478943915 L348.292204377904,383.5325027621575 M348.292204377904,383.5325027621575 L348.0191340718219,383.5238826570409 M348.0191340718219,383.5238826570409 L347.71987737005793,383.61051304499864 M347.71987737005793,383.61051304499864 L347.41182723205515,383.7873620349325 M347.41182723205515,383.7873620349325 L347.11288939746476,384.044153443105 M347.11288939746476,384.044153443105 L346.84044084050834,384.3659637732823 M346.84044084050834,384.3659637732823 L346.6103193140747,384.73408490315 M346.6103193140747,384.73408490315 L346.43590183955314,385.1271207679423 M346.43590183955314,385.1271207679423 L346.3273269078483,385.52222318408224 M346.3273269078483,385.52222318408224 L346.29090384755284,385.89642617502994 M448.5011164078489,444.8550247755536 L448.5376004839901,445.18717396324774 M448.5376004839901,445.18717396324774 L448.64622734003245,445.4569881935755 M448.64622734003245,445.4569881935755 L448.82068026108954,445.6487890058738 M448.82068026108954,445.6487890058738 L449.05081661100195,445.7514330345665 M449.05081661100195,445.7514330345665 L449.32325918326336,445.758962740485 M449.32325918326336,445.758962740485 L449.62217385448133,445.6709431348926 M449.62217385448133,445.6709431348926 L449.9301901325276,445.4924944178138 M449.9301901325276,445.4924944178138 L450.22941005837987,445.23398910645267 M450.22941005837987,445.23398910645267 L450.5024479680206,444.91044868483857 M450.5024479680206,444.91044868483857 L450.73343997132986,444.5406754299926 M450.73343997132986,444.5406754299926 L450.90896489825076,444.1461518516897 M450.90896489825076,444.1461518516897 L451.01882357177817,443.7498018151428 M451.01882357177817,443.7498018151428 L451.0566311662003,443.3746548374334 M346.29090384755284,385.89642617502994 L346.3287475583467,386.2279791341909 M346.3287475583467,386.2279791341909 L346.4386549311987,386.497612811193 M346.4386549311987,386.497612811193 L346.61423485052427,386.6896592101823 M346.61423485052427,386.6896592101823 L346.84527920379395,386.7929606515688 M346.84527920379395,386.7929606515688 L347.1183580501305,386.80152133978453 M347.1183580501305,386.80152133978453 L347.41760029982555,386.714846337836 M347.41760029982555,386.714846337836 L347.72561643914446,386.53797767973487 M347.72561643914446,386.53797767973487 L348.02450851712075,386.28119605495664 M348.02450851712075,386.28119605495664 L348.29690990698896,385.9594227961384 M348.29690990698896,385.9594227961384 L348.5269936992187,385.59135751062496 M348.5269936992187,385.59135751062496 L348.7013914701987,385.1983834973002 M348.7013914701987,385.1983834973002 L348.80996952846544,384.8033346061215 M348.80996952846544,384.8033346061215 L348.8464174547369,384.42916476670746" stroke="black"  stroke-width="4"  fill="red"/>
<path d="M445.94503204852606,446.33572467465393 L343.7348231675612,387.36401317114974 M443.38837789777216,447.81675464506486 L341.1781752259895,388.83192586345154 M445.94503204852606,446.33572467465393 L445.9085048942246,446.00355050245344 M445.9085048942246,446.00355050245344 L445.7998130667967,445.7337031024538 M445.7998130667967,445.7337031024538 L445.6252698806077,445.5418664453871 M445.6252698806077,445.5418664453871 L445.3950149426888,445.4391946809716 M445.3950149426888,445.4391946809716 L445.122427551059,445.43165723410175 M445.122427551059,445.43165723410175 L444.8233491918999,445.51969951854755 M444.8233491918999,445.51969951854755 L444.51516125657054,445.6982083015722 M444.51516125657054,445.6982083015722 L444.2157787732887,445.95681019787816 M444.2157787732887,445.95681019787816 L443.9426035195623,446.28047708123313 M443.9426035195623,446.28047708123313 L443.7115159625886,446.65039262894186 M443.7115159625886,446.65039262894186 L443.53594957982045,447.045056279226 M443.53594957982045,447.045056279226 L443.4261089072867,447.4415256360304 M443.4261089072867,447.4415256360304 L443.38837789777216,447.81675464506486 M343.7348231675612,387.36401317114974 L343.69693637985847,387.03243522782293 M343.69693637985847,387.03243522782293 L343.5869640514057,386.7627683536219 M343.5869640514057,386.7627683536219 L343.4112939306585,386.5706860021159 M343.4112939306585,386.5706860021159 L343.18013114567935,386.46735655571507 M343.18013114567935,386.46735655571507 L342.90690777110643,386.45878762395625 M342.90690777110643,386.45878762395625 L342.6075022850637,386.54548452660913 M342.6075022850637,386.54548452660913 L342.299315098284,386.7224121950917 M342.299315098284,386.7224121950917 L342.000261195461,386.97928913965137 M342.000261195461,386.97928913965137 L341.72772325022424,387.30118749438395 M341.72772325022424,387.30118749438395 L341.49754466076735,387.669393761813 M341.49754466076735,387.669393761813 L341.32310606279776,388.0625067574555 M341.32310606279776,388.0625067574555 L341.21454642191173,388.4576742453225 M341.21454642191173,388.4576742453225 L341.1781752259895,388.83192586345154 M443.38837789777216,447.81675464506486 L443.4249462679,448.1489337539201 M443.4249462679,448.1489337539201 L443.53368622031746,448.41875663851397 M443.53368622031746,448.41875663851397 L443.70827341571675,448.6105449444042 M443.70827341571675,448.6105449444042 L443.93855816508795,448.7131555986256 M443.93855816508795,448.7131555986256 L444.21115434107236,448.7206331755708 M444.21115434107236,448.7206331755708 L444.5102184450158,448.63254597734294 M444.5102184450158,448.63254597734294 L444.8183723512281,448.45401752561577 M444.8183723512281,448.45401752561577 L445.11770882728047,448.19542571162407 M445.11770882728047,448.19542571162407 L445.39083663524787,447.8717963520468 M445.39083663524787,447.8717963520468 L445.62188617711536,447.5019371728514 M445.62188617711536,447.5019371728514 L445.797432684429,447.1073358229645 M445.797432684429,447.1073358229645 L445.90727617423573,446.71092042600304 M445.90727617423573,446.71092042600304 L445.94503204852606,446.33572467465393 M341.1781752259895,388.83192586345154 L341.21610315686945,389.1635088684295 M341.21610315686945,389.1635088684295 L341.3261234094854,389.4331515744225 M341.3261234094854,389.4331515744225 L341.50183725644644,389.6251860646109 M341.50183725644644,389.6251860646109 L341.73302955254303,389.7284549211166 M341.73302955254303,389.7284549211166 L342.00626146259884,389.73696441449806 M342.00626146259884,389.73696441449806 L342.30565255303253,389.6502228419937 M342.30565255303253,389.6502228419937 L342.61380571094134,389.4732755052422 M342.61380571094134,389.4732755052422 L342.91281374736485,389.21640839983434 M342.91281374736485,389.21640839983434 L343.1853044959942,388.8945471378249 M343.1853044959942,388.8945471378249 L343.415445370739,388.5263967187147 M343.415445370739,388.5263967187147 L343.5898643760758,388.13334553330293 M343.5898643760758,388.13334553330293 L343.69842703469254,387.7382316574319 M343.69842703469254,387.7382316574319 L343.7348231675612,387.36401317114974" stroke="black"  stroke-width="4"  fill="red"/>
<path d="M440.83115376504287,449.2981147971658 L338.62095983398126,390.30016436036817 M438.27335945970884,450.77980524138536 L336.0631768025964,391.7687287703807 M440.83115376504287,449.2981147971658 L440.7945413636351,448.96591123365897 M440.7945413636351,448.96591123365897 L440.68573729731304,448.6960546510994 M440.68573729731304,448.6960546510994 L440.51105899712223,448.50423094752364 M440.51105899712223,448.50423094752364 L440.28065632398705,448.4015921298141 M440.28065632398705,448.4015921298141 L440.007915366452,448.39410674914154 M440.007915366452,448.39410674914154 L439.7086871462768,448.48221684217486 M439.7086871462768,448.48221684217486 L439.40036176516463,448.6608052366202 M439.40036176516463,448.6608052366202 L439.10086224238563,448.9194939201005 M439.10086224238563,448.9194939201005 L438.8275971599423,449.2432497219984 M438.8275971599423,449.2432497219984 L438.5964528177168,449.61325079646195 M438.5964528177168,449.61325079646195 L438.4208642012781,450.0079926484909 M438.4208642012781,450.0079926484909 L438.3110395428701,450.4045269425324 M438.3110395428701,450.4045269425324 L438.27335945970884,450.77980524138536 M338.62095983398126,390.30016436036817 L338.58298787333314,389.96855689623806 M338.58298787333314,389.96855689623806 L338.47290352297887,389.6988804692115 M338.47290352297887,389.6988804692115 L338.29709863547606,389.50681046932095 M338.29709863547606,389.50681046932095 L338.06578857261314,389.40351318342147 M338.06578857261314,389.40351318342147 L337.79241217299716,389.3949953837844 M337.79241217299716,389.3949953837844 L337.49285741889815,389.48175907047477 M337.49285741889815,389.48175907047477 L337.1845333969278,389.65876529488787 M337.1845333969278,389.65876529488787 L336.8853630473263,389.91572800154734 M336.8853630473263,389.91572800154734 L336.6127358137503,390.23771433975594 M336.6127358137503,390.23771433975594 L336.3825008956458,390.60600534638536 M336.3825008956458,390.60600534638536 L336.20804041028885,390.9991959403242 M336.20804041028885,390.9991959403242 L336.0994969993455,391.3944279935169 M336.0994969993455,391.3944279935169 L336.0631768025964,391.7687287703807 M438.27335945970884,450.77980524138536 L438.31001311020754,451.1120137351076 M438.31001311020754,451.1120137351076 L438.41886533425003,451.38184578481923 M438.41886533425003,451.38184578481923 L438.5935876687276,451.57362111244674 M438.5935876687276,451.57362111244674 L438.82402016471957,451.67619879385666 M438.82402016471957,451.67619879385666 L439.09676990188626,451.68362428291056 M439.09676990188626,451.68362428291056 L439.3959838470206,451.59546926386747 M439.3959838470206,451.59546926386747 L439.70427516862986,451.41686120075923 M439.70427516862986,451.41686120075923 L440.0037286501944,451.1581826118913 M440.0037286501944,451.1581826118913 L440.27694625707954,450.8344643555103 M440.27694625707954,450.8344643555103 L440.50805256555896,450.46451967572716 M440.50805256555896,450.46451967572716 L440.6836213029265,450.0698401487871 M440.6836213029265,450.0698401487871 L440.7934487913973,449.67335983198996 M440.7934487913973,449.67335983198996 L440.83115376504287,449.2981147971658 M336.0631768025964,391.7687287703807 L336.1011899394409,392.1003412899202 M336.1011899394409,392.1003412899202 L336.2113222464045,392.3699935316147 M336.2113222464045,392.3699935316147 L336.3871708849366,392.56201564578487 M336.3871708849366,392.56201564578487 L336.6185104701458,392.6652523160163 M336.6185104701458,392.6652523160163 L336.89189540047033,392.6737106558038 M336.89189540047033,392.6737106558038 L337.1914357392203,392.5869022870937 M337.1914357392203,392.5869022870937 L337.49972570213635,392.4098763943352 M337.49972570213635,392.4098763943352 L337.7988501516262,392.15292353885997 M337.7988501516262,392.15292353885997 L338.0714301590768,391.8309743147597 M338.0714301590768,391.8309743147597 L338.3016273440539,391.46273918225563 M338.3016273440539,391.46273918225563 L338.4760682332789,391.06961042295256 M338.4760682332789,391.06961042295256 L338.5846146747246,390.6744319990135 M338.5846146747246,390.6744319990135 L338.62095983398126,390.30016436036817" stroke="black"  stroke-width="4"  fill="red"/>
<path d="M311.74567829760133,360.0385572068127 L311.73589081735236,357.0822037798125 M442.20901711442446,435.2608006658397 L442.21375158258877,432.29600522740657 M311.74567829760133,360.0385572068127 L442.20901711442446,435.2608006658397 M311.73589081735236,357.0822037798125 L442.21375158258877,432.29600522740657 M488.2542495389053,408.6140852207454 L488.2641091826477,405.6522693867111 M442.20901711442446,435.2608006658397 L488.2542495389053,408.6140852207454 M442.21375158258877,432.29600522740657 L488.2641091826477,405.6522693867111 M357.7909144079909,333.6926325893653 L357.7862521049615,330.7392584202316 M488.2542495389053,408.6140852207454 L357.7909144079909,333.6926325893653 M488.2641091826477,405.6522693867111 L357.7862521049615,330.7392584202316 M357.7909144079909,333.6926325893653 L311.74567829760133,360.0385572068127 M357.7862521049615,330.7392584202316 L311.73589081735236,357.0822037798125" stroke="black"  stroke-width="4"  fill="red"/>
<path d="M435.7470243417864,428.5890790726145 L435.7510320571952,425.6270133920508 M435.7510320571952,425.6270133920508 L433.82995927985155,426.7376330463113 M433.82616562844663,429.69982271109484 L433.82995927985155,426.7376330463113 M435.7470243417864,428.5890790726145 L433.82616562844663,429.69982271109484 M334.7262563795877,373.30640014858074 L334.7190221550559,370.3515208444561 M334.7190221550559,370.3515208444561 L333.44586976608747,369.61761257366965 M333.43849287447495,366.66215924429764 L333.44586976608747,369.61761257366965 M333.43849287447495,366.66215924429764 L334.71178632282925,367.39598486400405 M334.71178632282925,367.39598486400405 L334.7045488823719,364.439791988296 M434.47035260853437,421.92405935944265 L334.7045488823719,364.439791988296 M434.47035260853437,421.92405935944265 L434.4664875944916,424.8867035776853 M434.4664875944916,424.8867035776853 L435.7510320571952,425.6270133920508 M435.7470243417864,428.5890790726145 L434.46262344303085,427.8486866021059 M434.46262344303085,427.8486866021059 L434.45876015386324,430.81000865402444 M334.7262563795877,373.30640014858074 L434.45876015386324,430.81000865402444 M433.82995927985155,426.7376330463113 L432.5454144966079,425.9971992840468 M434.4664875944916,424.8867035776853 L432.5454144966079,425.9971992840468 M331.51743215443685,367.762928252473 L331.5250231060353,370.7185055585112 M332.7907249848971,368.4968761951375 L331.51743215443685,367.762928252473 M332.7832734365329,365.5405592602674 L332.7907249848971,368.4968761951375 M432.54906539882285,423.0344309985563 L332.7832734365329,365.5405592602674 M432.5454144966079,425.9971992840468 L432.54906539882285,423.0344309985563 M432.5417644092583,428.9593062926832 L433.82616562844663,429.69982271109484 M432.53811513650123,431.92075224583186 L432.5417644092583,428.9593062926832 M332.80562311434045,374.4075393511473 L432.53811513650123,431.92075224583186 M332.7981748773156,371.4525361524394 L332.80562311434045,374.4075393511473 M331.5250231060353,370.7185055585112 L332.7981748773156,371.4525361524394 M434.46262344303085,427.8486866021059 L432.5417644092583,428.9593062926832 M334.7190221550559,370.3515208444561 L332.7981748773156,371.4525361524394 M334.7262563795877,373.30640014858074 L332.80562311434045,374.4075393511473 M333.44586976608747,369.61761257366965 L331.5250231060353,370.7185055585112 M333.43849287447495,366.66215924429764 L331.51743215443685,367.762928252473 M334.71178632282925,367.39598486400405 L332.7907249848971,368.4968761951375 M334.7045488823719,364.439791988296 L332.7832734365329,365.5405592602674 M434.47035260853437,421.92405935944265 L432.54906539882285,423.0344309985563 M434.45876015386324,430.81000865402444 L432.53811513650123,431.92075224583186" stroke="black"  stroke-width="4"  fill="red"/>
<path d="M466.4370932796268,410.8424334705749 L466.4445162844196,407.88235153305243 M466.4445162844196,407.88235153305243 L464.52857913327057,408.9900021548765 M464.5213690483026,411.95020807588486 L464.52857913327057,408.9900021548765 M466.4370932796268,410.8424334705749 L464.5213690483026,411.95020807588486 M365.4129194732571,355.71309468011543 L365.40909978118435,352.76019765018566 M365.40909978118435,352.76019765018566 L364.1359399351932,352.02824239846575 M364.1319783335129,349.07477265428867 L364.1359399351932,352.02824239846575 M364.1319783335129,349.07477265428867 L365.4052792413744,349.8066452583227 M365.4052792413744,349.8066452583227 L365.4014578535449,346.85243728632736 M465.16726044334916,404.1833615106389 L365.4014578535449,346.85243728632736 M465.16726044334916,404.1833615106389 L465.15997937718424,407.14402065975145 M465.15997937718424,407.14402065975145 L466.4445162844196,407.88235153305243 M466.4370932796268,410.8424334705749 L465.15269993381224,410.10401994166637 M465.15269993381224,410.10401994166637 L465.14542211269065,413.0633595769643 M365.4129194732571,355.71309468011543 L465.14542211269065,413.0633595769643 M464.52857913327057,408.9900021548765 L463.24404162034455,408.2515478303574 M465.15997937718424,407.14402065975145 L463.24404162034455,408.2515478303574 M362.21603042720585,350.1726120169609 L362.220204952308,353.12620573272613 M363.4893310023235,350.90460645592924 L362.21603042720585,350.1726120169609 M363.4852966436259,347.95027443001663 L363.4893310023235,350.90460645592924 M463.25110971914813,405.29076461500847 L363.4852966436259,347.95027443001663 M463.24404162034455,408.2515478303574 L463.25110971914813,405.29076461500847 M463.23697509699986,411.2116710956988 L464.5213690483026,411.95020807588486 M463.2299101485871,414.1711346316595 L463.23697509699986,411.2116710956988 M363.4973970339512,356.811303739326 L463.2299101485871,414.1711346316595 M363.49336446566593,353.85828281961744 L363.4973970339512,356.811303739326 M362.220204952308,353.12620573272613 L363.49336446566593,353.85828281961744 M465.15269993381224,410.10401994166637 L463.23697509699986,411.2116710956988 M365.40909978118435,352.76019765018566 L363.49336446566593,353.85828281961744 M365.4129194732571,355.71309468011543 L363.4973970339512,356.811303739326 M364.1359399351932,352.02824239846575 L362.220204952308,353.12620573272613 M364.1319783335129,349.07477265428867 L362.21603042720585,350.1726120169609 M365.4052792413744,349.8066452583227 L363.4893310023235,350.90460645592924 M365.4014578535449,346.85243728632736 L363.4852966436259,347.95027443001663 M465.16726044334916,404.1833615106389 L463.25110971914813,405.29076461500847 M465.14542211269065,413.0633595769643 L463.2299101485871,414.1711346316595" stroke="black"  stroke-width="4"  fill="red"/></svg>