<svg version="1.1" xmlns="http://www.w3.org/2000/svg" viewBox="-17.955392461574153 -16.341172446501936 35.910784923148306 31.175224364769775" fill="none" stroke="black" stroke-width="0.6%" vector-effect="non-scaling-stroke">
    <path d="M -0.02521 0.98191 L -0.02521 0.02463 L 16.95539 -13.57359 L 0.02521 -15.34117 L -16.95539 -1.74295 L -0.02521 0.02463" />
    <path d="M 16.95539 -12.61631 L 16.95539 -13.57359" />
    <path d="M -0.02521 0.98191 L 16.95539 -12.61631" />
    <path d="M -16.95539 -0.78566 L -16.95539 -1.74295" />
    <path d="M -16.95539 -0.78566 L -0.02521 0.98191" />
    <path d="M -11.9253 12.33108 A 6.25 5.62743 231.31193 0 1 -10.56999 10.51233" />
    <path d="M 0.51671 13.63008 L 0.51671 0.54794" />
    <path d="M 12.88635 -8.40161 L 12.88635 -9.35778" />
    <path d="M 0.51671 1.50411 L 12.88635 -8.40161" />
    <path d="M 0.54671 1.79749 L 1.01256 1.84613" />
    <path d="M 1.24464 1.66027 A 6.25 5.62743 231.31193 0 1 1.77051 0.81745" />
    <path d="M 3.67732 -0.70953 A 6.25 5.62743 231.31193 0 1 4.61469 -1.03849" />
    <path d="M 6.39151 -1.18026 A 6.25 5.62743 231.31193 0 1 6.85005 -1.12577" />
    <path d="M 8.05167 -0.80691 A 6.25 5.62743 231.31193 0 1 8.40003 -0.66418" />
    <path d="M 9.35018 -0.14393 A 6.25 5.62743 231.31193 0 1 11.9253 2.98546 L 13.59177 3.15945 L 13.59177 -9.92269" />
    <path d="M 5.43922 -2.12048 A 0.5 0.45019 51.31193 0 0 5.58777 -2.55684" />
    <path d="M 7.32035 -1.92408 A 0.5 0.45019 51.31193 1 0 6.69527 -2.70465" />
    <path d="M 9.20149 -1.72769 A 0.5 0.45019 51.31193 1 0 8.57641 -2.50825" />
    <path d="M 11.08262 -1.53129 A 0.5 0.45019 51.31193 1 0 10.45754 -2.31185" />
    <path d="M 13.84648 2.95547 L 13.59177 3.15945" />
    <path d="M 13.84648 2.95547 L 13.84648 -10.12667" />
    <path d="M 1.49935 1.4563 A 6.25 5.62743 231.31193 0 1 2.02522 0.61348" />
    <path d="M -13.84648 -0.46108 L -13.84648 12.36107 L -12.18001 12.53506 A 6.25 5.62743 231.31193 0 1 -10.69899 10.61227 A 6.25 5.62743 231.31193 0 1 -1.40447 13.66006 L 0.262 13.83405 L 0.262 0.75191" />
    <path d="M 0.51671 13.63008 L 0.262 13.83405" />
    <path d="M -11.9253 12.33108 L -12.18001 12.53506" />
    <path d="M 0.51671 1.82151 L 5.43922 -2.12048" />
    <path d="M 0.51671 3.52434 L 7.32035 -1.92408" />
    <path d="M 0.51671 2.24321 L 6.69527 -2.70465" />
    <path d="M 0.51671 5.22716 L 9.20149 -1.72769" />
    <path d="M 0.51671 3.94603 L 8.57641 -2.50825" />
    <path d="M 0.51671 6.92999 L 11.08262 -1.53129" />
    <path d="M 0.51671 5.64886 L 10.45754 -2.31185" />
</svg>