<svg version="1.1" xmlns="http://www.w3.org/2000/svg" viewBox="-17.955392461574153 -16.341172446501936 35.910784923148306 31.37919771553921" fill="none" stroke="black" stroke-width="0.6%" vector-effect="non-scaling-stroke">
    <path d="M -0.02521 0.98191 L -0.02521 0.02463 L 16.95539 -13.57359 L 0.02521 -15.34117 L -16.95539 -1.74295 L -0.02521 0.02463" />
    <path d="M 16.95539 -12.61631 L 16.95539 -13.57359" />
    <path d="M -0.02521 0.98191 L 16.95539 -12.61631" />
    <path d="M -16.95539 -0.78566 L -16.95539 -1.74295" />
    <path d="M -16.95539 -0.78566 L -0.02521 0.98191" />
    <path d="M -12.18001 12.53506 A 6.25 5.62743 231.31193 0 1 -10.8247 10.7163" />
    <path d="M 0.262 13.83405 L 0.262 0.75191" />
    <path d="M -14.10119 -0.48767 L -14.10119 12.56504 L -12.43472 12.73903 A 6.25 5.62743 231.31193 0 1 -10.9537 10.81624 A 6.25 5.62743 231.31193 0 1 -1.65918 13.86404 L 0.00729 14.03802 L 0.00729 0.95589" />
    <path d="M 0.262 13.83405 L 0.00729 14.03802" />
    <path d="M 13.84648 2.95547 L 13.59177 3.15945 L 13.59177 -9.92269" />
    <path d="M 13.84648 2.95547 L 13.84648 -10.12667" />
    <path d="M 1.49935 1.4563 A 6.25 5.62743 231.31193 0 1 2.02522 0.61348" />
    <path d="M 1.24464 1.66027 A 6.25 5.62743 231.31193 0 1 1.77051 0.81745" />
    <path d="M 3.67732 -0.70953 A 6.25 5.62743 231.31193 0 1 4.61469 -1.03849" />
    <path d="M 6.39151 -1.18026 A 6.25 5.62743 231.31193 0 1 6.85005 -1.12577" />
    <path d="M 8.05167 -0.80691 A 6.25 5.62743 231.31193 0 1 8.40003 -0.66418" />
    <path d="M 9.35018 -0.14393 A 6.25 5.62743 231.31193 0 1 11.9253 2.98546 L 13.59177 3.15945" />
    <path d="M 0.54671 1.79749 L 1.01256 1.84613" />
    <path d="M 4.87165 -2.93954 A 0.5 0.45019 231.31193 0 1 5.43922 -2.12048" />
    <path d="M 6.69527 -2.70465 A 0.5 0.45019 231.31193 0 1 7.32035 -1.92408" />
    <path d="M 8.57641 -2.50825 A 0.5 0.45019 231.31193 0 1 9.20149 -1.72769" />
    <path d="M 11.08262 -1.53129 A 0.5 0.45019 51.31193 1 0 10.45754 -2.31185" />
    <path d="M -12.18001 12.53506 L -12.43472 12.73903" />
    <path d="M 0.262 2.02549 L 5.43922 -2.12048" />
    <path d="M 0.262 3.72831 L 7.32035 -1.92408" />
    <path d="M 0.262 2.44718 L 6.69527 -2.70465" />
    <path d="M 0.262 5.43113 L 9.20149 -1.72769" />
    <path d="M 0.262 4.15 L 8.57641 -2.50825" />
    <path d="M 0.262 7.13396 L 11.08262 -1.53129" />
    <path d="M 0.262 5.85283 L 10.45754 -2.31185" />
</svg>