<svg version="1.1" xmlns="http://www.w3.org/2000/svg" viewBox="-17.955392461574153 -16.341172446501936 35.910784923148306 31.27721104015449" fill="none" stroke="black" stroke-width="0.6%" vector-effect="non-scaling-stroke">
    <path d="M -0.02521 0.98191 L -0.02521 0.02463 L 16.95539 -13.57359 L 0.02521 -15.34117 L -16.95539 -1.74295 L -0.02521 0.02463" />
    <path d="M 16.95539 -12.61631 L 16.95539 -13.57359" />
    <path d="M -0.02521 0.98191 L 16.95539 -12.61631" />
    <path d="M -16.95539 -0.78566 L -16.95539 -1.74295" />
    <path d="M -16.95539 -0.78566 L -0.02521 0.98191" />
    <path d="M -12.05265 12.43307 A 6.25 5.62743 231.31193 0 1 -10.69735 10.61432" />
    <path d="M 0.38936 13.73206 L 0.38936 0.64993" />
    <path d="M 0.38936 13.73206 L 0.13465 13.93604 L 0.13465 0.8539" />
    <path d="M -13.97384 -0.47438 L -13.97384 12.46306 L -12.30736 12.63704 A 6.25 5.62743 231.31193 0 1 -10.82635 10.71425 A 6.25 5.62743 231.31193 0 1 -1.53183 13.76205 L 0.13465 13.93604" />
    <path d="M -12.40525 7.48275 A 0.5 0.45019 231.31193 0 1 -11.78017 8.26331" />
    <path d="M -10.52412 7.67915 A 0.5 0.45019 231.31193 0 1 -9.89903 8.45971" />
    <path d="M -8.64298 7.87555 A 0.5 0.45019 231.31193 0 1 -8.0179 8.65611" />
    <path d="M -6.76185 8.07195 A 0.5 0.45019 231.31193 0 1 -6.13677 8.85251" />
    <path d="M -4.88072 8.26834 A 0.5 0.45019 231.31193 0 1 -4.25564 9.0489" />
    <path d="M -2.99959 8.46474 A 0.5 0.45019 231.31193 0 1 -2.37451 9.2453" />
    <path d="M 1.372 1.55829 A 6.25 5.62743 231.31193 0 1 1.89787 0.71547" />
    <path d="M 13.71913 3.05746 L 13.71913 -10.02468" />
    <path d="M 0.41935 1.89948 L 0.8852 1.94811" />
    <path d="M 1.11729 1.76226 A 6.25 5.62743 231.31193 0 1 1.64316 0.91944" />
    <path d="M 3.54996 -0.60754 A 6.25 5.62743 231.31193 0 1 4.48734 -0.93651" />
    <path d="M 6.26416 -1.07827 A 6.25 5.62743 231.31193 0 1 6.7227 -1.02378" />
    <path d="M 7.92432 -0.70492 A 6.25 5.62743 231.31193 0 1 8.27267 -0.56219" />
    <path d="M 9.22282 -0.04195 A 6.25 5.62743 231.31193 0 1 11.79794 3.08745 L 13.46442 3.26143 L 13.46442 -9.82071" />
    <path d="M 12.759 -8.29962 L 12.759 -9.2558" />
    <path d="M 5.46041 -2.45485 A 0.5 0.45019 231.31193 0 1 5.31187 -2.0185" />
    <path d="M 6.56792 -2.60266 A 0.5 0.45019 231.31193 0 1 7.193 -1.8221" />
    <path d="M 8.44905 -2.40626 A 0.5 0.45019 231.31193 0 1 9.07413 -1.6257" />
    <path d="M 10.95526 -1.4293 A 0.5 0.45019 51.31193 1 0 10.33018 -2.20986" />
    <path d="M 0.38936 1.6061 L 12.759 -8.29962" />
    <path d="M 13.71913 3.05746 L 13.46442 3.26143" />
    <path d="M -12.05265 12.43307 L -12.30736 12.63704" />
    <path d="M -12.60544 7.85793 A 0.5 0.45019 231.31193 0 1 -12.4477 7.51675 L -12.40525 7.48275" />
    <path d="M -12.4477 7.51675 A 0.5 0.45019 231.31193 0 1 -11.82262 8.29731 L -11.78017 8.26331" />
    <path d="M -11.82262 8.29731 A 0.5 0.45019 231.31193 0 1 -12.60544 7.85793" />
    <path d="M -10.72431 8.05433 A 0.5 0.45019 231.31193 0 1 -10.56657 7.71315 L -10.52412 7.67915" />
    <path d="M -10.56657 7.71315 A 0.5 0.45019 231.31193 0 1 -9.94149 8.49371 L -9.89903 8.45971" />
    <path d="M -9.94149 8.49371 A 0.5 0.45019 231.31193 0 1 -10.72431 8.05433" />
    <path d="M -8.84318 8.25073 A 0.5 0.45019 231.31193 0 1 -8.68544 7.90954 L -8.64298 7.87555" />
    <path d="M -8.68544 7.90954 A 0.5 0.45019 231.31193 0 1 -8.06036 8.69011 L -8.0179 8.65611" />
    <path d="M -8.06036 8.69011 A 0.5 0.45019 231.31193 0 1 -8.84318 8.25073" />
    <path d="M -6.96205 8.44712 A 0.5 0.45019 231.31193 0 1 -6.8043 8.10594 L -6.76185 8.07195" />
    <path d="M -6.8043 8.10594 A 0.5 0.45019 231.31193 0 1 -6.17922 8.8865 L -6.13677 8.85251" />
    <path d="M -6.17922 8.8865 A 0.5 0.45019 231.31193 0 1 -6.96205 8.44712" />
    <path d="M -5.08092 8.64352 A 0.5 0.45019 231.31193 0 1 -4.92317 8.30234 L -4.88072 8.26834" />
    <path d="M -4.92317 8.30234 A 0.5 0.45019 231.31193 0 1 -4.29809 9.0829 L -4.25564 9.0489" />
    <path d="M -4.29809 9.0829 A 0.5 0.45019 231.31193 0 1 -5.08092 8.64352" />
    <path d="M -3.19978 8.83992 A 0.5 0.45019 231.31193 0 1 -3.04204 8.49874 L -2.99959 8.46474" />
    <path d="M -3.04204 8.49874 A 0.5 0.45019 231.31193 0 1 -2.41696 9.2793 L -2.37451 9.2453" />
    <path d="M -2.41696 9.2793 A 0.5 0.45019 231.31193 0 1 -3.19978 8.83992" />
    <path d="M 0.38936 1.9235 L 5.31187 -2.0185" />
    <path d="M 0.38936 3.62632 L 7.193 -1.8221" />
    <path d="M 0.38936 2.34519 L 6.56792 -2.60266" />
    <path d="M 0.38936 5.32915 L 9.07413 -1.6257" />
    <path d="M 0.38936 4.04802 L 8.44905 -2.40626" />
    <path d="M 0.38936 7.03197 L 10.95526 -1.4293" />
    <path d="M 0.38936 5.75084 L 10.33018 -2.20986" />
</svg>