<svg viewBox="0 0 800 800" xmlns="http://www.w3.org/2000/svg"><path d="M-229.61459308851727,482.01385418144787 L-256.7268932144242,473.4142892134324 M-714.7460057069434,620.0967989495008 L-741.6358051003451,610.6526605019008 M-229.61459308851727,482.01385418144787 L-260.48111599407855,425.4262842120018 M-260.48111599407855,425.4262842120018 L-302.4552943129303,381.7600366030752 M-302.4552943129303,381.7600366030752 L-353.53674523097663,353.5426282268641 M-353.53674523097663,353.5426282268641 L-411.16840338952795,342.583827740211 M-411.16840338952795,342.583827740211 L-472.3336799726668,349.8184331893035 M-472.3336799726668,349.8184331893035 L-533.6998109038641,375.1825041200108 M-533.6998109038641,375.1825041200108 L-591.8054223766122,417.54514209746526 M-591.8054223766122,417.54514209746526 L-643.2819391042881,474.71618972266214 M-643.2819391042881,474.71618972266214 L-685.0900222879354,543.5428687229067 M-685.0900222879354,543.5428687229067 L-714.7460057069434,620.0967989495008 M-256.7268932144242,473.4142892134324 L-287.6476204815391,416.9502696259252 M-287.6476204815391,416.9502696259252 L-329.6613552120881,373.3641842068969 M-329.6613552120881,373.3641842068969 L-380.76462304823167,345.17797262378 M-380.76462304823167,345.17797262378 L-438.39830638808326,334.19786843302836 M-438.39830638808326,334.19786843302836 L-499.5451120434227,341.357735822766 M-499.5451120434227,341.357735822766 L-560.8731067302626,366.5957940258108 M-560.8731067302626,366.5957940258108 L-618.9232962332896,408.7867031188796 M-618.9232962332896,408.7867031188796 L-670.3308483699107,465.7492615919143 M-670.3308483699107,465.7492615919143 L-712.0611616579981,534.342652125838 M-712.0611616579981,534.342652125838 L-741.6358051003451,610.6526605019008 M-158.52955059428962,461.78091988517815 L-185.66274869027507,453.3017954801827 M-158.52955059428962,461.78091988517815 L-229.61459308851727,482.01385418144787 M-185.66274869027507,453.3017954801827 L-256.7268932144242,473.4142892134324 M-793.9654600693925,642.6450307414693 L-820.8056941204657,633.0592328660858 M-714.7460057069434,620.0967989495008 L-793.9654600693925,642.6450307414693 M-741.6358051003451,610.6526605019008 L-820.8056941204657,633.0592328660858 M-172.26220277801986,-333.2519863260975 L-158.52955059428962,461.78091988517815 M-234.3200570935653,-320.5252779215425 L-172.26220277801986,-333.2519863260975 M-231.1080783057489,-156.71435974291012 L-234.3200570935653,-320.5252779215425 M-262.2226839492607,-149.82685480434634 L-231.1080783057489,-156.71435974291012 M-262.2226839492607,-149.82685480434634 L-265.637476342681,-314.1027603020948 M-759.828387895627,-212.7550147687757 L-265.637476342681,-314.1027603020948 M-753.0564252901277,-41.17627905122231 L-759.828387895627,-212.7550147687757 M-787.474860428069,-33.55744098185278 L-753.0564252901277,-41.17627905122231 M-787.474860428069,-33.55744098185278 L-794.4933735755731,-205.64598450238054 M-829.3851748652021,-198.49043931603092 L-794.4933735755731,-205.64598450238054 M-793.9654600693925,642.6450307414693 L-829.3851748652021,-198.49043931603092 M-264.67467194517303,228.37734241879429 L-264.2119630184793,221.8873340204044 M-264.2119630184793,221.8873340204044 L-262.58223577773856,215.4650548562919 M-262.58223577773856,215.4650548562919 L-259.88061791213386,209.4862304302658 M-259.88061791213386,209.4862304302658 L-256.2654007870444,204.30049001995442 M-256.2654007870444,204.30049001995442 L-251.9484377304184,200.21044206457407 M-251.9484377304184,200.21044206457407 L-247.18251777748878,197.4539710347675 M-247.18251777748878,197.4539710347675 L-242.24616626753027,196.190208225836 M-242.24616626753027,196.190208225836 L-237.42717377108102,196.49062742126137 M-237.42717377108102,196.49062742126137 L-233.0055879830445,198.3353258946193 M-233.0055879830445,198.3353258946193 L-229.2375175439497,201.61468209767588 M-229.2375175439497,201.61468209767588 L-226.34037020881522,206.13640389993196 M-226.34037020881522,206.13640389993196 L-224.48067470051296,211.63697394042853 M-224.48067470051296,211.63697394042853 L-223.7647147602437,217.7971810778643 M-223.7647147602437,217.7971810778643 L-224.23286600746496,224.26055974880967 M-224.23286600746496,224.26055974880967 L-225.8574374372687,230.65373892560868 M-225.8574374372687,230.65373892560868 L-228.54448228807678,236.60765958698076 M-228.54448228807678,236.60765958698076 L-232.13904794067173,241.77839769979184 M-232.13904794067173,241.77839769979184 L-236.43401197700086,245.86678146607935 M-236.43401197700086,245.86678146607935 L-241.18162512972083,248.63530779653786 M-241.18162512972083,248.63530779653786 L-246.1075558554171,249.9220836121084 M-246.1075558554171,249.9220836121084 L-250.92640086466315,249.65036303879498 M-250.92640086466315,249.65036303879498 L-255.35814623676492,247.83347445401554 M-255.35814623676492,247.83347445401554 L-259.1443558409711,244.574668402412 M-259.1443558409711,244.574668402412 L-262.063466634462,240.06152939341743 M-262.063466634462,240.06152939341743 L-263.9439181784687,234.55560839377026 M-263.9439181784687,234.55560839377026 L-264.67467194517303,228.37734241879429 M-347.4974861847338,249.79703575661188 L-347.0463376104476,243.25795154914238 M-347.0463376104476,243.25795154914238 L-345.407886785095,236.7843654478372 M-345.407886785095,236.7843654478372 L-342.6778108743413,230.7550347736233 M-342.6778108743413,230.7550347736233 L-339.01604180422646,225.5225505457076 M-339.01604180422646,225.5225505457076 L-334.63720867848144,221.39226906471959 M-334.63720867848144,221.39226906471959 L-329.79773402355204,218.60441737818263 M-329.79773402355204,218.60441737818263 L-324.7804606660959,217.31993764479978 M-324.7804606660959,217.31993764479978 L-319.8779109009456,217.6114788971675 M-319.8779109009456,217.6114788971675 L-315.37499557548176,219.4596160742468 M-315.37499557548176,219.4596160742468 L-311.5325252769288,222.75448593989992 M-311.5325252769288,222.75448593989992 L-308.57222588217815,227.3028716583782 M-308.57222588217815,227.3028716583782 L-306.6642123856815,232.8396806630875 M-306.6642123856815,232.8396806630875 L-305.9175687613124,239.04360883676122 M-305.9175687613124,239.04360883676122 L-306.37437874533055,245.55566081451386 M-306.37437874533055,245.55566081451386 L-308.0076304601673,251.99968102382127 M-308.0076304601673,251.99968102382127 L-310.7228378882919,258.0036853703164 M-310.7228378882919,258.0036853703164 L-314.3634752536949,263.2208849188673 M-314.3634752536949,263.2208849188673 L-318.7197545837838,267.34942465469067 M-318.7197545837838,267.34942465469067 L-323.5404201388037,270.1494766955027 M-323.5404201388037,270.1494766955027 L-328.5469379567269,271.45730386707066 M-328.5469379567269,271.45730386707066 L-333.4492497120451,271.19490843067035 M-333.4492497120451,271.19490843067035 L-337.96249906815274,269.37503865468807 M-337.96249906815274,269.37503865468807 L-341.8235080295419,266.101082006706 M-341.8235080295419,266.101082006706 L-344.8063037876627,261.56146440174723 M-344.8063037876627,261.56146440174723 L-346.73561774875543,256.01926971416776 M-346.73561774875543,256.01926971416776 L-347.4974861847338,249.79703575661188 M-431.6850429864294,271.56967975705027 L-431.2458849984689,264.9807729283809 M-431.2458849984689,264.9807729283809 L-429.5986583767358,258.4550578803616 M-429.5986583767358,258.4550578803616 L-426.8395393147423,252.37435870667906 M-426.8395393147423,252.37435870667906 L-423.1301787093421,247.0942904443896 M-423.1301787093421,247.0942904443896 L-418.688019444578,242.92300065568332 M-418.688019444578,242.92300065568332 L-413.77319364137145,240.1031016825399 M-413.77319364137145,240.1031016825399 L-408.673002257749,238.7973939799884 M-408.673002257749,238.7973939799884 L-403.68477662117334,239.07972072440782 M-403.68477662117334,239.07972072440782 L-399.0984489109421,240.93116206192448 M-399.0984489109421,240.93116206192448 L-395.1796421917827,244.24161732562243 M-395.1796421917827,244.24161732562243 L-392.1544883436644,248.81693392880007 M-392.1544883436644,248.81693392880007 L-390.19682943767157,254.39043925800686 M-390.19682943767157,254.39043925800686 L-389.41857216137305,260.638695922984 M-389.41857216137305,260.638695922984 L-389.86361919140154,267.2001588757039 M-389.86361919140154,267.2001588757039 L-391.5056034863526,273.6958308677818 M-391.5056034863526,273.6958308677818 L-394.2495497847126,279.7507703330191 M-394.2495497847126,279.7507703330191 L-397.93728308873483,285.01526360794156 M-397.93728308873483,285.01526360794156 L-402.35631520998345,289.18473090016414 M-402.35631520998345,289.18473090016414 L-407.2518120752304,292.0169776064751 M-407.2518120752304,292.0169776064751 L-412.34090079720613,293.3463743551083 M-412.34090079720613,293.3463743551083 L-417.3287934575176,293.09365117786126 M-417.3287934575176,293.09365117786126 L-421.9256341626858,291.2709461115328 M-421.9256341626858,291.2709461115328 L-425.8633914474774,287.98177673837284 M-425.8633914474774,287.98177673837284 L-428.9115921357733,283.4154193246751 M-428.9115921357733,283.4154193246751 L-430.8911144136599,277.83649400163256 M-430.8911144136599,277.83649400163256 L-431.6850429864294,271.56967975705027 M-517.271354625952,293.70407069830617 L-516.8446547841138,287.06458268767955 M-516.8446547841138,287.06458268767955 L-515.1885805762474,280.4858914770155 M-515.1885805762474,280.4858914770155 L-512.3998234674377,274.352941290226 M-512.3998234674377,274.352941290226 L-508.64179126561476,269.0244240967339 M-508.64179126561476,269.0244240967339 L-504.13478969878497,264.8113258114969 M-504.13478969878497,264.8113258114969 L-499.14278252579606,261.9586991269814 M-499.14278252579606,261.9586991269814 L-493.95758492809136,260.63122885511746 M-493.95758492809136,260.63122885511746 L-488.8815177703864,260.90399760394064 M-488.8815177703864,260.90399760394064 L-484.2096115353643,262.75859714194576 M-484.2096115353643,262.75859714194576 L-480.2124587839355,266.0847049250852 M-480.2124587839355,266.0847049250852 L-477.12069871808785,270.68722419187355 M-477.12069871808785,270.68722419187355 L-475.1119981993543,276.2978853265389 M-475.1119981993543,276.2978853265389 L-474.3011847180013,282.59109572211196 M-474.3011847180013,282.59109572211196 L-474.73400958399645,289.2027186126261 M-474.73400958399645,289.2027186126261 L-476.3848002314609,295.7508784871931 M-476.3848002314609,295.7508784871931 L-479.1580692837633,301.8576238853649 M-479.1580692837633,301.8576238853649 L-482.893961898321,307.17026740765914 M-482.893961898321,307.17026740765914 L-487.3772435557389,311.3814591468118 M-487.3772435557389,311.3814591468118 L-492.3493850412856,314.24658353358706 M-492.3493850412856,314.24658353358706 L-497.5231198837391,315.598091957511 M-497.5231198837391,315.598091957511 L-502.59875315710224,315.3553949611937 M-502.59875315710224,315.3553949611937 L-507.28135603855344,313.5300123672408 M-507.28135603855344,313.5300123672408 L-511.29788483705534,310.22557329524693 M-511.29788483705534,310.22557329524693 L-514.4132624027338,305.6322107363554 M-514.4132624027338,305.6322107363554 L-516.4444065811822,300.01609530779706 M-516.4444065811822,300.01609530779706 L-517.271354625952,293.70407069830617 M-604.2915730573405,316.2092996029757 L-603.8778174730253,309.51845454103807 M-603.8778174730253,309.51845454103807 L-602.2128239616768,302.88591913950137 M-602.2128239616768,302.88591913950137 L-599.393823954947,296.69981452612586 M-599.393823954947,296.69981452612586 L-595.5859977764471,291.3219578711655 M-595.5859977764471,291.3219578711655 L-591.0125957206468,287.0662297870696 M-591.0125957206468,287.0662297870696 L-585.9415006661322,284.18017011165495 M-585.9415006661322,284.18017011165495 L-580.6691538634982,282.83038864015384 M-580.6691538634982,282.83038864015384 L-575.5029946400953,283.09323946247224 M-575.5029946400953,283.09323946247224 L-570.743277420099,284.95084450520017 M-570.743277420099,284.95084450520017 L-566.6656900907305,288.29266627897505 M-566.6656900907305,288.29266627897505 L-563.5055129949573,292.92266289428653 M-563.5055129949573,292.92266289428653 L-561.4443314041522,298.57094868183594 M-561.4443314041522,298.57094868183594 L-560.5999826770344,304.90975036668976 M-560.5999826770344,304.90975036668976 L-561.020110310753,311.57229976954545 M-561.020110310753,311.57229976954545 L-562.6797749463858,318.1738024737269 M-562.6797749463858,318.1738024737269 L-565.4829660352675,324.33324661045805 M-565.4829660352675,324.33324661045805 L-569.2681248434243,329.694922738586 M-569.2681248434243,329.694922738586 L-573.8171940232028,333.94865674758637 M-573.8171940232028,333.94865674758637 L-578.8678650462741,336.8473657755293 M-578.8678650462741,336.8473657755293 L-584.128375481421,338.22154214593417 M-584.128375481421,338.22154214593417 L-589.2939975745519,337.98924309779653 M-589.2939975745519,337.98924309779653 L-594.0645999335502,336.1613478335763 M-594.0645999335502,336.1613478335763 L-598.162001011531,332.841587642836 M-598.162001011531,332.841587642836 L-601.346381432812,328.2209504209454 M-601.346381432812,328.2209504209454 L-603.430611287468,322.5671776874676 M-603.430611287468,322.5671776874676 L-604.2915730573405,316.2092996029757 M-692.7820380514563,339.09476468766076 L-692.381710967092,332.35176338151126 M-692.381710967092,332.35176338151126 L-690.7077478530002,325.6644997515236 M-690.7077478530002,325.6644997515236 L-687.8578633884672,319.4243089059463 M-687.8578633884672,319.4243089059463 L-683.999103173745,313.9962024564331 M-683.999103173745,313.9962024564331 L-679.3576935542835,309.6970000496776 M-679.3576935542835,309.6970000496776 L-674.2055348228198,306.77677886377853 M-674.2055348228198,306.77677886377853 L-668.8438284852687,305.4041203227205 M-668.8438284852687,305.4041203227205 L-663.5852405057558,305.65667670212565 M-663.5852405057558,305.65667670212565 L-658.7354055900228,307.51712612982493 M-658.7354055900228,307.51712612982493 L-654.5752429624613,310.8747250788949 M-654.5752429624613,310.8747250788949 L-651.3447619357262,315.53247286885596 M-651.3447619357262,315.53247286885596 L-649.229623306398,321.2188639601558 M-649.229623306398,321.2188639601558 L-648.3507057331699,327.6039028812073 M-648.3507057331699,327.6039028812073 L-648.7576609238702,334.3181677879021 M-648.7576609238702,334.3181677879021 L-650.4262520830171,340.97388548459185 M-650.4262520830171,340.97388548459185 L-653.2599949464002,347.18694768600335 M-653.2599949464002,347.18694768600335 L-657.0955420386849,352.5985577316813 M-657.0955420386849,352.5985577316813 L-661.7119847612794,356.8956748791103 M-661.7119847612794,356.8956748791103 L-666.8431425004194,359.8286998015192 M-666.8431425004194,359.8286998015192 L-672.1926247419731,361.22611782413713 M-672.1926247419731,361.22611782413713 L-677.4505659186957,361.0046044772241 M-677.4505659186957,361.0046044772241 L-682.3114794802216,359.1743702241023 M-682.3114794802216,359.1743702241023 L-686.4919081620747,355.8392365618139 M-686.4919081620747,355.8392365618139 L-689.7472001436572,351.19105783274796 M-689.7472001436572,351.19105783274796 L-691.8860105698463,345.4991472207863 M-691.8860105698463,345.4991472207863 L-692.7820380514563,339.09476468766076 M-200.18397024780973,-339.55690156121136 L-185.66274869027507,453.3017954801827 M-820.8056941204657,633.0592328660858 L-856.9851348696939,-205.64598450238077 M-856.9851348696939,-205.64598450238077 L-200.18397024780973,-339.55690156121136 M-292.0343635743575,220.4342061393537 L-291.2976061456095,226.5961414167703 M-291.2976061456095,226.5961414167703 L-289.41190468524803,232.08857409022923 M-289.41190468524803,232.08857409022923 L-286.48859773475965,236.59185212634713 M-286.48859773475965,236.59185212634713 L-282.6994830415655,239.8449917208802 M-282.6994830415655,239.8449917208802 L-278.26628592868997,241.66072608210504 M-278.26628592868997,241.66072608210504 L-273.4475219548789,241.9358573936827 M-273.4475219548789,241.9358573936827 L-268.52319800458895,240.65684497110607 M-268.52319800458895,240.65684497110607 L-263.7786248472896,237.8999729987629 M-263.7786248472896,237.8999729987629 L-259.4879612169425,233.82645281780276 M-259.4879612169425,233.82645281780276 L-255.89871233846782,228.67292601620596 M-255.89871233846782,228.67292601620596 L-253.21769836343458,222.7375731565446 M-253.21769836343458,222.7375731565446 L-251.59952729220151,216.36325232039434 M-251.59952729220151,216.36325232039434 L-251.13777772246453,209.9179412060097 M-251.13777772246453,209.9179412060097 L-251.85976941696492,203.77397341099493 M-251.85976941696492,203.77397341099493 L-253.72477386071944,198.28687855648337 M-253.72477386071944,198.28687855648337 L-256.62619377880185,193.77508581216296 M-256.62619377880185,193.77508581216296 L-260.39724563090977,190.50152977768929 M-260.39724563090977,190.50152977768929 L-264.82034189782814,188.65815423535992 M-264.82034189782814,188.65815423535992 L-269.6392810546922,188.35448935593544 M-269.6392810546922,188.35448935593544 L-274.57401609807357,189.6106123621164 M-274.57401609807357,189.6106123621164 L-279.3368511972435,192.3554828464874 M-279.3368511972435,192.3554828464874 L-283.649444098461,196.43063892318628 M-283.649444098461,196.43063892318628 L-287.25926578802444,201.59906410513523 M-287.25926578802444,201.59906410513523 L-289.95478322455256,207.55916499335757 M-289.95478322455256,207.55916499335757 L-291.5780655963714,213.96241393997047 M-291.5780655963714,213.96241393997047 L-292.0343635743575,220.4342061393537 M-374.82704450466645,241.7237526642903 L-374.05922768868527,247.9294280429021 M-374.05922768868527,247.9294280429021 L-372.1247823467829,253.4579664555094 M-372.1247823467829,253.4579664555094 L-369.13796503215644,257.9876247550785 M-369.13796503215644,257.9876247550785 L-365.27427121634867,261.2558918246431 M-365.27427121634867,261.2558918246431 L-360.7598229394798,263.0746604588152 M-360.7598229394798,263.0746604588152 L-355.8578628071307,263.34059249292295 M-355.8578628071307,263.34059249292295 L-350.85322440816526,262.0407197088825 M-350.85322440816526,262.0407197088825 L-346.0358578518096,259.2525668309093 M-346.0358578518096,259.2525668309093 L-341.68410949145596,255.13917499996074 M-341.68410949145596,255.13917499996074 L-338.04897792446945,249.93949418657533 M-338.04897792446945,249.93949418657533 L-335.33993813595407,243.95437050696148 M-335.33993813595407,243.95437050696148 L-333.71316353634177,237.52950915839517 M-333.71316353634177,237.52950915839517 L-333.2627675670368,231.0357957374712 M-333.2627675670368,231.0357957374712 L-334.01539007895985,224.84833298208386 M-334.01539007895985,224.84833298208386 L-335.9285972958555,219.32516727019558 M-335.9285972958555,219.32516727019558 L-338.8929981370991,214.78681102658908 M-338.8929981370991,214.78681102658908 L-342.7382324288891,211.4977679852053 M-342.7382324288891,211.4977679852053 L-347.24240693344404,209.65090483117 M-347.24240693344404,209.65090483117 L-352.1446326490516,209.35599589269114 M-352.1446326490516,209.35599589269114 L-357.1600151593476,210.63264748605903 M-357.1600151593476,210.63264748605903 L-361.9961430035554,213.40865467088128 M-361.9961430035554,213.40865467088128 L-366.37037191637614,217.52375879886768 M-366.37037191637614,217.52375879886768 L-370.02655329302934,222.73861748105486 M-370.02655329302934,222.73861748105486 L-372.7503897787569,228.748907782983 M-372.7503897787569,228.748907782983 L-374.38231825845264,235.20315901078538 M-374.38231825845264,235.20315901078538 L-374.82704450466645,241.7237526642903 M-458.9797694748984,263.3630247994929 L-458.1799530174692,269.6130479524395 M-458.1799530174692,269.6130479524395 L-456.19542593140386,275.1781461899511 M-456.19542593140386,275.1781461899511 L-453.14338868556274,279.7344451221492 M-453.14338868556274,279.7344451221492 L-449.20317890692627,283.01790294330664 M-449.20317890692627,283.01790294330664 L-444.6054052467623,284.83956304833947 M-444.6054052467623,284.83956304833947 L-439.6181481992928,285.09595355701913 M-439.6181481992928,285.09595355701913 L-434.5312244078598,283.7747084911741 M-434.5312244078598,283.7747084911741 L-429.6392971564892,280.95461317065485 M-429.6392971564892,280.95461317065485 L-425.22503624877845,276.8005861511557 M-425.22503624877845,276.8005861511557 L-421.5430049731485,271.55392726702 M-421.5430049731485,271.55392726702 L-418.8053674104003,265.5181893164197 M-418.8053674104003,265.5181893164197 L-417.1699381877436,259.0419839182592 M-417.1699381877436,259.0419839182592 L-416.73131552767575,252.49913664163543 M-416.73131552767575,252.49913664163543 L-417.5154937494556,246.26757605755228 M-417.5154937494556,246.26757605755228 L-419.47822329555765,240.70788501070848 M-419.47822329555765,240.70788501070848 L-422.5072972229333,236.1426992258758 M-422.5072972229333,236.1426992258758 L-426.42863851375864,232.8380964191216 M-426.42863851375864,232.8380964191216 L-431.01596101028883,230.98787723655533 M-431.01596101028883,230.98787723655533 L-436.0035784541609,230.70205605070691 M-436.0035784541609,230.70205605070691 L-441.1015916345074,231.9997410500741 M-441.1015916345074,231.9997410500741 L-446.0127968984568,234.80754415936974 M-446.0127968984568,234.80754415936974 L-450.4501080378393,238.963363018848 M-450.4501080378393,238.963363018848 L-454.15368133605284,244.22548707939467 M-454.15368133605284,244.22548707939467 L-456.9064175534461,250.28682092786448 M-456.9064175534461,250.28682092786448 L-458.54704314150786,256.79288909979203 M-458.54704314150786,256.79288909979203 L-458.9797694748984,263.3630247994929 M-544.5263283990889,285.360711379999 L-543.6935584732345,291.6557076008162 M-543.6935584732345,291.6557076008162 L-541.6575445430374,297.2578222526477 M-541.6575445430374,297.2578222526477 L-538.5385263649877,301.84102632335527 M-538.5385263649877,301.84102632335527 L-534.5197901888005,305.139733125677 M-534.5197901888005,305.139733125677 L-529.8365341374407,306.96413022114916 M-529.8365341374407,306.96413022114916 L-524.761834528656,307.2106303367236 M-524.761834528656,307.2106303367236 L-519.5905636397954,305.86747749500785 M-519.5905636397954,305.86747749500785 L-514.6222745453786,303.01476438838057 M-514.6222745453786,303.01476438838057 L-510.1440144853177,298.81931366018233 M-510.1440144853177,298.81931366018233 L-506.41402766065676,293.52482872178575 M-506.41402766065676,293.52482872178575 L-503.64721294487765,287.43761392693455 M-503.64721294487765,287.43761392693455 L-502.0030565520267,280.9092358607775 M-502.0030565520267,280.9092358607775 L-501.57666427941786,274.31651203494073 M-501.57666427941786,274.31651203494073 L-502.393335401845,268.0402331221211 M-502.393335401845,268.0402331221211 L-504.406975177832,262.44356015974097 M-504.406975177832,262.44356015974097 L-507.50246318714846,257.85127397513315 M-507.50246318714846,257.85127397513315 L-511.50190846423584,254.53104315723795 M-511.50190846423584,254.53104315723795 L-516.1745313286021,252.67761076865736 M-516.1745313286021,252.67761076865736 L-521.24969205458,252.40121589205 M-521.24969205458,252.40121589205 L-526.4324104672737,253.72046237144795 M-526.4324104672737,253.72046237144795 L-531.4205110424052,256.56073417235183 M-531.4205110424052,256.56073417235183 L-535.9224102465307,260.7580595254791 M-535.9224102465307,260.7580595254791 L-539.6744478372606,266.0683052108034 M-539.6744478372606,266.0683052108034 L-542.45667408025,272.181556733715 M-542.45667408025,272.181556733715 L-544.1060673307791,278.74028144844885 M-544.1060673307791,278.74028144844885 L-544.5263283990889,285.360711379999 M-631.5016398731611,307.7257914733319 L-630.6349280536431,314.0663989616898 M-630.6349280536431,314.0663989616898 L-628.5459724533257,319.7059942968518 M-628.5459724533257,319.7059942968518 L-625.3581588887791,324.3163722083993 M-625.3581588887791,324.3163722083993 L-621.2588089719392,327.63038078357005 M-621.2588089719392,327.63038078357005 L-616.4878477507107,329.45735345544426 M-616.4878477507107,329.45735345544426 L-611.3234721489246,329.6935967200335 M-611.3234721489246,329.6935967200335 L-606.0657388645443,328.3279866884432 M-606.0657388645443,328.3279866884432 L-601.0192157661581,325.44195682902307 M-601.0192157661581,325.44195682902307 L-596.4754291843365,321.2042732440291 M-596.4754291843365,321.2042732440291 L-592.696387804992,315.861088754797 M-592.696387804992,315.861088754797 L-589.8998013417618,309.7215128322099 M-589.8998013417618,309.7215128322099 L-588.2468513830667,303.1401148666738 M-588.2468513830667,303.1401148666738 L-587.8331622827485,296.4967543786544 M-587.8331622827485,296.4967543786544 L-588.6832996721866,290.17512443882487 M-588.6832996721866,290.17512443882487 L-590.7492803822634,284.5410036750253 M-590.7492803822634,284.5410036750253 L-593.9129819463983,279.921343305865 M-593.9129819463983,279.921343305865 L-597.9926064700479,276.585421768461 M-597.9926064700479,276.585421768461 L-602.752747697358,274.72892557706416 M-602.752747697358,274.72892557706416 L-607.9176874402681,274.4623117657928 M-607.9176874402681,274.4623117657928 L-613.1872397808797,275.80366157872663 M-613.1872397808797,275.80366157872663 L-618.2541292428184,278.67709936443225 M-618.2541292428184,278.67709936443225 L-622.8221638866473,282.91674377927404 M-622.8221638866473,282.91674377927404 L-626.6237801062061,288.2759926427345 M-626.6237801062061,288.2759926427345 L-629.4360964389978,294.44205658965154 M-629.4360964389978,294.44205658965154 L-631.0943278161681,301.05429800825186 M-631.0943278161681,301.05429800825186 L-631.5016398731611,307.7257914733319 M-719.9417986983758,330.46754659981565 L-719.0400991779634,336.8544113237449 M-719.0400991779634,336.8544113237449 L-716.8967164425342,342.53196490079597 M-716.8967164425342,342.53196490079597 L-713.6382109359402,347.16978274277284 M-713.6382109359402,347.16978274277284 L-709.4561060681267,350.49914689594914 M-709.4561060681267,350.49914689594914 L-704.5951432193781,352.32852508466704 M-704.5951432193781,352.32852508466704 L-699.3387768863695,352.5541293073396 M-699.3387768863695,352.5541293073396 L-693.9923998694471,351.16549551934133 M-693.9923998694471,351.16549551934133 L-688.8656989729661,348.24542598284626 M-688.8656989729661,348.24542598284626 L-684.2548109698735,343.96467767403584 M-684.2548109698735,343.96467767403584 L-680.4256011718296,338.5719014745147 M-680.4256011718296,338.5719014745147 L-677.5986181117678,332.3790539372104 M-677.5986181117678,332.3790539372104 L-675.9368233000832,325.7437718548283 M-675.9368233000832,325.7437718548283 L-675.5363101477701,319.0489924010884 M-675.5363101477701,319.0489924010884 L-676.4209413896126,312.6813704457736 M-676.4209413896126,312.6813704457736 L-678.5407297720908,307.00932426738643 M-678.5407297720908,307.00932426738643 L-681.7745198410166,302.3620167410232 M-681.7745198410166,302.3620167410232 L-685.9364503625566,299.01033999031796 M-685.9364503625566,299.01033999031796 L-690.7864014563108,297.1509376511491 M-690.7864014563108,297.1509376511491 L-696.0434413416563,296.89447599334403 M-696.0434413416563,296.89447599334403 L-701.4020229348464,298.25848795356717 M-701.4020229348464,298.25848795356717 L-706.5496635060372,301.1658119283623 M-706.5496635060372,301.1658119283623 L-711.1854293370916,305.4486108644157 M-711.1854293370916,305.4486108644157 L-715.0377558424079,310.85776396319363 M-715.0377558424079,310.85776396319363 L-717.8807988294404,317.0775631431485 M-717.8807988294404,317.0775631431485 L-719.5479173747408,323.74419721040346 M-719.5479173747408,323.74419721040346 L-719.9417986983758,330.46754659981565 M-261.0937498519826,-272.2355662092309 L-259.9694330720756,-217.78651072516482 M-259.9694330720756,-217.78651072516482 L-291.14093046805465,-211.09398420494517 M-292.3327867599162,-265.69716313547747 L-291.14093046805465,-211.09398420494517 M-261.0937498519826,-272.2355662092309 L-292.3327867599162,-265.69716313547747 M-785.1555241867964,-162.54821809264195 L-782.8461635852709,-105.52477554728347 M-785.1555241867964,-162.54821809264195 L-819.7152736294163,-155.3147821627913 M-782.8461635852709,-105.52477554728347 L-817.3238768027672,-98.12240385068367 M-819.7152736294163,-155.3147821627913 L-817.3238768027672,-98.12240385068367 M-172.26220277801986,-333.2519863260975 L-200.18397024780973,-339.55690156121136 M-829.3851748652021,-198.49043931603092 L-856.9851348696939,-205.64598450238077 M-794.4933735755731,-205.64598450238054 L-803.7212558079295,-208.02080713570763 M-769.0638256896536,-215.11443318330794 L-803.7212558079295,-208.02080713570763 M-759.828387895627,-212.7550147687757 L-769.0638256896536,-215.11443318330794 M-265.637476342681,-314.1027603020948 L-274.95402477739026,-316.24801816535046 M-243.64007031628387,-322.65730709013815 L-274.95402477739026,-316.24801816535046 M-234.3200570935653,-320.5252779215425 L-243.64007031628387,-322.65730709013815 M-240.3741977651256,-159.00080480431507 L-241.4583603743215,-213.3293977762478 M-241.4583603743215,-213.3293977762478 L-259.9694330720756,-217.78651072516482 M-261.0937498519826,-272.2355662092309 L-242.546975396697,-267.8811061197291 M-242.546975396697,-267.8811061197291 L-243.64007031628387,-322.65730709013815 M-240.3741977651256,-159.00080480431507 L-231.1080783057489,-156.71435974291012 M-271.48540212939076,-152.1273991889541 L-262.2226839492607,-149.82685480434634 M-240.3741977651256,-159.00080480431507 L-271.48540212939076,-152.1273991889541 M-273.7930542721381,-261.31578215368313 L-292.3327867599162,-265.69716313547747 M-274.95402477739026,-316.24801816535046 L-273.7930542721381,-261.31578215368313 M-272.6368565130533,-206.60937239489022 L-271.48540212939076,-152.1273991889541 M-291.14093046805465,-211.09398420494517 L-272.6368565130533,-206.60937239489022 M-762.2395612947364,-43.704968675679766 L-764.5045111154632,-100.59517887864268 M-764.5045111154632,-100.59517887864268 L-782.8461635852709,-105.52477554728347 M-785.1555241867964,-162.54821809264195 L-766.7792447367115,-157.73113512999817 M-766.7792447367115,-157.73113512999817 L-769.0638256896536,-215.11443318330794 M-762.2395612947364,-43.704968675679766 L-753.0564252901277,-41.17627905122231 M-796.6505864789297,-36.10253287917175 L-787.474860428069,-33.55744098185278 M-762.2395612947364,-43.704968675679766 L-796.6505864789297,-36.10253287917175 M-801.3541519913954,-150.46636862512287 L-819.7152736294163,-155.3147821627913 M-803.7212558079295,-208.02080713570763 L-801.3541519913954,-150.46636862512287 M-798.9972842994734,-93.16081417296266 L-796.6505864789297,-36.10253287917175 M-817.3238768027672,-98.12240385068367 L-798.9972842994734,-93.16081417296266 M-264.67467194517303,228.37734241879429 L-292.0343635743575,220.4342061393537 M-347.4974861847338,249.79703575661188 L-374.82704450466645,241.7237526642903 M-431.6850429864294,271.56967975705027 L-458.9797694748984,263.3630247994929 M-517.271354625952,293.70407069830617 L-544.5263283990889,285.360711379999 M-604.2915730573405,316.2092996029757 L-631.5016398731611,307.7257914733319 M-692.7820380514563,339.09476468766076 L-719.9417986983758,330.46754659981565 M-241.4583603743215,-213.3293977762478 L-272.6368565130533,-206.60937239489022 M-242.546975396697,-267.8811061197291 L-273.7930542721381,-261.31578215368313 M-766.7792447367115,-157.73113512999817 L-801.3541519913954,-150.46636862512287 M-764.5045111154632,-100.59517887864268 L-798.9972842994734,-93.16081417296266" stroke="black"  stroke-width="4"  fill="red"/>
<path d="M1458.590787049146,1017.4841675974114 L1420.4593293927185,1005.3895114480335 M974.9619155422467,1213.5499263164247 L936.4598529171715,1200.0273706205055 M1458.590787049146,1017.4841675974114 L1432.8425605890884,953.7473344337104 M1432.8425605890884,953.7473344337104 L1395.3227002522892,905.6981949672868 M1395.3227002522892,905.6981949672868 L1347.7374680442356,876.1897833215728 M1347.7374680442356,876.1897833215728 L1292.4007882473063,867.2299096155127 M1292.4007882473063,867.2299096155127 L1232.1625157783828,879.7878385908905 M1232.1625157783828,879.7878385908905 L1170.2847354138219,913.6383983811847 M1170.2847354138219,913.6383983811847 L1110.2641042818839,967.2737884263399 M1110.2641042818839,967.2737884263399 L1055.6079609087737,1037.911677047982 M1055.6079609087737,1037.911677047982 L1009.5827041919204,1121.6184157302348 M1009.5827041919204,1121.6184157302348 L974.9619155422467,1213.5499263164247 M1420.4593293927185,1005.3895114480335 L1394.5575830921857,941.8023295899277 M1394.5575830921857,941.8023295899277 L1356.893710775255,893.8389212348864 M1356.893710775255,893.8389212348864 L1309.182803827886,864.3454342971353 M1309.182803827886,864.3454342971353 L1253.7467843498407,855.3256841850722 M1253.7467843498407,855.3256841850722 L1193.4419685361224,867.7486768432968 M1193.4419685361224,867.7486768432968 L1131.534747470273,901.3934754704441 M1131.534747470273,901.3934754704441 L1071.5235016769316,954.761479913423 M1071.5235016769316,954.761479913423 L1016.914557060154,1025.0845065311455 M1016.914557060154,1025.0845065311455 L970.9707221975023,1108.447351923228 M970.9707221975023,1108.447351923228 L936.4598529171715,1200.0273706205055 M1528.7297521823375,989.0494520028744 L1490.668429808041,977.1552887609066 M1528.7297521823375,989.0494520028744 L1458.590787049146,1017.4841675974114 M1490.668429808041,977.1552887609066 L1420.4593293927185,1005.3895114480335 M895.1572862249648,1245.9031544180255 L856.6130357994881,1232.1373506946409 M974.9619155422467,1213.5499263164247 L895.1572862249648,1245.9031544180255 M936.4598529171715,1200.0273706205055 L856.6130357994881,1232.1373506946409 M1574.0967984015992,61.08714297252624 L1528.7297521823375,989.0494520028744 M895.1572862249648,1245.9031544180255 L919.0965019105874,254.81962503324786 M919.0965019105874,254.81962503324786 L1574.0967984015992,61.08714297252624 M1443.1634284259649,724.2013070426733 L1444.086604123281,716.591670510579 M1444.086604123281,716.591670510579 L1446.1367655264382,708.9866847762785 M1446.1367655264382,708.9866847762785 L1449.1940659370935,701.8318113622913 M1449.1940659370935,701.8318113622913 L1453.0791644123776,695.5459590767797 M1453.0791644123776,695.5459590767797 L1457.5641430861012,690.4962931009941 M1457.5641430861012,690.4962931009941 L1462.3861455281567,686.9766705562383 M1462.3861455281567,686.9766705562383 L1467.2632408783688,685.1902808325175 M1467.2632408783688,685.1902808325175 L1471.9111211789418,685.2382705884498 M1471.9111211789418,685.2382705884498 L1476.05989649942,687.1144544904091 M1476.05989649942,687.1144544904091 L1479.4696576393999,690.7063895147292 M1479.4696576393999,690.7063895147292 L1481.944205357164,695.8028300956047 M1481.944205357164,695.8028300956047 L1483.3419194258854,702.1064398181938 M1483.3419194258854,702.1064398181938 L1483.5835904988433,709.2513840842114 M1483.5835904988433,709.2513840842114 L1482.656462619457,716.8244729787516 M1482.656462619457,716.8244729787516 L1480.6147726994093,724.3886829086855 M1480.6147726994093,724.3886829086855 L1477.576426955839,731.5078936436612 M1477.576426955839,731.5078936436612 L1473.7164237415316,737.7713664305081 M1473.7164237415316,737.7713664305081 L1469.2569320114403,742.8170626659639 M1469.2569320114403,742.8170626659639 L1464.4549693641352,746.3520348167999 M1464.4549693641352,746.3520348167999 L1459.587875884595,748.1695769723706 M1459.587875884595,748.1695769723706 L1454.937668240887,748.1614057040119 M1454.937668240887,748.1614057040119 L1450.7747695370995,746.3245846509458 M1450.7747695370995,746.3245846509458 L1447.3423245287634,742.7625391744899 M1447.3423245287634,742.7625391744899 L1444.841728823513,737.6796677636752 M1444.841728823513,737.6796677636752 L1443.4205701097299,731.3701980226808 M1443.4205701097299,731.3701980226808 L1443.1634284259649,724.2013070426733 M1361.1429535627522,754.5376470605738 L1362.0570217256231,746.8606268409658 M1362.0570217256231,746.8606268409658 L1364.1217176935002,739.1836069066944 M1364.1217176935002,739.1836069066944 L1367.216302455425,731.9563159408023 M1367.216302455425,731.9563159408023 L1371.1592678177635,725.6019199241687 M1371.1592678177635,725.6019199241687 L1375.7192448628243,720.4916213582833 M1375.7192448628243,720.4916213582833 L1380.6289620270306,716.9228130774047 M1380.6289620270306,716.9228130774047 L1385.60133331664,715.1015255411878 M1385.60133331664,715.1015255411878 L1390.3464771515107,715.1308885145838 M1390.3464771515107,715.1308885145838 L1394.5888451782203,717.0057364682552 M1394.5888451782203,717.0057364682552 L1398.0831231871157,720.6136341821834 M1398.0831231871157,720.6136341821834 L1400.628222209981,725.742365289871 M1400.628222209981,725.742365289871 L1402.0785238562048,732.0926728314663 M1402.0785238562048,732.0926728314663 L1402.3517877857948,739.2960234438319 M1402.3517877857948,739.2960234438319 L1401.4335080638991,746.9358503082672 M1401.4335080638991,746.9358503082672 L1399.3773911601336,754.5713201884014 M1399.3773911601336,754.5713201884014 L1396.3022106103795,761.7622231039225 M1396.3022106103795,761.7622231039225 L1392.3850293566468,768.0937293319596 M1392.3850293566468,768.0937293319596 L1387.8513093639503,773.1998798013504 M1387.8513093639503,773.1998798013504 L1382.9623070249088,776.7842321423425 M1382.9623070249088,776.7842321423425 L1378.000362920283,778.6371948235926 M1378.000362920283,778.6371948235926 L1373.2529699073318,778.648381560392 M1373.2529699073318,778.648381560392 L1368.9961916079826,776.8136686791444 M1368.9961916079826,776.8136686791444 L1365.4786434530063,773.2362968981972 M1365.4786434530063,773.2362968981972 L1362.906745237932,768.1214895361736 M1362.906745237932,768.1214895361736 L1361.432254663454,761.7653137448683 M1361.432254663454,761.7653137448683 L1361.1429535627522,754.5376470605738 M1277.510282633432,785.470278774158 L1278.414720151479,777.724677342253 M1278.414720151479,777.724677342253 L1280.4941136674083,769.9742522023369 M1280.4941136674083,769.9742522023369 L1283.6268752343888,762.6730612640421 M1283.6268752343888,762.6730612640421 L1287.629233002035,756.2486316555852 M1287.629233002035,756.2486316555852 L1292.2662995131573,751.0762826400655 M1292.2662995131573,751.0762826400655 L1297.266274001799,747.457022178636 M1297.266274001799,747.457022178636 L1302.3367305963413,745.5998078113448 M1302.3367305963413,745.5998078113448 L1307.1820886941798,745.6097966108356 M1307.1820886941798,745.6097966108356 L1311.5209350680798,747.482897179283 M1311.5209350680798,747.482897179283 L1315.1023936896427,751.1067003443724 M1315.1023936896427,751.1067003443724 L1317.7203561815363,756.2680119926512 M1317.7203561815363,756.2680119926512 L1319.2250312800124,762.6656524237701 M1319.2250312800124,762.6656524237701 L1319.5310989561099,769.9283330109758 M1319.5310989561099,769.9283330109758 L1318.622177546694,777.6360782673123 M1318.622177546694,777.6360782673123 L1316.551471982278,785.3441568866849 M1316.551471982278,785.3441568866849 L1313.438579925743,792.6082120993792 M1313.438579925743,792.6082120993792 L1309.4627213316012,799.0092243333422 M1309.4627213316012,799.0092243333422 L1304.852712857808,804.1772385896943 M1304.852712857808,804.1772385896943 L1299.874156697005,807.812240230575 M1299.874156697005,807.812240230575 L1294.8145720202126,809.7016653008776 M1294.8145720202126,809.7016653008776 L1289.967048905406,809.7329777523696 M1289.967048905406,809.7329777523696 L1285.613496559817,807.9008073919836 M1285.613496559817,807.9008073919836 L1282.008159957879,804.308186870471 M1282.008159957879,804.308186870471 L1279.3626175555153,799.1611667747802 M1279.3626175555153,799.1611667747802 L1277.8329788219926,792.7576527100143 M1277.8329788219926,792.7576527100143 L1277.510282633432,785.470278774158 M1192.2174097998075,817.0169577674163 L1193.111647096564,809.2015533384026 M1193.111647096564,809.2015533384026 L1195.2059228447342,801.3763049349333 M1195.2059228447342,801.3763049349333 L1198.3777773489426,793.9996885163007 M1198.3777773489426,793.9996885163007 L1202.441117834792,787.503683975779 M1202.441117834792,787.503683975779 L1207.1574585238232,782.267812943007 M1207.1574585238232,782.267812943007 L1212.250307626667,778.5967965277524 M1212.250307626667,778.5967965277524 L1217.4217962137902,776.7025760122617 M1217.4217962137902,776.7025760122617 L1222.3704140260188,776.6924184595655 M1222.3704140260188,776.6924184595655 L1226.8087543698691,778.5633317526069 M1226.8087543698691,778.5633317526069 L1230.480173622409,782.202967766076 M1230.480173622409,782.202967766076 L1233.1733986635556,787.3971518272649 M1233.1733986635556,787.3971518272649 L1234.734331061343,793.8427624429933 M1234.734331061343,793.8427624429933 L1235.0744459026287,801.1657252362359 M1235.0744459026287,801.1657252362359 L1234.1754392476064,808.9425927259971 M1234.1754392476064,808.9425927259971 L1232.089959801385,816.7246757801911 M1232.089959801385,816.7246757801911 L1228.938458425391,824.0633848498277 M1228.938458425391,824.0633848498277 L1224.9023603774133,830.5354261318341 M1224.9023603774133,830.5354261318341 L1220.2139112137243,835.7667670433498 M1220.2139112137243,835.7667670433498 L1215.14321250239,839.4537247433332 M1215.14321250239,839.4537247433332 L1209.9830610873566,841.3807049349764 M1209.9830610873566,841.3807049349764 L1205.0323700848614,841.432935705298 M1205.0323700848614,841.432935705298 L1200.5790188763826,839.6037716772198 M1200.5790188763826,839.6037716772198 L1196.8830905410946,835.9959965014631 M1196.8830905410946,835.9959965014631 L1194.161472025681,830.8164863163142 M1194.161472025681,830.8164863163142 L1192.5747711555696,824.364999124947 M1192.5747711555696,824.364999124947 L1192.2174097998075,817.0169577674163 M1105.214404177539,849.1961516277074 L1106.0978430493105,841.309689913804 M1106.0978430493105,841.309689913804 L1108.2071880139204,833.408158729399 M1108.2071880139204,833.408158729399 L1111.4190760981035,825.9545465499434 M1111.4190760981035,825.9545465499434 L1115.5450577926858,819.3853719049313 M1115.5450577926858,819.3853719049313 L1120.3429351060267,814.084458622167 M1120.3429351060267,814.084458622167 L1125.5313955420197,810.3603283589533 M1125.5313955420197,810.3603283589533 L1130.8069660665878,808.4279845569313 M1130.8069660665878,808.4279845569313 L1135.8620243234523,808.3968692251965 M1135.8620243234523,808.3968692251965 L1140.402990404359,810.2651327398271 M1140.402990404359,810.2651327398271 L1144.1672753339744,813.9205115150698 M1144.1672753339744,813.9205115150698 L1146.9382609215872,819.1478586561414 M1146.9382609215872,819.1478586561414 L1148.5574091419805,825.6420891007724 M1148.5574091419805,825.6420891007724 L1148.932872089976,833.0263073313267 M1148.932872089976,833.0263073313267 L1148.0443622020753,840.8735336146538 M1148.0443622020753,840.8735336146538 L1145.943927418398,848.7310551001017 M1145.943927418398,848.7310551001017 L1142.7528893717024,856.1459655023085 M1142.7528893717024,856.1459655023085 L1138.6549210990743,862.690612611764 M1138.6549210990743,862.690612611764 L1133.885802910814,867.9867912002685 M1133.885802910814,867.9867912002685 L1128.720258939389,871.7270644624048 M1128.720258939389,871.7270644624048 L1123.4565124485314,873.6927306620755 M1123.4565124485314,873.6927306620755 L1118.3994770747481,873.7667138969312 M1118.3994770747481,873.7667138969312 L1113.8431856742068,871.941043536473 M1113.8431856742068,871.941043536473 L1110.0537380669864,868.3182255514093 M1110.0537380669864,868.3182255514093 L1107.2535168161032,863.105947634615 M1107.2535168161032,863.105947634615 L1105.6077574141023,856.6058426194945 M1105.6077574141023,856.6058426194945 L1105.214404177539,849.1961516277074 M1016.4493123654527,882.0270759965614 L1017.3213457315608,874.0682611747056 M1017.3213457315608,874.0682611747056 L1019.4459277763949,866.0889524911713 M1019.4459277763949,866.0889524911713 L1022.6988421706976,858.5567179149909 M1022.6988421706976,858.5567179149909 L1026.8891686281072,851.9127314889794 M1026.8891686281072,851.9127314889794 L1031.7709317202527,846.5452029524279 M1031.7709317202527,846.5452029524279 L1037.0578554791307,842.766547930337 M1037.0578554791307,842.766547930337 L1042.4406765701597,840.7949202316447 M1042.4406765701597,840.7949202316447 L1047.6054958776654,840.7419951774366 M1047.6054958776654,840.7419951774366 L1052.252346651583,842.6071205528315 M1052.252346651583,842.6071205528315 L1056.112503588232,846.2781443895933 M1056.112503588232,846.2781443895933 L1058.9638663158642,851.538938263762 M1058.9638663158642,851.538938263762 L1060.6432588011478,858.0824539022115 M1060.6432588011478,858.0824539022115 L1061.0554479234158,865.5289162696436 M1061.0554479234158,865.5289162696436 L1060.1780273311779,873.4477779072497 M1060.1780273311779,873.4477779072497 L1058.0624685626067,881.3822083745858 M1058.0624685626067,881.3822083745858 L1054.8309210959062,888.8749208170428 M1054.8309210959062,888.8749208170428 L1050.6694099540855,895.4937954317045 M1050.6694099540855,895.4937954317045 L1045.8173094406106,900.8563749645377 M1045.8173094406106,900.8563749645377 L1040.554100093522,904.6513777246684 M1040.554100093522,904.6513777246684 L1035.183612681252,906.6569047006335 M1035.183612681252,906.6569047006335 L1030.0169208478428,906.7535145191468 M1030.0169208478428,906.7535145191468 L1025.3544203327792,904.9318520142729 M1025.3544203327792,904.9318520142729 L1021.4684216686585,901.2941122245538 M1021.4684216686585,901.2941122245538 L1018.5869449798668,896.0487988917687 M1018.5869449798668,896.0487988917687 L1016.8800652472626,889.4994135691368 M1016.8800652472626,889.4994135691368 L1016.4493123654527,882.0270759965614 M1506.955452307671,207.65527295629244 L1476.1684151236955,217.2277130891254 M1476.1684151236955,217.2277130891254 L1479.089623634399,152.93220299709606 M1509.9413795056737,143.57268155300153 L1479.089623634399,152.93220299709606 M1506.955452307671,207.65527295629244 L1509.9413795056737,143.57268155300153 M985.5749784387831,369.76516819283785 L950.8219448970012,380.5707332436439 M985.5749784387831,369.76516819283785 L987.3897644359608,302.0995760123527 M950.8219448970012,380.5707332436439 L952.55299009798,312.6680356429762 M987.3897644359608,302.0995760123527 L952.55299009798,312.6680356429762 M1534.4826925401985,52.14202229414519 L1490.668429808041,977.1552887609066 M1473.261508735443,70.09795609162927 L1534.4826925401985,52.14202229414519 M1464.6255596233193,261.713421044782 L1473.261508735443,70.09795609162927 M1433.8713828147906,271.4252663527384 L1464.6255596233193,261.713421044782 M1433.8713828147906,271.4252663527384 L1442.3124704852498,79.17518798065237 M949.099903832308,223.83250501573332 L1442.3124704852498,79.17518798065237 M943.9871083615226,426.1255635485074 L949.099903832308,223.83250501573332 M909.2975483397886,437.08016145010765 L943.9871083615226,426.1255635485074 M909.2975483397886,437.08016145010765 L914.1586480224303,234.08063870298764 M878.9426248012038,244.40936059748168 L914.1586480224303,234.08063870298764 M856.6130357994881,1232.1373506946409 L878.9426248012038,244.40936059748168 M1404.4964308101114,712.9754045090383 L1404.7664483431709,720.1224932855554 M1404.7664483431709,720.1224932855554 L1406.2008711440503,726.4146064617056 M1406.2008711440503,726.4146064617056 L1408.714351503672,731.4855758937439 M1408.714351503672,731.4855758937439 L1412.1585593154136,735.0418543741696 M1412.1585593154136,735.0418543741696 L1416.3314237308707,736.8793583518054 M1416.3314237308707,736.8793583518054 L1420.9892288893107,736.8945985942674 M1420.9892288893107,736.8945985942674 L1425.8611164226966,735.0900777087477 M1425.8611164226966,735.0900777087477 L1430.664793897649,731.5733060198106 M1430.664793897649,731.5733060198106 L1435.122820429775,726.549925811194 M1435.122820429775,726.549925811194 L1438.978258795436,720.3115931040893 M1438.978258795436,720.3115931040893 L1442.0091977974464,713.2189016204638 M1442.0091977974464,713.2189016204638 L1444.0410611360596,705.6810713846317 M1444.0410611360596,705.6810713846317 L1444.9565062691843,698.1327137835633 M1444.9565062691843,698.1327137835633 L1444.7019704664344,691.009435250585 M1444.7019704664344,691.009435250585 L1443.2909563604574,684.7231782812705 M1443.2909563604574,684.7231782812705 L1440.8034492039592,679.6387693995363 M1440.8034492039592,679.6387693995363 L1437.3818287748081,676.0528349036504 M1437.3818287748081,676.0528349036504 L1433.2229916578924,674.1762519243721 M1433.2229916578924,674.1762519243721 L1428.5674401707436,674.1214623302585 M1428.5674401707436,674.1214623302585 L1423.6855163848388,675.8950235548339 M1423.6855163848388,675.8950235548339 L1418.8618119004068,679.3965178812009 M1418.8618119004068,679.3965178812009 L1414.3783554487843,684.4238029947021 M1414.3783554487843,684.4238029947021 L1410.4979100211099,690.684328139743 M1410.4979100211099,690.684328139743 L1407.448115520849,697.8124158674706 M1407.448115520849,697.8124158674706 L1405.4078681181938,705.3907371376206 M1405.4078681181938,705.3907371376206 L1404.4964308101114,712.9754045090383 M1322.3992595149746,743.0925733265476 L1322.7014719717447,750.2980917903403 M1322.7014719717447,750.2980917903403 L1324.1891982218126,756.636678548274 M1324.1891982218126,756.636678548274 L1326.773890737124,761.7394783246093 M1326.773890737124,761.7394783246093 L1330.3030551019963,765.3111101888919 M1330.3030551019963,765.3111101888919 L1334.569605147288,767.1466634667659 M1334.569605147288,767.1466634667659 L1339.3243658669385,767.1428237281829 M1339.3243658669385,767.1428237281829 L1344.290851795504,765.3032641069229 M1344.290851795504,765.3032641069229 L1349.1813088395634,761.7375751959199 M1349.1813088395634,761.7375751959199 L1353.7133104390487,756.6542579186075 M1353.7133104390487,756.6542579186075 L1357.6256949077751,750.3484333577728 M1357.6256949077751,750.3484333577728 L1360.6932710874269,743.1845846903179 M1360.6932710874269,743.1845846903179 L1362.7394092928982,735.5759926076792 M1362.7394092928982,735.5759926076792 L1363.6459083019765,727.9613298856639 M1363.6459083019765,727.9613298856639 L1363.359741584737,720.7799880766736 M1363.359741584737,720.7799880766736 L1361.8961641406977,714.4472667934317 M1361.8961641406977,714.4472667934317 L1359.3381911969057,709.3306777722552 M1359.3381911969057,709.3306777722552 L1355.8321960988017,705.7287609385055 M1355.8321960988017,705.7287609385055 L1351.579957297708,703.8533648134108 M1351.579957297708,703.8533648134108 L1346.8273712646123,703.8169313837925 M1346.8273712646123,703.8169313837925 L1341.850425261313,705.625013368551 M1341.850425261313,705.625013368551 L1336.9392696394432,709.1752314467678 M1336.9392696394432,709.1752314467678 L1332.3810726507222,714.2626289896882 M1332.3810726507222,714.2626289896882 L1328.442997025647,720.5911499898839 M1328.442997025647,720.5911499898839 L1325.356119580915,727.7911121318515 M1325.356119580915,727.7911121318515 L1323.301491668634,735.4409613699236 M1323.301491668634,735.4409613699236 L1322.3992595149746,743.0925733265476 M1238.6943100794194,773.7995520596999 L1239.0299477501974,781.0644239436012 M1239.0299477501974,781.0644239436012 L1240.5727843214297,787.4501127640815 M1240.5727843214297,787.4501127640815 L1243.2310178199261,792.5850203484945 M1243.2310178199261,792.5850203484945 L1246.8478084957023,796.1719329628917 M1246.8478084957023,796.1719329628917 L1251.2109213331657,798.0051101193962 M1251.2109213331657,798.0051101193962 L1256.0655643345572,797.9814350957365 M1256.0655643345572,797.9814350957365 L1261.1294208851748,796.1058099208437 M1261.1294208851748,796.1058099208437 L1266.1091552495059,792.489951584133 M1266.1091552495059,792.489951584133 L1270.7171779977843,787.3453053764206 M1270.7171779977843,787.3453053764206 L1274.6879967784973,780.9705338874795 M1274.6879967784973,780.9705338874795 L1277.7930794347876,773.7340842779191 M1277.7930794347876,773.7340842779191 L1279.8536508454133,766.0533957492557 M1279.8536508454133,766.0533957492557 L1280.7506945400362,758.3712588472451 M1280.7506945400362,758.3712588472451 L1280.4316911829414,751.1309378747396 M1280.4316911829414,751.1309378747396 L1278.9137736635537,744.7511210355283 M1278.9137736635537,744.7511210355283 L1276.2830353216782,739.6020614081559 M1276.2830353216782,739.6020614081559 L1272.6900171176821,735.9842148609404 M1272.6900171176821,735.9842148609404 L1268.3415081586043,734.1104084322401 M1268.3415081586043,734.1104084322401 L1263.488954884056,734.0930664264644 M1263.488954884056,734.0930664264644 L1258.4141951769245,735.936683294592 M1258.4141951769245,735.936683294592 L1253.413062454263,739.5368746567938 M1253.413062454263,739.5368746567938 L1248.7780482724802,744.6857846352302 M1248.7780482724802,744.6857846352302 L1244.7808282979404,751.0837735805553 M1244.7808282979404,751.0837735805553 L1241.6559830406538,758.3570758643409 M1241.6559830406538,758.3570758643409 L1239.5868150252327,766.0798095745378 M1239.5868150252327,766.0798095745378 L1238.6943100794194,773.7995520596999 M1153.3338857477338,805.1138381596386 L1153.704212839296,812.4390155494493 M1153.704212839296,812.4390155494493 L1155.3040635816683,818.8724375759407 M1155.3040635816683,818.8724375759407 L1158.0382562107716,824.0397311644674 M1158.0382562107716,824.0397311644674 L1161.745459881382,827.6418357555533 M1161.745459881382,827.6418357555533 L1166.2081418994471,829.4721824682085 M1166.2081418994471,829.4721824682085 L1171.1656857686985,829.4278925519702 M1171.1656857686985,829.4278925519702 L1176.3298202939989,827.5151249556991 M1176.3298202939989,827.5151249556991 L1181.4014033086864,823.8478080752308 M1181.4014033086864,823.8478080752308 L1186.0875844607117,818.640388595146 M1186.0875844607117,818.640388595146 L1190.1183879723799,812.1951654004288 M1190.1183879723799,812.1951654004288 L1193.2618671497999,804.8846302942677 M1193.2618671497999,804.8846302942677 L1195.3370535825484,797.1304644180138 M1195.3370535825484,797.1304644180138 L1196.22408665732,789.3796611955242 M1196.22408665732,789.3796611955242 L1195.87100888271,782.0794168387279 M1195.87100888271,782.0794168387279 L1194.2968772567363,775.6518709462828 M1194.2968772567363,775.6518709462828 L1191.5909878996154,770.4700482466205 M1191.5909878996154,770.4700482466205 L1187.908182923562,766.8363396110292 M1187.908182923562,766.8363396110292 L1183.4604064842747,764.9645536300026 M1183.4604064842747,764.9645536300026 L1178.5048597407265,764.9670625111686 M1178.5048597407265,764.9670625111686 L1173.3293586272491,766.8472778719885 M1173.3293586272491,766.8472778719885 L1168.2356491929513,770.4987286442419 M1168.2356491929513,770.4987286442419 L1163.5216483828817,775.7106039274717 M1163.5216483828817,775.7106039274717 L1159.463705732202,782.1795835959929 M1159.463705732202,782.1795835959929 L1156.2999844918104,789.5277341671432 M1156.2999844918104,789.5277341671432 L1154.216095147797,797.3247552915868 M1154.216095147797,797.3247552915868 L1153.3338857477338,805.1138381596386 M1066.2683842758406,837.0536281017736 L1066.6747211191844,844.4400849013197 M1066.6747211191844,844.4400849013197 L1068.3335715267149,850.9218811079776 M1068.3335715267149,850.9218811079776 L1071.146235136743,856.1218393562187 M1071.146235136743,856.1218393562187 L1074.9467616004033,859.7390298037599 M1074.9467616004033,859.7390298037599 L1079.512134461557,861.5660687690497 M1079.512134461557,861.5660687690497 L1084.5757352484543,861.5003435515317 M1084.5757352484543,861.5003435515317 L1089.8431560677282,859.5493192686304 M1089.8431560677282,859.5493192686304 L1095.0092719872264,855.8292028575065 M1095.0092719872264,855.8292028575065 L1099.775824034526,850.5575184358904 M1099.775824034526,850.5575184358904 L1103.868230712411,844.040285844945 M1103.868230712411,844.040285844945 L1107.0510256139169,836.6541354720443 M1107.0510256139169,836.6541354720443 L1109.1410050269874,828.825073603537 M1109.1410050269874,828.825073603537 L1110.0174468166863,821.004379615322 M1110.0174468166863,821.004379615322 L1109.6289998144184,813.6432468701088 M1109.6289998144184,813.6432468701088 L1107.996706130546,807.1673261150078 M1107.996706130546,807.1673261150078 L1105.2131821918028,801.9524489074131 M1105.2131821918028,801.9524489074131 L1101.437702869944,798.3029628938658 M1101.437702869944,798.3029628938658 L1096.8875467157727,796.4336501991238 M1096.8875467157727,796.4336501991238 L1091.8258462379122,796.4568079629319 M1091.8258462379122,796.4568079629319 L1086.5465739773576,798.3747224953814 M1086.5465739773576,798.3747224953814 L1081.3575698655693,802.0787720366386 M1081.3575698655693,802.0787720366386 L1076.5623361693583,807.3551133214381 M1076.5623361693583,807.3551133214381 L1072.442025000344,813.8966594874928 M1072.442025000344,813.8966594874928 L1069.2384954918869,821.3212105611532 M1069.2384954918869,821.3212105611532 L1067.139701383623,829.1939629110614 M1067.139701383623,829.1939629110614 L1066.2683842758406,837.0536281017736 M977.4462018158633,869.6378526455152 L977.8899492558128,877.0865773216949 M977.8899492558128,877.0865773216949 L979.6098493811853,883.6174064024477 M979.6098493811853,883.6174064024477 L982.5036208545041,888.8502982716768 M982.5036208545041,888.8502982716768 L986.4004829173175,892.4824596641636 M986.4004829173175,892.4824596641636 L991.0717945563438,894.3056873190633 M991.0717945563438,894.3056873190633 L996.2447425835499,894.2176671781971 M996.2447425835499,894.2176671781971 L1001.6185742467972,892.2272288921849 M1001.6185742467972,892.2272288921849 L1006.8820235980188,888.4529184517393 M1006.8820235980188,888.4529184517393 L1011.7312430548288,883.1154260608447 M1011.7312430548288,883.1154260608447 L1015.8869125031101,876.5245822711834 M1015.8869125031101,876.5245822711834 L1019.1099873367623,869.0612344066055 M1019.1099873367623,869.0612344066055 L1021.2149247808297,861.1558219071628 M1021.2149247808297,861.1558219071628 L1022.0801843443712,853.2639731853287 M1022.0801843443712,853.2639731853287 L1021.654996697039,845.8409717558814 M1021.654996697039,845.8409717558814 L1019.9625239014267,839.3160146651189 M1019.9625239014267,839.3160146651189 L1017.0987642470316,834.0677982960457 M1017.0987642470316,834.0677982960457 L1013.2276229450433,830.4026268835262 M1013.2276229450433,830.4026268835262 L1008.5718489663655,828.5362655970341 M1008.5718489663655,828.5362655970341 L1003.4006959465075,828.5809099996937 M1003.4006959465075,828.5809099996937 L998.0145054065524,830.537667030072 M998.0145054065524,830.537667030072 L992.7273745395792,834.2957068024745 M992.7273745395792,834.2957068024745 L987.8485759589707,839.6380666578048 M987.8485759589707,839.6380666578048 L983.6642060896977,846.253800790556 M983.6642060896977,846.253800790556 L980.4198843421425,853.7563601247061 M980.4198843421425,853.7563601247061 L978.3060212592015,861.7063221522401 M978.3060212592015,861.7063221522401 L977.4462018158633,869.6378526455152 M1574.0967984015992,61.08714297252624 L1534.4826925401985,52.14202229414519 M919.0965019105874,254.81962503324786 L878.9426248012038,244.40936059748168 M1486.455913659844,73.11628401551195 L1473.261508735443,70.09795609162927 M1486.455913659844,73.11628401551195 L1455.5174955529758,82.21581875282607 M1455.5174955529758,82.21581875282607 L1442.3124704852498,79.17518798065237 M962.4364569747668,227.2396536287702 L949.099903832308,223.83250501573332 M962.4364569747668,227.2396536287702 L927.5018265290948,237.5145449363207 M927.5018265290948,237.5145449363207 L914.1586480224303,234.08063870298764 M1443.1634284259649,724.2013070426733 L1404.4964308101114,712.9754045090383 M1361.1429535627522,754.5376470605738 L1322.3992595149746,743.0925733265476 M1277.510282633432,785.470278774158 L1238.6943100794194,773.7995520596999 M1192.2174097998075,817.0169577674163 L1153.3338857477338,805.1138381596386 M1105.214404177539,849.1961516277074 L1066.2683842758406,837.0536281017736 M1016.4493123654527,882.0270759965614 L977.4462018158633,869.6378526455152 M1506.955452307671,207.65527295629244 L1480.6131880103937,201.3125585593341 M1480.6131880103937,201.3125585593341 L1449.8047888698402,210.8382752852433 M1449.8047888698402,210.8382752852433 L1476.1684151236955,217.2277130891254 M1452.654132755355,146.68486598410527 L1455.5174955529758,82.21581875282607 M1479.089623634399,152.93220299709606 L1452.654132755355,146.68486598410527 M1446.9693611937782,274.6783590220294 L1449.8047888698402,210.8382752852433 M1433.8713828147906,271.4252663527384 L1446.9693611937782,274.6783590220294 M1483.5274081387258,137.37114044945724 L1509.9413795056737,143.57268155300153 M1483.5274081387258,137.37114044945724 L1452.654132755355,146.68486598410527 M1486.455913659844,73.11628401551195 L1483.5274081387258,137.37114044945724 M1480.6131880103937,201.3125585593341 L1477.7131490019074,264.94282621612206 M1464.6255596233193,261.713421044782 L1477.7131490019074,264.94282621612206 M985.5749784387831,369.76516819283785 L958.9455797651699,362.60811431203587 M958.9455797651699,362.60811431203587 L924.1790454055238,373.35765557643913 M924.1790454055238,373.35765557643913 L950.8219448970012,380.5707332436439 M962.4364569747668,227.2396536287702 L960.6864847632025,295.0996871660956 M960.6864847632025,295.0996871660956 L987.3897644359608,302.0995760123527 M958.9455797651699,362.60811431203587 L957.2136716921912,429.76766069753216 M943.9871083615226,426.1255635485074 L957.2136716921912,429.76766069753216 M925.8361037885304,305.6132099182315 L927.5018265290948,237.5145449363207 M952.55299009798,312.6680356429762 L925.8361037885304,305.6132099182315 M922.5305839531686,440.75063848155605 L924.1790454055238,373.35765557643913 M909.2975483397886,437.08016145010765 L922.5305839531686,440.75063848155605 M960.6864847632025,295.0996871660956 L925.8361037885304,305.6132099182315 M1477.7131490019074,264.94282621612206 L1446.9693611937782,274.6783590220294 M957.2136716921912,429.76766069753216 L922.5305839531686,440.75063848155605" stroke="black"  stroke-width="4"  fill="red"/>
<path d="M1483.5835904988433,709.2513840842114 L-251.13777772246453,209.9179412060097 M1443.1634284259649,724.2013070426733 L-292.0343635743575,220.4342061393537 M1483.5835904988433,709.2513840842114 L1483.3419194258854,702.1064398181938 M1483.3419194258854,702.1064398181938 L1481.944205357164,695.8028300956047 M1481.944205357164,695.8028300956047 L1479.4696576393999,690.7063895147292 M1479.4696576393999,690.7063895147292 L1476.05989649942,687.1144544904091 M1476.05989649942,687.1144544904091 L1471.9111211789418,685.2382705884498 M1471.9111211789418,685.2382705884498 L1467.2632408783688,685.1902808325175 M1467.2632408783688,685.1902808325175 L1462.3861455281567,686.9766705562383 M1462.3861455281567,686.9766705562383 L1457.5641430861012,690.4962931009941 M1457.5641430861012,690.4962931009941 L1453.0791644123776,695.5459590767797 M1453.0791644123776,695.5459590767797 L1449.1940659370935,701.8318113622913 M1449.1940659370935,701.8318113622913 L1446.1367655264382,708.9866847762785 M1446.1367655264382,708.9866847762785 L1444.086604123281,716.591670510579 M1444.086604123281,716.591670510579 L1443.1634284259649,724.2013070426733 M-251.13777772246453,209.9179412060097 L-251.85976941696492,203.77397341099493 M-251.85976941696492,203.77397341099493 L-253.72477386071944,198.28687855648337 M-253.72477386071944,198.28687855648337 L-256.62619377880185,193.77508581216296 M-256.62619377880185,193.77508581216296 L-260.39724563090977,190.50152977768929 M-260.39724563090977,190.50152977768929 L-264.82034189782814,188.65815423535992 M-264.82034189782814,188.65815423535992 L-269.6392810546922,188.35448935593544 M-269.6392810546922,188.35448935593544 L-274.57401609807357,189.6106123621164 M-274.57401609807357,189.6106123621164 L-279.3368511972435,192.3554828464874 M-279.3368511972435,192.3554828464874 L-283.649444098461,196.43063892318628 M-283.649444098461,196.43063892318628 L-287.25926578802444,201.59906410513523 M-287.25926578802444,201.59906410513523 L-289.95478322455256,207.55916499335757 M-289.95478322455256,207.55916499335757 L-291.5780655963714,213.96241393997047 M-291.5780655963714,213.96241393997047 L-292.0343635743575,220.4342061393537 M1443.1634284259649,724.2013070426733 L1443.4205701097299,731.3701980226808 M1443.4205701097299,731.3701980226808 L1444.841728823513,737.6796677636752 M1444.841728823513,737.6796677636752 L1447.3423245287634,742.7625391744899 M1447.3423245287634,742.7625391744899 L1450.7747695370995,746.3245846509458 M1450.7747695370995,746.3245846509458 L1454.937668240887,748.1614057040119 M1454.937668240887,748.1614057040119 L1459.587875884595,748.1695769723706 M1459.587875884595,748.1695769723706 L1464.4549693641352,746.3520348167999 M1464.4549693641352,746.3520348167999 L1469.2569320114403,742.8170626659639 M1469.2569320114403,742.8170626659639 L1473.7164237415316,737.7713664305081 M1473.7164237415316,737.7713664305081 L1477.576426955839,731.5078936436612 M1477.576426955839,731.5078936436612 L1480.6147726994093,724.3886829086855 M1480.6147726994093,724.3886829086855 L1482.656462619457,716.8244729787516 M1482.656462619457,716.8244729787516 L1483.5835904988433,709.2513840842114 M-292.0343635743575,220.4342061393537 L-291.2976061456095,226.5961414167703 M-291.2976061456095,226.5961414167703 L-289.41190468524803,232.08857409022923 M-289.41190468524803,232.08857409022923 L-286.48859773475965,236.59185212634713 M-286.48859773475965,236.59185212634713 L-282.6994830415655,239.8449917208802 M-282.6994830415655,239.8449917208802 L-278.26628592868997,241.66072608210504 M-278.26628592868997,241.66072608210504 L-273.4475219548789,241.9358573936827 M-273.4475219548789,241.9358573936827 L-268.52319800458895,240.65684497110607 M-268.52319800458895,240.65684497110607 L-263.7786248472896,237.8999729987629 M-263.7786248472896,237.8999729987629 L-259.4879612169425,233.82645281780276 M-259.4879612169425,233.82645281780276 L-255.89871233846782,228.67292601620596 M-255.89871233846782,228.67292601620596 L-253.21769836343458,222.7375731565446 M-253.21769836343458,222.7375731565446 L-251.59952729220151,216.36325232039434 M-251.59952729220151,216.36325232039434 L-251.13777772246453,209.9179412060097" stroke="black"  stroke-width="4"  fill="red"/>
<path d="M1402.3517877857948,739.2960234438319 L-333.2627675670368,231.0357957374712 M1361.1429535627522,754.5376470605738 L-374.82704450466645,241.7237526642903 M1402.3517877857948,739.2960234438319 L1402.0785238562048,732.0926728314663 M1402.0785238562048,732.0926728314663 L1400.628222209981,725.742365289871 M1400.628222209981,725.742365289871 L1398.0831231871157,720.6136341821834 M1398.0831231871157,720.6136341821834 L1394.5888451782203,717.0057364682552 M1394.5888451782203,717.0057364682552 L1390.3464771515107,715.1308885145838 M1390.3464771515107,715.1308885145838 L1385.60133331664,715.1015255411878 M1385.60133331664,715.1015255411878 L1380.6289620270306,716.9228130774047 M1380.6289620270306,716.9228130774047 L1375.7192448628243,720.4916213582833 M1375.7192448628243,720.4916213582833 L1371.1592678177635,725.6019199241687 M1371.1592678177635,725.6019199241687 L1367.216302455425,731.9563159408023 M1367.216302455425,731.9563159408023 L1364.1217176935002,739.1836069066944 M1364.1217176935002,739.1836069066944 L1362.0570217256231,746.8606268409658 M1362.0570217256231,746.8606268409658 L1361.1429535627522,754.5376470605738 M-333.2627675670368,231.0357957374712 L-334.01539007895985,224.84833298208386 M-334.01539007895985,224.84833298208386 L-335.9285972958555,219.32516727019558 M-335.9285972958555,219.32516727019558 L-338.8929981370991,214.78681102658908 M-338.8929981370991,214.78681102658908 L-342.7382324288891,211.4977679852053 M-342.7382324288891,211.4977679852053 L-347.24240693344404,209.65090483117 M-347.24240693344404,209.65090483117 L-352.1446326490516,209.35599589269114 M-352.1446326490516,209.35599589269114 L-357.1600151593476,210.63264748605903 M-357.1600151593476,210.63264748605903 L-361.9961430035554,213.40865467088128 M-361.9961430035554,213.40865467088128 L-366.37037191637614,217.52375879886768 M-366.37037191637614,217.52375879886768 L-370.02655329302934,222.73861748105486 M-370.02655329302934,222.73861748105486 L-372.7503897787569,228.748907782983 M-372.7503897787569,228.748907782983 L-374.38231825845264,235.20315901078538 M-374.38231825845264,235.20315901078538 L-374.82704450466645,241.7237526642903 M1361.1429535627522,754.5376470605738 L1361.432254663454,761.7653137448683 M1361.432254663454,761.7653137448683 L1362.906745237932,768.1214895361736 M1362.906745237932,768.1214895361736 L1365.4786434530063,773.2362968981972 M1365.4786434530063,773.2362968981972 L1368.9961916079826,776.8136686791444 M1368.9961916079826,776.8136686791444 L1373.2529699073318,778.648381560392 M1373.2529699073318,778.648381560392 L1378.000362920283,778.6371948235926 M1378.000362920283,778.6371948235926 L1382.9623070249088,776.7842321423425 M1382.9623070249088,776.7842321423425 L1387.8513093639503,773.1998798013504 M1387.8513093639503,773.1998798013504 L1392.3850293566468,768.0937293319596 M1392.3850293566468,768.0937293319596 L1396.3022106103795,761.7622231039225 M1396.3022106103795,761.7622231039225 L1399.3773911601336,754.5713201884014 M1399.3773911601336,754.5713201884014 L1401.4335080638991,746.9358503082672 M1401.4335080638991,746.9358503082672 L1402.3517877857948,739.2960234438319 M-374.82704450466645,241.7237526642903 L-374.05922768868527,247.9294280429021 M-374.05922768868527,247.9294280429021 L-372.1247823467829,253.4579664555094 M-372.1247823467829,253.4579664555094 L-369.13796503215644,257.9876247550785 M-369.13796503215644,257.9876247550785 L-365.27427121634867,261.2558918246431 M-365.27427121634867,261.2558918246431 L-360.7598229394798,263.0746604588152 M-360.7598229394798,263.0746604588152 L-355.8578628071307,263.34059249292295 M-355.8578628071307,263.34059249292295 L-350.85322440816526,262.0407197088825 M-350.85322440816526,262.0407197088825 L-346.0358578518096,259.2525668309093 M-346.0358578518096,259.2525668309093 L-341.68410949145596,255.13917499996074 M-341.68410949145596,255.13917499996074 L-338.04897792446945,249.93949418657533 M-338.04897792446945,249.93949418657533 L-335.33993813595407,243.95437050696148 M-335.33993813595407,243.95437050696148 L-333.71316353634177,237.52950915839517 M-333.71316353634177,237.52950915839517 L-333.2627675670368,231.0357957374712" stroke="black"  stroke-width="4"  fill="red"/>
<path d="M1319.5310989561099,769.9283330109758 L-416.73131552767575,252.49913664163543 M1277.510282633432,785.470278774158 L-458.9797694748984,263.3630247994929 M1319.5310989561099,769.9283330109758 L1319.2250312800124,762.6656524237701 M1319.2250312800124,762.6656524237701 L1317.7203561815363,756.2680119926512 M1317.7203561815363,756.2680119926512 L1315.1023936896427,751.1067003443724 M1315.1023936896427,751.1067003443724 L1311.5209350680798,747.482897179283 M1311.5209350680798,747.482897179283 L1307.1820886941798,745.6097966108356 M1307.1820886941798,745.6097966108356 L1302.3367305963413,745.5998078113448 M1302.3367305963413,745.5998078113448 L1297.266274001799,747.457022178636 M1297.266274001799,747.457022178636 L1292.2662995131573,751.0762826400655 M1292.2662995131573,751.0762826400655 L1287.629233002035,756.2486316555852 M1287.629233002035,756.2486316555852 L1283.6268752343888,762.6730612640421 M1283.6268752343888,762.6730612640421 L1280.4941136674083,769.9742522023369 M1280.4941136674083,769.9742522023369 L1278.414720151479,777.724677342253 M1278.414720151479,777.724677342253 L1277.510282633432,785.470278774158 M-416.73131552767575,252.49913664163543 L-417.5154937494556,246.26757605755228 M-417.5154937494556,246.26757605755228 L-419.47822329555765,240.70788501070848 M-419.47822329555765,240.70788501070848 L-422.5072972229333,236.1426992258758 M-422.5072972229333,236.1426992258758 L-426.42863851375864,232.8380964191216 M-426.42863851375864,232.8380964191216 L-431.01596101028883,230.98787723655533 M-431.01596101028883,230.98787723655533 L-436.0035784541609,230.70205605070691 M-436.0035784541609,230.70205605070691 L-441.1015916345074,231.9997410500741 M-441.1015916345074,231.9997410500741 L-446.0127968984568,234.80754415936974 M-446.0127968984568,234.80754415936974 L-450.4501080378393,238.963363018848 M-450.4501080378393,238.963363018848 L-454.15368133605284,244.22548707939467 M-454.15368133605284,244.22548707939467 L-456.9064175534461,250.28682092786448 M-456.9064175534461,250.28682092786448 L-458.54704314150786,256.79288909979203 M-458.54704314150786,256.79288909979203 L-458.9797694748984,263.3630247994929 M1277.510282633432,785.470278774158 L1277.8329788219926,792.7576527100143 M1277.8329788219926,792.7576527100143 L1279.3626175555153,799.1611667747802 M1279.3626175555153,799.1611667747802 L1282.008159957879,804.308186870471 M1282.008159957879,804.308186870471 L1285.613496559817,807.9008073919836 M1285.613496559817,807.9008073919836 L1289.967048905406,809.7329777523696 M1289.967048905406,809.7329777523696 L1294.8145720202126,809.7016653008776 M1294.8145720202126,809.7016653008776 L1299.874156697005,807.812240230575 M1299.874156697005,807.812240230575 L1304.852712857808,804.1772385896943 M1304.852712857808,804.1772385896943 L1309.4627213316012,799.0092243333422 M1309.4627213316012,799.0092243333422 L1313.438579925743,792.6082120993792 M1313.438579925743,792.6082120993792 L1316.551471982278,785.3441568866849 M1316.551471982278,785.3441568866849 L1318.622177546694,777.6360782673123 M1318.622177546694,777.6360782673123 L1319.5310989561099,769.9283330109758 M-458.9797694748984,263.3630247994929 L-458.1799530174692,269.6130479524395 M-458.1799530174692,269.6130479524395 L-456.19542593140386,275.1781461899511 M-456.19542593140386,275.1781461899511 L-453.14338868556274,279.7344451221492 M-453.14338868556274,279.7344451221492 L-449.20317890692627,283.01790294330664 M-449.20317890692627,283.01790294330664 L-444.6054052467623,284.83956304833947 M-444.6054052467623,284.83956304833947 L-439.6181481992928,285.09595355701913 M-439.6181481992928,285.09595355701913 L-434.5312244078598,283.7747084911741 M-434.5312244078598,283.7747084911741 L-429.6392971564892,280.95461317065485 M-429.6392971564892,280.95461317065485 L-425.22503624877845,276.8005861511557 M-425.22503624877845,276.8005861511557 L-421.5430049731485,271.55392726702 M-421.5430049731485,271.55392726702 L-418.8053674104003,265.5181893164197 M-418.8053674104003,265.5181893164197 L-417.1699381877436,259.0419839182592 M-417.1699381877436,259.0419839182592 L-416.73131552767575,252.49913664163543" stroke="black"  stroke-width="4"  fill="red"/>
<path d="M1235.0744459026287,801.1657252362359 L-501.57666427941786,274.31651203494073 M1192.2174097998075,817.0169577674163 L-544.5263283990889,285.360711379999 M1235.0744459026287,801.1657252362359 L1234.734331061343,793.8427624429933 M1234.734331061343,793.8427624429933 L1233.1733986635556,787.3971518272649 M1233.1733986635556,787.3971518272649 L1230.480173622409,782.202967766076 M1230.480173622409,782.202967766076 L1226.8087543698691,778.5633317526069 M1226.8087543698691,778.5633317526069 L1222.3704140260188,776.6924184595655 M1222.3704140260188,776.6924184595655 L1217.4217962137902,776.7025760122617 M1217.4217962137902,776.7025760122617 L1212.250307626667,778.5967965277524 M1212.250307626667,778.5967965277524 L1207.1574585238232,782.267812943007 M1207.1574585238232,782.267812943007 L1202.441117834792,787.503683975779 M1202.441117834792,787.503683975779 L1198.3777773489426,793.9996885163007 M1198.3777773489426,793.9996885163007 L1195.2059228447342,801.3763049349333 M1195.2059228447342,801.3763049349333 L1193.111647096564,809.2015533384026 M1193.111647096564,809.2015533384026 L1192.2174097998075,817.0169577674163 M-501.57666427941786,274.31651203494073 L-502.393335401845,268.0402331221211 M-502.393335401845,268.0402331221211 L-504.406975177832,262.44356015974097 M-504.406975177832,262.44356015974097 L-507.50246318714846,257.85127397513315 M-507.50246318714846,257.85127397513315 L-511.50190846423584,254.53104315723795 M-511.50190846423584,254.53104315723795 L-516.1745313286021,252.67761076865736 M-516.1745313286021,252.67761076865736 L-521.24969205458,252.40121589205 M-521.24969205458,252.40121589205 L-526.4324104672737,253.72046237144795 M-526.4324104672737,253.72046237144795 L-531.4205110424052,256.56073417235183 M-531.4205110424052,256.56073417235183 L-535.9224102465307,260.7580595254791 M-535.9224102465307,260.7580595254791 L-539.6744478372606,266.0683052108034 M-539.6744478372606,266.0683052108034 L-542.45667408025,272.181556733715 M-542.45667408025,272.181556733715 L-544.1060673307791,278.74028144844885 M-544.1060673307791,278.74028144844885 L-544.5263283990889,285.360711379999 M1192.2174097998075,817.0169577674163 L1192.5747711555696,824.364999124947 M1192.5747711555696,824.364999124947 L1194.161472025681,830.8164863163142 M1194.161472025681,830.8164863163142 L1196.8830905410946,835.9959965014631 M1196.8830905410946,835.9959965014631 L1200.5790188763826,839.6037716772198 M1200.5790188763826,839.6037716772198 L1205.0323700848614,841.432935705298 M1205.0323700848614,841.432935705298 L1209.9830610873566,841.3807049349764 M1209.9830610873566,841.3807049349764 L1215.14321250239,839.4537247433332 M1215.14321250239,839.4537247433332 L1220.2139112137243,835.7667670433498 M1220.2139112137243,835.7667670433498 L1224.9023603774133,830.5354261318341 M1224.9023603774133,830.5354261318341 L1228.938458425391,824.0633848498277 M1228.938458425391,824.0633848498277 L1232.089959801385,816.7246757801911 M1232.089959801385,816.7246757801911 L1234.1754392476064,808.9425927259971 M1234.1754392476064,808.9425927259971 L1235.0744459026287,801.1657252362359 M-544.5263283990889,285.360711379999 L-543.6935584732345,291.6557076008162 M-543.6935584732345,291.6557076008162 L-541.6575445430374,297.2578222526477 M-541.6575445430374,297.2578222526477 L-538.5385263649877,301.84102632335527 M-538.5385263649877,301.84102632335527 L-534.5197901888005,305.139733125677 M-534.5197901888005,305.139733125677 L-529.8365341374407,306.96413022114916 M-529.8365341374407,306.96413022114916 L-524.761834528656,307.2106303367236 M-524.761834528656,307.2106303367236 L-519.5905636397954,305.86747749500785 M-519.5905636397954,305.86747749500785 L-514.6222745453786,303.01476438838057 M-514.6222745453786,303.01476438838057 L-510.1440144853177,298.81931366018233 M-510.1440144853177,298.81931366018233 L-506.41402766065676,293.52482872178575 M-506.41402766065676,293.52482872178575 L-503.64721294487765,287.43761392693455 M-503.64721294487765,287.43761392693455 L-502.0030565520267,280.9092358607775 M-502.0030565520267,280.9092358607775 L-501.57666427941786,274.31651203494073" stroke="black"  stroke-width="4"  fill="red"/>
<path d="M1148.932872089976,833.0263073313267 L-587.8331622827485,296.4967543786544 M1105.214404177539,849.1961516277074 L-631.5016398731611,307.7257914733319 M1148.932872089976,833.0263073313267 L1148.5574091419805,825.6420891007724 M1148.5574091419805,825.6420891007724 L1146.9382609215872,819.1478586561414 M1146.9382609215872,819.1478586561414 L1144.1672753339744,813.9205115150698 M1144.1672753339744,813.9205115150698 L1140.402990404359,810.2651327398271 M1140.402990404359,810.2651327398271 L1135.8620243234523,808.3968692251965 M1135.8620243234523,808.3968692251965 L1130.8069660665878,808.4279845569313 M1130.8069660665878,808.4279845569313 L1125.5313955420197,810.3603283589533 M1125.5313955420197,810.3603283589533 L1120.3429351060267,814.084458622167 M1120.3429351060267,814.084458622167 L1115.5450577926858,819.3853719049313 M1115.5450577926858,819.3853719049313 L1111.4190760981035,825.9545465499434 M1111.4190760981035,825.9545465499434 L1108.2071880139204,833.408158729399 M1108.2071880139204,833.408158729399 L1106.0978430493105,841.309689913804 M1106.0978430493105,841.309689913804 L1105.214404177539,849.1961516277074 M-587.8331622827485,296.4967543786544 L-588.6832996721866,290.17512443882487 M-588.6832996721866,290.17512443882487 L-590.7492803822634,284.5410036750253 M-590.7492803822634,284.5410036750253 L-593.9129819463983,279.921343305865 M-593.9129819463983,279.921343305865 L-597.9926064700479,276.585421768461 M-597.9926064700479,276.585421768461 L-602.752747697358,274.72892557706416 M-602.752747697358,274.72892557706416 L-607.9176874402681,274.4623117657928 M-607.9176874402681,274.4623117657928 L-613.1872397808797,275.80366157872663 M-613.1872397808797,275.80366157872663 L-618.2541292428184,278.67709936443225 M-618.2541292428184,278.67709936443225 L-622.8221638866473,282.91674377927404 M-622.8221638866473,282.91674377927404 L-626.6237801062061,288.2759926427345 M-626.6237801062061,288.2759926427345 L-629.4360964389978,294.44205658965154 M-629.4360964389978,294.44205658965154 L-631.0943278161681,301.05429800825186 M-631.0943278161681,301.05429800825186 L-631.5016398731611,307.7257914733319 M1105.214404177539,849.1961516277074 L1105.6077574141023,856.6058426194945 M1105.6077574141023,856.6058426194945 L1107.2535168161032,863.105947634615 M1107.2535168161032,863.105947634615 L1110.0537380669864,868.3182255514093 M1110.0537380669864,868.3182255514093 L1113.8431856742068,871.941043536473 M1113.8431856742068,871.941043536473 L1118.3994770747481,873.7667138969312 M1118.3994770747481,873.7667138969312 L1123.4565124485314,873.6927306620755 M1123.4565124485314,873.6927306620755 L1128.720258939389,871.7270644624048 M1128.720258939389,871.7270644624048 L1133.885802910814,867.9867912002685 M1133.885802910814,867.9867912002685 L1138.6549210990743,862.690612611764 M1138.6549210990743,862.690612611764 L1142.7528893717024,856.1459655023085 M1142.7528893717024,856.1459655023085 L1145.943927418398,848.7310551001017 M1145.943927418398,848.7310551001017 L1148.0443622020753,840.8735336146538 M1148.0443622020753,840.8735336146538 L1148.932872089976,833.0263073313267 M-631.5016398731611,307.7257914733319 L-630.6349280536431,314.0663989616898 M-630.6349280536431,314.0663989616898 L-628.5459724533257,319.7059942968518 M-628.5459724533257,319.7059942968518 L-625.3581588887791,324.3163722083993 M-625.3581588887791,324.3163722083993 L-621.2588089719392,327.63038078357005 M-621.2588089719392,327.63038078357005 L-616.4878477507107,329.45735345544426 M-616.4878477507107,329.45735345544426 L-611.3234721489246,329.6935967200335 M-611.3234721489246,329.6935967200335 L-606.0657388645443,328.3279866884432 M-606.0657388645443,328.3279866884432 L-601.0192157661581,325.44195682902307 M-601.0192157661581,325.44195682902307 L-596.4754291843365,321.2042732440291 M-596.4754291843365,321.2042732440291 L-592.696387804992,315.861088754797 M-592.696387804992,315.861088754797 L-589.8998013417618,309.7215128322099 M-589.8998013417618,309.7215128322099 L-588.2468513830667,303.1401148666738 M-588.2468513830667,303.1401148666738 L-587.8331622827485,296.4967543786544" stroke="black"  stroke-width="4"  fill="red"/>
<path d="M1061.0554479234158,865.5289162696436 L-675.5363101477701,319.0489924010884 M1016.4493123654527,882.0270759965614 L-719.9417986983758,330.46754659981565 M1061.0554479234158,865.5289162696436 L1060.6432588011478,858.0824539022115 M1060.6432588011478,858.0824539022115 L1058.9638663158642,851.538938263762 M1058.9638663158642,851.538938263762 L1056.112503588232,846.2781443895933 M1056.112503588232,846.2781443895933 L1052.252346651583,842.6071205528315 M1052.252346651583,842.6071205528315 L1047.6054958776654,840.7419951774366 M1047.6054958776654,840.7419951774366 L1042.4406765701597,840.7949202316447 M1042.4406765701597,840.7949202316447 L1037.0578554791307,842.766547930337 M1037.0578554791307,842.766547930337 L1031.7709317202527,846.5452029524279 M1031.7709317202527,846.5452029524279 L1026.8891686281072,851.9127314889794 M1026.8891686281072,851.9127314889794 L1022.6988421706976,858.5567179149909 M1022.6988421706976,858.5567179149909 L1019.4459277763949,866.0889524911713 M1019.4459277763949,866.0889524911713 L1017.3213457315608,874.0682611747056 M1017.3213457315608,874.0682611747056 L1016.4493123654527,882.0270759965614 M-675.5363101477701,319.0489924010884 L-676.4209413896126,312.6813704457736 M-676.4209413896126,312.6813704457736 L-678.5407297720908,307.00932426738643 M-678.5407297720908,307.00932426738643 L-681.7745198410166,302.3620167410232 M-681.7745198410166,302.3620167410232 L-685.9364503625566,299.01033999031796 M-685.9364503625566,299.01033999031796 L-690.7864014563108,297.1509376511491 M-690.7864014563108,297.1509376511491 L-696.0434413416563,296.89447599334403 M-696.0434413416563,296.89447599334403 L-701.4020229348464,298.25848795356717 M-701.4020229348464,298.25848795356717 L-706.5496635060372,301.1658119283623 M-706.5496635060372,301.1658119283623 L-711.1854293370916,305.4486108644157 M-711.1854293370916,305.4486108644157 L-715.0377558424079,310.85776396319363 M-715.0377558424079,310.85776396319363 L-717.8807988294404,317.0775631431485 M-717.8807988294404,317.0775631431485 L-719.5479173747408,323.74419721040346 M-719.5479173747408,323.74419721040346 L-719.9417986983758,330.46754659981565 M1016.4493123654527,882.0270759965614 L1016.8800652472626,889.4994135691368 M1016.8800652472626,889.4994135691368 L1018.5869449798668,896.0487988917687 M1018.5869449798668,896.0487988917687 L1021.4684216686585,901.2941122245538 M1021.4684216686585,901.2941122245538 L1025.3544203327792,904.9318520142729 M1025.3544203327792,904.9318520142729 L1030.0169208478428,906.7535145191468 M1030.0169208478428,906.7535145191468 L1035.183612681252,906.6569047006335 M1035.183612681252,906.6569047006335 L1040.554100093522,904.6513777246684 M1040.554100093522,904.6513777246684 L1045.8173094406106,900.8563749645377 M1045.8173094406106,900.8563749645377 L1050.6694099540855,895.4937954317045 M1050.6694099540855,895.4937954317045 L1054.8309210959062,888.8749208170428 M1054.8309210959062,888.8749208170428 L1058.0624685626067,881.3822083745858 M1058.0624685626067,881.3822083745858 L1060.1780273311779,873.4477779072497 M1060.1780273311779,873.4477779072497 L1061.0554479234158,865.5289162696436 M-719.9417986983758,330.46754659981565 L-719.0400991779634,336.8544113237449 M-719.0400991779634,336.8544113237449 L-716.8967164425342,342.53196490079597 M-716.8967164425342,342.53196490079597 L-713.6382109359402,347.16978274277284 M-713.6382109359402,347.16978274277284 L-709.4561060681267,350.49914689594914 M-709.4561060681267,350.49914689594914 L-704.5951432193781,352.32852508466704 M-704.5951432193781,352.32852508466704 L-699.3387768863695,352.5541293073396 M-699.3387768863695,352.5541293073396 L-693.9923998694471,351.16549551934133 M-693.9923998694471,351.16549551934133 L-688.8656989729661,348.24542598284626 M-688.8656989729661,348.24542598284626 L-684.2548109698735,343.96467767403584 M-684.2548109698735,343.96467767403584 L-680.4256011718296,338.5719014745147 M-680.4256011718296,338.5719014745147 L-677.5986181117678,332.3790539372104 M-677.5986181117678,332.3790539372104 L-675.9368233000832,325.7437718548283 M-675.9368233000832,325.7437718548283 L-675.5363101477701,319.0489924010884" stroke="black"  stroke-width="4"  fill="red"/>
<path d="M-1106.5507340421473,-238.43074149822564 L-1109.5448282257623,-295.49465417418537 M1124.191003160546,348.6065577656409 L1126.4737732360597,277.5553391652765 M-1106.5507340421473,-238.43074149822564 L1124.191003160546,348.6065577656409 M-1109.5448282257623,-295.49465417418537 L1126.4737732360597,277.5553391652765 M1905.522873702926,103.71149386429767 L1909.5448282257623,38.413879258241366 M1124.191003160546,348.6065577656409 L1905.522873702926,103.71149386429767 M1126.4737732360597,277.5553391652765 L1909.5448282257623,38.413879258241366 M-320.8977591557134,-392.62431600864716 L-322.1120916550726,-445.90315441802545 M1905.522873702926,103.71149386429767 L-320.8977591557134,-392.62431600864716 M1909.5448282257623,38.413879258241366 L-322.1120916550726,-445.90315441802545 M-320.8977591557134,-392.62431600864716 L-1106.5507340421473,-238.43074149822564 M-322.1120916550726,-445.90315441802545 L-1109.5448282257623,-295.49465417418537" stroke="black"  stroke-width="4"  fill="red"/>
<path d="M985.5749784387831,369.76516819283785 L987.3897644359608,302.0995760123527 M987.3897644359608,302.0995760123527 L952.55299009798,312.6680356429762 M950.8219448970012,380.5707332436439 L952.55299009798,312.6680356429762 M985.5749784387831,369.76516819283785 L950.8219448970012,380.5707332436439 M-762.2395612947364,-43.704968675679766 L-764.5045111154632,-100.59517887864268 M-764.5045111154632,-100.59517887864268 L-782.8461635852709,-105.52477554728347 M-785.1555241867964,-162.54821809264195 L-782.8461635852709,-105.52477554728347 M-785.1555241867964,-162.54821809264195 L-766.7792447367115,-157.73113512999817 M-766.7792447367115,-157.73113512999817 L-769.0638256896536,-215.11443318330794 M962.4364569747668,227.2396536287702 L-769.0638256896536,-215.11443318330794 M962.4364569747668,227.2396536287702 L960.6864847632025,295.0996871660956 M960.6864847632025,295.0996871660956 L987.3897644359608,302.0995760123527 M985.5749784387831,369.76516819283785 L958.9455797651699,362.60811431203587 M958.9455797651699,362.60811431203587 L957.2136716921912,429.76766069753216 M-762.2395612947364,-43.704968675679766 L957.2136716921912,429.76766069753216 M952.55299009798,312.6680356429762 L925.8361037885304,305.6132099182315 M960.6864847632025,295.0996871660956 L925.8361037885304,305.6132099182315 M-819.7152736294163,-155.3147821627913 L-817.3238768027672,-98.12240385068367 M-801.3541519913954,-150.46636862512287 L-819.7152736294163,-155.3147821627913 M-803.7212558079295,-208.02080713570763 L-801.3541519913954,-150.46636862512287 M927.5018265290948,237.5145449363207 L-803.7212558079295,-208.02080713570763 M925.8361037885304,305.6132099182315 L927.5018265290948,237.5145449363207 M924.1790454055238,373.35765557643913 L950.8219448970012,380.5707332436439 M922.5305839531686,440.75063848155605 L924.1790454055238,373.35765557643913 M-796.6505864789297,-36.10253287917175 L922.5305839531686,440.75063848155605 M-798.9972842994734,-93.16081417296266 L-796.6505864789297,-36.10253287917175 M-817.3238768027672,-98.12240385068367 L-798.9972842994734,-93.16081417296266 M958.9455797651699,362.60811431203587 L924.1790454055238,373.35765557643913 M-764.5045111154632,-100.59517887864268 L-798.9972842994734,-93.16081417296266 M-762.2395612947364,-43.704968675679766 L-796.6505864789297,-36.10253287917175 M-782.8461635852709,-105.52477554728347 L-817.3238768027672,-98.12240385068367 M-785.1555241867964,-162.54821809264195 L-819.7152736294163,-155.3147821627913 M-766.7792447367115,-157.73113512999817 L-801.3541519913954,-150.46636862512287 M-769.0638256896536,-215.11443318330794 L-803.7212558079295,-208.02080713570763 M962.4364569747668,227.2396536287702 L927.5018265290948,237.5145449363207 M957.2136716921912,429.76766069753216 L922.5305839531686,440.75063848155605" stroke="black"  stroke-width="4"  fill="red"/>
<path d="M1506.955452307671,207.65527295629244 L1509.9413795056737,143.57268155300153 M1509.9413795056737,143.57268155300153 L1479.089623634399,152.93220299709606 M1476.1684151236955,217.2277130891254 L1479.089623634399,152.93220299709606 M1506.955452307671,207.65527295629244 L1476.1684151236955,217.2277130891254 M-240.3741977651256,-159.00080480431507 L-241.4583603743215,-213.3293977762478 M-241.4583603743215,-213.3293977762478 L-259.9694330720756,-217.78651072516482 M-261.0937498519826,-272.2355662092309 L-259.9694330720756,-217.78651072516482 M-261.0937498519826,-272.2355662092309 L-242.546975396697,-267.8811061197291 M-242.546975396697,-267.8811061197291 L-243.64007031628387,-322.65730709013815 M1486.455913659844,73.11628401551195 L-243.64007031628387,-322.65730709013815 M1486.455913659844,73.11628401551195 L1483.5274081387258,137.37114044945724 M1483.5274081387258,137.37114044945724 L1509.9413795056737,143.57268155300153 M1506.955452307671,207.65527295629244 L1480.6131880103937,201.3125585593341 M1480.6131880103937,201.3125585593341 L1477.7131490019074,264.94282621612206 M-240.3741977651256,-159.00080480431507 L1477.7131490019074,264.94282621612206 M1479.089623634399,152.93220299709606 L1452.654132755355,146.68486598410527 M1483.5274081387258,137.37114044945724 L1452.654132755355,146.68486598410527 M-292.3327867599162,-265.69716313547747 L-291.14093046805465,-211.09398420494517 M-273.7930542721381,-261.31578215368313 L-292.3327867599162,-265.69716313547747 M-274.95402477739026,-316.24801816535046 L-273.7930542721381,-261.31578215368313 M1455.5174955529758,82.21581875282607 L-274.95402477739026,-316.24801816535046 M1452.654132755355,146.68486598410527 L1455.5174955529758,82.21581875282607 M1449.8047888698402,210.8382752852433 L1476.1684151236955,217.2277130891254 M1446.9693611937782,274.6783590220294 L1449.8047888698402,210.8382752852433 M-271.48540212939076,-152.1273991889541 L1446.9693611937782,274.6783590220294 M-272.6368565130533,-206.60937239489022 L-271.48540212939076,-152.1273991889541 M-291.14093046805465,-211.09398420494517 L-272.6368565130533,-206.60937239489022 M1480.6131880103937,201.3125585593341 L1449.8047888698402,210.8382752852433 M-241.4583603743215,-213.3293977762478 L-272.6368565130533,-206.60937239489022 M-240.3741977651256,-159.00080480431507 L-271.48540212939076,-152.1273991889541 M-259.9694330720756,-217.78651072516482 L-291.14093046805465,-211.09398420494517 M-261.0937498519826,-272.2355662092309 L-292.3327867599162,-265.69716313547747 M-242.546975396697,-267.8811061197291 L-273.7930542721381,-261.31578215368313 M-243.64007031628387,-322.65730709013815 L-274.95402477739026,-316.24801816535046 M1486.455913659844,73.11628401551195 L1455.5174955529758,82.21581875282607 M1477.7131490019074,264.94282621612206 L1446.9693611937782,274.6783590220294" stroke="black"  stroke-width="4"  fill="red"/></svg>